M48
; DRILL file {KiCad 5.1.10} date Sun Dec  5 17:02:28 2021
; FORMAT={-:-/ absolute / metric / decimal}
; #@! TF.CreationDate,2021-12-05T17:02:28-05:00
; #@! TF.GenerationSoftware,Kicad,Pcbnew,5.1.10
; #@! TF.FileFunction,Plated,1,2,PTH
FMAT,2
METRIC
T1C0.400
%
G90
G05
T1
X192.5Y-85.0
X192.5Y-90.0
X192.5Y-95.0
X192.5Y-100.0
X192.5Y-105.0
X192.5Y-110.0
X192.5Y-115.0
X192.5Y-120.0
X192.5Y-125.0
X192.5Y-130.0
X192.5Y-135.0
X192.5Y-140.0
X192.5Y-145.0
X192.5Y-150.0
X192.5Y-155.0
X192.5Y-160.0
X192.5Y-165.0
X192.5Y-170.0
X192.5Y-175.0
X196.75Y-123.5
X196.75Y-126.25
X196.75Y-138.5
X197.75Y-119.75
X197.8Y-131.5
X199.0Y-123.5
X199.0Y-126.0
X199.75Y-138.5
X200.0Y-77.5
X200.0Y-182.5
X201.75Y-137.25
X203.75Y-137.25
X205.0Y-77.5
X205.0Y-182.5
X205.5Y-144.25
X205.5Y-145.75
X205.75Y-137.25
X206.25Y-123.5
X206.75Y-146.25
X208.5Y-146.5
X208.5Y-148.0
X209.75Y-137.25
X210.0Y-77.5
X210.0Y-148.0
X210.0Y-182.5
X211.75Y-129.5
X211.75Y-137.25
X213.75Y-137.25
X214.5Y-129.5
X215.0Y-77.5
X215.0Y-182.5
X216.5Y-129.5
X216.5Y-132.5
X216.5Y-174.25
X216.5Y-178.25
X217.25Y-158.0
X217.25Y-160.0
X217.25Y-162.0
X217.25Y-164.0
X217.25Y-166.0
X217.25Y-168.0
X217.25Y-170.0
X217.25Y-172.0
X217.5Y-156.0
X218.5Y-129.5
X218.5Y-132.5
X219.0Y-154.5
X219.75Y-126.0
X220.0Y-77.5
X220.0Y-182.5
X220.5Y-129.5
X220.5Y-132.5
X220.5Y-153.0
X221.75Y-160.25
X221.75Y-162.25
X221.75Y-164.25
X221.75Y-166.25
X221.75Y-168.25
X221.75Y-170.25
X221.75Y-172.25
X222.0Y-151.5
X222.0Y-158.0
X222.5Y-133.5
X222.5Y-135.5
X222.5Y-137.5
X222.5Y-139.5
X222.5Y-141.5
X222.5Y-143.5
X222.5Y-145.5
X222.5Y-147.5
X222.5Y-149.5
X222.5Y-174.5
X222.5Y-178.25
X223.25Y-111.75
X223.25Y-173.0
X223.5Y-156.5
X224.75Y-171.5
X225.0Y-77.5
X225.0Y-155.0
X225.0Y-182.5
X226.25Y-170.0
X226.5Y-153.5
X226.5Y-178.25
X227.0Y-133.75
X227.0Y-135.5
X227.0Y-137.5
X227.0Y-139.5
X227.0Y-141.5
X227.0Y-143.5
X227.0Y-145.5
X227.0Y-147.5
X227.0Y-149.5
X227.0Y-151.5
X227.5Y-113.0
X227.5Y-173.75
X227.75Y-168.5
X228.25Y-129.5
X228.75Y-137.5
X229.0Y-108.5
X229.0Y-114.5
X229.0Y-172.25
X229.25Y-132.25
X229.25Y-167.0
X230.0Y-77.5
X230.0Y-182.5
X230.5Y-170.75
X230.75Y-111.25
X230.75Y-137.5
X230.75Y-165.5
X231.0Y-114.5
X232.0Y-169.25
X232.25Y-116.0
X232.25Y-118.0
X232.25Y-120.0
X232.25Y-122.0
X232.25Y-124.0
X232.25Y-126.0
X232.25Y-128.0
X232.25Y-130.0
X232.25Y-132.0
X232.25Y-134.0
X232.25Y-136.0
X232.25Y-138.0
X232.25Y-140.0
X232.25Y-142.0
X232.25Y-144.0
X232.25Y-146.0
X232.25Y-148.0
X232.25Y-150.0
X232.25Y-152.0
X232.25Y-154.0
X232.25Y-156.0
X232.25Y-158.0
X232.25Y-160.0
X232.25Y-162.0
X232.25Y-164.0
X232.75Y-111.5
X233.5Y-167.75
X234.25Y-113.0
X235.0Y-77.5
X235.0Y-166.25
X235.0Y-182.5
X235.75Y-114.5
X235.75Y-116.5
X235.75Y-118.5
X235.75Y-120.5
X235.75Y-122.5
X235.75Y-124.5
X235.75Y-126.5
X235.75Y-128.5
X235.75Y-130.5
X235.75Y-132.5
X235.75Y-134.5
X235.75Y-136.5
X235.75Y-138.5
X235.75Y-140.5
X235.75Y-142.5
X235.75Y-144.5
X235.75Y-146.5
X235.75Y-148.5
X235.75Y-150.5
X235.75Y-152.5
X235.75Y-154.5
X235.75Y-156.5
X235.75Y-158.5
X235.75Y-160.5
X235.75Y-162.5
X235.75Y-164.5
X240.0Y-77.5
X240.0Y-182.5
X247.5Y-85.0
X247.5Y-90.0
X247.5Y-95.0
X247.5Y-100.0
X247.5Y-105.0
X247.5Y-110.0
X247.5Y-115.0
X247.5Y-120.0
X247.5Y-125.0
X247.5Y-130.0
X247.5Y-135.0
X247.5Y-140.0
X247.5Y-145.0
X247.5Y-150.0
X247.5Y-155.0
X247.5Y-160.0
X247.5Y-165.0
X247.5Y-170.0
X247.5Y-175.0
T0
M30
