%TF.GenerationSoftware,KiCad,Pcbnew,5.1.10*%
%TF.CreationDate,2021-12-05T17:02:08-05:00*%
%TF.ProjectId,display,64697370-6c61-4792-9e6b-696361645f70,v1.0*%
%TF.SameCoordinates,Original*%
%TF.FileFunction,Legend,Bot*%
%TF.FilePolarity,Positive*%
%FSLAX46Y46*%
G04 Gerber Fmt 4.6, Leading zero omitted, Abs format (unit mm)*
G04 Created by KiCad (PCBNEW 5.1.10) date 2021-12-05 17:02:08*
%MOMM*%
%LPD*%
G01*
G04 APERTURE LIST*
%ADD10C,0.150000*%
%ADD11C,0.250000*%
%ADD12C,0.010000*%
%ADD13C,0.120000*%
G04 APERTURE END LIST*
D10*
X218462023Y-93972619D02*
X218414404Y-93925000D01*
X218319166Y-93877380D01*
X218081071Y-93877380D01*
X217985833Y-93925000D01*
X217938214Y-93972619D01*
X217890595Y-94067857D01*
X217890595Y-94163095D01*
X217938214Y-94305952D01*
X218509642Y-94877380D01*
X217890595Y-94877380D01*
X217271547Y-93877380D02*
X217176309Y-93877380D01*
X217081071Y-93925000D01*
X217033452Y-93972619D01*
X216985833Y-94067857D01*
X216938214Y-94258333D01*
X216938214Y-94496428D01*
X216985833Y-94686904D01*
X217033452Y-94782142D01*
X217081071Y-94829761D01*
X217176309Y-94877380D01*
X217271547Y-94877380D01*
X217366785Y-94829761D01*
X217414404Y-94782142D01*
X217462023Y-94686904D01*
X217509642Y-94496428D01*
X217509642Y-94258333D01*
X217462023Y-94067857D01*
X217414404Y-93972619D01*
X217366785Y-93925000D01*
X217271547Y-93877380D01*
X216557261Y-93972619D02*
X216509642Y-93925000D01*
X216414404Y-93877380D01*
X216176309Y-93877380D01*
X216081071Y-93925000D01*
X216033452Y-93972619D01*
X215985833Y-94067857D01*
X215985833Y-94163095D01*
X216033452Y-94305952D01*
X216604880Y-94877380D01*
X215985833Y-94877380D01*
X215033452Y-94877380D02*
X215604880Y-94877380D01*
X215319166Y-94877380D02*
X215319166Y-93877380D01*
X215414404Y-94020238D01*
X215509642Y-94115476D01*
X215604880Y-94163095D01*
X214604880Y-94496428D02*
X213842976Y-94496428D01*
X212842976Y-94877380D02*
X213414404Y-94877380D01*
X213128690Y-94877380D02*
X213128690Y-93877380D01*
X213223928Y-94020238D01*
X213319166Y-94115476D01*
X213414404Y-94163095D01*
X212462023Y-93972619D02*
X212414404Y-93925000D01*
X212319166Y-93877380D01*
X212081071Y-93877380D01*
X211985833Y-93925000D01*
X211938214Y-93972619D01*
X211890595Y-94067857D01*
X211890595Y-94163095D01*
X211938214Y-94305952D01*
X212509642Y-94877380D01*
X211890595Y-94877380D01*
X211462023Y-94496428D02*
X210700119Y-94496428D01*
X210033452Y-93877380D02*
X209938214Y-93877380D01*
X209842976Y-93925000D01*
X209795357Y-93972619D01*
X209747738Y-94067857D01*
X209700119Y-94258333D01*
X209700119Y-94496428D01*
X209747738Y-94686904D01*
X209795357Y-94782142D01*
X209842976Y-94829761D01*
X209938214Y-94877380D01*
X210033452Y-94877380D01*
X210128690Y-94829761D01*
X210176309Y-94782142D01*
X210223928Y-94686904D01*
X210271547Y-94496428D01*
X210271547Y-94258333D01*
X210223928Y-94067857D01*
X210176309Y-93972619D01*
X210128690Y-93925000D01*
X210033452Y-93877380D01*
X208795357Y-93877380D02*
X209271547Y-93877380D01*
X209319166Y-94353571D01*
X209271547Y-94305952D01*
X209176309Y-94258333D01*
X208938214Y-94258333D01*
X208842976Y-94305952D01*
X208795357Y-94353571D01*
X208747738Y-94448809D01*
X208747738Y-94686904D01*
X208795357Y-94782142D01*
X208842976Y-94829761D01*
X208938214Y-94877380D01*
X209176309Y-94877380D01*
X209271547Y-94829761D01*
X209319166Y-94782142D01*
X218414404Y-96527380D02*
X218414404Y-95527380D01*
X218176309Y-95527380D01*
X218033452Y-95575000D01*
X217938214Y-95670238D01*
X217890595Y-95765476D01*
X217842976Y-95955952D01*
X217842976Y-96098809D01*
X217890595Y-96289285D01*
X217938214Y-96384523D01*
X218033452Y-96479761D01*
X218176309Y-96527380D01*
X218414404Y-96527380D01*
X217414404Y-96003571D02*
X217081071Y-96003571D01*
X216938214Y-96527380D02*
X217414404Y-96527380D01*
X217414404Y-95527380D01*
X216938214Y-95527380D01*
X216557261Y-96479761D02*
X216414404Y-96527380D01*
X216176309Y-96527380D01*
X216081071Y-96479761D01*
X216033452Y-96432142D01*
X215985833Y-96336904D01*
X215985833Y-96241666D01*
X216033452Y-96146428D01*
X216081071Y-96098809D01*
X216176309Y-96051190D01*
X216366785Y-96003571D01*
X216462023Y-95955952D01*
X216509642Y-95908333D01*
X216557261Y-95813095D01*
X216557261Y-95717857D01*
X216509642Y-95622619D01*
X216462023Y-95575000D01*
X216366785Y-95527380D01*
X216128690Y-95527380D01*
X215985833Y-95575000D01*
X215557261Y-96527380D02*
X215557261Y-95527380D01*
X214557261Y-95575000D02*
X214652500Y-95527380D01*
X214795357Y-95527380D01*
X214938214Y-95575000D01*
X215033452Y-95670238D01*
X215081071Y-95765476D01*
X215128690Y-95955952D01*
X215128690Y-96098809D01*
X215081071Y-96289285D01*
X215033452Y-96384523D01*
X214938214Y-96479761D01*
X214795357Y-96527380D01*
X214700119Y-96527380D01*
X214557261Y-96479761D01*
X214509642Y-96432142D01*
X214509642Y-96098809D01*
X214700119Y-96098809D01*
X214081071Y-96527380D02*
X214081071Y-95527380D01*
X213509642Y-96527380D01*
X213509642Y-95527380D01*
X213033452Y-96003571D02*
X212700119Y-96003571D01*
X212557261Y-96527380D02*
X213033452Y-96527380D01*
X213033452Y-95527380D01*
X212557261Y-95527380D01*
X212128690Y-96527380D02*
X212128690Y-95527380D01*
X211890595Y-95527380D01*
X211747738Y-95575000D01*
X211652500Y-95670238D01*
X211604880Y-95765476D01*
X211557261Y-95955952D01*
X211557261Y-96098809D01*
X211604880Y-96289285D01*
X211652500Y-96384523D01*
X211747738Y-96479761D01*
X211890595Y-96527380D01*
X212128690Y-96527380D01*
X210033452Y-96003571D02*
X209890595Y-96051190D01*
X209842976Y-96098809D01*
X209795357Y-96194047D01*
X209795357Y-96336904D01*
X209842976Y-96432142D01*
X209890595Y-96479761D01*
X209985833Y-96527380D01*
X210366785Y-96527380D01*
X210366785Y-95527380D01*
X210033452Y-95527380D01*
X209938214Y-95575000D01*
X209890595Y-95622619D01*
X209842976Y-95717857D01*
X209842976Y-95813095D01*
X209890595Y-95908333D01*
X209938214Y-95955952D01*
X210033452Y-96003571D01*
X210366785Y-96003571D01*
X209176309Y-96051190D02*
X209176309Y-96527380D01*
X209509642Y-95527380D02*
X209176309Y-96051190D01*
X208842976Y-95527380D01*
X207747738Y-96527380D02*
X207747738Y-95527380D01*
X207319166Y-96241666D02*
X206842976Y-96241666D01*
X207414404Y-96527380D02*
X207081071Y-95527380D01*
X206747738Y-96527380D01*
X206414404Y-96527380D02*
X206414404Y-95527380D01*
X205842976Y-96527380D01*
X205842976Y-95527380D01*
X204081071Y-95575000D02*
X204176309Y-95527380D01*
X204319166Y-95527380D01*
X204462023Y-95575000D01*
X204557261Y-95670238D01*
X204604880Y-95765476D01*
X204652500Y-95955952D01*
X204652500Y-96098809D01*
X204604880Y-96289285D01*
X204557261Y-96384523D01*
X204462023Y-96479761D01*
X204319166Y-96527380D01*
X204223928Y-96527380D01*
X204081071Y-96479761D01*
X204033452Y-96432142D01*
X204033452Y-96098809D01*
X204223928Y-96098809D01*
X203128690Y-96527380D02*
X203604880Y-96527380D01*
X203604880Y-95527380D01*
X202795357Y-96003571D02*
X202462023Y-96003571D01*
X202319166Y-96527380D02*
X202795357Y-96527380D01*
X202795357Y-95527380D01*
X202319166Y-95527380D01*
X201890595Y-96527380D02*
X201890595Y-95527380D01*
X201319166Y-96527380D01*
X201319166Y-95527380D01*
D11*
X218138095Y-87002976D02*
X217900000Y-87002976D01*
X217788392Y-87062500D01*
X217684226Y-87181547D01*
X217654464Y-87419642D01*
X217706547Y-87836309D01*
X217795833Y-88074404D01*
X217929761Y-88193452D01*
X218056250Y-88252976D01*
X218294345Y-88252976D01*
X218405952Y-88193452D01*
X218510119Y-88074404D01*
X218539880Y-87836309D01*
X218487797Y-87419642D01*
X218398511Y-87181547D01*
X218264583Y-87062500D01*
X218138095Y-87002976D01*
X217245238Y-87002976D02*
X216984821Y-88252976D01*
X216411904Y-87002976D01*
X216069642Y-87598214D02*
X215652976Y-87598214D01*
X215556250Y-88252976D02*
X216151488Y-88252976D01*
X215995238Y-87002976D01*
X215400000Y-87002976D01*
X215020535Y-88252976D02*
X214864285Y-87002976D01*
X214306250Y-88252976D01*
X214150000Y-87002976D01*
X212029464Y-88133928D02*
X212096428Y-88193452D01*
X212282440Y-88252976D01*
X212401488Y-88252976D01*
X212572619Y-88193452D01*
X212676785Y-88074404D01*
X212721428Y-87955357D01*
X212751190Y-87717261D01*
X212728869Y-87538690D01*
X212639583Y-87300595D01*
X212565178Y-87181547D01*
X212431250Y-87062500D01*
X212245238Y-87002976D01*
X212126190Y-87002976D01*
X211955059Y-87062500D01*
X211902976Y-87122023D01*
X211114285Y-87002976D02*
X210876190Y-87002976D01*
X210764583Y-87062500D01*
X210660416Y-87181547D01*
X210630654Y-87419642D01*
X210682738Y-87836309D01*
X210772023Y-88074404D01*
X210905952Y-88193452D01*
X211032440Y-88252976D01*
X211270535Y-88252976D01*
X211382142Y-88193452D01*
X211486309Y-88074404D01*
X211516071Y-87836309D01*
X211463988Y-87419642D01*
X211374702Y-87181547D01*
X211240773Y-87062500D01*
X211114285Y-87002976D01*
X210199107Y-88252976D02*
X210042857Y-87002976D01*
X209484821Y-88252976D01*
X209328571Y-87002976D01*
X208911904Y-87002976D02*
X208197619Y-87002976D01*
X208711011Y-88252976D02*
X208554761Y-87002976D01*
X207222916Y-88252976D02*
X207565178Y-87657738D01*
X207937202Y-88252976D02*
X207780952Y-87002976D01*
X207304761Y-87002976D01*
X207193154Y-87062500D01*
X207141071Y-87122023D01*
X207096428Y-87241071D01*
X207118750Y-87419642D01*
X207193154Y-87538690D01*
X207260119Y-87598214D01*
X207386607Y-87657738D01*
X207862797Y-87657738D01*
X206292857Y-87002976D02*
X206054761Y-87002976D01*
X205943154Y-87062500D01*
X205838988Y-87181547D01*
X205809226Y-87419642D01*
X205861309Y-87836309D01*
X205950595Y-88074404D01*
X206084523Y-88193452D01*
X206211011Y-88252976D01*
X206449107Y-88252976D01*
X206560714Y-88193452D01*
X206664880Y-88074404D01*
X206694642Y-87836309D01*
X206642559Y-87419642D01*
X206553273Y-87181547D01*
X206419345Y-87062500D01*
X206292857Y-87002976D01*
X204782440Y-88252976D02*
X205377678Y-88252976D01*
X205221428Y-87002976D01*
X203770535Y-88252976D02*
X204365773Y-88252976D01*
X204209523Y-87002976D01*
X203272023Y-87598214D02*
X202855357Y-87598214D01*
X202758630Y-88252976D02*
X203353869Y-88252976D01*
X203197619Y-87002976D01*
X202602380Y-87002976D01*
X201508630Y-88252976D02*
X201850892Y-87657738D01*
X202222916Y-88252976D02*
X202066666Y-87002976D01*
X201590476Y-87002976D01*
X201478869Y-87062500D01*
X201426785Y-87122023D01*
X201382142Y-87241071D01*
X201404464Y-87419642D01*
X201478869Y-87538690D01*
X201545833Y-87598214D01*
X201672321Y-87657738D01*
X202148511Y-87657738D01*
X218495238Y-89127976D02*
X217721428Y-89127976D01*
X218197619Y-89604166D01*
X218019047Y-89604166D01*
X217907440Y-89663690D01*
X217855357Y-89723214D01*
X217810714Y-89842261D01*
X217847916Y-90139880D01*
X217922321Y-90258928D01*
X217989285Y-90318452D01*
X218115773Y-90377976D01*
X218472916Y-90377976D01*
X218584523Y-90318452D01*
X218636607Y-90258928D01*
X217327083Y-90258928D02*
X217275000Y-90318452D01*
X217341964Y-90377976D01*
X217394047Y-90318452D01*
X217327083Y-90258928D01*
X217341964Y-90377976D01*
X215995238Y-89127976D02*
X216590476Y-89127976D01*
X216724404Y-89723214D01*
X216657440Y-89663690D01*
X216530952Y-89604166D01*
X216233333Y-89604166D01*
X216121726Y-89663690D01*
X216069642Y-89723214D01*
X216025000Y-89842261D01*
X216062202Y-90139880D01*
X216136607Y-90258928D01*
X216203571Y-90318452D01*
X216330059Y-90377976D01*
X216627678Y-90377976D01*
X216739285Y-90318452D01*
X216791369Y-90258928D01*
X215459523Y-89127976D02*
X215489285Y-89366071D01*
X214983333Y-89127976D02*
X215013095Y-89366071D01*
X213673809Y-89127976D02*
X212959523Y-89127976D01*
X213472916Y-90377976D02*
X213316666Y-89127976D01*
X212304761Y-89127976D02*
X212066666Y-89127976D01*
X211955059Y-89187500D01*
X211850892Y-89306547D01*
X211821130Y-89544642D01*
X211873214Y-89961309D01*
X211962500Y-90199404D01*
X212096428Y-90318452D01*
X212222916Y-90377976D01*
X212461011Y-90377976D01*
X212572619Y-90318452D01*
X212676785Y-90199404D01*
X212706547Y-89961309D01*
X212654464Y-89544642D01*
X212565178Y-89306547D01*
X212431250Y-89187500D01*
X212304761Y-89127976D01*
X211233333Y-89127976D02*
X211359821Y-90139880D01*
X211315178Y-90258928D01*
X211263095Y-90318452D01*
X211151488Y-90377976D01*
X210913392Y-90377976D01*
X210786904Y-90318452D01*
X210719940Y-90258928D01*
X210645535Y-90139880D01*
X210519047Y-89127976D01*
X209350892Y-90258928D02*
X209417857Y-90318452D01*
X209603869Y-90377976D01*
X209722916Y-90377976D01*
X209894047Y-90318452D01*
X209998214Y-90199404D01*
X210042857Y-90080357D01*
X210072619Y-89842261D01*
X210050297Y-89663690D01*
X209961011Y-89425595D01*
X209886607Y-89306547D01*
X209752678Y-89187500D01*
X209566666Y-89127976D01*
X209447619Y-89127976D01*
X209276488Y-89187500D01*
X209224404Y-89247023D01*
X208830059Y-90377976D02*
X208673809Y-89127976D01*
X208748214Y-89723214D02*
X208033928Y-89723214D01*
X208115773Y-90377976D02*
X207959523Y-89127976D01*
X206620238Y-90318452D02*
X206449107Y-90377976D01*
X206151488Y-90377976D01*
X206025000Y-90318452D01*
X205958035Y-90258928D01*
X205883630Y-90139880D01*
X205868750Y-90020833D01*
X205913392Y-89901785D01*
X205965476Y-89842261D01*
X206077083Y-89782738D01*
X206307738Y-89723214D01*
X206419345Y-89663690D01*
X206471428Y-89604166D01*
X206516071Y-89485119D01*
X206501190Y-89366071D01*
X206426785Y-89247023D01*
X206359821Y-89187500D01*
X206233333Y-89127976D01*
X205935714Y-89127976D01*
X205764583Y-89187500D01*
X204648511Y-90258928D02*
X204715476Y-90318452D01*
X204901488Y-90377976D01*
X205020535Y-90377976D01*
X205191666Y-90318452D01*
X205295833Y-90199404D01*
X205340476Y-90080357D01*
X205370238Y-89842261D01*
X205347916Y-89663690D01*
X205258630Y-89425595D01*
X205184226Y-89306547D01*
X205050297Y-89187500D01*
X204864285Y-89127976D01*
X204745238Y-89127976D01*
X204574107Y-89187500D01*
X204522023Y-89247023D01*
X203413392Y-90377976D02*
X203755654Y-89782738D01*
X204127678Y-90377976D02*
X203971428Y-89127976D01*
X203495238Y-89127976D01*
X203383630Y-89187500D01*
X203331547Y-89247023D01*
X203286904Y-89366071D01*
X203309226Y-89544642D01*
X203383630Y-89663690D01*
X203450595Y-89723214D01*
X203577083Y-89782738D01*
X204053273Y-89782738D01*
X202795833Y-89723214D02*
X202379166Y-89723214D01*
X202282440Y-90377976D02*
X202877678Y-90377976D01*
X202721428Y-89127976D01*
X202126190Y-89127976D01*
X201664880Y-89723214D02*
X201248214Y-89723214D01*
X201151488Y-90377976D02*
X201746726Y-90377976D01*
X201590476Y-89127976D01*
X200995238Y-89127976D01*
X200615773Y-90377976D02*
X200459523Y-89127976D01*
X199901488Y-90377976D01*
X199745238Y-89127976D01*
X198368750Y-89544642D02*
X198175297Y-90377976D01*
X197773511Y-89544642D01*
X196746726Y-90377976D02*
X197461011Y-90377976D01*
X197103869Y-90377976D02*
X196947619Y-89127976D01*
X197088988Y-89306547D01*
X197222916Y-89425595D01*
X197349404Y-89485119D01*
X196196130Y-90258928D02*
X196144047Y-90318452D01*
X196211011Y-90377976D01*
X196263095Y-90318452D01*
X196196130Y-90258928D01*
X196211011Y-90377976D01*
X195221428Y-89127976D02*
X195102380Y-89127976D01*
X194990773Y-89187500D01*
X194938690Y-89247023D01*
X194894047Y-89366071D01*
X194864285Y-89604166D01*
X194901488Y-89901785D01*
X194990773Y-90139880D01*
X195065178Y-90258928D01*
X195132142Y-90318452D01*
X195258630Y-90377976D01*
X195377678Y-90377976D01*
X195489285Y-90318452D01*
X195541369Y-90258928D01*
X195586011Y-90139880D01*
X195615773Y-89901785D01*
X195578571Y-89604166D01*
X195489285Y-89366071D01*
X195414880Y-89247023D01*
X195347916Y-89187500D01*
X195221428Y-89127976D01*
D10*
X224928571Y-172702380D02*
X224357142Y-172702380D01*
X224642857Y-173702380D02*
X224642857Y-172702380D01*
X223833333Y-172702380D02*
X223642857Y-172702380D01*
X223547619Y-172750000D01*
X223452380Y-172845238D01*
X223404761Y-173035714D01*
X223404761Y-173369047D01*
X223452380Y-173559523D01*
X223547619Y-173654761D01*
X223642857Y-173702380D01*
X223833333Y-173702380D01*
X223928571Y-173654761D01*
X224023809Y-173559523D01*
X224071428Y-173369047D01*
X224071428Y-173035714D01*
X224023809Y-172845238D01*
X223928571Y-172750000D01*
X223833333Y-172702380D01*
X222976190Y-173702380D02*
X222976190Y-172702380D01*
X222595238Y-172702380D01*
X222500000Y-172750000D01*
X222452380Y-172797619D01*
X222404761Y-172892857D01*
X222404761Y-173035714D01*
X222452380Y-173130952D01*
X222500000Y-173178571D01*
X222595238Y-173226190D01*
X222976190Y-173226190D01*
X220642857Y-173607142D02*
X220690476Y-173654761D01*
X220833333Y-173702380D01*
X220928571Y-173702380D01*
X221071428Y-173654761D01*
X221166666Y-173559523D01*
X221214285Y-173464285D01*
X221261904Y-173273809D01*
X221261904Y-173130952D01*
X221214285Y-172940476D01*
X221166666Y-172845238D01*
X221071428Y-172750000D01*
X220928571Y-172702380D01*
X220833333Y-172702380D01*
X220690476Y-172750000D01*
X220642857Y-172797619D01*
X220023809Y-172702380D02*
X219833333Y-172702380D01*
X219738095Y-172750000D01*
X219642857Y-172845238D01*
X219595238Y-173035714D01*
X219595238Y-173369047D01*
X219642857Y-173559523D01*
X219738095Y-173654761D01*
X219833333Y-173702380D01*
X220023809Y-173702380D01*
X220119047Y-173654761D01*
X220214285Y-173559523D01*
X220261904Y-173369047D01*
X220261904Y-173035714D01*
X220214285Y-172845238D01*
X220119047Y-172750000D01*
X220023809Y-172702380D01*
X219166666Y-173702380D02*
X219166666Y-172702380D01*
X218595238Y-173702380D01*
X218595238Y-172702380D01*
X218261904Y-172702380D02*
X217690476Y-172702380D01*
X217976190Y-173702380D02*
X217976190Y-172702380D01*
X217404761Y-173416666D02*
X216928571Y-173416666D01*
X217500000Y-173702380D02*
X217166666Y-172702380D01*
X216833333Y-173702380D01*
X215928571Y-173607142D02*
X215976190Y-173654761D01*
X216119047Y-173702380D01*
X216214285Y-173702380D01*
X216357142Y-173654761D01*
X216452380Y-173559523D01*
X216500000Y-173464285D01*
X216547619Y-173273809D01*
X216547619Y-173130952D01*
X216500000Y-172940476D01*
X216452380Y-172845238D01*
X216357142Y-172750000D01*
X216214285Y-172702380D01*
X216119047Y-172702380D01*
X215976190Y-172750000D01*
X215928571Y-172797619D01*
X215642857Y-172702380D02*
X215071428Y-172702380D01*
X215357142Y-173702380D02*
X215357142Y-172702380D01*
X218347440Y-86065476D02*
X218191190Y-84815476D01*
X217886130Y-85708333D01*
X217357857Y-84815476D01*
X217514107Y-86065476D01*
X216323630Y-86065476D02*
X216918869Y-86065476D01*
X216762619Y-84815476D01*
X215311726Y-86065476D02*
X215906964Y-86065476D01*
X215750714Y-84815476D01*
X213860833Y-85410714D02*
X213444166Y-85410714D01*
X213347440Y-86065476D02*
X213942678Y-86065476D01*
X213786428Y-84815476D01*
X213191190Y-84815476D01*
X212216488Y-86065476D02*
X212811726Y-86065476D01*
X212655476Y-84815476D01*
X211717976Y-85410714D02*
X211301309Y-85410714D01*
X211204583Y-86065476D02*
X211799821Y-86065476D01*
X211643571Y-84815476D01*
X211048333Y-84815476D01*
X209939702Y-85946428D02*
X210006666Y-86005952D01*
X210192678Y-86065476D01*
X210311726Y-86065476D01*
X210482857Y-86005952D01*
X210587023Y-85886904D01*
X210631666Y-85767857D01*
X210661428Y-85529761D01*
X210639107Y-85351190D01*
X210549821Y-85113095D01*
X210475416Y-84994047D01*
X210341488Y-84875000D01*
X210155476Y-84815476D01*
X210036428Y-84815476D01*
X209865297Y-84875000D01*
X209813214Y-84934523D01*
X209441190Y-84815476D02*
X208726904Y-84815476D01*
X209240297Y-86065476D02*
X209084047Y-84815476D01*
X207752202Y-86065476D02*
X208094464Y-85470238D01*
X208466488Y-86065476D02*
X208310238Y-84815476D01*
X207834047Y-84815476D01*
X207722440Y-84875000D01*
X207670357Y-84934523D01*
X207625714Y-85053571D01*
X207648035Y-85232142D01*
X207722440Y-85351190D01*
X207789404Y-85410714D01*
X207915892Y-85470238D01*
X208392083Y-85470238D01*
X206822142Y-84815476D02*
X206584047Y-84815476D01*
X206472440Y-84875000D01*
X206368273Y-84994047D01*
X206338511Y-85232142D01*
X206390595Y-85648809D01*
X206479880Y-85886904D01*
X206613809Y-86005952D01*
X206740297Y-86065476D01*
X206978392Y-86065476D01*
X207090000Y-86005952D01*
X207194166Y-85886904D01*
X207223928Y-85648809D01*
X207171845Y-85232142D01*
X207082559Y-84994047D01*
X206948630Y-84875000D01*
X206822142Y-84815476D01*
X205906964Y-86065476D02*
X205750714Y-84815476D01*
X205192678Y-86065476D01*
X205036428Y-84815476D01*
X204597440Y-86065476D02*
X204441190Y-84815476D01*
X203273035Y-85946428D02*
X203340000Y-86005952D01*
X203526011Y-86065476D01*
X203645059Y-86065476D01*
X203816190Y-86005952D01*
X203920357Y-85886904D01*
X203965000Y-85767857D01*
X203994761Y-85529761D01*
X203972440Y-85351190D01*
X203883154Y-85113095D01*
X203808750Y-84994047D01*
X203674821Y-84875000D01*
X203488809Y-84815476D01*
X203369761Y-84815476D01*
X203198630Y-84875000D01*
X203146547Y-84934523D01*
X202804285Y-86005952D02*
X202633154Y-86065476D01*
X202335535Y-86065476D01*
X202209047Y-86005952D01*
X202142083Y-85946428D01*
X202067678Y-85827380D01*
X202052797Y-85708333D01*
X202097440Y-85589285D01*
X202149523Y-85529761D01*
X202261130Y-85470238D01*
X202491785Y-85410714D01*
X202603392Y-85351190D01*
X202655476Y-85291666D01*
X202700119Y-85172619D01*
X202685238Y-85053571D01*
X202610833Y-84934523D01*
X202543869Y-84875000D01*
X202417380Y-84815476D01*
X202119761Y-84815476D01*
X201948630Y-84875000D01*
D12*
%TO.C,REF\u002A\u002A*%
G36*
X217658759Y-103219184D02*
G01*
X217632247Y-103232282D01*
X217599553Y-103255106D01*
X217575725Y-103279996D01*
X217559406Y-103311249D01*
X217549240Y-103353166D01*
X217543872Y-103410044D01*
X217541944Y-103486184D01*
X217541831Y-103518917D01*
X217542161Y-103590656D01*
X217543527Y-103641927D01*
X217546500Y-103677404D01*
X217551649Y-103701763D01*
X217559543Y-103719680D01*
X217567757Y-103731902D01*
X217620187Y-103783905D01*
X217681930Y-103815184D01*
X217748536Y-103824592D01*
X217815558Y-103810980D01*
X217836792Y-103801354D01*
X217887624Y-103774859D01*
X217887624Y-104190052D01*
X217850525Y-104170868D01*
X217801643Y-104156025D01*
X217741561Y-104152222D01*
X217681564Y-104159243D01*
X217636256Y-104175013D01*
X217598675Y-104205047D01*
X217566564Y-104248024D01*
X217564150Y-104252436D01*
X217553967Y-104273221D01*
X217546530Y-104294170D01*
X217541411Y-104319548D01*
X217538181Y-104353618D01*
X217536413Y-104400641D01*
X217535677Y-104464882D01*
X217535544Y-104537176D01*
X217535544Y-104767822D01*
X217673861Y-104767822D01*
X217673861Y-104342533D01*
X217712549Y-104309979D01*
X217752738Y-104283940D01*
X217790797Y-104279205D01*
X217829066Y-104291389D01*
X217849462Y-104303320D01*
X217864642Y-104320313D01*
X217875438Y-104345995D01*
X217882683Y-104383991D01*
X217887208Y-104437926D01*
X217889844Y-104511425D01*
X217890772Y-104560347D01*
X217893911Y-104761535D01*
X217959926Y-104765336D01*
X218025940Y-104769136D01*
X218025940Y-103520650D01*
X217887624Y-103520650D01*
X217884097Y-103590254D01*
X217872215Y-103638569D01*
X217850020Y-103668631D01*
X217815559Y-103683471D01*
X217780742Y-103686436D01*
X217741329Y-103683028D01*
X217715171Y-103669617D01*
X217698814Y-103651896D01*
X217685937Y-103632835D01*
X217678272Y-103611601D01*
X217674861Y-103581849D01*
X217674749Y-103537236D01*
X217675897Y-103499880D01*
X217678532Y-103443604D01*
X217682456Y-103406658D01*
X217689063Y-103383223D01*
X217699749Y-103367480D01*
X217709833Y-103358380D01*
X217751970Y-103338537D01*
X217801840Y-103335332D01*
X217830476Y-103342168D01*
X217858828Y-103366464D01*
X217877609Y-103413728D01*
X217886712Y-103483624D01*
X217887624Y-103520650D01*
X218025940Y-103520650D01*
X218025940Y-103208614D01*
X217956782Y-103208614D01*
X217915260Y-103210256D01*
X217893838Y-103216087D01*
X217887626Y-103227461D01*
X217887624Y-103227798D01*
X217884742Y-103238938D01*
X217872030Y-103237673D01*
X217846757Y-103225433D01*
X217787869Y-103206707D01*
X217721615Y-103204739D01*
X217658759Y-103219184D01*
G37*
X217658759Y-103219184D02*
X217632247Y-103232282D01*
X217599553Y-103255106D01*
X217575725Y-103279996D01*
X217559406Y-103311249D01*
X217549240Y-103353166D01*
X217543872Y-103410044D01*
X217541944Y-103486184D01*
X217541831Y-103518917D01*
X217542161Y-103590656D01*
X217543527Y-103641927D01*
X217546500Y-103677404D01*
X217551649Y-103701763D01*
X217559543Y-103719680D01*
X217567757Y-103731902D01*
X217620187Y-103783905D01*
X217681930Y-103815184D01*
X217748536Y-103824592D01*
X217815558Y-103810980D01*
X217836792Y-103801354D01*
X217887624Y-103774859D01*
X217887624Y-104190052D01*
X217850525Y-104170868D01*
X217801643Y-104156025D01*
X217741561Y-104152222D01*
X217681564Y-104159243D01*
X217636256Y-104175013D01*
X217598675Y-104205047D01*
X217566564Y-104248024D01*
X217564150Y-104252436D01*
X217553967Y-104273221D01*
X217546530Y-104294170D01*
X217541411Y-104319548D01*
X217538181Y-104353618D01*
X217536413Y-104400641D01*
X217535677Y-104464882D01*
X217535544Y-104537176D01*
X217535544Y-104767822D01*
X217673861Y-104767822D01*
X217673861Y-104342533D01*
X217712549Y-104309979D01*
X217752738Y-104283940D01*
X217790797Y-104279205D01*
X217829066Y-104291389D01*
X217849462Y-104303320D01*
X217864642Y-104320313D01*
X217875438Y-104345995D01*
X217882683Y-104383991D01*
X217887208Y-104437926D01*
X217889844Y-104511425D01*
X217890772Y-104560347D01*
X217893911Y-104761535D01*
X217959926Y-104765336D01*
X218025940Y-104769136D01*
X218025940Y-103520650D01*
X217887624Y-103520650D01*
X217884097Y-103590254D01*
X217872215Y-103638569D01*
X217850020Y-103668631D01*
X217815559Y-103683471D01*
X217780742Y-103686436D01*
X217741329Y-103683028D01*
X217715171Y-103669617D01*
X217698814Y-103651896D01*
X217685937Y-103632835D01*
X217678272Y-103611601D01*
X217674861Y-103581849D01*
X217674749Y-103537236D01*
X217675897Y-103499880D01*
X217678532Y-103443604D01*
X217682456Y-103406658D01*
X217689063Y-103383223D01*
X217699749Y-103367480D01*
X217709833Y-103358380D01*
X217751970Y-103338537D01*
X217801840Y-103335332D01*
X217830476Y-103342168D01*
X217858828Y-103366464D01*
X217877609Y-103413728D01*
X217886712Y-103483624D01*
X217887624Y-103520650D01*
X218025940Y-103520650D01*
X218025940Y-103208614D01*
X217956782Y-103208614D01*
X217915260Y-103210256D01*
X217893838Y-103216087D01*
X217887626Y-103227461D01*
X217887624Y-103227798D01*
X217884742Y-103238938D01*
X217872030Y-103237673D01*
X217846757Y-103225433D01*
X217787869Y-103206707D01*
X217721615Y-103204739D01*
X217658759Y-103219184D01*
G36*
X217134210Y-104156555D02*
G01*
X217075055Y-104172339D01*
X217030023Y-104200948D01*
X216998246Y-104238419D01*
X216988366Y-104254411D01*
X216981073Y-104271163D01*
X216975974Y-104292592D01*
X216972679Y-104322616D01*
X216970797Y-104365154D01*
X216969937Y-104424122D01*
X216969707Y-104503440D01*
X216969703Y-104524484D01*
X216969703Y-104767822D01*
X217030059Y-104767822D01*
X217068557Y-104765126D01*
X217097023Y-104758295D01*
X217104155Y-104754083D01*
X217123652Y-104746813D01*
X217143566Y-104754083D01*
X217176353Y-104763160D01*
X217223978Y-104766813D01*
X217276764Y-104765228D01*
X217325036Y-104758589D01*
X217353218Y-104750072D01*
X217407753Y-104715063D01*
X217441835Y-104666479D01*
X217457157Y-104601882D01*
X217457299Y-104600223D01*
X217455955Y-104571566D01*
X217334356Y-104571566D01*
X217323726Y-104604161D01*
X217306410Y-104622505D01*
X217271652Y-104636379D01*
X217225773Y-104641917D01*
X217178988Y-104639191D01*
X217141514Y-104628274D01*
X217131015Y-104621269D01*
X217112668Y-104588904D01*
X217108020Y-104552111D01*
X217108020Y-104503763D01*
X217177582Y-104503763D01*
X217243667Y-104508850D01*
X217293764Y-104523263D01*
X217324929Y-104545729D01*
X217334356Y-104571566D01*
X217455955Y-104571566D01*
X217453987Y-104529647D01*
X217430710Y-104473845D01*
X217386948Y-104431647D01*
X217380899Y-104427808D01*
X217354907Y-104415309D01*
X217322735Y-104407740D01*
X217277760Y-104404061D01*
X217224331Y-104403216D01*
X217108020Y-104403169D01*
X217108020Y-104354411D01*
X217112953Y-104316581D01*
X217125543Y-104291236D01*
X217127017Y-104289887D01*
X217155034Y-104278800D01*
X217197326Y-104274503D01*
X217244064Y-104276615D01*
X217285418Y-104284756D01*
X217309957Y-104296965D01*
X217323253Y-104306746D01*
X217337294Y-104308613D01*
X217356671Y-104300600D01*
X217385976Y-104280739D01*
X217429803Y-104247063D01*
X217433825Y-104243909D01*
X217431764Y-104232236D01*
X217414568Y-104212822D01*
X217388433Y-104191248D01*
X217359552Y-104173096D01*
X217350478Y-104168809D01*
X217317380Y-104160256D01*
X217268880Y-104154155D01*
X217214695Y-104151708D01*
X217212161Y-104151703D01*
X217134210Y-104156555D01*
G37*
X217134210Y-104156555D02*
X217075055Y-104172339D01*
X217030023Y-104200948D01*
X216998246Y-104238419D01*
X216988366Y-104254411D01*
X216981073Y-104271163D01*
X216975974Y-104292592D01*
X216972679Y-104322616D01*
X216970797Y-104365154D01*
X216969937Y-104424122D01*
X216969707Y-104503440D01*
X216969703Y-104524484D01*
X216969703Y-104767822D01*
X217030059Y-104767822D01*
X217068557Y-104765126D01*
X217097023Y-104758295D01*
X217104155Y-104754083D01*
X217123652Y-104746813D01*
X217143566Y-104754083D01*
X217176353Y-104763160D01*
X217223978Y-104766813D01*
X217276764Y-104765228D01*
X217325036Y-104758589D01*
X217353218Y-104750072D01*
X217407753Y-104715063D01*
X217441835Y-104666479D01*
X217457157Y-104601882D01*
X217457299Y-104600223D01*
X217455955Y-104571566D01*
X217334356Y-104571566D01*
X217323726Y-104604161D01*
X217306410Y-104622505D01*
X217271652Y-104636379D01*
X217225773Y-104641917D01*
X217178988Y-104639191D01*
X217141514Y-104628274D01*
X217131015Y-104621269D01*
X217112668Y-104588904D01*
X217108020Y-104552111D01*
X217108020Y-104503763D01*
X217177582Y-104503763D01*
X217243667Y-104508850D01*
X217293764Y-104523263D01*
X217324929Y-104545729D01*
X217334356Y-104571566D01*
X217455955Y-104571566D01*
X217453987Y-104529647D01*
X217430710Y-104473845D01*
X217386948Y-104431647D01*
X217380899Y-104427808D01*
X217354907Y-104415309D01*
X217322735Y-104407740D01*
X217277760Y-104404061D01*
X217224331Y-104403216D01*
X217108020Y-104403169D01*
X217108020Y-104354411D01*
X217112953Y-104316581D01*
X217125543Y-104291236D01*
X217127017Y-104289887D01*
X217155034Y-104278800D01*
X217197326Y-104274503D01*
X217244064Y-104276615D01*
X217285418Y-104284756D01*
X217309957Y-104296965D01*
X217323253Y-104306746D01*
X217337294Y-104308613D01*
X217356671Y-104300600D01*
X217385976Y-104280739D01*
X217429803Y-104247063D01*
X217433825Y-104243909D01*
X217431764Y-104232236D01*
X217414568Y-104212822D01*
X217388433Y-104191248D01*
X217359552Y-104173096D01*
X217350478Y-104168809D01*
X217317380Y-104160256D01*
X217268880Y-104154155D01*
X217214695Y-104151708D01*
X217212161Y-104151703D01*
X217134210Y-104156555D01*
G36*
X216743356Y-104153020D02*
G01*
X216724539Y-104158660D01*
X216718473Y-104171053D01*
X216718218Y-104176647D01*
X216717129Y-104192230D01*
X216709632Y-104194676D01*
X216689381Y-104183993D01*
X216677351Y-104176694D01*
X216639400Y-104161063D01*
X216594072Y-104153334D01*
X216546544Y-104152740D01*
X216501995Y-104158513D01*
X216465602Y-104169884D01*
X216442543Y-104186088D01*
X216437996Y-104206355D01*
X216440291Y-104211843D01*
X216457020Y-104234626D01*
X216482963Y-104262647D01*
X216487655Y-104267177D01*
X216512383Y-104288005D01*
X216533718Y-104294735D01*
X216563555Y-104290038D01*
X216575508Y-104286917D01*
X216612705Y-104279421D01*
X216638859Y-104282792D01*
X216660946Y-104294681D01*
X216681178Y-104310635D01*
X216696079Y-104330700D01*
X216706434Y-104358702D01*
X216713029Y-104398467D01*
X216716649Y-104453823D01*
X216718078Y-104528594D01*
X216718218Y-104573740D01*
X216718218Y-104767822D01*
X216843960Y-104767822D01*
X216843960Y-104151683D01*
X216781089Y-104151683D01*
X216743356Y-104153020D01*
G37*
X216743356Y-104153020D02*
X216724539Y-104158660D01*
X216718473Y-104171053D01*
X216718218Y-104176647D01*
X216717129Y-104192230D01*
X216709632Y-104194676D01*
X216689381Y-104183993D01*
X216677351Y-104176694D01*
X216639400Y-104161063D01*
X216594072Y-104153334D01*
X216546544Y-104152740D01*
X216501995Y-104158513D01*
X216465602Y-104169884D01*
X216442543Y-104186088D01*
X216437996Y-104206355D01*
X216440291Y-104211843D01*
X216457020Y-104234626D01*
X216482963Y-104262647D01*
X216487655Y-104267177D01*
X216512383Y-104288005D01*
X216533718Y-104294735D01*
X216563555Y-104290038D01*
X216575508Y-104286917D01*
X216612705Y-104279421D01*
X216638859Y-104282792D01*
X216660946Y-104294681D01*
X216681178Y-104310635D01*
X216696079Y-104330700D01*
X216706434Y-104358702D01*
X216713029Y-104398467D01*
X216716649Y-104453823D01*
X216718078Y-104528594D01*
X216718218Y-104573740D01*
X216718218Y-104767822D01*
X216843960Y-104767822D01*
X216843960Y-104151683D01*
X216781089Y-104151683D01*
X216743356Y-104153020D01*
G36*
X215951188Y-104767822D02*
G01*
X216020346Y-104767822D01*
X216060488Y-104766645D01*
X216081394Y-104761772D01*
X216088922Y-104751186D01*
X216089505Y-104744029D01*
X216090774Y-104729676D01*
X216098779Y-104726923D01*
X216119815Y-104735771D01*
X216136173Y-104744029D01*
X216198977Y-104763597D01*
X216267248Y-104764729D01*
X216322752Y-104750135D01*
X216374438Y-104714877D01*
X216413838Y-104662835D01*
X216435413Y-104601450D01*
X216435962Y-104598018D01*
X216439167Y-104560571D01*
X216440761Y-104506813D01*
X216440633Y-104466155D01*
X216303279Y-104466155D01*
X216300097Y-104520194D01*
X216292859Y-104564735D01*
X216283060Y-104589888D01*
X216245989Y-104624260D01*
X216201974Y-104636582D01*
X216156584Y-104626618D01*
X216117797Y-104596895D01*
X216103108Y-104576905D01*
X216094519Y-104553050D01*
X216090496Y-104518230D01*
X216089505Y-104465930D01*
X216091278Y-104414139D01*
X216095963Y-104368634D01*
X216102603Y-104338181D01*
X216103710Y-104335452D01*
X216130491Y-104303000D01*
X216169579Y-104285183D01*
X216213315Y-104282306D01*
X216254038Y-104294674D01*
X216284087Y-104322593D01*
X216287204Y-104328148D01*
X216296961Y-104362022D01*
X216302277Y-104410728D01*
X216303279Y-104466155D01*
X216440633Y-104466155D01*
X216440568Y-104445540D01*
X216439664Y-104412563D01*
X216433514Y-104330981D01*
X216420733Y-104269730D01*
X216399471Y-104224449D01*
X216367878Y-104190779D01*
X216337207Y-104171014D01*
X216294354Y-104157120D01*
X216241056Y-104152354D01*
X216186480Y-104156236D01*
X216139792Y-104168282D01*
X216115124Y-104182693D01*
X216089505Y-104205878D01*
X216089505Y-103912773D01*
X215951188Y-103912773D01*
X215951188Y-104767822D01*
G37*
X215951188Y-104767822D02*
X216020346Y-104767822D01*
X216060488Y-104766645D01*
X216081394Y-104761772D01*
X216088922Y-104751186D01*
X216089505Y-104744029D01*
X216090774Y-104729676D01*
X216098779Y-104726923D01*
X216119815Y-104735771D01*
X216136173Y-104744029D01*
X216198977Y-104763597D01*
X216267248Y-104764729D01*
X216322752Y-104750135D01*
X216374438Y-104714877D01*
X216413838Y-104662835D01*
X216435413Y-104601450D01*
X216435962Y-104598018D01*
X216439167Y-104560571D01*
X216440761Y-104506813D01*
X216440633Y-104466155D01*
X216303279Y-104466155D01*
X216300097Y-104520194D01*
X216292859Y-104564735D01*
X216283060Y-104589888D01*
X216245989Y-104624260D01*
X216201974Y-104636582D01*
X216156584Y-104626618D01*
X216117797Y-104596895D01*
X216103108Y-104576905D01*
X216094519Y-104553050D01*
X216090496Y-104518230D01*
X216089505Y-104465930D01*
X216091278Y-104414139D01*
X216095963Y-104368634D01*
X216102603Y-104338181D01*
X216103710Y-104335452D01*
X216130491Y-104303000D01*
X216169579Y-104285183D01*
X216213315Y-104282306D01*
X216254038Y-104294674D01*
X216284087Y-104322593D01*
X216287204Y-104328148D01*
X216296961Y-104362022D01*
X216302277Y-104410728D01*
X216303279Y-104466155D01*
X216440633Y-104466155D01*
X216440568Y-104445540D01*
X216439664Y-104412563D01*
X216433514Y-104330981D01*
X216420733Y-104269730D01*
X216399471Y-104224449D01*
X216367878Y-104190779D01*
X216337207Y-104171014D01*
X216294354Y-104157120D01*
X216241056Y-104152354D01*
X216186480Y-104156236D01*
X216139792Y-104168282D01*
X216115124Y-104182693D01*
X216089505Y-104205878D01*
X216089505Y-103912773D01*
X215951188Y-103912773D01*
X215951188Y-104767822D01*
G36*
X215468476Y-104154237D02*
G01*
X215418745Y-104157971D01*
X215288709Y-104547773D01*
X215268322Y-104478614D01*
X215256054Y-104435874D01*
X215239915Y-104378115D01*
X215222488Y-104314625D01*
X215213274Y-104280570D01*
X215178612Y-104151683D01*
X215035609Y-104151683D01*
X215078354Y-104286857D01*
X215099404Y-104353342D01*
X215124833Y-104433539D01*
X215151390Y-104517193D01*
X215175098Y-104591782D01*
X215229098Y-104761535D01*
X215287402Y-104765328D01*
X215345705Y-104769122D01*
X215377321Y-104664734D01*
X215396818Y-104599889D01*
X215418096Y-104528400D01*
X215436692Y-104465263D01*
X215437426Y-104462750D01*
X215451316Y-104419969D01*
X215463571Y-104390779D01*
X215472154Y-104379741D01*
X215473918Y-104381018D01*
X215480109Y-104398130D01*
X215491872Y-104434787D01*
X215507775Y-104486378D01*
X215526386Y-104548294D01*
X215536457Y-104582352D01*
X215590993Y-104767822D01*
X215706736Y-104767822D01*
X215799263Y-104475471D01*
X215825256Y-104393462D01*
X215848934Y-104318987D01*
X215869180Y-104255544D01*
X215884874Y-104206632D01*
X215894898Y-104175749D01*
X215897945Y-104166726D01*
X215895533Y-104157487D01*
X215876592Y-104153441D01*
X215837177Y-104153846D01*
X215831007Y-104154152D01*
X215757914Y-104157971D01*
X215710043Y-104334010D01*
X215692447Y-104398211D01*
X215676723Y-104454649D01*
X215664254Y-104498422D01*
X215656426Y-104524630D01*
X215654980Y-104528903D01*
X215648986Y-104523990D01*
X215636899Y-104498532D01*
X215620107Y-104455997D01*
X215599997Y-104399850D01*
X215582997Y-104349130D01*
X215518206Y-104150504D01*
X215468476Y-104154237D01*
G37*
X215468476Y-104154237D02*
X215418745Y-104157971D01*
X215288709Y-104547773D01*
X215268322Y-104478614D01*
X215256054Y-104435874D01*
X215239915Y-104378115D01*
X215222488Y-104314625D01*
X215213274Y-104280570D01*
X215178612Y-104151683D01*
X215035609Y-104151683D01*
X215078354Y-104286857D01*
X215099404Y-104353342D01*
X215124833Y-104433539D01*
X215151390Y-104517193D01*
X215175098Y-104591782D01*
X215229098Y-104761535D01*
X215287402Y-104765328D01*
X215345705Y-104769122D01*
X215377321Y-104664734D01*
X215396818Y-104599889D01*
X215418096Y-104528400D01*
X215436692Y-104465263D01*
X215437426Y-104462750D01*
X215451316Y-104419969D01*
X215463571Y-104390779D01*
X215472154Y-104379741D01*
X215473918Y-104381018D01*
X215480109Y-104398130D01*
X215491872Y-104434787D01*
X215507775Y-104486378D01*
X215526386Y-104548294D01*
X215536457Y-104582352D01*
X215590993Y-104767822D01*
X215706736Y-104767822D01*
X215799263Y-104475471D01*
X215825256Y-104393462D01*
X215848934Y-104318987D01*
X215869180Y-104255544D01*
X215884874Y-104206632D01*
X215894898Y-104175749D01*
X215897945Y-104166726D01*
X215895533Y-104157487D01*
X215876592Y-104153441D01*
X215837177Y-104153846D01*
X215831007Y-104154152D01*
X215757914Y-104157971D01*
X215710043Y-104334010D01*
X215692447Y-104398211D01*
X215676723Y-104454649D01*
X215664254Y-104498422D01*
X215656426Y-104524630D01*
X215654980Y-104528903D01*
X215648986Y-104523990D01*
X215636899Y-104498532D01*
X215620107Y-104455997D01*
X215599997Y-104399850D01*
X215582997Y-104349130D01*
X215518206Y-104150504D01*
X215468476Y-104154237D01*
G36*
X214711589Y-104155417D02*
G01*
X214658589Y-104168290D01*
X214643269Y-104175110D01*
X214613572Y-104192974D01*
X214590780Y-104213093D01*
X214573917Y-104238962D01*
X214562002Y-104274073D01*
X214554058Y-104321920D01*
X214549106Y-104385996D01*
X214546169Y-104469794D01*
X214545053Y-104525768D01*
X214540948Y-104767822D01*
X214611068Y-104767822D01*
X214653607Y-104766038D01*
X214675524Y-104759942D01*
X214681188Y-104749706D01*
X214684179Y-104738637D01*
X214697549Y-104740754D01*
X214715767Y-104749629D01*
X214761376Y-104763233D01*
X214819993Y-104766899D01*
X214881646Y-104760903D01*
X214936362Y-104745521D01*
X214941270Y-104743386D01*
X214991277Y-104708255D01*
X215024244Y-104659419D01*
X215039413Y-104602333D01*
X215038254Y-104581824D01*
X214914492Y-104581824D01*
X214903587Y-104609425D01*
X214871255Y-104629204D01*
X214819090Y-104639819D01*
X214791213Y-104641228D01*
X214744753Y-104637620D01*
X214713871Y-104623597D01*
X214706336Y-104616931D01*
X214685924Y-104580666D01*
X214681188Y-104547773D01*
X214681188Y-104503763D01*
X214742487Y-104503763D01*
X214813744Y-104507395D01*
X214863724Y-104518818D01*
X214895304Y-104538824D01*
X214902374Y-104547743D01*
X214914492Y-104581824D01*
X215038254Y-104581824D01*
X215036029Y-104542456D01*
X215013337Y-104485244D01*
X214982376Y-104446580D01*
X214963624Y-104429864D01*
X214945267Y-104418878D01*
X214921381Y-104412180D01*
X214886043Y-104408326D01*
X214833331Y-104405873D01*
X214812423Y-104405168D01*
X214681188Y-104400879D01*
X214681380Y-104361158D01*
X214686463Y-104319405D01*
X214704838Y-104294158D01*
X214741961Y-104278030D01*
X214742957Y-104277742D01*
X214795590Y-104271400D01*
X214847094Y-104279684D01*
X214885370Y-104299827D01*
X214900728Y-104309773D01*
X214917270Y-104308397D01*
X214942725Y-104293987D01*
X214957672Y-104283817D01*
X214986909Y-104262088D01*
X215005020Y-104245800D01*
X215007926Y-104241137D01*
X214995960Y-104217005D01*
X214960604Y-104188185D01*
X214945247Y-104178461D01*
X214901099Y-104161714D01*
X214841602Y-104152227D01*
X214775513Y-104150095D01*
X214711589Y-104155417D01*
G37*
X214711589Y-104155417D02*
X214658589Y-104168290D01*
X214643269Y-104175110D01*
X214613572Y-104192974D01*
X214590780Y-104213093D01*
X214573917Y-104238962D01*
X214562002Y-104274073D01*
X214554058Y-104321920D01*
X214549106Y-104385996D01*
X214546169Y-104469794D01*
X214545053Y-104525768D01*
X214540948Y-104767822D01*
X214611068Y-104767822D01*
X214653607Y-104766038D01*
X214675524Y-104759942D01*
X214681188Y-104749706D01*
X214684179Y-104738637D01*
X214697549Y-104740754D01*
X214715767Y-104749629D01*
X214761376Y-104763233D01*
X214819993Y-104766899D01*
X214881646Y-104760903D01*
X214936362Y-104745521D01*
X214941270Y-104743386D01*
X214991277Y-104708255D01*
X215024244Y-104659419D01*
X215039413Y-104602333D01*
X215038254Y-104581824D01*
X214914492Y-104581824D01*
X214903587Y-104609425D01*
X214871255Y-104629204D01*
X214819090Y-104639819D01*
X214791213Y-104641228D01*
X214744753Y-104637620D01*
X214713871Y-104623597D01*
X214706336Y-104616931D01*
X214685924Y-104580666D01*
X214681188Y-104547773D01*
X214681188Y-104503763D01*
X214742487Y-104503763D01*
X214813744Y-104507395D01*
X214863724Y-104518818D01*
X214895304Y-104538824D01*
X214902374Y-104547743D01*
X214914492Y-104581824D01*
X215038254Y-104581824D01*
X215036029Y-104542456D01*
X215013337Y-104485244D01*
X214982376Y-104446580D01*
X214963624Y-104429864D01*
X214945267Y-104418878D01*
X214921381Y-104412180D01*
X214886043Y-104408326D01*
X214833331Y-104405873D01*
X214812423Y-104405168D01*
X214681188Y-104400879D01*
X214681380Y-104361158D01*
X214686463Y-104319405D01*
X214704838Y-104294158D01*
X214741961Y-104278030D01*
X214742957Y-104277742D01*
X214795590Y-104271400D01*
X214847094Y-104279684D01*
X214885370Y-104299827D01*
X214900728Y-104309773D01*
X214917270Y-104308397D01*
X214942725Y-104293987D01*
X214957672Y-104283817D01*
X214986909Y-104262088D01*
X215005020Y-104245800D01*
X215007926Y-104241137D01*
X214995960Y-104217005D01*
X214960604Y-104188185D01*
X214945247Y-104178461D01*
X214901099Y-104161714D01*
X214841602Y-104152227D01*
X214775513Y-104150095D01*
X214711589Y-104155417D01*
G36*
X214114745Y-104151486D02*
G01*
X214066405Y-104161015D01*
X214038886Y-104175125D01*
X214009936Y-104198568D01*
X214051124Y-104250571D01*
X214076518Y-104282064D01*
X214093762Y-104297428D01*
X214110898Y-104299776D01*
X214135973Y-104292217D01*
X214147743Y-104287941D01*
X214195730Y-104281631D01*
X214239676Y-104295156D01*
X214271940Y-104325710D01*
X214277181Y-104335452D01*
X214282888Y-104361258D01*
X214287294Y-104408817D01*
X214290189Y-104474758D01*
X214291369Y-104555710D01*
X214291386Y-104567226D01*
X214291386Y-104767822D01*
X214429703Y-104767822D01*
X214429703Y-104151683D01*
X214360544Y-104151683D01*
X214320667Y-104152725D01*
X214299893Y-104157358D01*
X214292211Y-104167849D01*
X214291386Y-104177745D01*
X214291386Y-104203806D01*
X214258255Y-104177745D01*
X214220265Y-104159965D01*
X214169230Y-104151174D01*
X214114745Y-104151486D01*
G37*
X214114745Y-104151486D02*
X214066405Y-104161015D01*
X214038886Y-104175125D01*
X214009936Y-104198568D01*
X214051124Y-104250571D01*
X214076518Y-104282064D01*
X214093762Y-104297428D01*
X214110898Y-104299776D01*
X214135973Y-104292217D01*
X214147743Y-104287941D01*
X214195730Y-104281631D01*
X214239676Y-104295156D01*
X214271940Y-104325710D01*
X214277181Y-104335452D01*
X214282888Y-104361258D01*
X214287294Y-104408817D01*
X214290189Y-104474758D01*
X214291369Y-104555710D01*
X214291386Y-104567226D01*
X214291386Y-104767822D01*
X214429703Y-104767822D01*
X214429703Y-104151683D01*
X214360544Y-104151683D01*
X214320667Y-104152725D01*
X214299893Y-104157358D01*
X214292211Y-104167849D01*
X214291386Y-104177745D01*
X214291386Y-104203806D01*
X214258255Y-104177745D01*
X214220265Y-104159965D01*
X214169230Y-104151174D01*
X214114745Y-104151486D01*
G36*
X213717419Y-104154970D02*
G01*
X213657315Y-104170597D01*
X213606979Y-104202848D01*
X213582607Y-104226940D01*
X213542655Y-104283895D01*
X213519758Y-104349965D01*
X213511892Y-104431182D01*
X213511852Y-104437748D01*
X213511782Y-104503763D01*
X213891736Y-104503763D01*
X213883637Y-104538342D01*
X213869013Y-104569659D01*
X213843419Y-104602291D01*
X213838065Y-104607500D01*
X213792057Y-104635694D01*
X213739590Y-104640475D01*
X213679197Y-104621926D01*
X213668960Y-104616931D01*
X213637561Y-104601745D01*
X213616530Y-104593094D01*
X213612861Y-104592293D01*
X213600052Y-104600063D01*
X213575622Y-104619072D01*
X213563221Y-104629460D01*
X213537524Y-104653321D01*
X213529085Y-104669077D01*
X213534942Y-104683571D01*
X213538072Y-104687534D01*
X213559275Y-104704879D01*
X213594262Y-104725959D01*
X213618663Y-104738265D01*
X213687928Y-104759946D01*
X213764612Y-104766971D01*
X213837235Y-104758647D01*
X213857574Y-104752686D01*
X213920524Y-104718952D01*
X213967185Y-104667045D01*
X213997827Y-104596459D01*
X214012718Y-104506692D01*
X214014353Y-104459753D01*
X214009579Y-104391413D01*
X213889010Y-104391413D01*
X213877348Y-104396465D01*
X213846002Y-104400429D01*
X213800429Y-104402768D01*
X213769554Y-104403169D01*
X213714019Y-104402783D01*
X213678967Y-104400975D01*
X213659738Y-104396773D01*
X213651670Y-104389203D01*
X213650099Y-104378218D01*
X213660879Y-104344381D01*
X213688020Y-104310940D01*
X213723723Y-104285272D01*
X213759440Y-104274772D01*
X213807952Y-104284086D01*
X213849947Y-104311013D01*
X213879064Y-104349827D01*
X213889010Y-104391413D01*
X214009579Y-104391413D01*
X214007401Y-104360236D01*
X213985945Y-104280949D01*
X213949530Y-104221263D01*
X213897703Y-104180549D01*
X213830010Y-104158179D01*
X213793338Y-104153871D01*
X213717419Y-104154970D01*
G37*
X213717419Y-104154970D02*
X213657315Y-104170597D01*
X213606979Y-104202848D01*
X213582607Y-104226940D01*
X213542655Y-104283895D01*
X213519758Y-104349965D01*
X213511892Y-104431182D01*
X213511852Y-104437748D01*
X213511782Y-104503763D01*
X213891736Y-104503763D01*
X213883637Y-104538342D01*
X213869013Y-104569659D01*
X213843419Y-104602291D01*
X213838065Y-104607500D01*
X213792057Y-104635694D01*
X213739590Y-104640475D01*
X213679197Y-104621926D01*
X213668960Y-104616931D01*
X213637561Y-104601745D01*
X213616530Y-104593094D01*
X213612861Y-104592293D01*
X213600052Y-104600063D01*
X213575622Y-104619072D01*
X213563221Y-104629460D01*
X213537524Y-104653321D01*
X213529085Y-104669077D01*
X213534942Y-104683571D01*
X213538072Y-104687534D01*
X213559275Y-104704879D01*
X213594262Y-104725959D01*
X213618663Y-104738265D01*
X213687928Y-104759946D01*
X213764612Y-104766971D01*
X213837235Y-104758647D01*
X213857574Y-104752686D01*
X213920524Y-104718952D01*
X213967185Y-104667045D01*
X213997827Y-104596459D01*
X214012718Y-104506692D01*
X214014353Y-104459753D01*
X214009579Y-104391413D01*
X213889010Y-104391413D01*
X213877348Y-104396465D01*
X213846002Y-104400429D01*
X213800429Y-104402768D01*
X213769554Y-104403169D01*
X213714019Y-104402783D01*
X213678967Y-104400975D01*
X213659738Y-104396773D01*
X213651670Y-104389203D01*
X213650099Y-104378218D01*
X213660879Y-104344381D01*
X213688020Y-104310940D01*
X213723723Y-104285272D01*
X213759440Y-104274772D01*
X213807952Y-104284086D01*
X213849947Y-104311013D01*
X213879064Y-104349827D01*
X213889010Y-104391413D01*
X214009579Y-104391413D01*
X214007401Y-104360236D01*
X213985945Y-104280949D01*
X213949530Y-104221263D01*
X213897703Y-104180549D01*
X213830010Y-104158179D01*
X213793338Y-104153871D01*
X213717419Y-104154970D01*
G36*
X218288261Y-103215148D02*
G01*
X218222479Y-103244231D01*
X218172540Y-103292793D01*
X218138374Y-103360908D01*
X218119907Y-103448651D01*
X218118583Y-103462351D01*
X218117546Y-103558939D01*
X218130993Y-103643602D01*
X218158108Y-103712221D01*
X218172627Y-103734294D01*
X218223201Y-103781011D01*
X218287609Y-103811268D01*
X218359666Y-103823824D01*
X218433185Y-103817439D01*
X218489072Y-103797772D01*
X218537132Y-103764629D01*
X218576412Y-103721175D01*
X218577092Y-103720158D01*
X218593044Y-103693338D01*
X218603410Y-103666368D01*
X218609688Y-103632332D01*
X218613373Y-103584310D01*
X218614997Y-103544931D01*
X218615672Y-103509219D01*
X218489955Y-103509219D01*
X218488726Y-103544770D01*
X218484266Y-103592094D01*
X218476397Y-103622465D01*
X218462207Y-103644072D01*
X218448917Y-103656694D01*
X218401802Y-103683122D01*
X218352505Y-103686653D01*
X218306593Y-103667639D01*
X218283638Y-103646331D01*
X218267096Y-103624859D01*
X218257421Y-103604313D01*
X218253174Y-103577574D01*
X218252920Y-103537523D01*
X218254228Y-103500638D01*
X218257043Y-103447947D01*
X218261505Y-103413772D01*
X218269548Y-103391480D01*
X218283103Y-103374442D01*
X218293845Y-103364703D01*
X218338777Y-103339123D01*
X218387249Y-103337847D01*
X218427894Y-103352999D01*
X218462567Y-103384642D01*
X218483224Y-103436620D01*
X218489955Y-103509219D01*
X218615672Y-103509219D01*
X218616479Y-103466621D01*
X218613948Y-103408056D01*
X218606362Y-103364007D01*
X218592681Y-103329248D01*
X218571865Y-103298551D01*
X218564147Y-103289436D01*
X218515889Y-103244021D01*
X218464128Y-103217493D01*
X218400828Y-103206379D01*
X218369961Y-103205471D01*
X218288261Y-103215148D01*
G37*
X218288261Y-103215148D02*
X218222479Y-103244231D01*
X218172540Y-103292793D01*
X218138374Y-103360908D01*
X218119907Y-103448651D01*
X218118583Y-103462351D01*
X218117546Y-103558939D01*
X218130993Y-103643602D01*
X218158108Y-103712221D01*
X218172627Y-103734294D01*
X218223201Y-103781011D01*
X218287609Y-103811268D01*
X218359666Y-103823824D01*
X218433185Y-103817439D01*
X218489072Y-103797772D01*
X218537132Y-103764629D01*
X218576412Y-103721175D01*
X218577092Y-103720158D01*
X218593044Y-103693338D01*
X218603410Y-103666368D01*
X218609688Y-103632332D01*
X218613373Y-103584310D01*
X218614997Y-103544931D01*
X218615672Y-103509219D01*
X218489955Y-103509219D01*
X218488726Y-103544770D01*
X218484266Y-103592094D01*
X218476397Y-103622465D01*
X218462207Y-103644072D01*
X218448917Y-103656694D01*
X218401802Y-103683122D01*
X218352505Y-103686653D01*
X218306593Y-103667639D01*
X218283638Y-103646331D01*
X218267096Y-103624859D01*
X218257421Y-103604313D01*
X218253174Y-103577574D01*
X218252920Y-103537523D01*
X218254228Y-103500638D01*
X218257043Y-103447947D01*
X218261505Y-103413772D01*
X218269548Y-103391480D01*
X218283103Y-103374442D01*
X218293845Y-103364703D01*
X218338777Y-103339123D01*
X218387249Y-103337847D01*
X218427894Y-103352999D01*
X218462567Y-103384642D01*
X218483224Y-103436620D01*
X218489955Y-103509219D01*
X218615672Y-103509219D01*
X218616479Y-103466621D01*
X218613948Y-103408056D01*
X218606362Y-103364007D01*
X218592681Y-103329248D01*
X218571865Y-103298551D01*
X218564147Y-103289436D01*
X218515889Y-103244021D01*
X218464128Y-103217493D01*
X218400828Y-103206379D01*
X218369961Y-103205471D01*
X218288261Y-103215148D01*
G36*
X217106699Y-103222614D02*
G01*
X217094168Y-103228514D01*
X217050799Y-103260283D01*
X217009790Y-103306646D01*
X216979168Y-103357696D01*
X216970459Y-103381166D01*
X216962512Y-103423091D01*
X216957774Y-103473757D01*
X216957199Y-103494679D01*
X216957129Y-103560693D01*
X217337083Y-103560693D01*
X217328983Y-103595273D01*
X217309104Y-103636170D01*
X217274347Y-103671514D01*
X217232998Y-103694282D01*
X217206649Y-103699010D01*
X217170916Y-103693273D01*
X217128282Y-103678882D01*
X217113799Y-103672262D01*
X217060240Y-103645513D01*
X217014533Y-103680376D01*
X216988158Y-103703955D01*
X216974124Y-103723417D01*
X216973414Y-103729129D01*
X216985951Y-103742973D01*
X217013428Y-103764012D01*
X217038366Y-103780425D01*
X217105664Y-103809930D01*
X217181110Y-103823284D01*
X217255888Y-103819812D01*
X217315495Y-103801663D01*
X217376941Y-103762784D01*
X217420608Y-103711595D01*
X217447926Y-103645367D01*
X217460322Y-103561371D01*
X217461421Y-103522936D01*
X217457022Y-103434861D01*
X217456482Y-103432299D01*
X217330582Y-103432299D01*
X217327115Y-103440558D01*
X217312863Y-103445113D01*
X217283470Y-103447065D01*
X217234575Y-103447517D01*
X217215748Y-103447525D01*
X217158467Y-103446843D01*
X217122141Y-103444364D01*
X217102604Y-103439443D01*
X217095690Y-103431434D01*
X217095445Y-103428862D01*
X217103336Y-103408423D01*
X217123085Y-103379789D01*
X217131575Y-103369763D01*
X217163094Y-103341408D01*
X217195949Y-103330259D01*
X217213651Y-103329327D01*
X217261539Y-103340981D01*
X217301699Y-103372285D01*
X217327173Y-103417752D01*
X217327625Y-103419233D01*
X217330582Y-103432299D01*
X217456482Y-103432299D01*
X217442392Y-103365510D01*
X217416038Y-103310025D01*
X217383807Y-103270639D01*
X217324217Y-103227931D01*
X217254168Y-103205109D01*
X217179661Y-103203046D01*
X217106699Y-103222614D01*
G37*
X217106699Y-103222614D02*
X217094168Y-103228514D01*
X217050799Y-103260283D01*
X217009790Y-103306646D01*
X216979168Y-103357696D01*
X216970459Y-103381166D01*
X216962512Y-103423091D01*
X216957774Y-103473757D01*
X216957199Y-103494679D01*
X216957129Y-103560693D01*
X217337083Y-103560693D01*
X217328983Y-103595273D01*
X217309104Y-103636170D01*
X217274347Y-103671514D01*
X217232998Y-103694282D01*
X217206649Y-103699010D01*
X217170916Y-103693273D01*
X217128282Y-103678882D01*
X217113799Y-103672262D01*
X217060240Y-103645513D01*
X217014533Y-103680376D01*
X216988158Y-103703955D01*
X216974124Y-103723417D01*
X216973414Y-103729129D01*
X216985951Y-103742973D01*
X217013428Y-103764012D01*
X217038366Y-103780425D01*
X217105664Y-103809930D01*
X217181110Y-103823284D01*
X217255888Y-103819812D01*
X217315495Y-103801663D01*
X217376941Y-103762784D01*
X217420608Y-103711595D01*
X217447926Y-103645367D01*
X217460322Y-103561371D01*
X217461421Y-103522936D01*
X217457022Y-103434861D01*
X217456482Y-103432299D01*
X217330582Y-103432299D01*
X217327115Y-103440558D01*
X217312863Y-103445113D01*
X217283470Y-103447065D01*
X217234575Y-103447517D01*
X217215748Y-103447525D01*
X217158467Y-103446843D01*
X217122141Y-103444364D01*
X217102604Y-103439443D01*
X217095690Y-103431434D01*
X217095445Y-103428862D01*
X217103336Y-103408423D01*
X217123085Y-103379789D01*
X217131575Y-103369763D01*
X217163094Y-103341408D01*
X217195949Y-103330259D01*
X217213651Y-103329327D01*
X217261539Y-103340981D01*
X217301699Y-103372285D01*
X217327173Y-103417752D01*
X217327625Y-103419233D01*
X217330582Y-103432299D01*
X217456482Y-103432299D01*
X217442392Y-103365510D01*
X217416038Y-103310025D01*
X217383807Y-103270639D01*
X217324217Y-103227931D01*
X217254168Y-103205109D01*
X217179661Y-103203046D01*
X217106699Y-103222614D01*
G36*
X215735983Y-103206452D02*
G01*
X215688366Y-103215482D01*
X215638966Y-103234370D01*
X215633688Y-103236777D01*
X215596226Y-103256476D01*
X215570283Y-103274781D01*
X215561897Y-103286508D01*
X215569883Y-103305632D01*
X215589280Y-103333850D01*
X215597890Y-103344384D01*
X215633372Y-103385847D01*
X215679115Y-103358858D01*
X215722650Y-103340878D01*
X215772950Y-103331267D01*
X215821188Y-103330660D01*
X215858533Y-103339691D01*
X215867495Y-103345327D01*
X215884563Y-103371171D01*
X215886637Y-103400941D01*
X215873866Y-103424197D01*
X215866312Y-103428708D01*
X215843675Y-103434309D01*
X215803885Y-103440892D01*
X215754834Y-103447183D01*
X215745785Y-103448170D01*
X215667004Y-103461798D01*
X215609864Y-103484946D01*
X215571970Y-103519752D01*
X215550921Y-103568354D01*
X215544365Y-103627718D01*
X215553423Y-103695198D01*
X215582836Y-103748188D01*
X215632722Y-103786783D01*
X215703200Y-103811081D01*
X215781435Y-103820667D01*
X215845234Y-103820552D01*
X215896984Y-103811845D01*
X215932327Y-103799825D01*
X215976983Y-103778880D01*
X216018253Y-103754574D01*
X216032921Y-103743876D01*
X216070643Y-103713084D01*
X216025148Y-103667049D01*
X215979653Y-103621013D01*
X215927928Y-103655243D01*
X215876048Y-103680952D01*
X215820649Y-103694399D01*
X215767395Y-103695818D01*
X215721951Y-103685443D01*
X215689984Y-103663507D01*
X215679662Y-103644998D01*
X215681211Y-103615314D01*
X215706860Y-103592615D01*
X215756540Y-103576940D01*
X215810969Y-103569695D01*
X215894736Y-103555873D01*
X215956967Y-103529796D01*
X215998493Y-103490699D01*
X216020147Y-103437820D01*
X216023147Y-103375126D01*
X216008329Y-103309642D01*
X215974546Y-103260144D01*
X215921495Y-103226408D01*
X215848874Y-103208207D01*
X215795072Y-103204639D01*
X215735983Y-103206452D01*
G37*
X215735983Y-103206452D02*
X215688366Y-103215482D01*
X215638966Y-103234370D01*
X215633688Y-103236777D01*
X215596226Y-103256476D01*
X215570283Y-103274781D01*
X215561897Y-103286508D01*
X215569883Y-103305632D01*
X215589280Y-103333850D01*
X215597890Y-103344384D01*
X215633372Y-103385847D01*
X215679115Y-103358858D01*
X215722650Y-103340878D01*
X215772950Y-103331267D01*
X215821188Y-103330660D01*
X215858533Y-103339691D01*
X215867495Y-103345327D01*
X215884563Y-103371171D01*
X215886637Y-103400941D01*
X215873866Y-103424197D01*
X215866312Y-103428708D01*
X215843675Y-103434309D01*
X215803885Y-103440892D01*
X215754834Y-103447183D01*
X215745785Y-103448170D01*
X215667004Y-103461798D01*
X215609864Y-103484946D01*
X215571970Y-103519752D01*
X215550921Y-103568354D01*
X215544365Y-103627718D01*
X215553423Y-103695198D01*
X215582836Y-103748188D01*
X215632722Y-103786783D01*
X215703200Y-103811081D01*
X215781435Y-103820667D01*
X215845234Y-103820552D01*
X215896984Y-103811845D01*
X215932327Y-103799825D01*
X215976983Y-103778880D01*
X216018253Y-103754574D01*
X216032921Y-103743876D01*
X216070643Y-103713084D01*
X216025148Y-103667049D01*
X215979653Y-103621013D01*
X215927928Y-103655243D01*
X215876048Y-103680952D01*
X215820649Y-103694399D01*
X215767395Y-103695818D01*
X215721951Y-103685443D01*
X215689984Y-103663507D01*
X215679662Y-103644998D01*
X215681211Y-103615314D01*
X215706860Y-103592615D01*
X215756540Y-103576940D01*
X215810969Y-103569695D01*
X215894736Y-103555873D01*
X215956967Y-103529796D01*
X215998493Y-103490699D01*
X216020147Y-103437820D01*
X216023147Y-103375126D01*
X216008329Y-103309642D01*
X215974546Y-103260144D01*
X215921495Y-103226408D01*
X215848874Y-103208207D01*
X215795072Y-103204639D01*
X215735983Y-103206452D01*
G36*
X215139238Y-103216055D02*
G01*
X215075637Y-103250692D01*
X215025877Y-103305372D01*
X215002432Y-103349842D01*
X214992366Y-103389121D01*
X214985844Y-103445116D01*
X214983049Y-103509621D01*
X214984164Y-103574429D01*
X214989374Y-103631334D01*
X214995459Y-103661727D01*
X215015986Y-103703306D01*
X215051537Y-103747468D01*
X215094381Y-103786087D01*
X215136789Y-103811034D01*
X215137823Y-103811430D01*
X215190447Y-103822331D01*
X215252812Y-103822601D01*
X215312076Y-103812676D01*
X215334960Y-103804722D01*
X215393898Y-103771300D01*
X215436110Y-103727511D01*
X215463844Y-103669538D01*
X215479349Y-103593565D01*
X215482857Y-103553771D01*
X215482410Y-103503766D01*
X215347624Y-103503766D01*
X215343083Y-103576732D01*
X215330014Y-103632334D01*
X215309244Y-103667861D01*
X215294448Y-103678020D01*
X215256536Y-103685104D01*
X215211473Y-103683007D01*
X215172513Y-103672812D01*
X215162296Y-103667204D01*
X215135341Y-103634538D01*
X215117549Y-103584545D01*
X215109976Y-103523705D01*
X215113675Y-103458497D01*
X215121943Y-103419253D01*
X215145680Y-103373805D01*
X215183151Y-103345396D01*
X215228280Y-103335573D01*
X215274989Y-103345887D01*
X215310868Y-103371112D01*
X215329723Y-103391925D01*
X215340728Y-103412439D01*
X215345974Y-103440203D01*
X215347551Y-103482762D01*
X215347624Y-103503766D01*
X215482410Y-103503766D01*
X215481906Y-103447580D01*
X215464612Y-103360501D01*
X215430971Y-103292530D01*
X215380982Y-103243664D01*
X215314644Y-103213899D01*
X215300399Y-103210448D01*
X215214790Y-103202345D01*
X215139238Y-103216055D01*
G37*
X215139238Y-103216055D02*
X215075637Y-103250692D01*
X215025877Y-103305372D01*
X215002432Y-103349842D01*
X214992366Y-103389121D01*
X214985844Y-103445116D01*
X214983049Y-103509621D01*
X214984164Y-103574429D01*
X214989374Y-103631334D01*
X214995459Y-103661727D01*
X215015986Y-103703306D01*
X215051537Y-103747468D01*
X215094381Y-103786087D01*
X215136789Y-103811034D01*
X215137823Y-103811430D01*
X215190447Y-103822331D01*
X215252812Y-103822601D01*
X215312076Y-103812676D01*
X215334960Y-103804722D01*
X215393898Y-103771300D01*
X215436110Y-103727511D01*
X215463844Y-103669538D01*
X215479349Y-103593565D01*
X215482857Y-103553771D01*
X215482410Y-103503766D01*
X215347624Y-103503766D01*
X215343083Y-103576732D01*
X215330014Y-103632334D01*
X215309244Y-103667861D01*
X215294448Y-103678020D01*
X215256536Y-103685104D01*
X215211473Y-103683007D01*
X215172513Y-103672812D01*
X215162296Y-103667204D01*
X215135341Y-103634538D01*
X215117549Y-103584545D01*
X215109976Y-103523705D01*
X215113675Y-103458497D01*
X215121943Y-103419253D01*
X215145680Y-103373805D01*
X215183151Y-103345396D01*
X215228280Y-103335573D01*
X215274989Y-103345887D01*
X215310868Y-103371112D01*
X215329723Y-103391925D01*
X215340728Y-103412439D01*
X215345974Y-103440203D01*
X215347551Y-103482762D01*
X215347624Y-103503766D01*
X215482410Y-103503766D01*
X215481906Y-103447580D01*
X215464612Y-103360501D01*
X215430971Y-103292530D01*
X215380982Y-103243664D01*
X215314644Y-103213899D01*
X215300399Y-103210448D01*
X215214790Y-103202345D01*
X215139238Y-103216055D01*
G36*
X214756633Y-103404342D02*
G01*
X214755445Y-103496563D01*
X214751103Y-103566610D01*
X214742442Y-103617381D01*
X214728296Y-103651772D01*
X214707500Y-103672679D01*
X214678890Y-103683000D01*
X214643465Y-103685636D01*
X214606364Y-103682682D01*
X214578182Y-103671889D01*
X214557757Y-103650360D01*
X214543921Y-103615199D01*
X214535509Y-103563510D01*
X214531357Y-103492394D01*
X214530297Y-103404342D01*
X214530297Y-103208614D01*
X214391980Y-103208614D01*
X214391980Y-103812179D01*
X214461138Y-103812179D01*
X214502830Y-103810489D01*
X214524299Y-103804556D01*
X214530297Y-103793293D01*
X214533909Y-103783261D01*
X214548286Y-103785383D01*
X214577264Y-103799580D01*
X214643681Y-103821480D01*
X214714125Y-103819928D01*
X214781623Y-103796147D01*
X214813767Y-103777362D01*
X214838285Y-103757022D01*
X214856196Y-103731573D01*
X214868521Y-103697458D01*
X214876277Y-103651121D01*
X214880484Y-103589007D01*
X214882160Y-103507561D01*
X214882376Y-103444578D01*
X214882376Y-103208614D01*
X214756633Y-103208614D01*
X214756633Y-103404342D01*
G37*
X214756633Y-103404342D02*
X214755445Y-103496563D01*
X214751103Y-103566610D01*
X214742442Y-103617381D01*
X214728296Y-103651772D01*
X214707500Y-103672679D01*
X214678890Y-103683000D01*
X214643465Y-103685636D01*
X214606364Y-103682682D01*
X214578182Y-103671889D01*
X214557757Y-103650360D01*
X214543921Y-103615199D01*
X214535509Y-103563510D01*
X214531357Y-103492394D01*
X214530297Y-103404342D01*
X214530297Y-103208614D01*
X214391980Y-103208614D01*
X214391980Y-103812179D01*
X214461138Y-103812179D01*
X214502830Y-103810489D01*
X214524299Y-103804556D01*
X214530297Y-103793293D01*
X214533909Y-103783261D01*
X214548286Y-103785383D01*
X214577264Y-103799580D01*
X214643681Y-103821480D01*
X214714125Y-103819928D01*
X214781623Y-103796147D01*
X214813767Y-103777362D01*
X214838285Y-103757022D01*
X214856196Y-103731573D01*
X214868521Y-103697458D01*
X214876277Y-103651121D01*
X214880484Y-103589007D01*
X214882160Y-103507561D01*
X214882376Y-103444578D01*
X214882376Y-103208614D01*
X214756633Y-103208614D01*
X214756633Y-103404342D01*
G36*
X213532774Y-103213880D02*
G01*
X213459920Y-103244830D01*
X213436973Y-103259895D01*
X213407646Y-103283048D01*
X213389236Y-103301253D01*
X213386039Y-103307183D01*
X213395065Y-103320340D01*
X213418163Y-103342667D01*
X213436656Y-103358250D01*
X213487272Y-103398926D01*
X213527240Y-103365295D01*
X213558126Y-103343584D01*
X213588241Y-103336090D01*
X213622708Y-103337920D01*
X213677439Y-103351528D01*
X213715114Y-103379772D01*
X213738009Y-103425433D01*
X213748403Y-103491289D01*
X213748405Y-103491331D01*
X213747506Y-103564939D01*
X213733537Y-103618946D01*
X213705672Y-103655716D01*
X213686675Y-103668168D01*
X213636224Y-103683673D01*
X213582337Y-103683683D01*
X213535454Y-103668638D01*
X213524356Y-103661287D01*
X213496524Y-103642511D01*
X213474764Y-103639434D01*
X213451296Y-103653409D01*
X213425351Y-103678510D01*
X213384284Y-103720880D01*
X213429879Y-103758464D01*
X213500326Y-103800882D01*
X213579767Y-103821785D01*
X213662785Y-103820272D01*
X213717306Y-103806411D01*
X213781030Y-103772135D01*
X213831995Y-103718212D01*
X213855149Y-103680149D01*
X213873901Y-103625536D01*
X213883285Y-103556369D01*
X213883357Y-103481407D01*
X213874176Y-103409409D01*
X213855801Y-103349137D01*
X213852907Y-103342958D01*
X213810048Y-103282351D01*
X213752021Y-103238224D01*
X213683409Y-103211493D01*
X213608799Y-103203073D01*
X213532774Y-103213880D01*
G37*
X213532774Y-103213880D02*
X213459920Y-103244830D01*
X213436973Y-103259895D01*
X213407646Y-103283048D01*
X213389236Y-103301253D01*
X213386039Y-103307183D01*
X213395065Y-103320340D01*
X213418163Y-103342667D01*
X213436656Y-103358250D01*
X213487272Y-103398926D01*
X213527240Y-103365295D01*
X213558126Y-103343584D01*
X213588241Y-103336090D01*
X213622708Y-103337920D01*
X213677439Y-103351528D01*
X213715114Y-103379772D01*
X213738009Y-103425433D01*
X213748403Y-103491289D01*
X213748405Y-103491331D01*
X213747506Y-103564939D01*
X213733537Y-103618946D01*
X213705672Y-103655716D01*
X213686675Y-103668168D01*
X213636224Y-103683673D01*
X213582337Y-103683683D01*
X213535454Y-103668638D01*
X213524356Y-103661287D01*
X213496524Y-103642511D01*
X213474764Y-103639434D01*
X213451296Y-103653409D01*
X213425351Y-103678510D01*
X213384284Y-103720880D01*
X213429879Y-103758464D01*
X213500326Y-103800882D01*
X213579767Y-103821785D01*
X213662785Y-103820272D01*
X213717306Y-103806411D01*
X213781030Y-103772135D01*
X213831995Y-103718212D01*
X213855149Y-103680149D01*
X213873901Y-103625536D01*
X213883285Y-103556369D01*
X213883357Y-103481407D01*
X213874176Y-103409409D01*
X213855801Y-103349137D01*
X213852907Y-103342958D01*
X213810048Y-103282351D01*
X213752021Y-103238224D01*
X213683409Y-103211493D01*
X213608799Y-103203073D01*
X213532774Y-103213880D01*
G36*
X213072102Y-103206457D02*
G01*
X213039904Y-103214279D01*
X212978175Y-103242921D01*
X212925390Y-103286667D01*
X212888859Y-103339117D01*
X212883840Y-103350893D01*
X212876955Y-103381740D01*
X212872136Y-103427371D01*
X212870495Y-103473492D01*
X212870495Y-103560693D01*
X213052822Y-103560693D01*
X213128021Y-103560978D01*
X213180997Y-103562704D01*
X213214675Y-103567181D01*
X213231980Y-103575720D01*
X213235837Y-103589630D01*
X213229171Y-103610222D01*
X213217230Y-103634315D01*
X213183920Y-103674525D01*
X213137632Y-103694558D01*
X213081056Y-103693905D01*
X213016969Y-103672101D01*
X212961583Y-103645193D01*
X212915625Y-103681532D01*
X212869667Y-103717872D01*
X212912904Y-103757819D01*
X212970626Y-103795563D01*
X213041614Y-103818320D01*
X213117971Y-103824688D01*
X213191801Y-103813268D01*
X213203713Y-103809393D01*
X213268601Y-103775506D01*
X213316870Y-103724986D01*
X213349535Y-103656325D01*
X213367615Y-103568014D01*
X213367825Y-103566121D01*
X213369444Y-103469878D01*
X213362900Y-103435542D01*
X213235148Y-103435542D01*
X213223416Y-103440822D01*
X213191562Y-103444867D01*
X213144603Y-103447176D01*
X213114846Y-103447525D01*
X213059352Y-103447306D01*
X213024654Y-103445916D01*
X213006399Y-103442251D01*
X213000234Y-103435210D01*
X213001805Y-103423690D01*
X213003122Y-103419233D01*
X213025618Y-103377355D01*
X213060997Y-103343604D01*
X213092220Y-103328773D01*
X213133699Y-103329668D01*
X213175731Y-103348164D01*
X213210988Y-103378786D01*
X213232146Y-103416062D01*
X213235148Y-103435542D01*
X213362900Y-103435542D01*
X213353310Y-103385229D01*
X213321302Y-103314191D01*
X213275299Y-103258779D01*
X213217179Y-103221009D01*
X213148820Y-103202896D01*
X213072102Y-103206457D01*
G37*
X213072102Y-103206457D02*
X213039904Y-103214279D01*
X212978175Y-103242921D01*
X212925390Y-103286667D01*
X212888859Y-103339117D01*
X212883840Y-103350893D01*
X212876955Y-103381740D01*
X212872136Y-103427371D01*
X212870495Y-103473492D01*
X212870495Y-103560693D01*
X213052822Y-103560693D01*
X213128021Y-103560978D01*
X213180997Y-103562704D01*
X213214675Y-103567181D01*
X213231980Y-103575720D01*
X213235837Y-103589630D01*
X213229171Y-103610222D01*
X213217230Y-103634315D01*
X213183920Y-103674525D01*
X213137632Y-103694558D01*
X213081056Y-103693905D01*
X213016969Y-103672101D01*
X212961583Y-103645193D01*
X212915625Y-103681532D01*
X212869667Y-103717872D01*
X212912904Y-103757819D01*
X212970626Y-103795563D01*
X213041614Y-103818320D01*
X213117971Y-103824688D01*
X213191801Y-103813268D01*
X213203713Y-103809393D01*
X213268601Y-103775506D01*
X213316870Y-103724986D01*
X213349535Y-103656325D01*
X213367615Y-103568014D01*
X213367825Y-103566121D01*
X213369444Y-103469878D01*
X213362900Y-103435542D01*
X213235148Y-103435542D01*
X213223416Y-103440822D01*
X213191562Y-103444867D01*
X213144603Y-103447176D01*
X213114846Y-103447525D01*
X213059352Y-103447306D01*
X213024654Y-103445916D01*
X213006399Y-103442251D01*
X213000234Y-103435210D01*
X213001805Y-103423690D01*
X213003122Y-103419233D01*
X213025618Y-103377355D01*
X213060997Y-103343604D01*
X213092220Y-103328773D01*
X213133699Y-103329668D01*
X213175731Y-103348164D01*
X213210988Y-103378786D01*
X213232146Y-103416062D01*
X213235148Y-103435542D01*
X213362900Y-103435542D01*
X213353310Y-103385229D01*
X213321302Y-103314191D01*
X213275299Y-103258779D01*
X213217179Y-103221009D01*
X213148820Y-103202896D01*
X213072102Y-103206457D01*
G36*
X216504012Y-103219002D02*
G01*
X216472717Y-103233950D01*
X216442409Y-103255541D01*
X216419318Y-103280391D01*
X216402500Y-103312087D01*
X216391006Y-103354214D01*
X216383891Y-103410358D01*
X216380207Y-103484106D01*
X216379008Y-103579044D01*
X216378989Y-103588985D01*
X216378713Y-103812179D01*
X216517030Y-103812179D01*
X216517030Y-103606418D01*
X216517128Y-103530189D01*
X216517809Y-103474939D01*
X216519651Y-103436501D01*
X216523233Y-103410706D01*
X216529132Y-103393384D01*
X216537927Y-103380368D01*
X216550180Y-103367507D01*
X216593047Y-103339873D01*
X216639843Y-103334745D01*
X216684424Y-103352217D01*
X216699928Y-103365221D01*
X216711310Y-103377447D01*
X216719481Y-103390540D01*
X216724974Y-103408615D01*
X216728320Y-103435787D01*
X216730051Y-103476170D01*
X216730697Y-103533879D01*
X216730792Y-103604132D01*
X216730792Y-103812179D01*
X216869109Y-103812179D01*
X216869109Y-103208614D01*
X216799950Y-103208614D01*
X216758428Y-103210256D01*
X216737006Y-103216087D01*
X216730795Y-103227461D01*
X216730792Y-103227798D01*
X216727910Y-103238938D01*
X216715199Y-103237674D01*
X216689926Y-103225434D01*
X216632605Y-103207424D01*
X216567037Y-103205421D01*
X216504012Y-103219002D01*
G37*
X216504012Y-103219002D02*
X216472717Y-103233950D01*
X216442409Y-103255541D01*
X216419318Y-103280391D01*
X216402500Y-103312087D01*
X216391006Y-103354214D01*
X216383891Y-103410358D01*
X216380207Y-103484106D01*
X216379008Y-103579044D01*
X216378989Y-103588985D01*
X216378713Y-103812179D01*
X216517030Y-103812179D01*
X216517030Y-103606418D01*
X216517128Y-103530189D01*
X216517809Y-103474939D01*
X216519651Y-103436501D01*
X216523233Y-103410706D01*
X216529132Y-103393384D01*
X216537927Y-103380368D01*
X216550180Y-103367507D01*
X216593047Y-103339873D01*
X216639843Y-103334745D01*
X216684424Y-103352217D01*
X216699928Y-103365221D01*
X216711310Y-103377447D01*
X216719481Y-103390540D01*
X216724974Y-103408615D01*
X216728320Y-103435787D01*
X216730051Y-103476170D01*
X216730697Y-103533879D01*
X216730792Y-103604132D01*
X216730792Y-103812179D01*
X216869109Y-103812179D01*
X216869109Y-103208614D01*
X216799950Y-103208614D01*
X216758428Y-103210256D01*
X216737006Y-103216087D01*
X216730795Y-103227461D01*
X216730792Y-103227798D01*
X216727910Y-103238938D01*
X216715199Y-103237674D01*
X216689926Y-103225434D01*
X216632605Y-103207424D01*
X216567037Y-103205421D01*
X216504012Y-103219002D01*
G36*
X213950540Y-103208030D02*
G01*
X213907289Y-103221245D01*
X213879442Y-103237941D01*
X213870371Y-103251145D01*
X213872868Y-103266797D01*
X213889069Y-103291385D01*
X213902768Y-103308800D01*
X213931008Y-103340283D01*
X213952225Y-103353529D01*
X213970312Y-103352664D01*
X214023965Y-103339010D01*
X214063370Y-103339630D01*
X214095368Y-103355104D01*
X214106110Y-103364161D01*
X214140495Y-103396027D01*
X214140495Y-103812179D01*
X214278812Y-103812179D01*
X214278812Y-103208614D01*
X214209653Y-103208614D01*
X214168131Y-103210256D01*
X214146709Y-103216087D01*
X214140498Y-103227461D01*
X214140495Y-103227798D01*
X214137561Y-103239713D01*
X214124296Y-103238159D01*
X214105916Y-103229563D01*
X214067954Y-103213568D01*
X214037128Y-103203945D01*
X213997464Y-103201478D01*
X213950540Y-103208030D01*
G37*
X213950540Y-103208030D02*
X213907289Y-103221245D01*
X213879442Y-103237941D01*
X213870371Y-103251145D01*
X213872868Y-103266797D01*
X213889069Y-103291385D01*
X213902768Y-103308800D01*
X213931008Y-103340283D01*
X213952225Y-103353529D01*
X213970312Y-103352664D01*
X214023965Y-103339010D01*
X214063370Y-103339630D01*
X214095368Y-103355104D01*
X214106110Y-103364161D01*
X214140495Y-103396027D01*
X214140495Y-103812179D01*
X214278812Y-103812179D01*
X214278812Y-103208614D01*
X214209653Y-103208614D01*
X214168131Y-103210256D01*
X214146709Y-103216087D01*
X214140498Y-103227461D01*
X214140495Y-103227798D01*
X214137561Y-103239713D01*
X214124296Y-103238159D01*
X214105916Y-103229563D01*
X214067954Y-103213568D01*
X214037128Y-103203945D01*
X213997464Y-103201478D01*
X213950540Y-103208030D01*
G36*
X215373036Y-99040018D02*
G01*
X215316188Y-99341570D01*
X214896662Y-99514512D01*
X214645016Y-99343395D01*
X214574542Y-99295750D01*
X214510837Y-99253210D01*
X214456874Y-99217715D01*
X214415627Y-99191210D01*
X214390066Y-99175636D01*
X214383105Y-99172278D01*
X214370565Y-99180914D01*
X214343769Y-99204792D01*
X214305720Y-99240859D01*
X214259421Y-99286067D01*
X214207877Y-99337364D01*
X214154091Y-99391701D01*
X214101065Y-99446028D01*
X214051805Y-99497295D01*
X214009313Y-99542451D01*
X213976593Y-99578446D01*
X213956649Y-99602230D01*
X213951881Y-99610190D01*
X213958743Y-99624865D01*
X213977980Y-99657014D01*
X214007570Y-99703492D01*
X214045490Y-99761156D01*
X214089718Y-99826860D01*
X214115346Y-99864336D01*
X214162059Y-99932768D01*
X214203568Y-99994520D01*
X214237860Y-100046519D01*
X214262920Y-100085692D01*
X214276736Y-100108965D01*
X214278812Y-100113855D01*
X214274105Y-100127755D01*
X214261277Y-100160150D01*
X214242262Y-100206485D01*
X214218997Y-100262206D01*
X214193416Y-100322758D01*
X214167455Y-100383586D01*
X214143050Y-100440136D01*
X214122137Y-100487852D01*
X214106651Y-100522181D01*
X214098528Y-100538568D01*
X214098048Y-100539212D01*
X214085293Y-100542341D01*
X214051323Y-100549321D01*
X213999660Y-100559467D01*
X213933824Y-100572092D01*
X213857336Y-100586509D01*
X213812710Y-100594823D01*
X213730979Y-100610384D01*
X213657157Y-100625192D01*
X213594979Y-100638436D01*
X213548178Y-100649305D01*
X213520491Y-100656989D01*
X213514926Y-100659427D01*
X213509474Y-100675930D01*
X213505076Y-100713200D01*
X213501728Y-100766880D01*
X213499426Y-100832612D01*
X213498168Y-100906037D01*
X213497952Y-100982796D01*
X213498773Y-101058532D01*
X213500629Y-101128886D01*
X213503518Y-101189500D01*
X213507435Y-101236016D01*
X213512378Y-101264075D01*
X213515343Y-101269916D01*
X213533066Y-101276917D01*
X213570619Y-101286927D01*
X213623036Y-101298769D01*
X213685348Y-101311267D01*
X213707100Y-101315310D01*
X213811976Y-101334520D01*
X213894820Y-101349991D01*
X213958370Y-101362337D01*
X214005363Y-101372173D01*
X214038537Y-101380114D01*
X214060629Y-101386776D01*
X214074376Y-101392773D01*
X214082516Y-101398719D01*
X214083655Y-101399894D01*
X214095023Y-101418826D01*
X214112365Y-101455669D01*
X214133950Y-101505913D01*
X214158046Y-101565046D01*
X214182921Y-101628556D01*
X214206843Y-101691932D01*
X214228081Y-101750662D01*
X214244903Y-101800235D01*
X214255578Y-101836139D01*
X214258373Y-101853862D01*
X214258140Y-101854483D01*
X214248669Y-101868970D01*
X214227182Y-101900844D01*
X214195937Y-101946789D01*
X214157193Y-102003485D01*
X214113207Y-102067617D01*
X214100681Y-102085842D01*
X214056016Y-102151914D01*
X214016712Y-102212200D01*
X213984912Y-102263235D01*
X213962755Y-102301560D01*
X213952383Y-102323711D01*
X213951881Y-102326432D01*
X213960595Y-102340736D01*
X213984675Y-102369072D01*
X214021024Y-102408396D01*
X214066547Y-102455661D01*
X214118148Y-102507823D01*
X214172733Y-102561835D01*
X214227206Y-102614653D01*
X214278471Y-102663231D01*
X214323433Y-102704523D01*
X214358996Y-102735485D01*
X214382065Y-102753070D01*
X214388446Y-102755941D01*
X214403301Y-102749178D01*
X214433714Y-102730939D01*
X214474732Y-102704297D01*
X214506291Y-102682852D01*
X214563475Y-102643503D01*
X214631194Y-102597171D01*
X214699120Y-102550913D01*
X214735639Y-102526155D01*
X214859248Y-102442547D01*
X214963009Y-102498650D01*
X215010280Y-102523228D01*
X215050477Y-102542331D01*
X215077674Y-102553227D01*
X215084598Y-102554743D01*
X215092923Y-102543549D01*
X215109346Y-102511917D01*
X215132643Y-102462765D01*
X215161586Y-102399010D01*
X215194950Y-102323571D01*
X215231509Y-102239364D01*
X215270036Y-102149308D01*
X215309306Y-102056321D01*
X215348092Y-101963320D01*
X215385170Y-101873223D01*
X215419311Y-101788948D01*
X215449292Y-101713413D01*
X215473884Y-101649534D01*
X215491864Y-101600231D01*
X215502003Y-101568421D01*
X215503634Y-101557496D01*
X215490709Y-101543561D01*
X215462411Y-101520940D01*
X215424654Y-101494333D01*
X215421485Y-101492228D01*
X215323900Y-101414114D01*
X215245214Y-101322982D01*
X215186109Y-101221745D01*
X215147268Y-101113318D01*
X215129372Y-101000614D01*
X215133103Y-100886548D01*
X215159143Y-100774034D01*
X215208175Y-100665985D01*
X215222600Y-100642345D01*
X215297631Y-100546887D01*
X215386270Y-100470232D01*
X215485451Y-100412780D01*
X215592105Y-100374929D01*
X215703164Y-100357078D01*
X215815561Y-100359625D01*
X215926227Y-100382970D01*
X216032094Y-100427510D01*
X216130095Y-100493645D01*
X216160410Y-100520487D01*
X216237562Y-100604512D01*
X216293782Y-100692966D01*
X216332347Y-100792115D01*
X216353826Y-100890303D01*
X216359128Y-101000697D01*
X216341448Y-101111640D01*
X216302581Y-101219381D01*
X216244323Y-101320169D01*
X216168469Y-101410256D01*
X216076817Y-101485892D01*
X216064772Y-101493864D01*
X216026611Y-101519974D01*
X215997601Y-101542595D01*
X215983732Y-101557039D01*
X215983531Y-101557496D01*
X215986508Y-101573121D01*
X215998311Y-101608582D01*
X216017714Y-101660962D01*
X216043488Y-101727345D01*
X216074409Y-101804814D01*
X216109249Y-101890450D01*
X216146783Y-101981337D01*
X216185783Y-102074559D01*
X216225023Y-102167197D01*
X216263276Y-102256335D01*
X216299317Y-102339055D01*
X216331917Y-102412441D01*
X216359852Y-102473575D01*
X216381895Y-102519541D01*
X216396818Y-102547421D01*
X216402828Y-102554743D01*
X216421191Y-102549041D01*
X216455552Y-102533749D01*
X216499984Y-102511599D01*
X216524417Y-102498650D01*
X216628178Y-102442547D01*
X216751787Y-102526155D01*
X216814886Y-102568987D01*
X216883970Y-102616122D01*
X216948707Y-102660503D01*
X216981134Y-102682852D01*
X217026741Y-102713477D01*
X217065360Y-102737747D01*
X217091952Y-102752587D01*
X217100590Y-102755724D01*
X217113161Y-102747261D01*
X217140984Y-102723636D01*
X217181361Y-102687302D01*
X217231595Y-102640711D01*
X217288988Y-102586317D01*
X217325286Y-102551392D01*
X217388790Y-102488996D01*
X217443673Y-102433188D01*
X217487714Y-102386354D01*
X217518695Y-102350882D01*
X217534398Y-102329161D01*
X217535905Y-102324752D01*
X217528914Y-102307985D01*
X217509594Y-102274082D01*
X217480091Y-102226476D01*
X217442545Y-102168599D01*
X217399100Y-102103884D01*
X217386745Y-102085842D01*
X217341727Y-102020267D01*
X217301340Y-101961228D01*
X217267840Y-101912042D01*
X217243486Y-101876028D01*
X217230536Y-101856502D01*
X217229285Y-101854483D01*
X217231156Y-101838922D01*
X217241087Y-101804709D01*
X217257347Y-101756355D01*
X217278205Y-101698371D01*
X217301927Y-101635270D01*
X217326784Y-101571563D01*
X217351042Y-101511761D01*
X217372971Y-101460376D01*
X217390838Y-101421919D01*
X217402913Y-101400902D01*
X217403771Y-101399894D01*
X217411154Y-101393888D01*
X217423625Y-101387948D01*
X217443920Y-101381460D01*
X217474778Y-101373809D01*
X217518934Y-101364380D01*
X217579126Y-101352559D01*
X217658093Y-101337729D01*
X217758570Y-101319277D01*
X217780325Y-101315310D01*
X217844802Y-101302853D01*
X217901011Y-101290666D01*
X217943987Y-101279926D01*
X217968760Y-101271809D01*
X217972082Y-101269916D01*
X217977556Y-101253138D01*
X217982006Y-101215645D01*
X217985428Y-101161794D01*
X217987819Y-101095944D01*
X217989177Y-101022453D01*
X217989499Y-100945680D01*
X217988781Y-100869983D01*
X217987021Y-100799720D01*
X217984216Y-100739250D01*
X217980362Y-100692930D01*
X217975457Y-100665119D01*
X217972500Y-100659427D01*
X217956037Y-100653686D01*
X217918551Y-100644345D01*
X217863775Y-100632215D01*
X217795445Y-100618107D01*
X217717294Y-100602830D01*
X217674716Y-100594823D01*
X217593929Y-100579721D01*
X217521887Y-100566040D01*
X217462111Y-100554467D01*
X217418121Y-100545687D01*
X217393439Y-100540387D01*
X217389377Y-100539212D01*
X217382511Y-100525965D01*
X217367998Y-100494057D01*
X217347771Y-100448047D01*
X217323766Y-100392492D01*
X217297918Y-100331953D01*
X217272160Y-100270986D01*
X217248427Y-100214151D01*
X217228654Y-100166006D01*
X217214776Y-100131110D01*
X217208726Y-100114021D01*
X217208614Y-100113274D01*
X217215472Y-100099793D01*
X217234698Y-100068770D01*
X217264272Y-100023289D01*
X217302173Y-99966432D01*
X217346380Y-99901283D01*
X217372079Y-99863862D01*
X217418907Y-99795247D01*
X217460499Y-99732952D01*
X217494825Y-99680129D01*
X217519857Y-99639927D01*
X217533565Y-99615500D01*
X217535544Y-99610024D01*
X217527034Y-99597278D01*
X217503507Y-99570063D01*
X217467968Y-99531428D01*
X217423423Y-99484423D01*
X217372877Y-99432095D01*
X217319336Y-99377495D01*
X217265805Y-99323670D01*
X217215289Y-99273670D01*
X217170794Y-99230543D01*
X217135325Y-99197339D01*
X217111887Y-99177106D01*
X217104046Y-99172278D01*
X217091280Y-99179067D01*
X217060744Y-99198142D01*
X217015410Y-99227561D01*
X216958244Y-99265381D01*
X216892216Y-99309661D01*
X216842410Y-99343395D01*
X216590764Y-99514512D01*
X216381001Y-99428041D01*
X216171237Y-99341570D01*
X216114389Y-99040018D01*
X216057540Y-98738466D01*
X215429885Y-98738466D01*
X215373036Y-99040018D01*
G37*
X215373036Y-99040018D02*
X215316188Y-99341570D01*
X214896662Y-99514512D01*
X214645016Y-99343395D01*
X214574542Y-99295750D01*
X214510837Y-99253210D01*
X214456874Y-99217715D01*
X214415627Y-99191210D01*
X214390066Y-99175636D01*
X214383105Y-99172278D01*
X214370565Y-99180914D01*
X214343769Y-99204792D01*
X214305720Y-99240859D01*
X214259421Y-99286067D01*
X214207877Y-99337364D01*
X214154091Y-99391701D01*
X214101065Y-99446028D01*
X214051805Y-99497295D01*
X214009313Y-99542451D01*
X213976593Y-99578446D01*
X213956649Y-99602230D01*
X213951881Y-99610190D01*
X213958743Y-99624865D01*
X213977980Y-99657014D01*
X214007570Y-99703492D01*
X214045490Y-99761156D01*
X214089718Y-99826860D01*
X214115346Y-99864336D01*
X214162059Y-99932768D01*
X214203568Y-99994520D01*
X214237860Y-100046519D01*
X214262920Y-100085692D01*
X214276736Y-100108965D01*
X214278812Y-100113855D01*
X214274105Y-100127755D01*
X214261277Y-100160150D01*
X214242262Y-100206485D01*
X214218997Y-100262206D01*
X214193416Y-100322758D01*
X214167455Y-100383586D01*
X214143050Y-100440136D01*
X214122137Y-100487852D01*
X214106651Y-100522181D01*
X214098528Y-100538568D01*
X214098048Y-100539212D01*
X214085293Y-100542341D01*
X214051323Y-100549321D01*
X213999660Y-100559467D01*
X213933824Y-100572092D01*
X213857336Y-100586509D01*
X213812710Y-100594823D01*
X213730979Y-100610384D01*
X213657157Y-100625192D01*
X213594979Y-100638436D01*
X213548178Y-100649305D01*
X213520491Y-100656989D01*
X213514926Y-100659427D01*
X213509474Y-100675930D01*
X213505076Y-100713200D01*
X213501728Y-100766880D01*
X213499426Y-100832612D01*
X213498168Y-100906037D01*
X213497952Y-100982796D01*
X213498773Y-101058532D01*
X213500629Y-101128886D01*
X213503518Y-101189500D01*
X213507435Y-101236016D01*
X213512378Y-101264075D01*
X213515343Y-101269916D01*
X213533066Y-101276917D01*
X213570619Y-101286927D01*
X213623036Y-101298769D01*
X213685348Y-101311267D01*
X213707100Y-101315310D01*
X213811976Y-101334520D01*
X213894820Y-101349991D01*
X213958370Y-101362337D01*
X214005363Y-101372173D01*
X214038537Y-101380114D01*
X214060629Y-101386776D01*
X214074376Y-101392773D01*
X214082516Y-101398719D01*
X214083655Y-101399894D01*
X214095023Y-101418826D01*
X214112365Y-101455669D01*
X214133950Y-101505913D01*
X214158046Y-101565046D01*
X214182921Y-101628556D01*
X214206843Y-101691932D01*
X214228081Y-101750662D01*
X214244903Y-101800235D01*
X214255578Y-101836139D01*
X214258373Y-101853862D01*
X214258140Y-101854483D01*
X214248669Y-101868970D01*
X214227182Y-101900844D01*
X214195937Y-101946789D01*
X214157193Y-102003485D01*
X214113207Y-102067617D01*
X214100681Y-102085842D01*
X214056016Y-102151914D01*
X214016712Y-102212200D01*
X213984912Y-102263235D01*
X213962755Y-102301560D01*
X213952383Y-102323711D01*
X213951881Y-102326432D01*
X213960595Y-102340736D01*
X213984675Y-102369072D01*
X214021024Y-102408396D01*
X214066547Y-102455661D01*
X214118148Y-102507823D01*
X214172733Y-102561835D01*
X214227206Y-102614653D01*
X214278471Y-102663231D01*
X214323433Y-102704523D01*
X214358996Y-102735485D01*
X214382065Y-102753070D01*
X214388446Y-102755941D01*
X214403301Y-102749178D01*
X214433714Y-102730939D01*
X214474732Y-102704297D01*
X214506291Y-102682852D01*
X214563475Y-102643503D01*
X214631194Y-102597171D01*
X214699120Y-102550913D01*
X214735639Y-102526155D01*
X214859248Y-102442547D01*
X214963009Y-102498650D01*
X215010280Y-102523228D01*
X215050477Y-102542331D01*
X215077674Y-102553227D01*
X215084598Y-102554743D01*
X215092923Y-102543549D01*
X215109346Y-102511917D01*
X215132643Y-102462765D01*
X215161586Y-102399010D01*
X215194950Y-102323571D01*
X215231509Y-102239364D01*
X215270036Y-102149308D01*
X215309306Y-102056321D01*
X215348092Y-101963320D01*
X215385170Y-101873223D01*
X215419311Y-101788948D01*
X215449292Y-101713413D01*
X215473884Y-101649534D01*
X215491864Y-101600231D01*
X215502003Y-101568421D01*
X215503634Y-101557496D01*
X215490709Y-101543561D01*
X215462411Y-101520940D01*
X215424654Y-101494333D01*
X215421485Y-101492228D01*
X215323900Y-101414114D01*
X215245214Y-101322982D01*
X215186109Y-101221745D01*
X215147268Y-101113318D01*
X215129372Y-101000614D01*
X215133103Y-100886548D01*
X215159143Y-100774034D01*
X215208175Y-100665985D01*
X215222600Y-100642345D01*
X215297631Y-100546887D01*
X215386270Y-100470232D01*
X215485451Y-100412780D01*
X215592105Y-100374929D01*
X215703164Y-100357078D01*
X215815561Y-100359625D01*
X215926227Y-100382970D01*
X216032094Y-100427510D01*
X216130095Y-100493645D01*
X216160410Y-100520487D01*
X216237562Y-100604512D01*
X216293782Y-100692966D01*
X216332347Y-100792115D01*
X216353826Y-100890303D01*
X216359128Y-101000697D01*
X216341448Y-101111640D01*
X216302581Y-101219381D01*
X216244323Y-101320169D01*
X216168469Y-101410256D01*
X216076817Y-101485892D01*
X216064772Y-101493864D01*
X216026611Y-101519974D01*
X215997601Y-101542595D01*
X215983732Y-101557039D01*
X215983531Y-101557496D01*
X215986508Y-101573121D01*
X215998311Y-101608582D01*
X216017714Y-101660962D01*
X216043488Y-101727345D01*
X216074409Y-101804814D01*
X216109249Y-101890450D01*
X216146783Y-101981337D01*
X216185783Y-102074559D01*
X216225023Y-102167197D01*
X216263276Y-102256335D01*
X216299317Y-102339055D01*
X216331917Y-102412441D01*
X216359852Y-102473575D01*
X216381895Y-102519541D01*
X216396818Y-102547421D01*
X216402828Y-102554743D01*
X216421191Y-102549041D01*
X216455552Y-102533749D01*
X216499984Y-102511599D01*
X216524417Y-102498650D01*
X216628178Y-102442547D01*
X216751787Y-102526155D01*
X216814886Y-102568987D01*
X216883970Y-102616122D01*
X216948707Y-102660503D01*
X216981134Y-102682852D01*
X217026741Y-102713477D01*
X217065360Y-102737747D01*
X217091952Y-102752587D01*
X217100590Y-102755724D01*
X217113161Y-102747261D01*
X217140984Y-102723636D01*
X217181361Y-102687302D01*
X217231595Y-102640711D01*
X217288988Y-102586317D01*
X217325286Y-102551392D01*
X217388790Y-102488996D01*
X217443673Y-102433188D01*
X217487714Y-102386354D01*
X217518695Y-102350882D01*
X217534398Y-102329161D01*
X217535905Y-102324752D01*
X217528914Y-102307985D01*
X217509594Y-102274082D01*
X217480091Y-102226476D01*
X217442545Y-102168599D01*
X217399100Y-102103884D01*
X217386745Y-102085842D01*
X217341727Y-102020267D01*
X217301340Y-101961228D01*
X217267840Y-101912042D01*
X217243486Y-101876028D01*
X217230536Y-101856502D01*
X217229285Y-101854483D01*
X217231156Y-101838922D01*
X217241087Y-101804709D01*
X217257347Y-101756355D01*
X217278205Y-101698371D01*
X217301927Y-101635270D01*
X217326784Y-101571563D01*
X217351042Y-101511761D01*
X217372971Y-101460376D01*
X217390838Y-101421919D01*
X217402913Y-101400902D01*
X217403771Y-101399894D01*
X217411154Y-101393888D01*
X217423625Y-101387948D01*
X217443920Y-101381460D01*
X217474778Y-101373809D01*
X217518934Y-101364380D01*
X217579126Y-101352559D01*
X217658093Y-101337729D01*
X217758570Y-101319277D01*
X217780325Y-101315310D01*
X217844802Y-101302853D01*
X217901011Y-101290666D01*
X217943987Y-101279926D01*
X217968760Y-101271809D01*
X217972082Y-101269916D01*
X217977556Y-101253138D01*
X217982006Y-101215645D01*
X217985428Y-101161794D01*
X217987819Y-101095944D01*
X217989177Y-101022453D01*
X217989499Y-100945680D01*
X217988781Y-100869983D01*
X217987021Y-100799720D01*
X217984216Y-100739250D01*
X217980362Y-100692930D01*
X217975457Y-100665119D01*
X217972500Y-100659427D01*
X217956037Y-100653686D01*
X217918551Y-100644345D01*
X217863775Y-100632215D01*
X217795445Y-100618107D01*
X217717294Y-100602830D01*
X217674716Y-100594823D01*
X217593929Y-100579721D01*
X217521887Y-100566040D01*
X217462111Y-100554467D01*
X217418121Y-100545687D01*
X217393439Y-100540387D01*
X217389377Y-100539212D01*
X217382511Y-100525965D01*
X217367998Y-100494057D01*
X217347771Y-100448047D01*
X217323766Y-100392492D01*
X217297918Y-100331953D01*
X217272160Y-100270986D01*
X217248427Y-100214151D01*
X217228654Y-100166006D01*
X217214776Y-100131110D01*
X217208726Y-100114021D01*
X217208614Y-100113274D01*
X217215472Y-100099793D01*
X217234698Y-100068770D01*
X217264272Y-100023289D01*
X217302173Y-99966432D01*
X217346380Y-99901283D01*
X217372079Y-99863862D01*
X217418907Y-99795247D01*
X217460499Y-99732952D01*
X217494825Y-99680129D01*
X217519857Y-99639927D01*
X217533565Y-99615500D01*
X217535544Y-99610024D01*
X217527034Y-99597278D01*
X217503507Y-99570063D01*
X217467968Y-99531428D01*
X217423423Y-99484423D01*
X217372877Y-99432095D01*
X217319336Y-99377495D01*
X217265805Y-99323670D01*
X217215289Y-99273670D01*
X217170794Y-99230543D01*
X217135325Y-99197339D01*
X217111887Y-99177106D01*
X217104046Y-99172278D01*
X217091280Y-99179067D01*
X217060744Y-99198142D01*
X217015410Y-99227561D01*
X216958244Y-99265381D01*
X216892216Y-99309661D01*
X216842410Y-99343395D01*
X216590764Y-99514512D01*
X216381001Y-99428041D01*
X216171237Y-99341570D01*
X216114389Y-99040018D01*
X216057540Y-98738466D01*
X215429885Y-98738466D01*
X215373036Y-99040018D01*
D13*
%TO.C,C1*%
X230240000Y-135134420D02*
X230240000Y-135415580D01*
X231260000Y-135134420D02*
X231260000Y-135415580D01*
%TO.C,C2*%
X228240000Y-135134420D02*
X228240000Y-135415580D01*
X229260000Y-135134420D02*
X229260000Y-135415580D01*
%TO.C,C3*%
X209985000Y-150511252D02*
X209985000Y-149988748D01*
X208515000Y-150511252D02*
X208515000Y-149988748D01*
%TO.C,C4*%
X202988748Y-145735000D02*
X203511252Y-145735000D01*
X202988748Y-144265000D02*
X203511252Y-144265000D01*
%TO.C,C5*%
X225615580Y-111240000D02*
X225334420Y-111240000D01*
X225615580Y-112260000D02*
X225334420Y-112260000D01*
D11*
%TO.C,J1*%
X226600000Y-174750000D02*
G75*
G03*
X226600000Y-174750000I-100000J0D01*
G01*
D10*
X227000000Y-177250000D02*
X228250000Y-177250000D01*
X230000000Y-181250000D02*
X230000000Y-181750000D01*
X230000000Y-181750000D02*
X231000000Y-181750000D01*
X231000000Y-181750000D02*
X231000000Y-182750000D01*
X231000000Y-182750000D02*
X209000000Y-182750000D01*
X209000000Y-182750000D02*
X209000000Y-181750000D01*
X209000000Y-181750000D02*
X210000000Y-181750000D01*
X210000000Y-181750000D02*
X210000000Y-181250000D01*
X213000000Y-177250000D02*
X211750000Y-177250000D01*
%TO.C,J2*%
X209750000Y-131000000D02*
X209000000Y-131000000D01*
X209000000Y-131000000D02*
X209000000Y-129250000D01*
X230250000Y-131000000D02*
X231000000Y-131000000D01*
X231000000Y-131000000D02*
X231000000Y-129250000D01*
X209750000Y-128000000D02*
X230250000Y-128000000D01*
D13*
%TO.C,R1*%
X213227500Y-135087742D02*
X213227500Y-135562258D01*
X214272500Y-135087742D02*
X214272500Y-135562258D01*
%TO.C,R2*%
X211227500Y-135087742D02*
X211227500Y-135562258D01*
X212272500Y-135087742D02*
X212272500Y-135562258D01*
%TO.C,R3*%
X207272500Y-139062258D02*
X207272500Y-138587742D01*
X206227500Y-139062258D02*
X206227500Y-138587742D01*
%TO.C,R4*%
X205272500Y-139062258D02*
X205272500Y-138587742D01*
X204227500Y-139062258D02*
X204227500Y-138587742D01*
%TO.C,R5*%
X203272500Y-139062258D02*
X203272500Y-138587742D01*
X202227500Y-139062258D02*
X202227500Y-138587742D01*
%TO.C,R6*%
X209227500Y-135087742D02*
X209227500Y-135562258D01*
X210272500Y-135087742D02*
X210272500Y-135562258D01*
%TO.C,R7*%
X205227500Y-135087742D02*
X205227500Y-135562258D01*
X206272500Y-135087742D02*
X206272500Y-135562258D01*
%TO.C,R8*%
X203227500Y-135087742D02*
X203227500Y-135562258D01*
X204272500Y-135087742D02*
X204272500Y-135562258D01*
%TO.C,R9*%
X201227500Y-135087742D02*
X201227500Y-135562258D01*
X202272500Y-135087742D02*
X202272500Y-135562258D01*
%TO.C,U1*%
X201340000Y-153660000D02*
X201340000Y-152400000D01*
X201340000Y-146840000D02*
X201340000Y-148100000D01*
X205100000Y-153660000D02*
X201340000Y-153660000D01*
X207350000Y-146840000D02*
X201340000Y-146840000D01*
%TO.C,U2*%
X200330000Y-141510000D02*
X199400000Y-141510000D01*
X197170000Y-141510000D02*
X198100000Y-141510000D01*
X197170000Y-141510000D02*
X197170000Y-139350000D01*
X200330000Y-141510000D02*
X200330000Y-140050000D01*
D10*
%TO.C,J3*%
X226030000Y-110000000D02*
X225280000Y-110000000D01*
X225280000Y-110000000D02*
X225280000Y-108250000D01*
X229530000Y-110000000D02*
X230280000Y-110000000D01*
X230280000Y-110000000D02*
X230280000Y-108250000D01*
X226030000Y-107000000D02*
X229530000Y-107000000D01*
%TO.C,C1*%
X231035714Y-132616666D02*
X231073809Y-132578571D01*
X231111904Y-132464285D01*
X231111904Y-132388095D01*
X231073809Y-132273809D01*
X230997619Y-132197619D01*
X230921428Y-132159523D01*
X230769047Y-132121428D01*
X230654761Y-132121428D01*
X230502380Y-132159523D01*
X230426190Y-132197619D01*
X230350000Y-132273809D01*
X230311904Y-132388095D01*
X230311904Y-132464285D01*
X230350000Y-132578571D01*
X230388095Y-132616666D01*
X231111904Y-133378571D02*
X231111904Y-132921428D01*
X231111904Y-133150000D02*
X230311904Y-133150000D01*
X230426190Y-133073809D01*
X230502380Y-132997619D01*
X230540476Y-132921428D01*
%TO.C,C2*%
X229035714Y-132616666D02*
X229073809Y-132578571D01*
X229111904Y-132464285D01*
X229111904Y-132388095D01*
X229073809Y-132273809D01*
X228997619Y-132197619D01*
X228921428Y-132159523D01*
X228769047Y-132121428D01*
X228654761Y-132121428D01*
X228502380Y-132159523D01*
X228426190Y-132197619D01*
X228350000Y-132273809D01*
X228311904Y-132388095D01*
X228311904Y-132464285D01*
X228350000Y-132578571D01*
X228388095Y-132616666D01*
X228388095Y-132921428D02*
X228350000Y-132959523D01*
X228311904Y-133035714D01*
X228311904Y-133226190D01*
X228350000Y-133302380D01*
X228388095Y-133340476D01*
X228464285Y-133378571D01*
X228540476Y-133378571D01*
X228654761Y-133340476D01*
X229111904Y-132883333D01*
X229111904Y-133378571D01*
%TO.C,C3*%
X211215714Y-150116666D02*
X211253809Y-150078571D01*
X211291904Y-149964285D01*
X211291904Y-149888095D01*
X211253809Y-149773809D01*
X211177619Y-149697619D01*
X211101428Y-149659523D01*
X210949047Y-149621428D01*
X210834761Y-149621428D01*
X210682380Y-149659523D01*
X210606190Y-149697619D01*
X210530000Y-149773809D01*
X210491904Y-149888095D01*
X210491904Y-149964285D01*
X210530000Y-150078571D01*
X210568095Y-150116666D01*
X210491904Y-150383333D02*
X210491904Y-150878571D01*
X210796666Y-150611904D01*
X210796666Y-150726190D01*
X210834761Y-150802380D01*
X210872857Y-150840476D01*
X210949047Y-150878571D01*
X211139523Y-150878571D01*
X211215714Y-150840476D01*
X211253809Y-150802380D01*
X211291904Y-150726190D01*
X211291904Y-150497619D01*
X211253809Y-150421428D01*
X211215714Y-150383333D01*
%TO.C,C4*%
X203383333Y-143535714D02*
X203421428Y-143573809D01*
X203535714Y-143611904D01*
X203611904Y-143611904D01*
X203726190Y-143573809D01*
X203802380Y-143497619D01*
X203840476Y-143421428D01*
X203878571Y-143269047D01*
X203878571Y-143154761D01*
X203840476Y-143002380D01*
X203802380Y-142926190D01*
X203726190Y-142850000D01*
X203611904Y-142811904D01*
X203535714Y-142811904D01*
X203421428Y-142850000D01*
X203383333Y-142888095D01*
X202697619Y-143078571D02*
X202697619Y-143611904D01*
X202888095Y-142773809D02*
X203078571Y-143345238D01*
X202583333Y-143345238D01*
%TO.C,C5*%
X223133333Y-112035714D02*
X223171428Y-112073809D01*
X223285714Y-112111904D01*
X223361904Y-112111904D01*
X223476190Y-112073809D01*
X223552380Y-111997619D01*
X223590476Y-111921428D01*
X223628571Y-111769047D01*
X223628571Y-111654761D01*
X223590476Y-111502380D01*
X223552380Y-111426190D01*
X223476190Y-111350000D01*
X223361904Y-111311904D01*
X223285714Y-111311904D01*
X223171428Y-111350000D01*
X223133333Y-111388095D01*
X222409523Y-111311904D02*
X222790476Y-111311904D01*
X222828571Y-111692857D01*
X222790476Y-111654761D01*
X222714285Y-111616666D01*
X222523809Y-111616666D01*
X222447619Y-111654761D01*
X222409523Y-111692857D01*
X222371428Y-111769047D01*
X222371428Y-111959523D01*
X222409523Y-112035714D01*
X222447619Y-112073809D01*
X222523809Y-112111904D01*
X222714285Y-112111904D01*
X222790476Y-112073809D01*
X222828571Y-112035714D01*
%TO.C,J1*%
X208083333Y-179452380D02*
X208083333Y-180166666D01*
X208130952Y-180309523D01*
X208226190Y-180404761D01*
X208369047Y-180452380D01*
X208464285Y-180452380D01*
X207083333Y-180452380D02*
X207654761Y-180452380D01*
X207369047Y-180452380D02*
X207369047Y-179452380D01*
X207464285Y-179595238D01*
X207559523Y-179690476D01*
X207654761Y-179738095D01*
%TO.C,J2*%
X208016666Y-129311904D02*
X208016666Y-129883333D01*
X208054761Y-129997619D01*
X208130952Y-130073809D01*
X208245238Y-130111904D01*
X208321428Y-130111904D01*
X207673809Y-129388095D02*
X207635714Y-129350000D01*
X207559523Y-129311904D01*
X207369047Y-129311904D01*
X207292857Y-129350000D01*
X207254761Y-129388095D01*
X207216666Y-129464285D01*
X207216666Y-129540476D01*
X207254761Y-129654761D01*
X207711904Y-130111904D01*
X207216666Y-130111904D01*
%TO.C,R1*%
X214111904Y-132691666D02*
X213730952Y-132425000D01*
X214111904Y-132234523D02*
X213311904Y-132234523D01*
X213311904Y-132539285D01*
X213350000Y-132615476D01*
X213388095Y-132653571D01*
X213464285Y-132691666D01*
X213578571Y-132691666D01*
X213654761Y-132653571D01*
X213692857Y-132615476D01*
X213730952Y-132539285D01*
X213730952Y-132234523D01*
X214111904Y-133453571D02*
X214111904Y-132996428D01*
X214111904Y-133225000D02*
X213311904Y-133225000D01*
X213426190Y-133148809D01*
X213502380Y-133072619D01*
X213540476Y-132996428D01*
%TO.C,R2*%
X212111904Y-132691666D02*
X211730952Y-132425000D01*
X212111904Y-132234523D02*
X211311904Y-132234523D01*
X211311904Y-132539285D01*
X211350000Y-132615476D01*
X211388095Y-132653571D01*
X211464285Y-132691666D01*
X211578571Y-132691666D01*
X211654761Y-132653571D01*
X211692857Y-132615476D01*
X211730952Y-132539285D01*
X211730952Y-132234523D01*
X211388095Y-132996428D02*
X211350000Y-133034523D01*
X211311904Y-133110714D01*
X211311904Y-133301190D01*
X211350000Y-133377380D01*
X211388095Y-133415476D01*
X211464285Y-133453571D01*
X211540476Y-133453571D01*
X211654761Y-133415476D01*
X212111904Y-132958333D01*
X212111904Y-133453571D01*
%TO.C,R3*%
X207111904Y-141366666D02*
X206730952Y-141100000D01*
X207111904Y-140909523D02*
X206311904Y-140909523D01*
X206311904Y-141214285D01*
X206350000Y-141290476D01*
X206388095Y-141328571D01*
X206464285Y-141366666D01*
X206578571Y-141366666D01*
X206654761Y-141328571D01*
X206692857Y-141290476D01*
X206730952Y-141214285D01*
X206730952Y-140909523D01*
X206311904Y-141633333D02*
X206311904Y-142128571D01*
X206616666Y-141861904D01*
X206616666Y-141976190D01*
X206654761Y-142052380D01*
X206692857Y-142090476D01*
X206769047Y-142128571D01*
X206959523Y-142128571D01*
X207035714Y-142090476D01*
X207073809Y-142052380D01*
X207111904Y-141976190D01*
X207111904Y-141747619D01*
X207073809Y-141671428D01*
X207035714Y-141633333D01*
%TO.C,R4*%
X205111904Y-141366666D02*
X204730952Y-141100000D01*
X205111904Y-140909523D02*
X204311904Y-140909523D01*
X204311904Y-141214285D01*
X204350000Y-141290476D01*
X204388095Y-141328571D01*
X204464285Y-141366666D01*
X204578571Y-141366666D01*
X204654761Y-141328571D01*
X204692857Y-141290476D01*
X204730952Y-141214285D01*
X204730952Y-140909523D01*
X204578571Y-142052380D02*
X205111904Y-142052380D01*
X204273809Y-141861904D02*
X204845238Y-141671428D01*
X204845238Y-142166666D01*
%TO.C,R5*%
X203111904Y-141366666D02*
X202730952Y-141100000D01*
X203111904Y-140909523D02*
X202311904Y-140909523D01*
X202311904Y-141214285D01*
X202350000Y-141290476D01*
X202388095Y-141328571D01*
X202464285Y-141366666D01*
X202578571Y-141366666D01*
X202654761Y-141328571D01*
X202692857Y-141290476D01*
X202730952Y-141214285D01*
X202730952Y-140909523D01*
X202311904Y-142090476D02*
X202311904Y-141709523D01*
X202692857Y-141671428D01*
X202654761Y-141709523D01*
X202616666Y-141785714D01*
X202616666Y-141976190D01*
X202654761Y-142052380D01*
X202692857Y-142090476D01*
X202769047Y-142128571D01*
X202959523Y-142128571D01*
X203035714Y-142090476D01*
X203073809Y-142052380D01*
X203111904Y-141976190D01*
X203111904Y-141785714D01*
X203073809Y-141709523D01*
X203035714Y-141671428D01*
%TO.C,R6*%
X210111904Y-132691666D02*
X209730952Y-132425000D01*
X210111904Y-132234523D02*
X209311904Y-132234523D01*
X209311904Y-132539285D01*
X209350000Y-132615476D01*
X209388095Y-132653571D01*
X209464285Y-132691666D01*
X209578571Y-132691666D01*
X209654761Y-132653571D01*
X209692857Y-132615476D01*
X209730952Y-132539285D01*
X209730952Y-132234523D01*
X209311904Y-133377380D02*
X209311904Y-133225000D01*
X209350000Y-133148809D01*
X209388095Y-133110714D01*
X209502380Y-133034523D01*
X209654761Y-132996428D01*
X209959523Y-132996428D01*
X210035714Y-133034523D01*
X210073809Y-133072619D01*
X210111904Y-133148809D01*
X210111904Y-133301190D01*
X210073809Y-133377380D01*
X210035714Y-133415476D01*
X209959523Y-133453571D01*
X209769047Y-133453571D01*
X209692857Y-133415476D01*
X209654761Y-133377380D01*
X209616666Y-133301190D01*
X209616666Y-133148809D01*
X209654761Y-133072619D01*
X209692857Y-133034523D01*
X209769047Y-132996428D01*
%TO.C,R7*%
X206111904Y-132616666D02*
X205730952Y-132350000D01*
X206111904Y-132159523D02*
X205311904Y-132159523D01*
X205311904Y-132464285D01*
X205350000Y-132540476D01*
X205388095Y-132578571D01*
X205464285Y-132616666D01*
X205578571Y-132616666D01*
X205654761Y-132578571D01*
X205692857Y-132540476D01*
X205730952Y-132464285D01*
X205730952Y-132159523D01*
X205311904Y-132883333D02*
X205311904Y-133416666D01*
X206111904Y-133073809D01*
%TO.C,R8*%
X204111904Y-132616666D02*
X203730952Y-132350000D01*
X204111904Y-132159523D02*
X203311904Y-132159523D01*
X203311904Y-132464285D01*
X203350000Y-132540476D01*
X203388095Y-132578571D01*
X203464285Y-132616666D01*
X203578571Y-132616666D01*
X203654761Y-132578571D01*
X203692857Y-132540476D01*
X203730952Y-132464285D01*
X203730952Y-132159523D01*
X203654761Y-133073809D02*
X203616666Y-132997619D01*
X203578571Y-132959523D01*
X203502380Y-132921428D01*
X203464285Y-132921428D01*
X203388095Y-132959523D01*
X203350000Y-132997619D01*
X203311904Y-133073809D01*
X203311904Y-133226190D01*
X203350000Y-133302380D01*
X203388095Y-133340476D01*
X203464285Y-133378571D01*
X203502380Y-133378571D01*
X203578571Y-133340476D01*
X203616666Y-133302380D01*
X203654761Y-133226190D01*
X203654761Y-133073809D01*
X203692857Y-132997619D01*
X203730952Y-132959523D01*
X203807142Y-132921428D01*
X203959523Y-132921428D01*
X204035714Y-132959523D01*
X204073809Y-132997619D01*
X204111904Y-133073809D01*
X204111904Y-133226190D01*
X204073809Y-133302380D01*
X204035714Y-133340476D01*
X203959523Y-133378571D01*
X203807142Y-133378571D01*
X203730952Y-133340476D01*
X203692857Y-133302380D01*
X203654761Y-133226190D01*
%TO.C,R9*%
X202111904Y-132616666D02*
X201730952Y-132350000D01*
X202111904Y-132159523D02*
X201311904Y-132159523D01*
X201311904Y-132464285D01*
X201350000Y-132540476D01*
X201388095Y-132578571D01*
X201464285Y-132616666D01*
X201578571Y-132616666D01*
X201654761Y-132578571D01*
X201692857Y-132540476D01*
X201730952Y-132464285D01*
X201730952Y-132159523D01*
X202111904Y-132997619D02*
X202111904Y-133150000D01*
X202073809Y-133226190D01*
X202035714Y-133264285D01*
X201921428Y-133340476D01*
X201769047Y-133378571D01*
X201464285Y-133378571D01*
X201388095Y-133340476D01*
X201350000Y-133302380D01*
X201311904Y-133226190D01*
X201311904Y-133073809D01*
X201350000Y-132997619D01*
X201388095Y-132959523D01*
X201464285Y-132921428D01*
X201654761Y-132921428D01*
X201730952Y-132959523D01*
X201769047Y-132997619D01*
X201807142Y-133073809D01*
X201807142Y-133226190D01*
X201769047Y-133302380D01*
X201730952Y-133340476D01*
X201654761Y-133378571D01*
%TO.C,U1*%
X203859523Y-154311904D02*
X203859523Y-154959523D01*
X203821428Y-155035714D01*
X203783333Y-155073809D01*
X203707142Y-155111904D01*
X203554761Y-155111904D01*
X203478571Y-155073809D01*
X203440476Y-155035714D01*
X203402380Y-154959523D01*
X203402380Y-154311904D01*
X202602380Y-155111904D02*
X203059523Y-155111904D01*
X202830952Y-155111904D02*
X202830952Y-154311904D01*
X202907142Y-154426190D01*
X202983333Y-154502380D01*
X203059523Y-154540476D01*
%TO.C,U2*%
X195811904Y-140140476D02*
X196459523Y-140140476D01*
X196535714Y-140178571D01*
X196573809Y-140216666D01*
X196611904Y-140292857D01*
X196611904Y-140445238D01*
X196573809Y-140521428D01*
X196535714Y-140559523D01*
X196459523Y-140597619D01*
X195811904Y-140597619D01*
X195888095Y-140940476D02*
X195850000Y-140978571D01*
X195811904Y-141054761D01*
X195811904Y-141245238D01*
X195850000Y-141321428D01*
X195888095Y-141359523D01*
X195964285Y-141397619D01*
X196040476Y-141397619D01*
X196154761Y-141359523D01*
X196611904Y-140902380D01*
X196611904Y-141397619D01*
%TO.C,J3*%
X232016666Y-108311904D02*
X232016666Y-108883333D01*
X232054761Y-108997619D01*
X232130952Y-109073809D01*
X232245238Y-109111904D01*
X232321428Y-109111904D01*
X231711904Y-108311904D02*
X231216666Y-108311904D01*
X231483333Y-108616666D01*
X231369047Y-108616666D01*
X231292857Y-108654761D01*
X231254761Y-108692857D01*
X231216666Y-108769047D01*
X231216666Y-108959523D01*
X231254761Y-109035714D01*
X231292857Y-109073809D01*
X231369047Y-109111904D01*
X231597619Y-109111904D01*
X231673809Y-109073809D01*
X231711904Y-109035714D01*
%TD*%
M02*
