%TF.GenerationSoftware,KiCad,Pcbnew,5.1.10*%
%TF.CreationDate,2021-12-05T17:02:08-05:00*%
%TF.ProjectId,display,64697370-6c61-4792-9e6b-696361645f70,v1.0*%
%TF.SameCoordinates,Original*%
%TF.FileFunction,Copper,L2,Bot*%
%TF.FilePolarity,Positive*%
%FSLAX46Y46*%
G04 Gerber Fmt 4.6, Leading zero omitted, Abs format (unit mm)*
G04 Created by KiCad (PCBNEW 5.1.10) date 2021-12-05 17:02:08*
%MOMM*%
%LPD*%
G01*
G04 APERTURE LIST*
%TA.AperFunction,SMDPad,CuDef*%
%ADD10R,2.000000X1.500000*%
%TD*%
%TA.AperFunction,SMDPad,CuDef*%
%ADD11R,2.000000X3.800000*%
%TD*%
%TA.AperFunction,SMDPad,CuDef*%
%ADD12R,0.800000X0.900000*%
%TD*%
%TA.AperFunction,ViaPad*%
%ADD13C,0.800000*%
%TD*%
%TA.AperFunction,Conductor*%
%ADD14C,0.300000*%
%TD*%
%TA.AperFunction,Conductor*%
%ADD15C,0.500000*%
%TD*%
%TA.AperFunction,Conductor*%
%ADD16C,0.250000*%
%TD*%
%TA.AperFunction,Conductor*%
%ADD17C,0.100000*%
%TD*%
G04 APERTURE END LIST*
%TO.P,C1,2*%
%TO.N,GND*%
%TA.AperFunction,SMDPad,CuDef*%
G36*
G01*
X230500000Y-135600000D02*
X231000000Y-135600000D01*
G75*
G02*
X231225000Y-135825000I0J-225000D01*
G01*
X231225000Y-136275000D01*
G75*
G02*
X231000000Y-136500000I-225000J0D01*
G01*
X230500000Y-136500000D01*
G75*
G02*
X230275000Y-136275000I0J225000D01*
G01*
X230275000Y-135825000D01*
G75*
G02*
X230500000Y-135600000I225000J0D01*
G01*
G37*
%TD.AperFunction*%
%TO.P,C1,1*%
%TO.N,+3V3*%
%TA.AperFunction,SMDPad,CuDef*%
G36*
G01*
X230500000Y-134050000D02*
X231000000Y-134050000D01*
G75*
G02*
X231225000Y-134275000I0J-225000D01*
G01*
X231225000Y-134725000D01*
G75*
G02*
X231000000Y-134950000I-225000J0D01*
G01*
X230500000Y-134950000D01*
G75*
G02*
X230275000Y-134725000I0J225000D01*
G01*
X230275000Y-134275000D01*
G75*
G02*
X230500000Y-134050000I225000J0D01*
G01*
G37*
%TD.AperFunction*%
%TD*%
%TO.P,C2,2*%
%TO.N,GND*%
%TA.AperFunction,SMDPad,CuDef*%
G36*
G01*
X228500000Y-135600000D02*
X229000000Y-135600000D01*
G75*
G02*
X229225000Y-135825000I0J-225000D01*
G01*
X229225000Y-136275000D01*
G75*
G02*
X229000000Y-136500000I-225000J0D01*
G01*
X228500000Y-136500000D01*
G75*
G02*
X228275000Y-136275000I0J225000D01*
G01*
X228275000Y-135825000D01*
G75*
G02*
X228500000Y-135600000I225000J0D01*
G01*
G37*
%TD.AperFunction*%
%TO.P,C2,1*%
%TO.N,+3V3*%
%TA.AperFunction,SMDPad,CuDef*%
G36*
G01*
X228500000Y-134050000D02*
X229000000Y-134050000D01*
G75*
G02*
X229225000Y-134275000I0J-225000D01*
G01*
X229225000Y-134725000D01*
G75*
G02*
X229000000Y-134950000I-225000J0D01*
G01*
X228500000Y-134950000D01*
G75*
G02*
X228275000Y-134725000I0J225000D01*
G01*
X228275000Y-134275000D01*
G75*
G02*
X228500000Y-134050000I225000J0D01*
G01*
G37*
%TD.AperFunction*%
%TD*%
%TO.P,C3,2*%
%TO.N,GND*%
%TA.AperFunction,SMDPad,CuDef*%
G36*
G01*
X209725000Y-149800000D02*
X208775000Y-149800000D01*
G75*
G02*
X208525000Y-149550000I0J250000D01*
G01*
X208525000Y-149050000D01*
G75*
G02*
X208775000Y-148800000I250000J0D01*
G01*
X209725000Y-148800000D01*
G75*
G02*
X209975000Y-149050000I0J-250000D01*
G01*
X209975000Y-149550000D01*
G75*
G02*
X209725000Y-149800000I-250000J0D01*
G01*
G37*
%TD.AperFunction*%
%TO.P,C3,1*%
%TO.N,+5V*%
%TA.AperFunction,SMDPad,CuDef*%
G36*
G01*
X209725000Y-151700000D02*
X208775000Y-151700000D01*
G75*
G02*
X208525000Y-151450000I0J250000D01*
G01*
X208525000Y-150950000D01*
G75*
G02*
X208775000Y-150700000I250000J0D01*
G01*
X209725000Y-150700000D01*
G75*
G02*
X209975000Y-150950000I0J-250000D01*
G01*
X209975000Y-151450000D01*
G75*
G02*
X209725000Y-151700000I-250000J0D01*
G01*
G37*
%TD.AperFunction*%
%TD*%
%TO.P,C4,2*%
%TO.N,GND*%
%TA.AperFunction,SMDPad,CuDef*%
G36*
G01*
X203700000Y-145475000D02*
X203700000Y-144525000D01*
G75*
G02*
X203950000Y-144275000I250000J0D01*
G01*
X204450000Y-144275000D01*
G75*
G02*
X204700000Y-144525000I0J-250000D01*
G01*
X204700000Y-145475000D01*
G75*
G02*
X204450000Y-145725000I-250000J0D01*
G01*
X203950000Y-145725000D01*
G75*
G02*
X203700000Y-145475000I0J250000D01*
G01*
G37*
%TD.AperFunction*%
%TO.P,C4,1*%
%TO.N,+3V3*%
%TA.AperFunction,SMDPad,CuDef*%
G36*
G01*
X201800000Y-145475000D02*
X201800000Y-144525000D01*
G75*
G02*
X202050000Y-144275000I250000J0D01*
G01*
X202550000Y-144275000D01*
G75*
G02*
X202800000Y-144525000I0J-250000D01*
G01*
X202800000Y-145475000D01*
G75*
G02*
X202550000Y-145725000I-250000J0D01*
G01*
X202050000Y-145725000D01*
G75*
G02*
X201800000Y-145475000I0J250000D01*
G01*
G37*
%TD.AperFunction*%
%TD*%
%TO.P,C5,2*%
%TO.N,GND*%
%TA.AperFunction,SMDPad,CuDef*%
G36*
G01*
X225150000Y-111500000D02*
X225150000Y-112000000D01*
G75*
G02*
X224925000Y-112225000I-225000J0D01*
G01*
X224475000Y-112225000D01*
G75*
G02*
X224250000Y-112000000I0J225000D01*
G01*
X224250000Y-111500000D01*
G75*
G02*
X224475000Y-111275000I225000J0D01*
G01*
X224925000Y-111275000D01*
G75*
G02*
X225150000Y-111500000I0J-225000D01*
G01*
G37*
%TD.AperFunction*%
%TO.P,C5,1*%
%TO.N,+3V3*%
%TA.AperFunction,SMDPad,CuDef*%
G36*
G01*
X226700000Y-111500000D02*
X226700000Y-112000000D01*
G75*
G02*
X226475000Y-112225000I-225000J0D01*
G01*
X226025000Y-112225000D01*
G75*
G02*
X225800000Y-112000000I0J225000D01*
G01*
X225800000Y-111500000D01*
G75*
G02*
X226025000Y-111275000I225000J0D01*
G01*
X226475000Y-111275000D01*
G75*
G02*
X226700000Y-111500000I0J-225000D01*
G01*
G37*
%TD.AperFunction*%
%TD*%
%TO.P,J1,1*%
%TO.N,GND*%
%TA.AperFunction,SMDPad,CuDef*%
G36*
G01*
X226805000Y-175452500D02*
X226805000Y-177147500D01*
G75*
G02*
X226652500Y-177300000I-152500J0D01*
G01*
X226347500Y-177300000D01*
G75*
G02*
X226195000Y-177147500I0J152500D01*
G01*
X226195000Y-175452500D01*
G75*
G02*
X226347500Y-175300000I152500J0D01*
G01*
X226652500Y-175300000D01*
G75*
G02*
X226805000Y-175452500I0J-152500D01*
G01*
G37*
%TD.AperFunction*%
%TO.P,J1,2*%
%TO.N,/~CTP_INT*%
%TA.AperFunction,SMDPad,CuDef*%
G36*
G01*
X225805000Y-175452500D02*
X225805000Y-177147500D01*
G75*
G02*
X225652500Y-177300000I-152500J0D01*
G01*
X225347500Y-177300000D01*
G75*
G02*
X225195000Y-177147500I0J152500D01*
G01*
X225195000Y-175452500D01*
G75*
G02*
X225347500Y-175300000I152500J0D01*
G01*
X225652500Y-175300000D01*
G75*
G02*
X225805000Y-175452500I0J-152500D01*
G01*
G37*
%TD.AperFunction*%
%TO.P,J1,3*%
%TO.N,/I2C_SCL*%
%TA.AperFunction,SMDPad,CuDef*%
G36*
G01*
X224805000Y-175452500D02*
X224805000Y-177147500D01*
G75*
G02*
X224652500Y-177300000I-152500J0D01*
G01*
X224347500Y-177300000D01*
G75*
G02*
X224195000Y-177147500I0J152500D01*
G01*
X224195000Y-175452500D01*
G75*
G02*
X224347500Y-175300000I152500J0D01*
G01*
X224652500Y-175300000D01*
G75*
G02*
X224805000Y-175452500I0J-152500D01*
G01*
G37*
%TD.AperFunction*%
%TO.P,J1,4*%
%TO.N,/I2C_SDA*%
%TA.AperFunction,SMDPad,CuDef*%
G36*
G01*
X223805000Y-175452500D02*
X223805000Y-177147500D01*
G75*
G02*
X223652500Y-177300000I-152500J0D01*
G01*
X223347500Y-177300000D01*
G75*
G02*
X223195000Y-177147500I0J152500D01*
G01*
X223195000Y-175452500D01*
G75*
G02*
X223347500Y-175300000I152500J0D01*
G01*
X223652500Y-175300000D01*
G75*
G02*
X223805000Y-175452500I0J-152500D01*
G01*
G37*
%TD.AperFunction*%
%TO.P,J1,5*%
%TO.N,GND*%
%TA.AperFunction,SMDPad,CuDef*%
G36*
G01*
X222805000Y-175452500D02*
X222805000Y-177147500D01*
G75*
G02*
X222652500Y-177300000I-152500J0D01*
G01*
X222347500Y-177300000D01*
G75*
G02*
X222195000Y-177147500I0J152500D01*
G01*
X222195000Y-175452500D01*
G75*
G02*
X222347500Y-175300000I152500J0D01*
G01*
X222652500Y-175300000D01*
G75*
G02*
X222805000Y-175452500I0J-152500D01*
G01*
G37*
%TD.AperFunction*%
%TO.P,J1,6*%
%TO.N,/~SPI_CS*%
%TA.AperFunction,SMDPad,CuDef*%
G36*
G01*
X221805000Y-175452500D02*
X221805000Y-177147500D01*
G75*
G02*
X221652500Y-177300000I-152500J0D01*
G01*
X221347500Y-177300000D01*
G75*
G02*
X221195000Y-177147500I0J152500D01*
G01*
X221195000Y-175452500D01*
G75*
G02*
X221347500Y-175300000I152500J0D01*
G01*
X221652500Y-175300000D01*
G75*
G02*
X221805000Y-175452500I0J-152500D01*
G01*
G37*
%TD.AperFunction*%
%TO.P,J1,7*%
%TO.N,/SPI_SCK*%
%TA.AperFunction,SMDPad,CuDef*%
G36*
G01*
X220805000Y-175452500D02*
X220805000Y-177147500D01*
G75*
G02*
X220652500Y-177300000I-152500J0D01*
G01*
X220347500Y-177300000D01*
G75*
G02*
X220195000Y-177147500I0J152500D01*
G01*
X220195000Y-175452500D01*
G75*
G02*
X220347500Y-175300000I152500J0D01*
G01*
X220652500Y-175300000D01*
G75*
G02*
X220805000Y-175452500I0J-152500D01*
G01*
G37*
%TD.AperFunction*%
%TO.P,J1,MP*%
%TO.N,N/C*%
%TA.AperFunction,SMDPad,CuDef*%
G36*
G01*
X230830000Y-177950000D02*
X230830000Y-180250000D01*
G75*
G02*
X230180000Y-180900000I-650000J0D01*
G01*
X228880000Y-180900000D01*
G75*
G02*
X228230000Y-180250000I0J650000D01*
G01*
X228230000Y-177950000D01*
G75*
G02*
X228880000Y-177300000I650000J0D01*
G01*
X230180000Y-177300000D01*
G75*
G02*
X230830000Y-177950000I0J-650000D01*
G01*
G37*
%TD.AperFunction*%
%TO.P,J1,8*%
%TO.N,/LCD_DC*%
%TA.AperFunction,SMDPad,CuDef*%
G36*
G01*
X219805000Y-175452500D02*
X219805000Y-177147500D01*
G75*
G02*
X219652500Y-177300000I-152500J0D01*
G01*
X219347500Y-177300000D01*
G75*
G02*
X219195000Y-177147500I0J152500D01*
G01*
X219195000Y-175452500D01*
G75*
G02*
X219347500Y-175300000I152500J0D01*
G01*
X219652500Y-175300000D01*
G75*
G02*
X219805000Y-175452500I0J-152500D01*
G01*
G37*
%TD.AperFunction*%
%TO.P,J1,9*%
%TO.N,/SPI_MOSI*%
%TA.AperFunction,SMDPad,CuDef*%
G36*
G01*
X218805000Y-175452500D02*
X218805000Y-177147500D01*
G75*
G02*
X218652500Y-177300000I-152500J0D01*
G01*
X218347500Y-177300000D01*
G75*
G02*
X218195000Y-177147500I0J152500D01*
G01*
X218195000Y-175452500D01*
G75*
G02*
X218347500Y-175300000I152500J0D01*
G01*
X218652500Y-175300000D01*
G75*
G02*
X218805000Y-175452500I0J-152500D01*
G01*
G37*
%TD.AperFunction*%
%TO.P,J1,10*%
%TO.N,/SPI_MISO*%
%TA.AperFunction,SMDPad,CuDef*%
G36*
G01*
X217805000Y-175452500D02*
X217805000Y-177147500D01*
G75*
G02*
X217652500Y-177300000I-152500J0D01*
G01*
X217347500Y-177300000D01*
G75*
G02*
X217195000Y-177147500I0J152500D01*
G01*
X217195000Y-175452500D01*
G75*
G02*
X217347500Y-175300000I152500J0D01*
G01*
X217652500Y-175300000D01*
G75*
G02*
X217805000Y-175452500I0J-152500D01*
G01*
G37*
%TD.AperFunction*%
%TO.P,J1,11*%
%TO.N,GND*%
%TA.AperFunction,SMDPad,CuDef*%
G36*
G01*
X216805000Y-175452500D02*
X216805000Y-177147500D01*
G75*
G02*
X216652500Y-177300000I-152500J0D01*
G01*
X216347500Y-177300000D01*
G75*
G02*
X216195000Y-177147500I0J152500D01*
G01*
X216195000Y-175452500D01*
G75*
G02*
X216347500Y-175300000I152500J0D01*
G01*
X216652500Y-175300000D01*
G75*
G02*
X216805000Y-175452500I0J-152500D01*
G01*
G37*
%TD.AperFunction*%
%TO.P,J1,12*%
%TO.N,+5V*%
%TA.AperFunction,SMDPad,CuDef*%
G36*
G01*
X215805000Y-175452500D02*
X215805000Y-177147500D01*
G75*
G02*
X215652500Y-177300000I-152500J0D01*
G01*
X215347500Y-177300000D01*
G75*
G02*
X215195000Y-177147500I0J152500D01*
G01*
X215195000Y-175452500D01*
G75*
G02*
X215347500Y-175300000I152500J0D01*
G01*
X215652500Y-175300000D01*
G75*
G02*
X215805000Y-175452500I0J-152500D01*
G01*
G37*
%TD.AperFunction*%
%TO.P,J1,13*%
%TA.AperFunction,SMDPad,CuDef*%
G36*
G01*
X214805000Y-175452500D02*
X214805000Y-177147500D01*
G75*
G02*
X214652500Y-177300000I-152500J0D01*
G01*
X214347500Y-177300000D01*
G75*
G02*
X214195000Y-177147500I0J152500D01*
G01*
X214195000Y-175452500D01*
G75*
G02*
X214347500Y-175300000I152500J0D01*
G01*
X214652500Y-175300000D01*
G75*
G02*
X214805000Y-175452500I0J-152500D01*
G01*
G37*
%TD.AperFunction*%
%TO.P,J1,14*%
%TA.AperFunction,SMDPad,CuDef*%
G36*
G01*
X213805000Y-175452500D02*
X213805000Y-177147500D01*
G75*
G02*
X213652500Y-177300000I-152500J0D01*
G01*
X213347500Y-177300000D01*
G75*
G02*
X213195000Y-177147500I0J152500D01*
G01*
X213195000Y-175452500D01*
G75*
G02*
X213347500Y-175300000I152500J0D01*
G01*
X213652500Y-175300000D01*
G75*
G02*
X213805000Y-175452500I0J-152500D01*
G01*
G37*
%TD.AperFunction*%
%TO.P,J1,MP*%
%TO.N,N/C*%
%TA.AperFunction,SMDPad,CuDef*%
G36*
G01*
X211770000Y-177950000D02*
X211770000Y-180250000D01*
G75*
G02*
X211120000Y-180900000I-650000J0D01*
G01*
X209820000Y-180900000D01*
G75*
G02*
X209170000Y-180250000I0J650000D01*
G01*
X209170000Y-177950000D01*
G75*
G02*
X209820000Y-177300000I650000J0D01*
G01*
X211120000Y-177300000D01*
G75*
G02*
X211770000Y-177950000I0J-650000D01*
G01*
G37*
%TD.AperFunction*%
%TD*%
%TO.P,J2,MP*%
%TO.N,N/C*%
%TA.AperFunction,SMDPad,CuDef*%
G36*
G01*
X230500000Y-128800000D02*
X230500000Y-128200000D01*
G75*
G02*
X230600000Y-128100000I100000J0D01*
G01*
X230800000Y-128100000D01*
G75*
G02*
X230900000Y-128200000I0J-100000D01*
G01*
X230900000Y-128800000D01*
G75*
G02*
X230800000Y-128900000I-100000J0D01*
G01*
X230600000Y-128900000D01*
G75*
G02*
X230500000Y-128800000I0J100000D01*
G01*
G37*
%TD.AperFunction*%
%TA.AperFunction,SMDPad,CuDef*%
G36*
G01*
X209100000Y-128800000D02*
X209100000Y-128200000D01*
G75*
G02*
X209200000Y-128100000I100000J0D01*
G01*
X209400000Y-128100000D01*
G75*
G02*
X209500000Y-128200000I0J-100000D01*
G01*
X209500000Y-128800000D01*
G75*
G02*
X209400000Y-128900000I-100000J0D01*
G01*
X209200000Y-128900000D01*
G75*
G02*
X209100000Y-128800000I0J100000D01*
G01*
G37*
%TD.AperFunction*%
%TO.P,J2,40*%
%TA.AperFunction,SMDPad,CuDef*%
G36*
G01*
X229600000Y-131325000D02*
X229600000Y-130675000D01*
G75*
G02*
X229675000Y-130600000I75000J0D01*
G01*
X229825000Y-130600000D01*
G75*
G02*
X229900000Y-130675000I0J-75000D01*
G01*
X229900000Y-131325000D01*
G75*
G02*
X229825000Y-131400000I-75000J0D01*
G01*
X229675000Y-131400000D01*
G75*
G02*
X229600000Y-131325000I0J75000D01*
G01*
G37*
%TD.AperFunction*%
%TO.P,J2,39*%
%TA.AperFunction,SMDPad,CuDef*%
G36*
G01*
X229100000Y-131325000D02*
X229100000Y-130675000D01*
G75*
G02*
X229175000Y-130600000I75000J0D01*
G01*
X229325000Y-130600000D01*
G75*
G02*
X229400000Y-130675000I0J-75000D01*
G01*
X229400000Y-131325000D01*
G75*
G02*
X229325000Y-131400000I-75000J0D01*
G01*
X229175000Y-131400000D01*
G75*
G02*
X229100000Y-131325000I0J75000D01*
G01*
G37*
%TD.AperFunction*%
%TO.P,J2,38*%
%TA.AperFunction,SMDPad,CuDef*%
G36*
G01*
X228600000Y-131325000D02*
X228600000Y-130675000D01*
G75*
G02*
X228675000Y-130600000I75000J0D01*
G01*
X228825000Y-130600000D01*
G75*
G02*
X228900000Y-130675000I0J-75000D01*
G01*
X228900000Y-131325000D01*
G75*
G02*
X228825000Y-131400000I-75000J0D01*
G01*
X228675000Y-131400000D01*
G75*
G02*
X228600000Y-131325000I0J75000D01*
G01*
G37*
%TD.AperFunction*%
%TO.P,J2,37*%
%TA.AperFunction,SMDPad,CuDef*%
G36*
G01*
X228100000Y-131325000D02*
X228100000Y-130675000D01*
G75*
G02*
X228175000Y-130600000I75000J0D01*
G01*
X228325000Y-130600000D01*
G75*
G02*
X228400000Y-130675000I0J-75000D01*
G01*
X228400000Y-131325000D01*
G75*
G02*
X228325000Y-131400000I-75000J0D01*
G01*
X228175000Y-131400000D01*
G75*
G02*
X228100000Y-131325000I0J75000D01*
G01*
G37*
%TD.AperFunction*%
%TO.P,J2,36*%
%TO.N,GND*%
%TA.AperFunction,SMDPad,CuDef*%
G36*
G01*
X227600000Y-131325000D02*
X227600000Y-130675000D01*
G75*
G02*
X227675000Y-130600000I75000J0D01*
G01*
X227825000Y-130600000D01*
G75*
G02*
X227900000Y-130675000I0J-75000D01*
G01*
X227900000Y-131325000D01*
G75*
G02*
X227825000Y-131400000I-75000J0D01*
G01*
X227675000Y-131400000D01*
G75*
G02*
X227600000Y-131325000I0J75000D01*
G01*
G37*
%TD.AperFunction*%
%TO.P,J2,35*%
%TO.N,+3V3*%
%TA.AperFunction,SMDPad,CuDef*%
G36*
G01*
X227100000Y-131325000D02*
X227100000Y-130675000D01*
G75*
G02*
X227175000Y-130600000I75000J0D01*
G01*
X227325000Y-130600000D01*
G75*
G02*
X227400000Y-130675000I0J-75000D01*
G01*
X227400000Y-131325000D01*
G75*
G02*
X227325000Y-131400000I-75000J0D01*
G01*
X227175000Y-131400000D01*
G75*
G02*
X227100000Y-131325000I0J75000D01*
G01*
G37*
%TD.AperFunction*%
%TO.P,J2,34*%
%TA.AperFunction,SMDPad,CuDef*%
G36*
G01*
X226600000Y-131325000D02*
X226600000Y-130675000D01*
G75*
G02*
X226675000Y-130600000I75000J0D01*
G01*
X226825000Y-130600000D01*
G75*
G02*
X226900000Y-130675000I0J-75000D01*
G01*
X226900000Y-131325000D01*
G75*
G02*
X226825000Y-131400000I-75000J0D01*
G01*
X226675000Y-131400000D01*
G75*
G02*
X226600000Y-131325000I0J75000D01*
G01*
G37*
%TD.AperFunction*%
%TO.P,J2,33*%
%TO.N,N/C*%
%TA.AperFunction,SMDPad,CuDef*%
G36*
G01*
X226100000Y-131325000D02*
X226100000Y-130675000D01*
G75*
G02*
X226175000Y-130600000I75000J0D01*
G01*
X226325000Y-130600000D01*
G75*
G02*
X226400000Y-130675000I0J-75000D01*
G01*
X226400000Y-131325000D01*
G75*
G02*
X226325000Y-131400000I-75000J0D01*
G01*
X226175000Y-131400000D01*
G75*
G02*
X226100000Y-131325000I0J75000D01*
G01*
G37*
%TD.AperFunction*%
%TO.P,J2,32*%
%TO.N,/~SPI_CS*%
%TA.AperFunction,SMDPad,CuDef*%
G36*
G01*
X225600000Y-131325000D02*
X225600000Y-130675000D01*
G75*
G02*
X225675000Y-130600000I75000J0D01*
G01*
X225825000Y-130600000D01*
G75*
G02*
X225900000Y-130675000I0J-75000D01*
G01*
X225900000Y-131325000D01*
G75*
G02*
X225825000Y-131400000I-75000J0D01*
G01*
X225675000Y-131400000D01*
G75*
G02*
X225600000Y-131325000I0J75000D01*
G01*
G37*
%TD.AperFunction*%
%TO.P,J2,31*%
%TO.N,/SPI_SCK*%
%TA.AperFunction,SMDPad,CuDef*%
G36*
G01*
X225100000Y-131325000D02*
X225100000Y-130675000D01*
G75*
G02*
X225175000Y-130600000I75000J0D01*
G01*
X225325000Y-130600000D01*
G75*
G02*
X225400000Y-130675000I0J-75000D01*
G01*
X225400000Y-131325000D01*
G75*
G02*
X225325000Y-131400000I-75000J0D01*
G01*
X225175000Y-131400000D01*
G75*
G02*
X225100000Y-131325000I0J75000D01*
G01*
G37*
%TD.AperFunction*%
%TO.P,J2,30*%
%TO.N,/LCD_DC*%
%TA.AperFunction,SMDPad,CuDef*%
G36*
G01*
X224600000Y-131325000D02*
X224600000Y-130675000D01*
G75*
G02*
X224675000Y-130600000I75000J0D01*
G01*
X224825000Y-130600000D01*
G75*
G02*
X224900000Y-130675000I0J-75000D01*
G01*
X224900000Y-131325000D01*
G75*
G02*
X224825000Y-131400000I-75000J0D01*
G01*
X224675000Y-131400000D01*
G75*
G02*
X224600000Y-131325000I0J75000D01*
G01*
G37*
%TD.AperFunction*%
%TO.P,J2,29*%
%TO.N,+3V3*%
%TA.AperFunction,SMDPad,CuDef*%
G36*
G01*
X224100000Y-131325000D02*
X224100000Y-130675000D01*
G75*
G02*
X224175000Y-130600000I75000J0D01*
G01*
X224325000Y-130600000D01*
G75*
G02*
X224400000Y-130675000I0J-75000D01*
G01*
X224400000Y-131325000D01*
G75*
G02*
X224325000Y-131400000I-75000J0D01*
G01*
X224175000Y-131400000D01*
G75*
G02*
X224100000Y-131325000I0J75000D01*
G01*
G37*
%TD.AperFunction*%
%TO.P,J2,28*%
%TO.N,/SPI_MOSI*%
%TA.AperFunction,SMDPad,CuDef*%
G36*
G01*
X223600000Y-131325000D02*
X223600000Y-130675000D01*
G75*
G02*
X223675000Y-130600000I75000J0D01*
G01*
X223825000Y-130600000D01*
G75*
G02*
X223900000Y-130675000I0J-75000D01*
G01*
X223900000Y-131325000D01*
G75*
G02*
X223825000Y-131400000I-75000J0D01*
G01*
X223675000Y-131400000D01*
G75*
G02*
X223600000Y-131325000I0J75000D01*
G01*
G37*
%TD.AperFunction*%
%TO.P,J2,27*%
%TO.N,/SPI_MISO*%
%TA.AperFunction,SMDPad,CuDef*%
G36*
G01*
X223100000Y-131325000D02*
X223100000Y-130675000D01*
G75*
G02*
X223175000Y-130600000I75000J0D01*
G01*
X223325000Y-130600000D01*
G75*
G02*
X223400000Y-130675000I0J-75000D01*
G01*
X223400000Y-131325000D01*
G75*
G02*
X223325000Y-131400000I-75000J0D01*
G01*
X223175000Y-131400000D01*
G75*
G02*
X223100000Y-131325000I0J75000D01*
G01*
G37*
%TD.AperFunction*%
%TO.P,J2,26*%
%TO.N,/~RESET*%
%TA.AperFunction,SMDPad,CuDef*%
G36*
G01*
X222600000Y-131325000D02*
X222600000Y-130675000D01*
G75*
G02*
X222675000Y-130600000I75000J0D01*
G01*
X222825000Y-130600000D01*
G75*
G02*
X222900000Y-130675000I0J-75000D01*
G01*
X222900000Y-131325000D01*
G75*
G02*
X222825000Y-131400000I-75000J0D01*
G01*
X222675000Y-131400000D01*
G75*
G02*
X222600000Y-131325000I0J75000D01*
G01*
G37*
%TD.AperFunction*%
%TO.P,J2,25*%
%TO.N,GND*%
%TA.AperFunction,SMDPad,CuDef*%
G36*
G01*
X222100000Y-131325000D02*
X222100000Y-130675000D01*
G75*
G02*
X222175000Y-130600000I75000J0D01*
G01*
X222325000Y-130600000D01*
G75*
G02*
X222400000Y-130675000I0J-75000D01*
G01*
X222400000Y-131325000D01*
G75*
G02*
X222325000Y-131400000I-75000J0D01*
G01*
X222175000Y-131400000D01*
G75*
G02*
X222100000Y-131325000I0J75000D01*
G01*
G37*
%TD.AperFunction*%
%TO.P,J2,24*%
%TA.AperFunction,SMDPad,CuDef*%
G36*
G01*
X221600000Y-131325000D02*
X221600000Y-130675000D01*
G75*
G02*
X221675000Y-130600000I75000J0D01*
G01*
X221825000Y-130600000D01*
G75*
G02*
X221900000Y-130675000I0J-75000D01*
G01*
X221900000Y-131325000D01*
G75*
G02*
X221825000Y-131400000I-75000J0D01*
G01*
X221675000Y-131400000D01*
G75*
G02*
X221600000Y-131325000I0J75000D01*
G01*
G37*
%TD.AperFunction*%
%TO.P,J2,23*%
%TA.AperFunction,SMDPad,CuDef*%
G36*
G01*
X221100000Y-131325000D02*
X221100000Y-130675000D01*
G75*
G02*
X221175000Y-130600000I75000J0D01*
G01*
X221325000Y-130600000D01*
G75*
G02*
X221400000Y-130675000I0J-75000D01*
G01*
X221400000Y-131325000D01*
G75*
G02*
X221325000Y-131400000I-75000J0D01*
G01*
X221175000Y-131400000D01*
G75*
G02*
X221100000Y-131325000I0J75000D01*
G01*
G37*
%TD.AperFunction*%
%TO.P,J2,22*%
%TA.AperFunction,SMDPad,CuDef*%
G36*
G01*
X220600000Y-131325000D02*
X220600000Y-130675000D01*
G75*
G02*
X220675000Y-130600000I75000J0D01*
G01*
X220825000Y-130600000D01*
G75*
G02*
X220900000Y-130675000I0J-75000D01*
G01*
X220900000Y-131325000D01*
G75*
G02*
X220825000Y-131400000I-75000J0D01*
G01*
X220675000Y-131400000D01*
G75*
G02*
X220600000Y-131325000I0J75000D01*
G01*
G37*
%TD.AperFunction*%
%TO.P,J2,21*%
%TA.AperFunction,SMDPad,CuDef*%
G36*
G01*
X220100000Y-131325000D02*
X220100000Y-130675000D01*
G75*
G02*
X220175000Y-130600000I75000J0D01*
G01*
X220325000Y-130600000D01*
G75*
G02*
X220400000Y-130675000I0J-75000D01*
G01*
X220400000Y-131325000D01*
G75*
G02*
X220325000Y-131400000I-75000J0D01*
G01*
X220175000Y-131400000D01*
G75*
G02*
X220100000Y-131325000I0J75000D01*
G01*
G37*
%TD.AperFunction*%
%TO.P,J2,20*%
%TA.AperFunction,SMDPad,CuDef*%
G36*
G01*
X219600000Y-131325000D02*
X219600000Y-130675000D01*
G75*
G02*
X219675000Y-130600000I75000J0D01*
G01*
X219825000Y-130600000D01*
G75*
G02*
X219900000Y-130675000I0J-75000D01*
G01*
X219900000Y-131325000D01*
G75*
G02*
X219825000Y-131400000I-75000J0D01*
G01*
X219675000Y-131400000D01*
G75*
G02*
X219600000Y-131325000I0J75000D01*
G01*
G37*
%TD.AperFunction*%
%TO.P,J2,19*%
%TA.AperFunction,SMDPad,CuDef*%
G36*
G01*
X219100000Y-131325000D02*
X219100000Y-130675000D01*
G75*
G02*
X219175000Y-130600000I75000J0D01*
G01*
X219325000Y-130600000D01*
G75*
G02*
X219400000Y-130675000I0J-75000D01*
G01*
X219400000Y-131325000D01*
G75*
G02*
X219325000Y-131400000I-75000J0D01*
G01*
X219175000Y-131400000D01*
G75*
G02*
X219100000Y-131325000I0J75000D01*
G01*
G37*
%TD.AperFunction*%
%TO.P,J2,18*%
%TA.AperFunction,SMDPad,CuDef*%
G36*
G01*
X218600000Y-131325000D02*
X218600000Y-130675000D01*
G75*
G02*
X218675000Y-130600000I75000J0D01*
G01*
X218825000Y-130600000D01*
G75*
G02*
X218900000Y-130675000I0J-75000D01*
G01*
X218900000Y-131325000D01*
G75*
G02*
X218825000Y-131400000I-75000J0D01*
G01*
X218675000Y-131400000D01*
G75*
G02*
X218600000Y-131325000I0J75000D01*
G01*
G37*
%TD.AperFunction*%
%TO.P,J2,17*%
%TA.AperFunction,SMDPad,CuDef*%
G36*
G01*
X218100000Y-131325000D02*
X218100000Y-130675000D01*
G75*
G02*
X218175000Y-130600000I75000J0D01*
G01*
X218325000Y-130600000D01*
G75*
G02*
X218400000Y-130675000I0J-75000D01*
G01*
X218400000Y-131325000D01*
G75*
G02*
X218325000Y-131400000I-75000J0D01*
G01*
X218175000Y-131400000D01*
G75*
G02*
X218100000Y-131325000I0J75000D01*
G01*
G37*
%TD.AperFunction*%
%TO.P,J2,16*%
%TA.AperFunction,SMDPad,CuDef*%
G36*
G01*
X217600000Y-131325000D02*
X217600000Y-130675000D01*
G75*
G02*
X217675000Y-130600000I75000J0D01*
G01*
X217825000Y-130600000D01*
G75*
G02*
X217900000Y-130675000I0J-75000D01*
G01*
X217900000Y-131325000D01*
G75*
G02*
X217825000Y-131400000I-75000J0D01*
G01*
X217675000Y-131400000D01*
G75*
G02*
X217600000Y-131325000I0J75000D01*
G01*
G37*
%TD.AperFunction*%
%TO.P,J2,15*%
%TA.AperFunction,SMDPad,CuDef*%
G36*
G01*
X217100000Y-131325000D02*
X217100000Y-130675000D01*
G75*
G02*
X217175000Y-130600000I75000J0D01*
G01*
X217325000Y-130600000D01*
G75*
G02*
X217400000Y-130675000I0J-75000D01*
G01*
X217400000Y-131325000D01*
G75*
G02*
X217325000Y-131400000I-75000J0D01*
G01*
X217175000Y-131400000D01*
G75*
G02*
X217100000Y-131325000I0J75000D01*
G01*
G37*
%TD.AperFunction*%
%TO.P,J2,14*%
%TA.AperFunction,SMDPad,CuDef*%
G36*
G01*
X216600000Y-131325000D02*
X216600000Y-130675000D01*
G75*
G02*
X216675000Y-130600000I75000J0D01*
G01*
X216825000Y-130600000D01*
G75*
G02*
X216900000Y-130675000I0J-75000D01*
G01*
X216900000Y-131325000D01*
G75*
G02*
X216825000Y-131400000I-75000J0D01*
G01*
X216675000Y-131400000D01*
G75*
G02*
X216600000Y-131325000I0J75000D01*
G01*
G37*
%TD.AperFunction*%
%TO.P,J2,13*%
%TA.AperFunction,SMDPad,CuDef*%
G36*
G01*
X216100000Y-131325000D02*
X216100000Y-130675000D01*
G75*
G02*
X216175000Y-130600000I75000J0D01*
G01*
X216325000Y-130600000D01*
G75*
G02*
X216400000Y-130675000I0J-75000D01*
G01*
X216400000Y-131325000D01*
G75*
G02*
X216325000Y-131400000I-75000J0D01*
G01*
X216175000Y-131400000D01*
G75*
G02*
X216100000Y-131325000I0J75000D01*
G01*
G37*
%TD.AperFunction*%
%TO.P,J2,12*%
%TA.AperFunction,SMDPad,CuDef*%
G36*
G01*
X215600000Y-131325000D02*
X215600000Y-130675000D01*
G75*
G02*
X215675000Y-130600000I75000J0D01*
G01*
X215825000Y-130600000D01*
G75*
G02*
X215900000Y-130675000I0J-75000D01*
G01*
X215900000Y-131325000D01*
G75*
G02*
X215825000Y-131400000I-75000J0D01*
G01*
X215675000Y-131400000D01*
G75*
G02*
X215600000Y-131325000I0J75000D01*
G01*
G37*
%TD.AperFunction*%
%TO.P,J2,11*%
%TA.AperFunction,SMDPad,CuDef*%
G36*
G01*
X215100000Y-131325000D02*
X215100000Y-130675000D01*
G75*
G02*
X215175000Y-130600000I75000J0D01*
G01*
X215325000Y-130600000D01*
G75*
G02*
X215400000Y-130675000I0J-75000D01*
G01*
X215400000Y-131325000D01*
G75*
G02*
X215325000Y-131400000I-75000J0D01*
G01*
X215175000Y-131400000D01*
G75*
G02*
X215100000Y-131325000I0J75000D01*
G01*
G37*
%TD.AperFunction*%
%TO.P,J2,10*%
%TA.AperFunction,SMDPad,CuDef*%
G36*
G01*
X214600000Y-131325000D02*
X214600000Y-130675000D01*
G75*
G02*
X214675000Y-130600000I75000J0D01*
G01*
X214825000Y-130600000D01*
G75*
G02*
X214900000Y-130675000I0J-75000D01*
G01*
X214900000Y-131325000D01*
G75*
G02*
X214825000Y-131400000I-75000J0D01*
G01*
X214675000Y-131400000D01*
G75*
G02*
X214600000Y-131325000I0J75000D01*
G01*
G37*
%TD.AperFunction*%
%TO.P,J2,9*%
%TA.AperFunction,SMDPad,CuDef*%
G36*
G01*
X214100000Y-131325000D02*
X214100000Y-130675000D01*
G75*
G02*
X214175000Y-130600000I75000J0D01*
G01*
X214325000Y-130600000D01*
G75*
G02*
X214400000Y-130675000I0J-75000D01*
G01*
X214400000Y-131325000D01*
G75*
G02*
X214325000Y-131400000I-75000J0D01*
G01*
X214175000Y-131400000D01*
G75*
G02*
X214100000Y-131325000I0J75000D01*
G01*
G37*
%TD.AperFunction*%
%TO.P,J2,8*%
%TO.N,+5V*%
%TA.AperFunction,SMDPad,CuDef*%
G36*
G01*
X213600000Y-131325000D02*
X213600000Y-130675000D01*
G75*
G02*
X213675000Y-130600000I75000J0D01*
G01*
X213825000Y-130600000D01*
G75*
G02*
X213900000Y-130675000I0J-75000D01*
G01*
X213900000Y-131325000D01*
G75*
G02*
X213825000Y-131400000I-75000J0D01*
G01*
X213675000Y-131400000D01*
G75*
G02*
X213600000Y-131325000I0J75000D01*
G01*
G37*
%TD.AperFunction*%
%TO.P,J2,7*%
%TO.N,Net-(J2-Pad7)*%
%TA.AperFunction,SMDPad,CuDef*%
G36*
G01*
X213100000Y-131325000D02*
X213100000Y-130675000D01*
G75*
G02*
X213175000Y-130600000I75000J0D01*
G01*
X213325000Y-130600000D01*
G75*
G02*
X213400000Y-130675000I0J-75000D01*
G01*
X213400000Y-131325000D01*
G75*
G02*
X213325000Y-131400000I-75000J0D01*
G01*
X213175000Y-131400000D01*
G75*
G02*
X213100000Y-131325000I0J75000D01*
G01*
G37*
%TD.AperFunction*%
%TO.P,J2,6*%
%TO.N,Net-(J2-Pad6)*%
%TA.AperFunction,SMDPad,CuDef*%
G36*
G01*
X212600000Y-131325000D02*
X212600000Y-130675000D01*
G75*
G02*
X212675000Y-130600000I75000J0D01*
G01*
X212825000Y-130600000D01*
G75*
G02*
X212900000Y-130675000I0J-75000D01*
G01*
X212900000Y-131325000D01*
G75*
G02*
X212825000Y-131400000I-75000J0D01*
G01*
X212675000Y-131400000D01*
G75*
G02*
X212600000Y-131325000I0J75000D01*
G01*
G37*
%TD.AperFunction*%
%TO.P,J2,5*%
%TO.N,Net-(J2-Pad5)*%
%TA.AperFunction,SMDPad,CuDef*%
G36*
G01*
X212100000Y-131325000D02*
X212100000Y-130675000D01*
G75*
G02*
X212175000Y-130600000I75000J0D01*
G01*
X212325000Y-130600000D01*
G75*
G02*
X212400000Y-130675000I0J-75000D01*
G01*
X212400000Y-131325000D01*
G75*
G02*
X212325000Y-131400000I-75000J0D01*
G01*
X212175000Y-131400000D01*
G75*
G02*
X212100000Y-131325000I0J75000D01*
G01*
G37*
%TD.AperFunction*%
%TO.P,J2,4*%
%TO.N,GND*%
%TA.AperFunction,SMDPad,CuDef*%
G36*
G01*
X211600000Y-131325000D02*
X211600000Y-130675000D01*
G75*
G02*
X211675000Y-130600000I75000J0D01*
G01*
X211825000Y-130600000D01*
G75*
G02*
X211900000Y-130675000I0J-75000D01*
G01*
X211900000Y-131325000D01*
G75*
G02*
X211825000Y-131400000I-75000J0D01*
G01*
X211675000Y-131400000D01*
G75*
G02*
X211600000Y-131325000I0J75000D01*
G01*
G37*
%TD.AperFunction*%
%TO.P,J2,3*%
%TO.N,Net-(J2-Pad3)*%
%TA.AperFunction,SMDPad,CuDef*%
G36*
G01*
X211100000Y-131325000D02*
X211100000Y-130675000D01*
G75*
G02*
X211175000Y-130600000I75000J0D01*
G01*
X211325000Y-130600000D01*
G75*
G02*
X211400000Y-130675000I0J-75000D01*
G01*
X211400000Y-131325000D01*
G75*
G02*
X211325000Y-131400000I-75000J0D01*
G01*
X211175000Y-131400000D01*
G75*
G02*
X211100000Y-131325000I0J75000D01*
G01*
G37*
%TD.AperFunction*%
%TO.P,J2,2*%
%TO.N,Net-(J2-Pad2)*%
%TA.AperFunction,SMDPad,CuDef*%
G36*
G01*
X210600000Y-131325000D02*
X210600000Y-130675000D01*
G75*
G02*
X210675000Y-130600000I75000J0D01*
G01*
X210825000Y-130600000D01*
G75*
G02*
X210900000Y-130675000I0J-75000D01*
G01*
X210900000Y-131325000D01*
G75*
G02*
X210825000Y-131400000I-75000J0D01*
G01*
X210675000Y-131400000D01*
G75*
G02*
X210600000Y-131325000I0J75000D01*
G01*
G37*
%TD.AperFunction*%
%TO.P,J2,1*%
%TO.N,Net-(J2-Pad1)*%
%TA.AperFunction,SMDPad,CuDef*%
G36*
G01*
X210100000Y-131325000D02*
X210100000Y-130675000D01*
G75*
G02*
X210175000Y-130600000I75000J0D01*
G01*
X210325000Y-130600000D01*
G75*
G02*
X210400000Y-130675000I0J-75000D01*
G01*
X210400000Y-131325000D01*
G75*
G02*
X210325000Y-131400000I-75000J0D01*
G01*
X210175000Y-131400000D01*
G75*
G02*
X210100000Y-131325000I0J75000D01*
G01*
G37*
%TD.AperFunction*%
%TD*%
%TO.P,R1,2*%
%TO.N,GND*%
%TA.AperFunction,SMDPad,CuDef*%
G36*
G01*
X213475000Y-135750000D02*
X214025000Y-135750000D01*
G75*
G02*
X214225000Y-135950000I0J-200000D01*
G01*
X214225000Y-136350000D01*
G75*
G02*
X214025000Y-136550000I-200000J0D01*
G01*
X213475000Y-136550000D01*
G75*
G02*
X213275000Y-136350000I0J200000D01*
G01*
X213275000Y-135950000D01*
G75*
G02*
X213475000Y-135750000I200000J0D01*
G01*
G37*
%TD.AperFunction*%
%TO.P,R1,1*%
%TO.N,Net-(J2-Pad7)*%
%TA.AperFunction,SMDPad,CuDef*%
G36*
G01*
X213475000Y-134100000D02*
X214025000Y-134100000D01*
G75*
G02*
X214225000Y-134300000I0J-200000D01*
G01*
X214225000Y-134700000D01*
G75*
G02*
X214025000Y-134900000I-200000J0D01*
G01*
X213475000Y-134900000D01*
G75*
G02*
X213275000Y-134700000I0J200000D01*
G01*
X213275000Y-134300000D01*
G75*
G02*
X213475000Y-134100000I200000J0D01*
G01*
G37*
%TD.AperFunction*%
%TD*%
%TO.P,R2,2*%
%TO.N,GND*%
%TA.AperFunction,SMDPad,CuDef*%
G36*
G01*
X211475000Y-135750000D02*
X212025000Y-135750000D01*
G75*
G02*
X212225000Y-135950000I0J-200000D01*
G01*
X212225000Y-136350000D01*
G75*
G02*
X212025000Y-136550000I-200000J0D01*
G01*
X211475000Y-136550000D01*
G75*
G02*
X211275000Y-136350000I0J200000D01*
G01*
X211275000Y-135950000D01*
G75*
G02*
X211475000Y-135750000I200000J0D01*
G01*
G37*
%TD.AperFunction*%
%TO.P,R2,1*%
%TO.N,Net-(J2-Pad6)*%
%TA.AperFunction,SMDPad,CuDef*%
G36*
G01*
X211475000Y-134100000D02*
X212025000Y-134100000D01*
G75*
G02*
X212225000Y-134300000I0J-200000D01*
G01*
X212225000Y-134700000D01*
G75*
G02*
X212025000Y-134900000I-200000J0D01*
G01*
X211475000Y-134900000D01*
G75*
G02*
X211275000Y-134700000I0J200000D01*
G01*
X211275000Y-134300000D01*
G75*
G02*
X211475000Y-134100000I200000J0D01*
G01*
G37*
%TD.AperFunction*%
%TD*%
%TO.P,R3,2*%
%TO.N,Net-(J2-Pad3)*%
%TA.AperFunction,SMDPad,CuDef*%
G36*
G01*
X207025000Y-138400000D02*
X206475000Y-138400000D01*
G75*
G02*
X206275000Y-138200000I0J200000D01*
G01*
X206275000Y-137800000D01*
G75*
G02*
X206475000Y-137600000I200000J0D01*
G01*
X207025000Y-137600000D01*
G75*
G02*
X207225000Y-137800000I0J-200000D01*
G01*
X207225000Y-138200000D01*
G75*
G02*
X207025000Y-138400000I-200000J0D01*
G01*
G37*
%TD.AperFunction*%
%TO.P,R3,1*%
%TO.N,+3V3*%
%TA.AperFunction,SMDPad,CuDef*%
G36*
G01*
X207025000Y-140050000D02*
X206475000Y-140050000D01*
G75*
G02*
X206275000Y-139850000I0J200000D01*
G01*
X206275000Y-139450000D01*
G75*
G02*
X206475000Y-139250000I200000J0D01*
G01*
X207025000Y-139250000D01*
G75*
G02*
X207225000Y-139450000I0J-200000D01*
G01*
X207225000Y-139850000D01*
G75*
G02*
X207025000Y-140050000I-200000J0D01*
G01*
G37*
%TD.AperFunction*%
%TD*%
%TO.P,R4,2*%
%TO.N,Net-(J2-Pad2)*%
%TA.AperFunction,SMDPad,CuDef*%
G36*
G01*
X205025000Y-138400000D02*
X204475000Y-138400000D01*
G75*
G02*
X204275000Y-138200000I0J200000D01*
G01*
X204275000Y-137800000D01*
G75*
G02*
X204475000Y-137600000I200000J0D01*
G01*
X205025000Y-137600000D01*
G75*
G02*
X205225000Y-137800000I0J-200000D01*
G01*
X205225000Y-138200000D01*
G75*
G02*
X205025000Y-138400000I-200000J0D01*
G01*
G37*
%TD.AperFunction*%
%TO.P,R4,1*%
%TO.N,+3V3*%
%TA.AperFunction,SMDPad,CuDef*%
G36*
G01*
X205025000Y-140050000D02*
X204475000Y-140050000D01*
G75*
G02*
X204275000Y-139850000I0J200000D01*
G01*
X204275000Y-139450000D01*
G75*
G02*
X204475000Y-139250000I200000J0D01*
G01*
X205025000Y-139250000D01*
G75*
G02*
X205225000Y-139450000I0J-200000D01*
G01*
X205225000Y-139850000D01*
G75*
G02*
X205025000Y-140050000I-200000J0D01*
G01*
G37*
%TD.AperFunction*%
%TD*%
%TO.P,R5,2*%
%TO.N,Net-(J2-Pad1)*%
%TA.AperFunction,SMDPad,CuDef*%
G36*
G01*
X203025000Y-138400000D02*
X202475000Y-138400000D01*
G75*
G02*
X202275000Y-138200000I0J200000D01*
G01*
X202275000Y-137800000D01*
G75*
G02*
X202475000Y-137600000I200000J0D01*
G01*
X203025000Y-137600000D01*
G75*
G02*
X203225000Y-137800000I0J-200000D01*
G01*
X203225000Y-138200000D01*
G75*
G02*
X203025000Y-138400000I-200000J0D01*
G01*
G37*
%TD.AperFunction*%
%TO.P,R5,1*%
%TO.N,+3V3*%
%TA.AperFunction,SMDPad,CuDef*%
G36*
G01*
X203025000Y-140050000D02*
X202475000Y-140050000D01*
G75*
G02*
X202275000Y-139850000I0J200000D01*
G01*
X202275000Y-139450000D01*
G75*
G02*
X202475000Y-139250000I200000J0D01*
G01*
X203025000Y-139250000D01*
G75*
G02*
X203225000Y-139450000I0J-200000D01*
G01*
X203225000Y-139850000D01*
G75*
G02*
X203025000Y-140050000I-200000J0D01*
G01*
G37*
%TD.AperFunction*%
%TD*%
%TO.P,R6,2*%
%TO.N,GND*%
%TA.AperFunction,SMDPad,CuDef*%
G36*
G01*
X209475000Y-135750000D02*
X210025000Y-135750000D01*
G75*
G02*
X210225000Y-135950000I0J-200000D01*
G01*
X210225000Y-136350000D01*
G75*
G02*
X210025000Y-136550000I-200000J0D01*
G01*
X209475000Y-136550000D01*
G75*
G02*
X209275000Y-136350000I0J200000D01*
G01*
X209275000Y-135950000D01*
G75*
G02*
X209475000Y-135750000I200000J0D01*
G01*
G37*
%TD.AperFunction*%
%TO.P,R6,1*%
%TO.N,Net-(J2-Pad5)*%
%TA.AperFunction,SMDPad,CuDef*%
G36*
G01*
X209475000Y-134100000D02*
X210025000Y-134100000D01*
G75*
G02*
X210225000Y-134300000I0J-200000D01*
G01*
X210225000Y-134700000D01*
G75*
G02*
X210025000Y-134900000I-200000J0D01*
G01*
X209475000Y-134900000D01*
G75*
G02*
X209275000Y-134700000I0J200000D01*
G01*
X209275000Y-134300000D01*
G75*
G02*
X209475000Y-134100000I200000J0D01*
G01*
G37*
%TD.AperFunction*%
%TD*%
%TO.P,R7,2*%
%TO.N,GND*%
%TA.AperFunction,SMDPad,CuDef*%
G36*
G01*
X205475000Y-135750000D02*
X206025000Y-135750000D01*
G75*
G02*
X206225000Y-135950000I0J-200000D01*
G01*
X206225000Y-136350000D01*
G75*
G02*
X206025000Y-136550000I-200000J0D01*
G01*
X205475000Y-136550000D01*
G75*
G02*
X205275000Y-136350000I0J200000D01*
G01*
X205275000Y-135950000D01*
G75*
G02*
X205475000Y-135750000I200000J0D01*
G01*
G37*
%TD.AperFunction*%
%TO.P,R7,1*%
%TO.N,Net-(J2-Pad3)*%
%TA.AperFunction,SMDPad,CuDef*%
G36*
G01*
X205475000Y-134100000D02*
X206025000Y-134100000D01*
G75*
G02*
X206225000Y-134300000I0J-200000D01*
G01*
X206225000Y-134700000D01*
G75*
G02*
X206025000Y-134900000I-200000J0D01*
G01*
X205475000Y-134900000D01*
G75*
G02*
X205275000Y-134700000I0J200000D01*
G01*
X205275000Y-134300000D01*
G75*
G02*
X205475000Y-134100000I200000J0D01*
G01*
G37*
%TD.AperFunction*%
%TD*%
%TO.P,R8,2*%
%TO.N,GND*%
%TA.AperFunction,SMDPad,CuDef*%
G36*
G01*
X203475000Y-135750000D02*
X204025000Y-135750000D01*
G75*
G02*
X204225000Y-135950000I0J-200000D01*
G01*
X204225000Y-136350000D01*
G75*
G02*
X204025000Y-136550000I-200000J0D01*
G01*
X203475000Y-136550000D01*
G75*
G02*
X203275000Y-136350000I0J200000D01*
G01*
X203275000Y-135950000D01*
G75*
G02*
X203475000Y-135750000I200000J0D01*
G01*
G37*
%TD.AperFunction*%
%TO.P,R8,1*%
%TO.N,Net-(J2-Pad2)*%
%TA.AperFunction,SMDPad,CuDef*%
G36*
G01*
X203475000Y-134100000D02*
X204025000Y-134100000D01*
G75*
G02*
X204225000Y-134300000I0J-200000D01*
G01*
X204225000Y-134700000D01*
G75*
G02*
X204025000Y-134900000I-200000J0D01*
G01*
X203475000Y-134900000D01*
G75*
G02*
X203275000Y-134700000I0J200000D01*
G01*
X203275000Y-134300000D01*
G75*
G02*
X203475000Y-134100000I200000J0D01*
G01*
G37*
%TD.AperFunction*%
%TD*%
%TO.P,R9,2*%
%TO.N,GND*%
%TA.AperFunction,SMDPad,CuDef*%
G36*
G01*
X201475000Y-135750000D02*
X202025000Y-135750000D01*
G75*
G02*
X202225000Y-135950000I0J-200000D01*
G01*
X202225000Y-136350000D01*
G75*
G02*
X202025000Y-136550000I-200000J0D01*
G01*
X201475000Y-136550000D01*
G75*
G02*
X201275000Y-136350000I0J200000D01*
G01*
X201275000Y-135950000D01*
G75*
G02*
X201475000Y-135750000I200000J0D01*
G01*
G37*
%TD.AperFunction*%
%TO.P,R9,1*%
%TO.N,Net-(J2-Pad1)*%
%TA.AperFunction,SMDPad,CuDef*%
G36*
G01*
X201475000Y-134100000D02*
X202025000Y-134100000D01*
G75*
G02*
X202225000Y-134300000I0J-200000D01*
G01*
X202225000Y-134700000D01*
G75*
G02*
X202025000Y-134900000I-200000J0D01*
G01*
X201475000Y-134900000D01*
G75*
G02*
X201275000Y-134700000I0J200000D01*
G01*
X201275000Y-134300000D01*
G75*
G02*
X201475000Y-134100000I200000J0D01*
G01*
G37*
%TD.AperFunction*%
%TD*%
D10*
%TO.P,U1,1*%
%TO.N,GND*%
X206400000Y-147950000D03*
%TO.P,U1,3*%
%TO.N,+5V*%
X206400000Y-152550000D03*
%TO.P,U1,2*%
%TO.N,+3V3*%
X206400000Y-150250000D03*
D11*
X200100000Y-150250000D03*
%TD*%
D12*
%TO.P,U2,3*%
%TO.N,+3V3*%
X198750000Y-141750000D03*
%TO.P,U2,2*%
%TO.N,GND*%
X199700000Y-139750000D03*
%TO.P,U2,1*%
%TO.N,/~RESET*%
X197800000Y-139750000D03*
%TD*%
%TO.P,J3,MP*%
%TO.N,N/C*%
%TA.AperFunction,SMDPad,CuDef*%
G36*
G01*
X229780000Y-107800000D02*
X229780000Y-107200000D01*
G75*
G02*
X229880000Y-107100000I100000J0D01*
G01*
X230080000Y-107100000D01*
G75*
G02*
X230180000Y-107200000I0J-100000D01*
G01*
X230180000Y-107800000D01*
G75*
G02*
X230080000Y-107900000I-100000J0D01*
G01*
X229880000Y-107900000D01*
G75*
G02*
X229780000Y-107800000I0J100000D01*
G01*
G37*
%TD.AperFunction*%
%TA.AperFunction,SMDPad,CuDef*%
G36*
G01*
X225380000Y-107800000D02*
X225380000Y-107200000D01*
G75*
G02*
X225480000Y-107100000I100000J0D01*
G01*
X225680000Y-107100000D01*
G75*
G02*
X225780000Y-107200000I0J-100000D01*
G01*
X225780000Y-107800000D01*
G75*
G02*
X225680000Y-107900000I-100000J0D01*
G01*
X225480000Y-107900000D01*
G75*
G02*
X225380000Y-107800000I0J100000D01*
G01*
G37*
%TD.AperFunction*%
%TO.P,J3,6*%
%TO.N,GND*%
%TA.AperFunction,SMDPad,CuDef*%
G36*
G01*
X228880000Y-110325000D02*
X228880000Y-109675000D01*
G75*
G02*
X228955000Y-109600000I75000J0D01*
G01*
X229105000Y-109600000D01*
G75*
G02*
X229180000Y-109675000I0J-75000D01*
G01*
X229180000Y-110325000D01*
G75*
G02*
X229105000Y-110400000I-75000J0D01*
G01*
X228955000Y-110400000D01*
G75*
G02*
X228880000Y-110325000I0J75000D01*
G01*
G37*
%TD.AperFunction*%
%TO.P,J3,5*%
%TO.N,/~RESET*%
%TA.AperFunction,SMDPad,CuDef*%
G36*
G01*
X228380000Y-110325000D02*
X228380000Y-109675000D01*
G75*
G02*
X228455000Y-109600000I75000J0D01*
G01*
X228605000Y-109600000D01*
G75*
G02*
X228680000Y-109675000I0J-75000D01*
G01*
X228680000Y-110325000D01*
G75*
G02*
X228605000Y-110400000I-75000J0D01*
G01*
X228455000Y-110400000D01*
G75*
G02*
X228380000Y-110325000I0J75000D01*
G01*
G37*
%TD.AperFunction*%
%TO.P,J3,4*%
%TO.N,/~CTP_INT*%
%TA.AperFunction,SMDPad,CuDef*%
G36*
G01*
X227880000Y-110325000D02*
X227880000Y-109675000D01*
G75*
G02*
X227955000Y-109600000I75000J0D01*
G01*
X228105000Y-109600000D01*
G75*
G02*
X228180000Y-109675000I0J-75000D01*
G01*
X228180000Y-110325000D01*
G75*
G02*
X228105000Y-110400000I-75000J0D01*
G01*
X227955000Y-110400000D01*
G75*
G02*
X227880000Y-110325000I0J75000D01*
G01*
G37*
%TD.AperFunction*%
%TO.P,J3,3*%
%TO.N,/I2C_SCL*%
%TA.AperFunction,SMDPad,CuDef*%
G36*
G01*
X227380000Y-110325000D02*
X227380000Y-109675000D01*
G75*
G02*
X227455000Y-109600000I75000J0D01*
G01*
X227605000Y-109600000D01*
G75*
G02*
X227680000Y-109675000I0J-75000D01*
G01*
X227680000Y-110325000D01*
G75*
G02*
X227605000Y-110400000I-75000J0D01*
G01*
X227455000Y-110400000D01*
G75*
G02*
X227380000Y-110325000I0J75000D01*
G01*
G37*
%TD.AperFunction*%
%TO.P,J3,2*%
%TO.N,/I2C_SDA*%
%TA.AperFunction,SMDPad,CuDef*%
G36*
G01*
X226880000Y-110325000D02*
X226880000Y-109675000D01*
G75*
G02*
X226955000Y-109600000I75000J0D01*
G01*
X227105000Y-109600000D01*
G75*
G02*
X227180000Y-109675000I0J-75000D01*
G01*
X227180000Y-110325000D01*
G75*
G02*
X227105000Y-110400000I-75000J0D01*
G01*
X226955000Y-110400000D01*
G75*
G02*
X226880000Y-110325000I0J75000D01*
G01*
G37*
%TD.AperFunction*%
%TO.P,J3,1*%
%TO.N,+3V3*%
%TA.AperFunction,SMDPad,CuDef*%
G36*
G01*
X226380000Y-110325000D02*
X226380000Y-109675000D01*
G75*
G02*
X226455000Y-109600000I75000J0D01*
G01*
X226605000Y-109600000D01*
G75*
G02*
X226680000Y-109675000I0J-75000D01*
G01*
X226680000Y-110325000D01*
G75*
G02*
X226605000Y-110400000I-75000J0D01*
G01*
X226455000Y-110400000D01*
G75*
G02*
X226380000Y-110325000I0J75000D01*
G01*
G37*
%TD.AperFunction*%
%TD*%
D13*
%TO.N,GND*%
X205750000Y-137250000D03*
X203750000Y-137250000D03*
X201750000Y-137250000D03*
X213750000Y-137250000D03*
X211750000Y-137250000D03*
X209750000Y-137250000D03*
X220500000Y-129500000D03*
X218500000Y-129500000D03*
X216500000Y-129500000D03*
X214500000Y-129500000D03*
X228250000Y-129500000D03*
X229000000Y-108500000D03*
X227000000Y-133750000D03*
X227000000Y-135500000D03*
X227000000Y-137500000D03*
X227000000Y-139500000D03*
X227000000Y-141500000D03*
X227000000Y-143500000D03*
X227000000Y-145500000D03*
X227000000Y-147500000D03*
X227000000Y-149500000D03*
X222500000Y-133500000D03*
X222500000Y-135500000D03*
X222500000Y-137500000D03*
X222500000Y-139500000D03*
X222500000Y-141500000D03*
X222500000Y-143500000D03*
X222500000Y-145500000D03*
X222500000Y-147500000D03*
X222500000Y-149500000D03*
X227000000Y-151500000D03*
X226500000Y-153500000D03*
X225000000Y-155000000D03*
X223500000Y-156500000D03*
X222000000Y-158000000D03*
X221750000Y-160250000D03*
X221750000Y-162250000D03*
X221750000Y-164250000D03*
X221750000Y-166250000D03*
X221750000Y-168250000D03*
X221750000Y-170250000D03*
X221750000Y-172250000D03*
X222000000Y-151500000D03*
X220500000Y-153000000D03*
X219000000Y-154500000D03*
X217500000Y-156000000D03*
X217250000Y-158000000D03*
X217250000Y-160000000D03*
X217250000Y-162000000D03*
X217250000Y-164000000D03*
X217250000Y-166000000D03*
X217250000Y-168000000D03*
X217250000Y-170000000D03*
X217250000Y-172000000D03*
X229250000Y-132250000D03*
X230750000Y-137500000D03*
X228750000Y-137500000D03*
X223250000Y-111750000D03*
X227500000Y-113000000D03*
X234250000Y-113000000D03*
X235750000Y-114500000D03*
X235750000Y-116500000D03*
X235750000Y-118500000D03*
X235750000Y-120500000D03*
X235750000Y-122500000D03*
X235750000Y-124500000D03*
X235750000Y-126500000D03*
X235750000Y-128500000D03*
X235750000Y-130500000D03*
X235750000Y-132500000D03*
X235750000Y-134500000D03*
X235750000Y-136500000D03*
X235750000Y-138500000D03*
X235750000Y-140500000D03*
X235750000Y-142500000D03*
X235750000Y-144500000D03*
X235750000Y-146500000D03*
X235750000Y-148500000D03*
X235750000Y-150500000D03*
X235750000Y-152500000D03*
X235750000Y-154500000D03*
X235750000Y-156500000D03*
X235750000Y-158500000D03*
X235750000Y-160500000D03*
X235750000Y-162500000D03*
X235750000Y-164500000D03*
X232750000Y-111500000D03*
X230750000Y-111250000D03*
X229000000Y-114500000D03*
X231000000Y-114500000D03*
X232250000Y-116000000D03*
X232250000Y-118000000D03*
X232250000Y-120000000D03*
X232250000Y-122000000D03*
X232250000Y-124000000D03*
X232250000Y-126000000D03*
X232250000Y-128000000D03*
X232250000Y-130000000D03*
X232250000Y-132000000D03*
X232250000Y-134000000D03*
X232250000Y-136000000D03*
X232250000Y-138000000D03*
X232250000Y-140000000D03*
X232250000Y-142000000D03*
X232250000Y-144000000D03*
X232250000Y-146000000D03*
X232250000Y-148000000D03*
X232250000Y-150000000D03*
X232250000Y-152000000D03*
X232250000Y-154000000D03*
X232250000Y-156000000D03*
X232250000Y-158000000D03*
X232250000Y-160000000D03*
X232250000Y-162000000D03*
X232250000Y-164000000D03*
X230750000Y-165500000D03*
X229250000Y-167000000D03*
X227750000Y-168500000D03*
X226250000Y-170000000D03*
X224750000Y-171500000D03*
X223250000Y-173000000D03*
X222500000Y-174500000D03*
X222500000Y-178250000D03*
X235000000Y-166250000D03*
X233500000Y-167750000D03*
X232000000Y-169250000D03*
X230500000Y-170750000D03*
X229000000Y-172250000D03*
X227500000Y-173750000D03*
X226500000Y-178250000D03*
X216500000Y-178250000D03*
X216500000Y-174250000D03*
X211750000Y-129500000D03*
X199750000Y-138500000D03*
X216500000Y-132500000D03*
X218500000Y-132500000D03*
X220500000Y-132500000D03*
X196750000Y-138500000D03*
X219750000Y-126000000D03*
X206250000Y-123500000D03*
X208500000Y-148000000D03*
X210000000Y-148000000D03*
X208500000Y-146500000D03*
X206750000Y-146250000D03*
X205500000Y-145750000D03*
X205500000Y-144250000D03*
X247500000Y-85000000D03*
X247500000Y-90000000D03*
X247500000Y-95000000D03*
X247500000Y-100000000D03*
X247500000Y-105000000D03*
X247500000Y-110000000D03*
X247500000Y-115000000D03*
X247500000Y-120000000D03*
X247500000Y-125000000D03*
X247500000Y-130000000D03*
X247500000Y-135000000D03*
X247500000Y-140000000D03*
X247500000Y-145000000D03*
X247500000Y-150000000D03*
X247500000Y-155000000D03*
X247500000Y-160000000D03*
X247500000Y-165000000D03*
X247500000Y-170000000D03*
X247500000Y-175000000D03*
X192500000Y-85000000D03*
X192500000Y-90000000D03*
X192500000Y-95000000D03*
X192500000Y-100000000D03*
X192500000Y-105000000D03*
X192500000Y-110000000D03*
X192500000Y-115000000D03*
X192500000Y-120000000D03*
X192500000Y-125000000D03*
X192500000Y-130000000D03*
X192500000Y-135000000D03*
X192500000Y-140000000D03*
X192500000Y-145000000D03*
X192500000Y-150000000D03*
X192500000Y-155000000D03*
X192500000Y-160000000D03*
X192500000Y-165000000D03*
X192500000Y-170000000D03*
X192500000Y-175000000D03*
X240000000Y-77500000D03*
X200000000Y-77500000D03*
X205000000Y-77500000D03*
X210000000Y-77500000D03*
X215000000Y-77500000D03*
X220000000Y-77500000D03*
X225000000Y-77500000D03*
X230000000Y-77500000D03*
X235000000Y-77500000D03*
X200000000Y-182500000D03*
X205000000Y-182500000D03*
X210000000Y-182500000D03*
X215000000Y-182500000D03*
X220000000Y-182500000D03*
X225000000Y-182500000D03*
X230000000Y-182500000D03*
X235000000Y-182500000D03*
X240000000Y-182500000D03*
X199000000Y-123500000D03*
X199000000Y-126000000D03*
X196750000Y-123500000D03*
X196750000Y-126250000D03*
%TO.N,/~RESET*%
X197800000Y-131500000D03*
X197750000Y-119750000D03*
%TD*%
D14*
%TO.N,+3V3*%
X226530000Y-111470000D02*
X226250000Y-111750000D01*
X226530000Y-110000000D02*
X226530000Y-111470000D01*
D15*
X223750000Y-126250000D02*
X221750000Y-126250000D01*
D14*
X224250000Y-131000000D02*
X224250000Y-128750000D01*
X224250000Y-128750000D02*
X221750000Y-126250000D01*
X227250000Y-129750000D02*
X227000000Y-129500000D01*
X227250000Y-131000000D02*
X227250000Y-129750000D01*
X227000000Y-129500000D02*
X226750000Y-129250000D01*
X226750000Y-131000000D02*
X226750000Y-129250000D01*
D15*
X226750000Y-129250000D02*
X223750000Y-126250000D01*
X206750000Y-139650000D02*
X204750000Y-139650000D01*
X204750000Y-139650000D02*
X202750000Y-139650000D01*
X202750000Y-139650000D02*
X202750000Y-139750000D01*
D14*
X228750000Y-134000000D02*
X228750000Y-134500000D01*
X226750000Y-132000000D02*
X228750000Y-134000000D01*
X226750000Y-131000000D02*
X226750000Y-132000000D01*
X229750000Y-133500000D02*
X230750000Y-134500000D01*
X227250000Y-131750000D02*
X229000000Y-133500000D01*
X229000000Y-133500000D02*
X229750000Y-133500000D01*
X227250000Y-131000000D02*
X227250000Y-131750000D01*
D15*
X202750000Y-139650000D02*
X202750000Y-141750000D01*
X226250000Y-112750000D02*
X226250000Y-111750000D01*
X225250000Y-113750000D02*
X226250000Y-112750000D01*
X220250000Y-124750000D02*
X204750000Y-124750000D01*
X221750000Y-126250000D02*
X220250000Y-124750000D01*
X204750000Y-124750000D02*
X203250000Y-124750000D01*
X205250000Y-115500000D02*
X207000000Y-113750000D01*
X205250000Y-122750000D02*
X205250000Y-115500000D01*
X203250000Y-124750000D02*
X205250000Y-122750000D01*
X207000000Y-113750000D02*
X225250000Y-113750000D01*
X195500000Y-135500000D02*
X195500000Y-141750000D01*
X195500000Y-125750000D02*
X195500000Y-135500000D01*
X196500000Y-124750000D02*
X195500000Y-125750000D01*
X203250000Y-124750000D02*
X196500000Y-124750000D01*
D16*
%TO.N,GND*%
X221250000Y-131000000D02*
X221250000Y-132000000D01*
X220750000Y-131000000D02*
X220750000Y-132000000D01*
X220250000Y-131000000D02*
X220250000Y-132000000D01*
X219750000Y-131000000D02*
X219750000Y-132000000D01*
X219250000Y-131000000D02*
X219250000Y-132000000D01*
X218750000Y-131000000D02*
X218750000Y-132000000D01*
X218250000Y-131000000D02*
X218250000Y-132000000D01*
X217750000Y-131000000D02*
X217750000Y-132000000D01*
X217250000Y-131000000D02*
X217250000Y-132000000D01*
X216750000Y-131000000D02*
X216750000Y-132000000D01*
X216750000Y-131000000D02*
X216750000Y-130000000D01*
X217250000Y-131000000D02*
X217250000Y-130000000D01*
X218250000Y-131000000D02*
X218250000Y-130000000D01*
X219750000Y-131000000D02*
X219750000Y-130000000D01*
X216250000Y-131000000D02*
X216250000Y-132000000D01*
X215750000Y-131000000D02*
X215750000Y-132000000D01*
X215250000Y-131000000D02*
X215250000Y-132000000D01*
X215750000Y-131000000D02*
X215750000Y-130000000D01*
X215250000Y-131000000D02*
X215250000Y-130000000D01*
X214250000Y-131000000D02*
X214250000Y-130000000D01*
X214750000Y-131000000D02*
X214750000Y-132000000D01*
X205750000Y-136150000D02*
X205750000Y-137250000D01*
X203750000Y-136150000D02*
X203750000Y-137250000D01*
X201750000Y-136150000D02*
X201750000Y-137250000D01*
D15*
X213750000Y-136150000D02*
X213750000Y-137250000D01*
X211750000Y-136150000D02*
X211750000Y-137250000D01*
X209750000Y-136150000D02*
X209750000Y-137250000D01*
D16*
X221750000Y-131000000D02*
X221750000Y-130000000D01*
X221250000Y-131000000D02*
X221250000Y-130000000D01*
X220750000Y-131000000D02*
X220750000Y-130000000D01*
X220250000Y-131000000D02*
X220250000Y-130000000D01*
X219250000Y-131000000D02*
X219250000Y-130000000D01*
X218750000Y-131000000D02*
X218750000Y-130000000D01*
X217750000Y-131000000D02*
X217750000Y-130000000D01*
X216250000Y-131000000D02*
X216250000Y-130000000D01*
X214750000Y-131000000D02*
X214750000Y-130000000D01*
D14*
X227750000Y-131000000D02*
X227750000Y-130000000D01*
X227750000Y-130000000D02*
X228250000Y-129500000D01*
D16*
X229030000Y-108530000D02*
X229000000Y-108500000D01*
D14*
X229030000Y-110000000D02*
X229030000Y-108530000D01*
X229250000Y-132250000D02*
X229250000Y-132250000D01*
D16*
X230750000Y-136050000D02*
X230750000Y-137500000D01*
X228750000Y-136050000D02*
X228750000Y-137500000D01*
D14*
X229030000Y-110000000D02*
X229030000Y-110530000D01*
X229250000Y-110750000D02*
X230000000Y-110750000D01*
X229030000Y-110530000D02*
X229250000Y-110750000D01*
D16*
X224700000Y-111750000D02*
X223250000Y-111750000D01*
X214250000Y-131000000D02*
X214250000Y-131750000D01*
X214250000Y-131750000D02*
X214500000Y-132000000D01*
X214500000Y-132000000D02*
X215000000Y-132000000D01*
X211750000Y-131000000D02*
X211750000Y-130000000D01*
X199700000Y-138550000D02*
X199750000Y-138500000D01*
X199700000Y-139750000D02*
X199700000Y-138550000D01*
X222250000Y-131000000D02*
X222250000Y-132000000D01*
X221750000Y-131000000D02*
X221750000Y-132000000D01*
X222250000Y-131000000D02*
X222250000Y-130250000D01*
X222250000Y-130250000D02*
X221750000Y-129750000D01*
D14*
X228480000Y-132250000D02*
X229250000Y-132250000D01*
X227750000Y-131520000D02*
X228480000Y-132250000D01*
X227750000Y-131000000D02*
X227750000Y-131520000D01*
%TO.N,+5V*%
X213750000Y-131000000D02*
X213750000Y-132250000D01*
X213750000Y-132250000D02*
X214250000Y-132750000D01*
D15*
X216000000Y-149250000D02*
X214500000Y-150750000D01*
X216000000Y-134500000D02*
X216000000Y-149250000D01*
X214250000Y-132750000D02*
X216000000Y-134500000D01*
D16*
%TO.N,/~CTP_INT*%
X225500000Y-174000000D02*
X225500000Y-176300000D01*
X234500000Y-165000000D02*
X225500000Y-174000000D01*
X234500000Y-114750000D02*
X234500000Y-165000000D01*
X232250000Y-112500000D02*
X234500000Y-114750000D01*
X230000000Y-112500000D02*
X232250000Y-112500000D01*
X228030000Y-110530000D02*
X230000000Y-112500000D01*
X228030000Y-110000000D02*
X228030000Y-110530000D01*
%TO.N,/I2C_SDA*%
X227030000Y-111030000D02*
X227030000Y-110000000D01*
X229500000Y-113500000D02*
X227030000Y-111030000D01*
X231750000Y-113500000D02*
X229500000Y-113500000D01*
X233500000Y-115250000D02*
X231750000Y-113500000D01*
X233500000Y-164500000D02*
X233500000Y-115250000D01*
X223500000Y-174500000D02*
X233500000Y-164500000D01*
X223500000Y-176300000D02*
X223500000Y-174500000D01*
%TO.N,/I2C_SCL*%
X229750000Y-113000000D02*
X227530000Y-110780000D01*
X232000000Y-113000000D02*
X229750000Y-113000000D01*
X234000000Y-115000000D02*
X232000000Y-113000000D01*
X227530000Y-110780000D02*
X227530000Y-110000000D01*
X234000000Y-164750000D02*
X234000000Y-115000000D01*
X224500000Y-174250000D02*
X234000000Y-164750000D01*
X224500000Y-176300000D02*
X224500000Y-174250000D01*
%TO.N,/~SPI_CS*%
X220500000Y-174000000D02*
X220500000Y-157750000D01*
X225750000Y-135250000D02*
X225750000Y-131000000D01*
X225750000Y-152500000D02*
X225750000Y-135250000D01*
X220500000Y-157750000D02*
X225750000Y-152500000D01*
X221500000Y-175000000D02*
X220500000Y-174000000D01*
X221500000Y-176300000D02*
X221500000Y-175000000D01*
%TO.N,/LCD_DC*%
X224750000Y-134750000D02*
X224750000Y-131000000D01*
X224750000Y-152000000D02*
X224750000Y-134750000D01*
X219500000Y-157250000D02*
X224750000Y-152000000D01*
X219500000Y-176300000D02*
X219500000Y-157250000D01*
%TO.N,/SPI_MISO*%
X217500000Y-175000000D02*
X217500000Y-176300000D01*
X218500000Y-174000000D02*
X217500000Y-175000000D01*
X218500000Y-156750000D02*
X218500000Y-174000000D01*
X223750000Y-151500000D02*
X218500000Y-156750000D01*
X223750000Y-132250000D02*
X223750000Y-151500000D01*
X223250000Y-131750000D02*
X223750000Y-132250000D01*
X223250000Y-131000000D02*
X223250000Y-131750000D01*
%TO.N,/SPI_MOSI*%
X224250000Y-132000000D02*
X224250000Y-151750000D01*
X223750000Y-131500000D02*
X224250000Y-132000000D01*
X223750000Y-131000000D02*
X223750000Y-131500000D01*
X218500000Y-176300000D02*
X218500000Y-175000000D01*
X219000000Y-174500000D02*
X219000000Y-157000000D01*
X218500000Y-175000000D02*
X219000000Y-174500000D01*
X224250000Y-151750000D02*
X219000000Y-157000000D01*
%TO.N,/SPI_SCK*%
X220500000Y-175000000D02*
X220500000Y-176300000D01*
X220000000Y-157500000D02*
X220000000Y-174500000D01*
X225250000Y-152250000D02*
X220000000Y-157500000D01*
X220000000Y-174500000D02*
X220500000Y-175000000D01*
X225250000Y-131000000D02*
X225250000Y-152250000D01*
%TO.N,/~RESET*%
X197800000Y-134200000D02*
X197800000Y-134200000D01*
X197800000Y-139750000D02*
X197800000Y-134200000D01*
X220500000Y-127250000D02*
X222750000Y-129500000D01*
X202000000Y-127250000D02*
X220500000Y-127250000D01*
X222750000Y-129500000D02*
X222750000Y-131000000D01*
X197800000Y-131450000D02*
X202000000Y-127250000D01*
X197800000Y-134200000D02*
X197800000Y-131450000D01*
X197800000Y-134200000D02*
X197800000Y-131500000D01*
X197750000Y-116500000D02*
X197750000Y-119750000D01*
X205250000Y-109000000D02*
X197750000Y-116500000D01*
X228530000Y-109280000D02*
X228250000Y-109000000D01*
X228250000Y-109000000D02*
X205250000Y-109000000D01*
X228530000Y-110000000D02*
X228530000Y-109280000D01*
%TO.N,Net-(J2-Pad3)*%
X206750000Y-133500000D02*
X206750000Y-138000000D01*
X206750000Y-133500000D02*
X205750000Y-134500000D01*
X207000000Y-133250000D02*
X206750000Y-133500000D01*
X210000000Y-133250000D02*
X207000000Y-133250000D01*
X211250000Y-132000000D02*
X210000000Y-133250000D01*
X211250000Y-131000000D02*
X211250000Y-132000000D01*
%TO.N,Net-(J2-Pad2)*%
X204750000Y-133500000D02*
X204750000Y-138000000D01*
X204750000Y-133500000D02*
X203750000Y-134500000D01*
X205750000Y-132500000D02*
X204750000Y-133500000D01*
X210000000Y-132500000D02*
X205750000Y-132500000D01*
X210750000Y-131750000D02*
X210000000Y-132500000D01*
X210750000Y-131000000D02*
X210750000Y-131750000D01*
%TO.N,Net-(J2-Pad1)*%
X202750000Y-133500000D02*
X202750000Y-138000000D01*
X202750000Y-133500000D02*
X201750000Y-134500000D01*
X204500000Y-131750000D02*
X202750000Y-133500000D01*
X210113590Y-131750000D02*
X204500000Y-131750000D01*
X210250000Y-131613590D02*
X210113590Y-131750000D01*
X210250000Y-131000000D02*
X210250000Y-131613590D01*
D14*
%TO.N,Net-(J2-Pad7)*%
X213250000Y-134000000D02*
X213750000Y-134500000D01*
X213250000Y-131000000D02*
X213250000Y-134000000D01*
%TO.N,Net-(J2-Pad6)*%
X212750000Y-133500000D02*
X211750000Y-134500000D01*
X212750000Y-131000000D02*
X212750000Y-133500000D01*
%TO.N,Net-(J2-Pad5)*%
X210500000Y-133750000D02*
X209750000Y-134500000D01*
X212250000Y-132000000D02*
X210500000Y-133750000D01*
X212250000Y-131000000D02*
X212250000Y-132000000D01*
%TD*%
D16*
%TO.N,GND*%
X242370466Y-76795903D02*
X241795903Y-77370466D01*
X241344473Y-78046080D01*
X241033522Y-78796782D01*
X240875000Y-79593723D01*
X240875000Y-80406277D01*
X241033522Y-81203218D01*
X241344473Y-81953920D01*
X241795903Y-82629534D01*
X242370466Y-83204097D01*
X243046080Y-83655527D01*
X243796782Y-83966478D01*
X244593723Y-84125000D01*
X245406277Y-84125000D01*
X246203218Y-83966478D01*
X246953920Y-83655527D01*
X247629534Y-83204097D01*
X248204097Y-82629534D01*
X248350001Y-82411173D01*
X248350000Y-177588826D01*
X248204097Y-177370466D01*
X247629534Y-176795903D01*
X246953920Y-176344473D01*
X246203218Y-176033522D01*
X245406277Y-175875000D01*
X244593723Y-175875000D01*
X243796782Y-176033522D01*
X243046080Y-176344473D01*
X242370466Y-176795903D01*
X241795903Y-177370466D01*
X241344473Y-178046080D01*
X241033522Y-178796782D01*
X240875000Y-179593723D01*
X240875000Y-180406277D01*
X241033522Y-181203218D01*
X241344473Y-181953920D01*
X241795903Y-182629534D01*
X242370466Y-183204097D01*
X242588826Y-183350000D01*
X197411174Y-183350000D01*
X197629534Y-183204097D01*
X198204097Y-182629534D01*
X198655527Y-181953920D01*
X198966478Y-181203218D01*
X199125000Y-180406277D01*
X199125000Y-179593723D01*
X198966478Y-178796782D01*
X198655527Y-178046080D01*
X198204097Y-177370466D01*
X197629534Y-176795903D01*
X196953920Y-176344473D01*
X196203218Y-176033522D01*
X195406277Y-175875000D01*
X194593723Y-175875000D01*
X193796782Y-176033522D01*
X193046080Y-176344473D01*
X192370466Y-176795903D01*
X191795903Y-177370466D01*
X191650000Y-177588826D01*
X191650000Y-125750000D01*
X194620767Y-125750000D01*
X194625000Y-125792979D01*
X194625001Y-135457012D01*
X194625000Y-135457022D01*
X194625001Y-141499990D01*
X194625000Y-141500000D01*
X194625000Y-173396447D01*
X194637009Y-173518379D01*
X194656039Y-173614049D01*
X194691605Y-173731293D01*
X194749361Y-173839347D01*
X194803554Y-173920453D01*
X194881281Y-174015165D01*
X198484835Y-177618719D01*
X198579547Y-177696446D01*
X198660653Y-177750639D01*
X198768706Y-177808395D01*
X198885951Y-177843961D01*
X198981621Y-177862991D01*
X199103553Y-177875000D01*
X202750000Y-177875000D01*
X202871931Y-177862991D01*
X202967602Y-177843961D01*
X203084847Y-177808395D01*
X203192901Y-177750639D01*
X203250000Y-177712487D01*
X203307099Y-177750639D01*
X203415153Y-177808395D01*
X203532398Y-177843961D01*
X203628069Y-177862991D01*
X203750000Y-177875000D01*
X208549363Y-177875000D01*
X208541976Y-177950000D01*
X208541976Y-180250000D01*
X208566533Y-180499330D01*
X208639260Y-180739079D01*
X208757362Y-180960032D01*
X208916301Y-181153699D01*
X209109968Y-181312638D01*
X209330921Y-181430740D01*
X209570670Y-181503467D01*
X209820000Y-181528024D01*
X211120000Y-181528024D01*
X211369330Y-181503467D01*
X211609079Y-181430740D01*
X211830032Y-181312638D01*
X212023699Y-181153699D01*
X212182638Y-180960032D01*
X212300740Y-180739079D01*
X212373467Y-180499330D01*
X212398024Y-180250000D01*
X212398024Y-177950000D01*
X227601976Y-177950000D01*
X227601976Y-180250000D01*
X227626533Y-180499330D01*
X227699260Y-180739079D01*
X227817362Y-180960032D01*
X227976301Y-181153699D01*
X228169968Y-181312638D01*
X228390921Y-181430740D01*
X228630670Y-181503467D01*
X228880000Y-181528024D01*
X230180000Y-181528024D01*
X230429330Y-181503467D01*
X230669079Y-181430740D01*
X230890032Y-181312638D01*
X231083699Y-181153699D01*
X231242638Y-180960032D01*
X231360740Y-180739079D01*
X231433467Y-180499330D01*
X231458024Y-180250000D01*
X231458024Y-177950000D01*
X231433467Y-177700670D01*
X231360740Y-177460921D01*
X231242638Y-177239968D01*
X231083699Y-177046301D01*
X230890032Y-176887362D01*
X230669079Y-176769260D01*
X230429330Y-176696533D01*
X230180000Y-176671976D01*
X228880000Y-176671976D01*
X228630670Y-176696533D01*
X228390921Y-176769260D01*
X228169968Y-176887362D01*
X227976301Y-177046301D01*
X227817362Y-177239968D01*
X227699260Y-177460921D01*
X227626533Y-177700670D01*
X227601976Y-177950000D01*
X212398024Y-177950000D01*
X212390637Y-177875000D01*
X213069871Y-177875000D01*
X213195227Y-177913026D01*
X213347500Y-177928024D01*
X213652500Y-177928024D01*
X213804773Y-177913026D01*
X213930129Y-177875000D01*
X214069871Y-177875000D01*
X214195227Y-177913026D01*
X214347500Y-177928024D01*
X214652500Y-177928024D01*
X214804773Y-177913026D01*
X214930129Y-177875000D01*
X215069871Y-177875000D01*
X215195227Y-177913026D01*
X215347500Y-177928024D01*
X215652500Y-177928024D01*
X215804773Y-177913026D01*
X215939553Y-177872141D01*
X215954666Y-177880219D01*
X216072479Y-177915957D01*
X216195000Y-177928024D01*
X216218750Y-177925000D01*
X216375000Y-177768750D01*
X216375000Y-177441612D01*
X216418026Y-177299773D01*
X216433024Y-177147500D01*
X216433024Y-175452500D01*
X216418026Y-175300227D01*
X216375000Y-175158388D01*
X216375000Y-174831250D01*
X216218750Y-174675000D01*
X216195000Y-174671976D01*
X216072479Y-174684043D01*
X215954666Y-174719781D01*
X215939553Y-174727859D01*
X215854278Y-174701991D01*
X215834847Y-174691605D01*
X215717602Y-174656039D01*
X215621931Y-174637009D01*
X215500000Y-174625000D01*
X215375000Y-174625000D01*
X215375000Y-151112436D01*
X216588319Y-149899117D01*
X216621712Y-149871712D01*
X216731056Y-149738476D01*
X216812305Y-149586468D01*
X216850694Y-149459920D01*
X216862339Y-149421531D01*
X216879233Y-149250001D01*
X216875000Y-149207022D01*
X216875000Y-134542979D01*
X216879233Y-134500000D01*
X216862339Y-134328470D01*
X216812305Y-134163532D01*
X216812109Y-134163165D01*
X216731056Y-134011524D01*
X216621712Y-133878288D01*
X216588326Y-133850889D01*
X214838327Y-132100891D01*
X214738475Y-132018945D01*
X214654413Y-131974013D01*
X214750000Y-131920194D01*
X214847002Y-131974810D01*
X214897642Y-131991392D01*
X214931250Y-132025000D01*
X215000000Y-132017204D01*
X215068750Y-132025000D01*
X215102358Y-131991392D01*
X215152998Y-131974810D01*
X215250000Y-131920194D01*
X215347002Y-131974810D01*
X215397642Y-131991392D01*
X215431250Y-132025000D01*
X215500000Y-132017204D01*
X215568750Y-132025000D01*
X215602358Y-131991392D01*
X215652998Y-131974810D01*
X215750000Y-131920194D01*
X215847002Y-131974810D01*
X215897642Y-131991392D01*
X215931250Y-132025000D01*
X216000000Y-132017204D01*
X216068750Y-132025000D01*
X216102358Y-131991392D01*
X216152998Y-131974810D01*
X216250000Y-131920194D01*
X216347002Y-131974810D01*
X216397642Y-131991392D01*
X216431250Y-132025000D01*
X216500000Y-132017204D01*
X216568750Y-132025000D01*
X216602358Y-131991392D01*
X216652998Y-131974810D01*
X216750000Y-131920194D01*
X216847002Y-131974810D01*
X216897642Y-131991392D01*
X216931250Y-132025000D01*
X217000000Y-132017204D01*
X217068750Y-132025000D01*
X217102358Y-131991392D01*
X217152998Y-131974810D01*
X217250000Y-131920194D01*
X217347002Y-131974810D01*
X217397642Y-131991392D01*
X217431250Y-132025000D01*
X217500000Y-132017204D01*
X217568750Y-132025000D01*
X217602358Y-131991392D01*
X217652998Y-131974810D01*
X217750000Y-131920194D01*
X217847002Y-131974810D01*
X217897642Y-131991392D01*
X217931250Y-132025000D01*
X218000000Y-132017204D01*
X218068750Y-132025000D01*
X218102358Y-131991392D01*
X218152998Y-131974810D01*
X218250000Y-131920194D01*
X218347002Y-131974810D01*
X218397642Y-131991392D01*
X218431250Y-132025000D01*
X218500000Y-132017204D01*
X218568750Y-132025000D01*
X218602358Y-131991392D01*
X218652998Y-131974810D01*
X218750000Y-131920194D01*
X218847002Y-131974810D01*
X218897642Y-131991392D01*
X218931250Y-132025000D01*
X219000000Y-132017204D01*
X219068750Y-132025000D01*
X219102358Y-131991392D01*
X219152998Y-131974810D01*
X219250000Y-131920194D01*
X219347002Y-131974810D01*
X219397642Y-131991392D01*
X219431250Y-132025000D01*
X219500000Y-132017204D01*
X219568750Y-132025000D01*
X219602358Y-131991392D01*
X219652998Y-131974810D01*
X219750000Y-131920194D01*
X219847002Y-131974810D01*
X219897642Y-131991392D01*
X219931250Y-132025000D01*
X220000000Y-132017204D01*
X220068750Y-132025000D01*
X220102358Y-131991392D01*
X220152998Y-131974810D01*
X220250000Y-131920194D01*
X220347002Y-131974810D01*
X220397642Y-131991392D01*
X220431250Y-132025000D01*
X220500000Y-132017204D01*
X220568750Y-132025000D01*
X220602358Y-131991392D01*
X220652998Y-131974810D01*
X220750000Y-131920194D01*
X220847002Y-131974810D01*
X220897642Y-131991392D01*
X220931250Y-132025000D01*
X221000000Y-132017204D01*
X221068750Y-132025000D01*
X221102358Y-131991392D01*
X221152998Y-131974810D01*
X221250000Y-131920194D01*
X221347002Y-131974810D01*
X221397642Y-131991392D01*
X221431250Y-132025000D01*
X221500000Y-132017204D01*
X221568750Y-132025000D01*
X221602358Y-131991392D01*
X221652998Y-131974810D01*
X221750000Y-131920194D01*
X221847002Y-131974810D01*
X221897642Y-131991392D01*
X221931250Y-132025000D01*
X222000000Y-132017204D01*
X222068750Y-132025000D01*
X222102358Y-131991392D01*
X222152998Y-131974810D01*
X222260276Y-131914408D01*
X222274978Y-131901793D01*
X222284421Y-131909543D01*
X222351817Y-131945567D01*
X222431250Y-132025000D01*
X222533999Y-132013349D01*
X222537847Y-132014516D01*
X222546760Y-132015394D01*
X222553739Y-132038400D01*
X222576674Y-132081308D01*
X222623382Y-132168693D01*
X222658595Y-132211600D01*
X222693624Y-132254283D01*
X222693625Y-132254284D01*
X222717106Y-132282895D01*
X222745715Y-132306374D01*
X223000000Y-132560659D01*
X223000001Y-151189339D01*
X217995720Y-156193621D01*
X217967105Y-156217105D01*
X217873381Y-156331308D01*
X217803739Y-156461600D01*
X217760853Y-156602975D01*
X217750000Y-156713166D01*
X217750000Y-156713173D01*
X217746373Y-156750000D01*
X217750000Y-156786827D01*
X217750001Y-173689339D01*
X216995719Y-174443622D01*
X216967105Y-174467105D01*
X216873381Y-174581308D01*
X216823922Y-174673840D01*
X216805000Y-174671976D01*
X216781250Y-174675000D01*
X216625000Y-174831250D01*
X216625000Y-175158388D01*
X216581974Y-175300227D01*
X216566976Y-175452500D01*
X216566976Y-177147500D01*
X216581974Y-177299773D01*
X216625000Y-177441612D01*
X216625000Y-177768750D01*
X216781250Y-177925000D01*
X216805000Y-177928024D01*
X216927521Y-177915957D01*
X217045334Y-177880219D01*
X217060447Y-177872141D01*
X217195227Y-177913026D01*
X217347500Y-177928024D01*
X217652500Y-177928024D01*
X217804773Y-177913026D01*
X217951194Y-177868610D01*
X218000000Y-177842523D01*
X218048806Y-177868610D01*
X218195227Y-177913026D01*
X218347500Y-177928024D01*
X218652500Y-177928024D01*
X218804773Y-177913026D01*
X218951194Y-177868610D01*
X219000000Y-177842523D01*
X219048806Y-177868610D01*
X219195227Y-177913026D01*
X219347500Y-177928024D01*
X219652500Y-177928024D01*
X219804773Y-177913026D01*
X219951194Y-177868610D01*
X220000000Y-177842523D01*
X220048806Y-177868610D01*
X220195227Y-177913026D01*
X220347500Y-177928024D01*
X220652500Y-177928024D01*
X220804773Y-177913026D01*
X220951194Y-177868610D01*
X221000000Y-177842523D01*
X221048806Y-177868610D01*
X221195227Y-177913026D01*
X221347500Y-177928024D01*
X221652500Y-177928024D01*
X221804773Y-177913026D01*
X221939553Y-177872141D01*
X221954666Y-177880219D01*
X222072479Y-177915957D01*
X222195000Y-177928024D01*
X222218750Y-177925000D01*
X222375000Y-177768750D01*
X222375000Y-177441612D01*
X222418026Y-177299773D01*
X222433024Y-177147500D01*
X222433024Y-175452500D01*
X222418026Y-175300227D01*
X222375000Y-175158388D01*
X222375000Y-174831250D01*
X222218750Y-174675000D01*
X222195000Y-174671976D01*
X222176078Y-174673840D01*
X222126619Y-174581307D01*
X222056376Y-174495716D01*
X222056374Y-174495714D01*
X222032895Y-174467105D01*
X222004286Y-174443626D01*
X221250000Y-173689341D01*
X221250000Y-158060659D01*
X226254287Y-153056373D01*
X226282895Y-153032895D01*
X226376619Y-152918693D01*
X226446261Y-152788401D01*
X226461202Y-152739147D01*
X226489147Y-152647027D01*
X226494362Y-152594080D01*
X226500000Y-152536835D01*
X226500000Y-152536829D01*
X226503627Y-152500001D01*
X226500000Y-152463173D01*
X226500000Y-136500000D01*
X227646976Y-136500000D01*
X227659043Y-136622521D01*
X227694781Y-136740334D01*
X227752817Y-136848911D01*
X227830920Y-136944080D01*
X227926089Y-137022183D01*
X228034666Y-137080219D01*
X228152479Y-137115957D01*
X228275000Y-137128024D01*
X228468750Y-137125000D01*
X228625000Y-136968750D01*
X228625000Y-136175000D01*
X228875000Y-136175000D01*
X228875000Y-136968750D01*
X229031250Y-137125000D01*
X229225000Y-137128024D01*
X229347521Y-137115957D01*
X229465334Y-137080219D01*
X229573911Y-137022183D01*
X229669080Y-136944080D01*
X229747183Y-136848911D01*
X229750000Y-136843641D01*
X229752817Y-136848911D01*
X229830920Y-136944080D01*
X229926089Y-137022183D01*
X230034666Y-137080219D01*
X230152479Y-137115957D01*
X230275000Y-137128024D01*
X230468750Y-137125000D01*
X230625000Y-136968750D01*
X230625000Y-136175000D01*
X230875000Y-136175000D01*
X230875000Y-136968750D01*
X231031250Y-137125000D01*
X231225000Y-137128024D01*
X231347521Y-137115957D01*
X231465334Y-137080219D01*
X231573911Y-137022183D01*
X231669080Y-136944080D01*
X231747183Y-136848911D01*
X231805219Y-136740334D01*
X231840957Y-136622521D01*
X231853024Y-136500000D01*
X231850000Y-136331250D01*
X231693750Y-136175000D01*
X230875000Y-136175000D01*
X230625000Y-136175000D01*
X229806250Y-136175000D01*
X229750000Y-136231250D01*
X229693750Y-136175000D01*
X228875000Y-136175000D01*
X228625000Y-136175000D01*
X227806250Y-136175000D01*
X227650000Y-136331250D01*
X227646976Y-136500000D01*
X226500000Y-136500000D01*
X226500000Y-132846014D01*
X227686456Y-134032470D01*
X227663367Y-134108583D01*
X227646976Y-134275000D01*
X227646976Y-134725000D01*
X227663367Y-134891417D01*
X227711909Y-135051438D01*
X227790736Y-135198915D01*
X227793186Y-135201900D01*
X227752817Y-135251089D01*
X227694781Y-135359666D01*
X227659043Y-135477479D01*
X227646976Y-135600000D01*
X227650000Y-135768750D01*
X227806250Y-135925000D01*
X228625000Y-135925000D01*
X228625000Y-135905000D01*
X228875000Y-135905000D01*
X228875000Y-135925000D01*
X229693750Y-135925000D01*
X229750000Y-135868750D01*
X229806250Y-135925000D01*
X230625000Y-135925000D01*
X230625000Y-135905000D01*
X230875000Y-135905000D01*
X230875000Y-135925000D01*
X231693750Y-135925000D01*
X231850000Y-135768750D01*
X231853024Y-135600000D01*
X231840957Y-135477479D01*
X231805219Y-135359666D01*
X231747183Y-135251089D01*
X231706814Y-135201900D01*
X231709264Y-135198915D01*
X231788091Y-135051438D01*
X231836633Y-134891417D01*
X231853024Y-134725000D01*
X231853024Y-134275000D01*
X231836633Y-134108583D01*
X231788091Y-133948562D01*
X231709264Y-133801085D01*
X231603179Y-133671821D01*
X231473915Y-133565736D01*
X231326438Y-133486909D01*
X231166417Y-133438367D01*
X231000000Y-133421976D01*
X230767991Y-133421976D01*
X230324932Y-132978918D01*
X230300659Y-132949341D01*
X230182650Y-132852494D01*
X230048014Y-132780530D01*
X229901926Y-132736214D01*
X229788065Y-132725000D01*
X229788063Y-132725000D01*
X229750000Y-132721251D01*
X229711937Y-132725000D01*
X229321015Y-132725000D01*
X228618471Y-132022457D01*
X228675000Y-132028024D01*
X228825000Y-132028024D01*
X228962153Y-132014516D01*
X229000000Y-132003035D01*
X229037847Y-132014516D01*
X229175000Y-132028024D01*
X229325000Y-132028024D01*
X229462153Y-132014516D01*
X229500000Y-132003035D01*
X229537847Y-132014516D01*
X229675000Y-132028024D01*
X229825000Y-132028024D01*
X229962153Y-132014516D01*
X230094036Y-131974509D01*
X230215579Y-131909543D01*
X230322113Y-131822113D01*
X230409543Y-131715579D01*
X230474509Y-131594036D01*
X230514516Y-131462153D01*
X230528024Y-131325000D01*
X230528024Y-130675000D01*
X230514516Y-130537847D01*
X230474509Y-130405964D01*
X230409543Y-130284421D01*
X230322113Y-130177887D01*
X230215579Y-130090457D01*
X230094036Y-130025491D01*
X229962153Y-129985484D01*
X229825000Y-129971976D01*
X229675000Y-129971976D01*
X229537847Y-129985484D01*
X229500000Y-129996965D01*
X229462153Y-129985484D01*
X229325000Y-129971976D01*
X229175000Y-129971976D01*
X229037847Y-129985484D01*
X229000000Y-129996965D01*
X228962153Y-129985484D01*
X228825000Y-129971976D01*
X228675000Y-129971976D01*
X228537847Y-129985484D01*
X228500000Y-129996965D01*
X228462153Y-129985484D01*
X228325000Y-129971976D01*
X228175000Y-129971976D01*
X228037847Y-129985484D01*
X228033999Y-129986651D01*
X228025000Y-129985631D01*
X228025000Y-129788062D01*
X228028749Y-129749999D01*
X228025000Y-129711935D01*
X228013786Y-129598074D01*
X227969470Y-129451986D01*
X227897506Y-129317350D01*
X227800659Y-129199341D01*
X227771086Y-129175071D01*
X227585278Y-128989264D01*
X227562305Y-128913532D01*
X227481056Y-128761524D01*
X227399109Y-128661672D01*
X226937437Y-128200000D01*
X229871976Y-128200000D01*
X229871976Y-128800000D01*
X229885965Y-128942030D01*
X229927394Y-129078603D01*
X229994670Y-129204468D01*
X230085209Y-129314791D01*
X230195532Y-129405330D01*
X230321397Y-129472606D01*
X230457970Y-129514035D01*
X230600000Y-129528024D01*
X230800000Y-129528024D01*
X230942030Y-129514035D01*
X231078603Y-129472606D01*
X231204468Y-129405330D01*
X231314791Y-129314791D01*
X231405330Y-129204468D01*
X231472606Y-129078603D01*
X231514035Y-128942030D01*
X231528024Y-128800000D01*
X231528024Y-128200000D01*
X231514035Y-128057970D01*
X231472606Y-127921397D01*
X231405330Y-127795532D01*
X231314791Y-127685209D01*
X231204468Y-127594670D01*
X231078603Y-127527394D01*
X230942030Y-127485965D01*
X230800000Y-127471976D01*
X230600000Y-127471976D01*
X230457970Y-127485965D01*
X230321397Y-127527394D01*
X230195532Y-127594670D01*
X230085209Y-127685209D01*
X229994670Y-127795532D01*
X229927394Y-127921397D01*
X229885965Y-128057970D01*
X229871976Y-128200000D01*
X226937437Y-128200000D01*
X224399117Y-125661681D01*
X224371712Y-125628288D01*
X224238476Y-125518944D01*
X224086468Y-125437695D01*
X223921530Y-125387661D01*
X223792979Y-125375000D01*
X223750000Y-125370767D01*
X223707021Y-125375000D01*
X222112436Y-125375000D01*
X220899117Y-124161681D01*
X220871712Y-124128288D01*
X220738476Y-124018944D01*
X220586468Y-123937695D01*
X220421530Y-123887661D01*
X220292979Y-123875000D01*
X220250000Y-123870767D01*
X220207021Y-123875000D01*
X205362437Y-123875000D01*
X205838326Y-123399111D01*
X205871712Y-123371712D01*
X205981056Y-123238476D01*
X206062305Y-123086468D01*
X206112339Y-122921530D01*
X206125000Y-122792979D01*
X206125000Y-122792978D01*
X206129233Y-122750001D01*
X206125000Y-122707022D01*
X206125000Y-115968069D01*
X208100000Y-115968069D01*
X208100001Y-120281932D01*
X208102708Y-120309415D01*
X208102687Y-120312402D01*
X208103573Y-120321433D01*
X208108638Y-120369626D01*
X208109406Y-120377422D01*
X208109485Y-120377682D01*
X208113773Y-120418482D01*
X208125616Y-120476179D01*
X208136658Y-120534061D01*
X208139281Y-120542749D01*
X208168137Y-120635968D01*
X208190964Y-120690272D01*
X208213037Y-120744904D01*
X208217298Y-120752917D01*
X208263711Y-120838754D01*
X208296646Y-120887582D01*
X208328912Y-120936890D01*
X208334648Y-120943923D01*
X208396850Y-121019111D01*
X208438627Y-121060597D01*
X208479867Y-121102711D01*
X208486860Y-121108496D01*
X208562481Y-121170172D01*
X208611527Y-121202759D01*
X208660167Y-121236063D01*
X208668151Y-121240379D01*
X208754312Y-121286191D01*
X208808765Y-121308635D01*
X208862922Y-121331847D01*
X208871593Y-121334530D01*
X208871597Y-121334532D01*
X208871602Y-121334533D01*
X208965010Y-121362735D01*
X209022794Y-121374177D01*
X209080431Y-121386428D01*
X209089444Y-121387375D01*
X209089451Y-121387376D01*
X209089457Y-121387376D01*
X209186364Y-121396877D01*
X209218068Y-121400000D01*
X230781932Y-121400000D01*
X230809425Y-121397292D01*
X230812402Y-121397313D01*
X230821433Y-121396427D01*
X230869474Y-121391378D01*
X230877422Y-121390595D01*
X230877687Y-121390515D01*
X230918482Y-121386227D01*
X230976179Y-121374384D01*
X231034061Y-121363342D01*
X231042749Y-121360719D01*
X231135968Y-121331863D01*
X231190272Y-121309036D01*
X231244904Y-121286963D01*
X231252917Y-121282702D01*
X231338754Y-121236289D01*
X231387582Y-121203354D01*
X231436890Y-121171088D01*
X231443923Y-121165352D01*
X231519111Y-121103150D01*
X231560597Y-121061373D01*
X231602711Y-121020133D01*
X231608496Y-121013140D01*
X231670172Y-120937519D01*
X231702759Y-120888473D01*
X231736063Y-120839833D01*
X231740379Y-120831849D01*
X231786191Y-120745688D01*
X231808635Y-120691235D01*
X231831847Y-120637078D01*
X231834530Y-120628408D01*
X231862735Y-120534990D01*
X231874177Y-120477206D01*
X231886428Y-120419569D01*
X231887375Y-120410556D01*
X231887376Y-120410549D01*
X231887376Y-120410543D01*
X231896898Y-120313426D01*
X231900000Y-120281932D01*
X231900000Y-115968068D01*
X231897292Y-115940576D01*
X231897313Y-115937599D01*
X231896427Y-115928567D01*
X231891379Y-115880534D01*
X231890595Y-115872578D01*
X231890515Y-115872313D01*
X231886227Y-115831519D01*
X231874385Y-115773829D01*
X231863342Y-115715939D01*
X231860719Y-115707251D01*
X231831863Y-115614032D01*
X231809036Y-115559728D01*
X231786963Y-115505096D01*
X231782702Y-115497083D01*
X231736289Y-115411245D01*
X231703342Y-115362400D01*
X231671088Y-115313110D01*
X231665352Y-115306077D01*
X231603150Y-115230888D01*
X231561338Y-115189367D01*
X231520133Y-115147289D01*
X231513140Y-115141504D01*
X231437519Y-115079828D01*
X231388439Y-115047219D01*
X231339832Y-115013937D01*
X231331849Y-115009621D01*
X231245688Y-114963809D01*
X231191235Y-114941365D01*
X231137078Y-114918153D01*
X231128408Y-114915470D01*
X231128407Y-114915470D01*
X231128403Y-114915468D01*
X231128398Y-114915467D01*
X231034990Y-114887265D01*
X230977213Y-114875824D01*
X230919569Y-114863572D01*
X230910555Y-114862625D01*
X230910549Y-114862624D01*
X230910544Y-114862624D01*
X230813635Y-114853122D01*
X230781932Y-114850000D01*
X209218068Y-114850000D01*
X209190576Y-114852708D01*
X209187599Y-114852687D01*
X209178567Y-114853573D01*
X209130534Y-114858621D01*
X209122578Y-114859405D01*
X209122313Y-114859485D01*
X209081519Y-114863773D01*
X209023829Y-114875615D01*
X208965939Y-114886658D01*
X208957251Y-114889281D01*
X208864032Y-114918137D01*
X208809728Y-114940964D01*
X208755096Y-114963037D01*
X208747083Y-114967298D01*
X208661245Y-115013711D01*
X208612400Y-115046658D01*
X208563110Y-115078912D01*
X208556077Y-115084648D01*
X208480888Y-115146850D01*
X208439367Y-115188662D01*
X208397289Y-115229867D01*
X208391504Y-115236860D01*
X208329828Y-115312481D01*
X208297219Y-115361561D01*
X208263937Y-115410168D01*
X208259621Y-115418151D01*
X208213809Y-115504312D01*
X208191365Y-115558765D01*
X208168153Y-115612922D01*
X208165470Y-115621592D01*
X208137265Y-115715010D01*
X208125824Y-115772787D01*
X208113572Y-115830431D01*
X208112625Y-115839445D01*
X208112624Y-115839451D01*
X208112624Y-115839456D01*
X208103102Y-115936574D01*
X208100000Y-115968069D01*
X206125000Y-115968069D01*
X206125000Y-115862436D01*
X207362437Y-114625000D01*
X225207021Y-114625000D01*
X225250000Y-114629233D01*
X225292979Y-114625000D01*
X225421530Y-114612339D01*
X225586468Y-114562305D01*
X225738476Y-114481056D01*
X225871712Y-114371712D01*
X225899116Y-114338320D01*
X226838326Y-113399111D01*
X226871712Y-113371712D01*
X226981056Y-113238476D01*
X227062305Y-113086468D01*
X227112339Y-112921530D01*
X227125000Y-112792979D01*
X227125000Y-112792978D01*
X227129233Y-112750000D01*
X227125000Y-112707021D01*
X227125000Y-112546128D01*
X227184264Y-112473915D01*
X227263091Y-112326438D01*
X227263716Y-112324376D01*
X228943630Y-114004291D01*
X228967105Y-114032895D01*
X228995708Y-114056369D01*
X228995715Y-114056376D01*
X229032383Y-114086468D01*
X229081307Y-114126619D01*
X229211599Y-114196261D01*
X229352974Y-114239147D01*
X229463165Y-114250000D01*
X229463182Y-114250000D01*
X229499999Y-114253626D01*
X229536816Y-114250000D01*
X231439341Y-114250000D01*
X232750001Y-115560661D01*
X232750000Y-164189340D01*
X222995717Y-173943624D01*
X222967106Y-173967105D01*
X222943627Y-173995714D01*
X222943624Y-173995717D01*
X222927664Y-174015165D01*
X222873382Y-174081307D01*
X222838255Y-174147025D01*
X222803739Y-174211600D01*
X222760853Y-174352975D01*
X222746373Y-174500000D01*
X222750001Y-174536834D01*
X222750001Y-174706249D01*
X222625000Y-174831250D01*
X222625000Y-175158388D01*
X222581974Y-175300227D01*
X222566976Y-175452500D01*
X222566976Y-177147500D01*
X222581974Y-177299773D01*
X222625000Y-177441612D01*
X222625000Y-177768750D01*
X222781250Y-177925000D01*
X222805000Y-177928024D01*
X222927521Y-177915957D01*
X223045334Y-177880219D01*
X223060447Y-177872141D01*
X223195227Y-177913026D01*
X223347500Y-177928024D01*
X223652500Y-177928024D01*
X223804773Y-177913026D01*
X223951194Y-177868610D01*
X224000000Y-177842523D01*
X224048806Y-177868610D01*
X224195227Y-177913026D01*
X224347500Y-177928024D01*
X224652500Y-177928024D01*
X224804773Y-177913026D01*
X224951194Y-177868610D01*
X225000000Y-177842523D01*
X225048806Y-177868610D01*
X225195227Y-177913026D01*
X225347500Y-177928024D01*
X225652500Y-177928024D01*
X225804773Y-177913026D01*
X225939553Y-177872141D01*
X225954666Y-177880219D01*
X226072479Y-177915957D01*
X226195000Y-177928024D01*
X226218750Y-177925000D01*
X226375000Y-177768750D01*
X226375000Y-177441612D01*
X226418026Y-177299773D01*
X226433024Y-177147500D01*
X226433024Y-176425000D01*
X226625000Y-176425000D01*
X226625000Y-177768750D01*
X226781250Y-177925000D01*
X226805000Y-177928024D01*
X226927521Y-177915957D01*
X227045334Y-177880219D01*
X227153911Y-177822183D01*
X227249080Y-177744080D01*
X227327183Y-177648911D01*
X227385219Y-177540334D01*
X227420957Y-177422521D01*
X227433024Y-177300000D01*
X227430000Y-176581250D01*
X227273750Y-176425000D01*
X226625000Y-176425000D01*
X226433024Y-176425000D01*
X226433024Y-175452500D01*
X226418026Y-175300227D01*
X226375000Y-175158388D01*
X226375000Y-174831250D01*
X226625000Y-174831250D01*
X226625000Y-176175000D01*
X227273750Y-176175000D01*
X227430000Y-176018750D01*
X227433024Y-175300000D01*
X227420957Y-175177479D01*
X227385219Y-175059666D01*
X227327183Y-174951089D01*
X227249080Y-174855920D01*
X227153911Y-174777817D01*
X227045334Y-174719781D01*
X226927521Y-174684043D01*
X226805000Y-174671976D01*
X226781250Y-174675000D01*
X226625000Y-174831250D01*
X226375000Y-174831250D01*
X226250000Y-174706250D01*
X226250000Y-174310659D01*
X235004286Y-165556374D01*
X235032895Y-165532895D01*
X235126619Y-165418693D01*
X235196261Y-165288401D01*
X235239147Y-165147026D01*
X235250000Y-165036835D01*
X235250000Y-165036828D01*
X235253627Y-165000001D01*
X235250000Y-164963173D01*
X235250000Y-114786828D01*
X235253627Y-114750000D01*
X235250000Y-114713172D01*
X235250000Y-114713165D01*
X235239147Y-114602974D01*
X235196261Y-114461599D01*
X235126619Y-114331307D01*
X235103994Y-114303739D01*
X235056376Y-114245716D01*
X235056374Y-114245714D01*
X235032895Y-114217105D01*
X235004287Y-114193627D01*
X232806379Y-111995720D01*
X232782895Y-111967105D01*
X232668693Y-111873381D01*
X232538401Y-111803739D01*
X232397026Y-111760853D01*
X232286835Y-111750000D01*
X232286827Y-111750000D01*
X232250000Y-111746373D01*
X232213173Y-111750000D01*
X230310660Y-111750000D01*
X229498557Y-110937898D01*
X229540276Y-110914408D01*
X229633710Y-110834237D01*
X229709707Y-110737379D01*
X229765348Y-110627556D01*
X229798495Y-110508987D01*
X229807873Y-110386231D01*
X229805000Y-110281250D01*
X229648750Y-110125000D01*
X229308024Y-110125000D01*
X229308024Y-109875000D01*
X229648750Y-109875000D01*
X229805000Y-109718750D01*
X229807873Y-109613769D01*
X229798495Y-109491013D01*
X229765348Y-109372444D01*
X229709707Y-109262621D01*
X229633710Y-109165763D01*
X229540276Y-109085592D01*
X229432998Y-109025190D01*
X229315997Y-108986878D01*
X229217785Y-108975741D01*
X229156619Y-108861307D01*
X229062895Y-108747105D01*
X229034280Y-108723621D01*
X228806379Y-108495720D01*
X228782895Y-108467105D01*
X228668693Y-108373381D01*
X228538401Y-108303739D01*
X228397026Y-108260853D01*
X228286835Y-108250000D01*
X228286827Y-108250000D01*
X228250000Y-108246373D01*
X228213173Y-108250000D01*
X226247963Y-108250000D01*
X226285330Y-108204468D01*
X226352606Y-108078603D01*
X226394035Y-107942030D01*
X226408024Y-107800000D01*
X226408024Y-107200000D01*
X229151976Y-107200000D01*
X229151976Y-107800000D01*
X229165965Y-107942030D01*
X229207394Y-108078603D01*
X229274670Y-108204468D01*
X229365209Y-108314791D01*
X229475532Y-108405330D01*
X229601397Y-108472606D01*
X229737970Y-108514035D01*
X229880000Y-108528024D01*
X230080000Y-108528024D01*
X230222030Y-108514035D01*
X230358603Y-108472606D01*
X230484468Y-108405330D01*
X230594791Y-108314791D01*
X230685330Y-108204468D01*
X230752606Y-108078603D01*
X230794035Y-107942030D01*
X230808024Y-107800000D01*
X230808024Y-107200000D01*
X230794035Y-107057970D01*
X230752606Y-106921397D01*
X230685330Y-106795532D01*
X230594791Y-106685209D01*
X230484468Y-106594670D01*
X230358603Y-106527394D01*
X230222030Y-106485965D01*
X230080000Y-106471976D01*
X229880000Y-106471976D01*
X229737970Y-106485965D01*
X229601397Y-106527394D01*
X229475532Y-106594670D01*
X229365209Y-106685209D01*
X229274670Y-106795532D01*
X229207394Y-106921397D01*
X229165965Y-107057970D01*
X229151976Y-107200000D01*
X226408024Y-107200000D01*
X226394035Y-107057970D01*
X226352606Y-106921397D01*
X226285330Y-106795532D01*
X226194791Y-106685209D01*
X226084468Y-106594670D01*
X225958603Y-106527394D01*
X225822030Y-106485965D01*
X225680000Y-106471976D01*
X225480000Y-106471976D01*
X225337970Y-106485965D01*
X225201397Y-106527394D01*
X225075532Y-106594670D01*
X224965209Y-106685209D01*
X224874670Y-106795532D01*
X224807394Y-106921397D01*
X224765965Y-107057970D01*
X224751976Y-107200000D01*
X224751976Y-107800000D01*
X224765965Y-107942030D01*
X224807394Y-108078603D01*
X224874670Y-108204468D01*
X224912037Y-108250000D01*
X205286828Y-108250000D01*
X205250000Y-108246373D01*
X205213172Y-108250000D01*
X205213165Y-108250000D01*
X205102974Y-108260853D01*
X204961599Y-108303739D01*
X204831307Y-108373381D01*
X204717105Y-108467105D01*
X204693626Y-108495714D01*
X197245720Y-115943621D01*
X197217105Y-115967105D01*
X197123381Y-116081308D01*
X197053739Y-116211600D01*
X197010853Y-116352975D01*
X197000000Y-116463166D01*
X197000000Y-116463173D01*
X196996373Y-116500000D01*
X197000000Y-116536828D01*
X197000001Y-119050429D01*
X196953830Y-119096600D01*
X196841656Y-119264480D01*
X196764390Y-119451018D01*
X196725000Y-119649046D01*
X196725000Y-119850954D01*
X196764390Y-120048982D01*
X196841656Y-120235520D01*
X196953830Y-120403400D01*
X197096600Y-120546170D01*
X197264480Y-120658344D01*
X197451018Y-120735610D01*
X197649046Y-120775000D01*
X197850954Y-120775000D01*
X198048982Y-120735610D01*
X198235520Y-120658344D01*
X198403400Y-120546170D01*
X198546170Y-120403400D01*
X198658344Y-120235520D01*
X198735610Y-120048982D01*
X198775000Y-119850954D01*
X198775000Y-119649046D01*
X198735610Y-119451018D01*
X198658344Y-119264480D01*
X198546170Y-119096600D01*
X198500000Y-119050430D01*
X198500000Y-116810659D01*
X203085659Y-112225000D01*
X223621976Y-112225000D01*
X223634043Y-112347521D01*
X223669781Y-112465334D01*
X223727817Y-112573911D01*
X223805920Y-112669080D01*
X223901089Y-112747183D01*
X224009666Y-112805219D01*
X224127479Y-112840957D01*
X224250000Y-112853024D01*
X224418750Y-112850000D01*
X224575000Y-112693750D01*
X224575000Y-111875000D01*
X223781250Y-111875000D01*
X223625000Y-112031250D01*
X223621976Y-112225000D01*
X203085659Y-112225000D01*
X204035659Y-111275000D01*
X223621976Y-111275000D01*
X223625000Y-111468750D01*
X223781250Y-111625000D01*
X224575000Y-111625000D01*
X224575000Y-110806250D01*
X224418750Y-110650000D01*
X224250000Y-110646976D01*
X224127479Y-110659043D01*
X224009666Y-110694781D01*
X223901089Y-110752817D01*
X223805920Y-110830920D01*
X223727817Y-110926089D01*
X223669781Y-111034666D01*
X223634043Y-111152479D01*
X223621976Y-111275000D01*
X204035659Y-111275000D01*
X205560660Y-109750000D01*
X225751976Y-109750000D01*
X225751976Y-110325000D01*
X225755000Y-110355707D01*
X225755000Y-110694789D01*
X225698562Y-110711909D01*
X225551085Y-110790736D01*
X225548100Y-110793186D01*
X225498911Y-110752817D01*
X225390334Y-110694781D01*
X225272521Y-110659043D01*
X225150000Y-110646976D01*
X224981250Y-110650000D01*
X224825000Y-110806250D01*
X224825000Y-111625000D01*
X224845000Y-111625000D01*
X224845000Y-111875000D01*
X224825000Y-111875000D01*
X224825000Y-112693750D01*
X224946907Y-112815657D01*
X224887564Y-112875000D01*
X207042979Y-112875000D01*
X207000000Y-112870767D01*
X206957021Y-112875000D01*
X206828470Y-112887661D01*
X206663532Y-112937695D01*
X206511524Y-113018944D01*
X206378288Y-113128288D01*
X206350890Y-113161673D01*
X204661676Y-114850888D01*
X204628289Y-114878288D01*
X204518945Y-115011524D01*
X204482926Y-115078912D01*
X204437695Y-115163533D01*
X204387661Y-115328471D01*
X204370767Y-115500000D01*
X204375001Y-115542989D01*
X204375000Y-122387563D01*
X202887564Y-123875000D01*
X196542979Y-123875000D01*
X196500000Y-123870767D01*
X196457021Y-123875000D01*
X196328470Y-123887661D01*
X196163532Y-123937695D01*
X196011524Y-124018944D01*
X195878288Y-124128288D01*
X195850890Y-124161673D01*
X194911680Y-125100884D01*
X194878288Y-125128288D01*
X194768944Y-125261525D01*
X194710554Y-125370767D01*
X194687695Y-125413533D01*
X194637661Y-125578471D01*
X194620767Y-125750000D01*
X191650000Y-125750000D01*
X191650000Y-105281931D01*
X220850000Y-105281931D01*
X220852708Y-105309424D01*
X220852687Y-105312402D01*
X220853573Y-105321433D01*
X220858624Y-105369489D01*
X220859405Y-105377421D01*
X220859485Y-105377685D01*
X220863773Y-105418482D01*
X220875616Y-105476179D01*
X220886658Y-105534061D01*
X220889281Y-105542749D01*
X220918137Y-105635968D01*
X220940964Y-105690272D01*
X220963037Y-105744904D01*
X220967298Y-105752917D01*
X221013711Y-105838754D01*
X221046646Y-105887582D01*
X221078912Y-105936890D01*
X221084648Y-105943923D01*
X221146850Y-106019111D01*
X221188627Y-106060597D01*
X221229867Y-106102711D01*
X221236860Y-106108496D01*
X221312481Y-106170172D01*
X221361527Y-106202759D01*
X221410167Y-106236063D01*
X221418151Y-106240379D01*
X221504312Y-106286191D01*
X221558765Y-106308635D01*
X221612922Y-106331847D01*
X221621593Y-106334530D01*
X221621597Y-106334532D01*
X221621602Y-106334533D01*
X221715010Y-106362735D01*
X221772794Y-106374177D01*
X221830431Y-106386428D01*
X221839444Y-106387375D01*
X221839451Y-106387376D01*
X221839457Y-106387376D01*
X221936364Y-106396877D01*
X221968068Y-106400000D01*
X231031932Y-106400000D01*
X231059425Y-106397292D01*
X231062402Y-106397313D01*
X231071433Y-106396427D01*
X231119474Y-106391378D01*
X231127422Y-106390595D01*
X231127687Y-106390515D01*
X231168482Y-106386227D01*
X231226179Y-106374384D01*
X231284061Y-106363342D01*
X231292749Y-106360719D01*
X231385968Y-106331863D01*
X231440272Y-106309036D01*
X231494904Y-106286963D01*
X231502917Y-106282702D01*
X231588754Y-106236289D01*
X231637582Y-106203354D01*
X231686890Y-106171088D01*
X231693923Y-106165352D01*
X231769111Y-106103150D01*
X231810597Y-106061373D01*
X231852711Y-106020133D01*
X231858496Y-106013140D01*
X231920172Y-105937519D01*
X231952759Y-105888473D01*
X231986063Y-105839833D01*
X231990379Y-105831849D01*
X232036191Y-105745688D01*
X232058635Y-105691235D01*
X232081847Y-105637078D01*
X232084530Y-105628408D01*
X232112735Y-105534990D01*
X232124177Y-105477206D01*
X232136428Y-105419569D01*
X232137375Y-105410556D01*
X232137376Y-105410549D01*
X232137376Y-105410543D01*
X232146898Y-105313426D01*
X232150000Y-105281932D01*
X232150000Y-84718068D01*
X232147292Y-84690576D01*
X232147313Y-84687599D01*
X232146427Y-84678567D01*
X232141379Y-84630534D01*
X232140595Y-84622578D01*
X232140515Y-84622313D01*
X232136227Y-84581519D01*
X232124385Y-84523829D01*
X232113342Y-84465939D01*
X232110719Y-84457251D01*
X232081863Y-84364032D01*
X232059036Y-84309728D01*
X232036963Y-84255096D01*
X232032702Y-84247083D01*
X231986289Y-84161245D01*
X231953342Y-84112400D01*
X231921088Y-84063110D01*
X231915352Y-84056077D01*
X231853150Y-83980888D01*
X231811338Y-83939367D01*
X231770133Y-83897289D01*
X231763140Y-83891504D01*
X231687519Y-83829828D01*
X231638439Y-83797219D01*
X231589832Y-83763937D01*
X231581849Y-83759621D01*
X231495688Y-83713809D01*
X231441235Y-83691365D01*
X231387078Y-83668153D01*
X231378408Y-83665470D01*
X231378407Y-83665470D01*
X231378403Y-83665468D01*
X231378398Y-83665467D01*
X231284990Y-83637265D01*
X231227213Y-83625824D01*
X231169569Y-83613572D01*
X231160555Y-83612625D01*
X231160549Y-83612624D01*
X231160544Y-83612624D01*
X231063635Y-83603122D01*
X231031932Y-83600000D01*
X221968068Y-83600000D01*
X221940576Y-83602708D01*
X221937599Y-83602687D01*
X221928567Y-83603573D01*
X221880534Y-83608621D01*
X221872578Y-83609405D01*
X221872313Y-83609485D01*
X221831519Y-83613773D01*
X221773829Y-83625615D01*
X221715939Y-83636658D01*
X221707251Y-83639281D01*
X221614032Y-83668137D01*
X221559728Y-83690964D01*
X221505096Y-83713037D01*
X221497083Y-83717298D01*
X221411245Y-83763711D01*
X221362400Y-83796658D01*
X221313110Y-83828912D01*
X221306077Y-83834648D01*
X221230888Y-83896850D01*
X221189367Y-83938662D01*
X221147289Y-83979867D01*
X221141504Y-83986860D01*
X221079828Y-84062481D01*
X221047219Y-84111561D01*
X221013937Y-84160168D01*
X221009621Y-84168151D01*
X220963809Y-84254312D01*
X220941365Y-84308765D01*
X220918153Y-84362922D01*
X220915470Y-84371592D01*
X220887265Y-84465010D01*
X220875824Y-84522787D01*
X220863572Y-84580431D01*
X220862625Y-84589445D01*
X220862624Y-84589451D01*
X220862624Y-84589456D01*
X220853102Y-84686574D01*
X220853102Y-84686583D01*
X220850001Y-84718068D01*
X220850000Y-105281931D01*
X191650000Y-105281931D01*
X191650000Y-82411174D01*
X191795903Y-82629534D01*
X192370466Y-83204097D01*
X193046080Y-83655527D01*
X193796782Y-83966478D01*
X194593723Y-84125000D01*
X195406277Y-84125000D01*
X196203218Y-83966478D01*
X196953920Y-83655527D01*
X197629534Y-83204097D01*
X198204097Y-82629534D01*
X198655527Y-81953920D01*
X198966478Y-81203218D01*
X199125000Y-80406277D01*
X199125000Y-79593723D01*
X198966478Y-78796782D01*
X198655527Y-78046080D01*
X198204097Y-77370466D01*
X197629534Y-76795903D01*
X197411174Y-76650000D01*
X242588826Y-76650000D01*
X242370466Y-76795903D01*
%TA.AperFunction,Conductor*%
D17*
G36*
X242370466Y-76795903D02*
G01*
X241795903Y-77370466D01*
X241344473Y-78046080D01*
X241033522Y-78796782D01*
X240875000Y-79593723D01*
X240875000Y-80406277D01*
X241033522Y-81203218D01*
X241344473Y-81953920D01*
X241795903Y-82629534D01*
X242370466Y-83204097D01*
X243046080Y-83655527D01*
X243796782Y-83966478D01*
X244593723Y-84125000D01*
X245406277Y-84125000D01*
X246203218Y-83966478D01*
X246953920Y-83655527D01*
X247629534Y-83204097D01*
X248204097Y-82629534D01*
X248350001Y-82411173D01*
X248350000Y-177588826D01*
X248204097Y-177370466D01*
X247629534Y-176795903D01*
X246953920Y-176344473D01*
X246203218Y-176033522D01*
X245406277Y-175875000D01*
X244593723Y-175875000D01*
X243796782Y-176033522D01*
X243046080Y-176344473D01*
X242370466Y-176795903D01*
X241795903Y-177370466D01*
X241344473Y-178046080D01*
X241033522Y-178796782D01*
X240875000Y-179593723D01*
X240875000Y-180406277D01*
X241033522Y-181203218D01*
X241344473Y-181953920D01*
X241795903Y-182629534D01*
X242370466Y-183204097D01*
X242588826Y-183350000D01*
X197411174Y-183350000D01*
X197629534Y-183204097D01*
X198204097Y-182629534D01*
X198655527Y-181953920D01*
X198966478Y-181203218D01*
X199125000Y-180406277D01*
X199125000Y-179593723D01*
X198966478Y-178796782D01*
X198655527Y-178046080D01*
X198204097Y-177370466D01*
X197629534Y-176795903D01*
X196953920Y-176344473D01*
X196203218Y-176033522D01*
X195406277Y-175875000D01*
X194593723Y-175875000D01*
X193796782Y-176033522D01*
X193046080Y-176344473D01*
X192370466Y-176795903D01*
X191795903Y-177370466D01*
X191650000Y-177588826D01*
X191650000Y-125750000D01*
X194620767Y-125750000D01*
X194625000Y-125792979D01*
X194625001Y-135457012D01*
X194625000Y-135457022D01*
X194625001Y-141499990D01*
X194625000Y-141500000D01*
X194625000Y-173396447D01*
X194637009Y-173518379D01*
X194656039Y-173614049D01*
X194691605Y-173731293D01*
X194749361Y-173839347D01*
X194803554Y-173920453D01*
X194881281Y-174015165D01*
X198484835Y-177618719D01*
X198579547Y-177696446D01*
X198660653Y-177750639D01*
X198768706Y-177808395D01*
X198885951Y-177843961D01*
X198981621Y-177862991D01*
X199103553Y-177875000D01*
X202750000Y-177875000D01*
X202871931Y-177862991D01*
X202967602Y-177843961D01*
X203084847Y-177808395D01*
X203192901Y-177750639D01*
X203250000Y-177712487D01*
X203307099Y-177750639D01*
X203415153Y-177808395D01*
X203532398Y-177843961D01*
X203628069Y-177862991D01*
X203750000Y-177875000D01*
X208549363Y-177875000D01*
X208541976Y-177950000D01*
X208541976Y-180250000D01*
X208566533Y-180499330D01*
X208639260Y-180739079D01*
X208757362Y-180960032D01*
X208916301Y-181153699D01*
X209109968Y-181312638D01*
X209330921Y-181430740D01*
X209570670Y-181503467D01*
X209820000Y-181528024D01*
X211120000Y-181528024D01*
X211369330Y-181503467D01*
X211609079Y-181430740D01*
X211830032Y-181312638D01*
X212023699Y-181153699D01*
X212182638Y-180960032D01*
X212300740Y-180739079D01*
X212373467Y-180499330D01*
X212398024Y-180250000D01*
X212398024Y-177950000D01*
X227601976Y-177950000D01*
X227601976Y-180250000D01*
X227626533Y-180499330D01*
X227699260Y-180739079D01*
X227817362Y-180960032D01*
X227976301Y-181153699D01*
X228169968Y-181312638D01*
X228390921Y-181430740D01*
X228630670Y-181503467D01*
X228880000Y-181528024D01*
X230180000Y-181528024D01*
X230429330Y-181503467D01*
X230669079Y-181430740D01*
X230890032Y-181312638D01*
X231083699Y-181153699D01*
X231242638Y-180960032D01*
X231360740Y-180739079D01*
X231433467Y-180499330D01*
X231458024Y-180250000D01*
X231458024Y-177950000D01*
X231433467Y-177700670D01*
X231360740Y-177460921D01*
X231242638Y-177239968D01*
X231083699Y-177046301D01*
X230890032Y-176887362D01*
X230669079Y-176769260D01*
X230429330Y-176696533D01*
X230180000Y-176671976D01*
X228880000Y-176671976D01*
X228630670Y-176696533D01*
X228390921Y-176769260D01*
X228169968Y-176887362D01*
X227976301Y-177046301D01*
X227817362Y-177239968D01*
X227699260Y-177460921D01*
X227626533Y-177700670D01*
X227601976Y-177950000D01*
X212398024Y-177950000D01*
X212390637Y-177875000D01*
X213069871Y-177875000D01*
X213195227Y-177913026D01*
X213347500Y-177928024D01*
X213652500Y-177928024D01*
X213804773Y-177913026D01*
X213930129Y-177875000D01*
X214069871Y-177875000D01*
X214195227Y-177913026D01*
X214347500Y-177928024D01*
X214652500Y-177928024D01*
X214804773Y-177913026D01*
X214930129Y-177875000D01*
X215069871Y-177875000D01*
X215195227Y-177913026D01*
X215347500Y-177928024D01*
X215652500Y-177928024D01*
X215804773Y-177913026D01*
X215939553Y-177872141D01*
X215954666Y-177880219D01*
X216072479Y-177915957D01*
X216195000Y-177928024D01*
X216218750Y-177925000D01*
X216375000Y-177768750D01*
X216375000Y-177441612D01*
X216418026Y-177299773D01*
X216433024Y-177147500D01*
X216433024Y-175452500D01*
X216418026Y-175300227D01*
X216375000Y-175158388D01*
X216375000Y-174831250D01*
X216218750Y-174675000D01*
X216195000Y-174671976D01*
X216072479Y-174684043D01*
X215954666Y-174719781D01*
X215939553Y-174727859D01*
X215854278Y-174701991D01*
X215834847Y-174691605D01*
X215717602Y-174656039D01*
X215621931Y-174637009D01*
X215500000Y-174625000D01*
X215375000Y-174625000D01*
X215375000Y-151112436D01*
X216588319Y-149899117D01*
X216621712Y-149871712D01*
X216731056Y-149738476D01*
X216812305Y-149586468D01*
X216850694Y-149459920D01*
X216862339Y-149421531D01*
X216879233Y-149250001D01*
X216875000Y-149207022D01*
X216875000Y-134542979D01*
X216879233Y-134500000D01*
X216862339Y-134328470D01*
X216812305Y-134163532D01*
X216812109Y-134163165D01*
X216731056Y-134011524D01*
X216621712Y-133878288D01*
X216588326Y-133850889D01*
X214838327Y-132100891D01*
X214738475Y-132018945D01*
X214654413Y-131974013D01*
X214750000Y-131920194D01*
X214847002Y-131974810D01*
X214897642Y-131991392D01*
X214931250Y-132025000D01*
X215000000Y-132017204D01*
X215068750Y-132025000D01*
X215102358Y-131991392D01*
X215152998Y-131974810D01*
X215250000Y-131920194D01*
X215347002Y-131974810D01*
X215397642Y-131991392D01*
X215431250Y-132025000D01*
X215500000Y-132017204D01*
X215568750Y-132025000D01*
X215602358Y-131991392D01*
X215652998Y-131974810D01*
X215750000Y-131920194D01*
X215847002Y-131974810D01*
X215897642Y-131991392D01*
X215931250Y-132025000D01*
X216000000Y-132017204D01*
X216068750Y-132025000D01*
X216102358Y-131991392D01*
X216152998Y-131974810D01*
X216250000Y-131920194D01*
X216347002Y-131974810D01*
X216397642Y-131991392D01*
X216431250Y-132025000D01*
X216500000Y-132017204D01*
X216568750Y-132025000D01*
X216602358Y-131991392D01*
X216652998Y-131974810D01*
X216750000Y-131920194D01*
X216847002Y-131974810D01*
X216897642Y-131991392D01*
X216931250Y-132025000D01*
X217000000Y-132017204D01*
X217068750Y-132025000D01*
X217102358Y-131991392D01*
X217152998Y-131974810D01*
X217250000Y-131920194D01*
X217347002Y-131974810D01*
X217397642Y-131991392D01*
X217431250Y-132025000D01*
X217500000Y-132017204D01*
X217568750Y-132025000D01*
X217602358Y-131991392D01*
X217652998Y-131974810D01*
X217750000Y-131920194D01*
X217847002Y-131974810D01*
X217897642Y-131991392D01*
X217931250Y-132025000D01*
X218000000Y-132017204D01*
X218068750Y-132025000D01*
X218102358Y-131991392D01*
X218152998Y-131974810D01*
X218250000Y-131920194D01*
X218347002Y-131974810D01*
X218397642Y-131991392D01*
X218431250Y-132025000D01*
X218500000Y-132017204D01*
X218568750Y-132025000D01*
X218602358Y-131991392D01*
X218652998Y-131974810D01*
X218750000Y-131920194D01*
X218847002Y-131974810D01*
X218897642Y-131991392D01*
X218931250Y-132025000D01*
X219000000Y-132017204D01*
X219068750Y-132025000D01*
X219102358Y-131991392D01*
X219152998Y-131974810D01*
X219250000Y-131920194D01*
X219347002Y-131974810D01*
X219397642Y-131991392D01*
X219431250Y-132025000D01*
X219500000Y-132017204D01*
X219568750Y-132025000D01*
X219602358Y-131991392D01*
X219652998Y-131974810D01*
X219750000Y-131920194D01*
X219847002Y-131974810D01*
X219897642Y-131991392D01*
X219931250Y-132025000D01*
X220000000Y-132017204D01*
X220068750Y-132025000D01*
X220102358Y-131991392D01*
X220152998Y-131974810D01*
X220250000Y-131920194D01*
X220347002Y-131974810D01*
X220397642Y-131991392D01*
X220431250Y-132025000D01*
X220500000Y-132017204D01*
X220568750Y-132025000D01*
X220602358Y-131991392D01*
X220652998Y-131974810D01*
X220750000Y-131920194D01*
X220847002Y-131974810D01*
X220897642Y-131991392D01*
X220931250Y-132025000D01*
X221000000Y-132017204D01*
X221068750Y-132025000D01*
X221102358Y-131991392D01*
X221152998Y-131974810D01*
X221250000Y-131920194D01*
X221347002Y-131974810D01*
X221397642Y-131991392D01*
X221431250Y-132025000D01*
X221500000Y-132017204D01*
X221568750Y-132025000D01*
X221602358Y-131991392D01*
X221652998Y-131974810D01*
X221750000Y-131920194D01*
X221847002Y-131974810D01*
X221897642Y-131991392D01*
X221931250Y-132025000D01*
X222000000Y-132017204D01*
X222068750Y-132025000D01*
X222102358Y-131991392D01*
X222152998Y-131974810D01*
X222260276Y-131914408D01*
X222274978Y-131901793D01*
X222284421Y-131909543D01*
X222351817Y-131945567D01*
X222431250Y-132025000D01*
X222533999Y-132013349D01*
X222537847Y-132014516D01*
X222546760Y-132015394D01*
X222553739Y-132038400D01*
X222576674Y-132081308D01*
X222623382Y-132168693D01*
X222658595Y-132211600D01*
X222693624Y-132254283D01*
X222693625Y-132254284D01*
X222717106Y-132282895D01*
X222745715Y-132306374D01*
X223000000Y-132560659D01*
X223000001Y-151189339D01*
X217995720Y-156193621D01*
X217967105Y-156217105D01*
X217873381Y-156331308D01*
X217803739Y-156461600D01*
X217760853Y-156602975D01*
X217750000Y-156713166D01*
X217750000Y-156713173D01*
X217746373Y-156750000D01*
X217750000Y-156786827D01*
X217750001Y-173689339D01*
X216995719Y-174443622D01*
X216967105Y-174467105D01*
X216873381Y-174581308D01*
X216823922Y-174673840D01*
X216805000Y-174671976D01*
X216781250Y-174675000D01*
X216625000Y-174831250D01*
X216625000Y-175158388D01*
X216581974Y-175300227D01*
X216566976Y-175452500D01*
X216566976Y-177147500D01*
X216581974Y-177299773D01*
X216625000Y-177441612D01*
X216625000Y-177768750D01*
X216781250Y-177925000D01*
X216805000Y-177928024D01*
X216927521Y-177915957D01*
X217045334Y-177880219D01*
X217060447Y-177872141D01*
X217195227Y-177913026D01*
X217347500Y-177928024D01*
X217652500Y-177928024D01*
X217804773Y-177913026D01*
X217951194Y-177868610D01*
X218000000Y-177842523D01*
X218048806Y-177868610D01*
X218195227Y-177913026D01*
X218347500Y-177928024D01*
X218652500Y-177928024D01*
X218804773Y-177913026D01*
X218951194Y-177868610D01*
X219000000Y-177842523D01*
X219048806Y-177868610D01*
X219195227Y-177913026D01*
X219347500Y-177928024D01*
X219652500Y-177928024D01*
X219804773Y-177913026D01*
X219951194Y-177868610D01*
X220000000Y-177842523D01*
X220048806Y-177868610D01*
X220195227Y-177913026D01*
X220347500Y-177928024D01*
X220652500Y-177928024D01*
X220804773Y-177913026D01*
X220951194Y-177868610D01*
X221000000Y-177842523D01*
X221048806Y-177868610D01*
X221195227Y-177913026D01*
X221347500Y-177928024D01*
X221652500Y-177928024D01*
X221804773Y-177913026D01*
X221939553Y-177872141D01*
X221954666Y-177880219D01*
X222072479Y-177915957D01*
X222195000Y-177928024D01*
X222218750Y-177925000D01*
X222375000Y-177768750D01*
X222375000Y-177441612D01*
X222418026Y-177299773D01*
X222433024Y-177147500D01*
X222433024Y-175452500D01*
X222418026Y-175300227D01*
X222375000Y-175158388D01*
X222375000Y-174831250D01*
X222218750Y-174675000D01*
X222195000Y-174671976D01*
X222176078Y-174673840D01*
X222126619Y-174581307D01*
X222056376Y-174495716D01*
X222056374Y-174495714D01*
X222032895Y-174467105D01*
X222004286Y-174443626D01*
X221250000Y-173689341D01*
X221250000Y-158060659D01*
X226254287Y-153056373D01*
X226282895Y-153032895D01*
X226376619Y-152918693D01*
X226446261Y-152788401D01*
X226461202Y-152739147D01*
X226489147Y-152647027D01*
X226494362Y-152594080D01*
X226500000Y-152536835D01*
X226500000Y-152536829D01*
X226503627Y-152500001D01*
X226500000Y-152463173D01*
X226500000Y-136500000D01*
X227646976Y-136500000D01*
X227659043Y-136622521D01*
X227694781Y-136740334D01*
X227752817Y-136848911D01*
X227830920Y-136944080D01*
X227926089Y-137022183D01*
X228034666Y-137080219D01*
X228152479Y-137115957D01*
X228275000Y-137128024D01*
X228468750Y-137125000D01*
X228625000Y-136968750D01*
X228625000Y-136175000D01*
X228875000Y-136175000D01*
X228875000Y-136968750D01*
X229031250Y-137125000D01*
X229225000Y-137128024D01*
X229347521Y-137115957D01*
X229465334Y-137080219D01*
X229573911Y-137022183D01*
X229669080Y-136944080D01*
X229747183Y-136848911D01*
X229750000Y-136843641D01*
X229752817Y-136848911D01*
X229830920Y-136944080D01*
X229926089Y-137022183D01*
X230034666Y-137080219D01*
X230152479Y-137115957D01*
X230275000Y-137128024D01*
X230468750Y-137125000D01*
X230625000Y-136968750D01*
X230625000Y-136175000D01*
X230875000Y-136175000D01*
X230875000Y-136968750D01*
X231031250Y-137125000D01*
X231225000Y-137128024D01*
X231347521Y-137115957D01*
X231465334Y-137080219D01*
X231573911Y-137022183D01*
X231669080Y-136944080D01*
X231747183Y-136848911D01*
X231805219Y-136740334D01*
X231840957Y-136622521D01*
X231853024Y-136500000D01*
X231850000Y-136331250D01*
X231693750Y-136175000D01*
X230875000Y-136175000D01*
X230625000Y-136175000D01*
X229806250Y-136175000D01*
X229750000Y-136231250D01*
X229693750Y-136175000D01*
X228875000Y-136175000D01*
X228625000Y-136175000D01*
X227806250Y-136175000D01*
X227650000Y-136331250D01*
X227646976Y-136500000D01*
X226500000Y-136500000D01*
X226500000Y-132846014D01*
X227686456Y-134032470D01*
X227663367Y-134108583D01*
X227646976Y-134275000D01*
X227646976Y-134725000D01*
X227663367Y-134891417D01*
X227711909Y-135051438D01*
X227790736Y-135198915D01*
X227793186Y-135201900D01*
X227752817Y-135251089D01*
X227694781Y-135359666D01*
X227659043Y-135477479D01*
X227646976Y-135600000D01*
X227650000Y-135768750D01*
X227806250Y-135925000D01*
X228625000Y-135925000D01*
X228625000Y-135905000D01*
X228875000Y-135905000D01*
X228875000Y-135925000D01*
X229693750Y-135925000D01*
X229750000Y-135868750D01*
X229806250Y-135925000D01*
X230625000Y-135925000D01*
X230625000Y-135905000D01*
X230875000Y-135905000D01*
X230875000Y-135925000D01*
X231693750Y-135925000D01*
X231850000Y-135768750D01*
X231853024Y-135600000D01*
X231840957Y-135477479D01*
X231805219Y-135359666D01*
X231747183Y-135251089D01*
X231706814Y-135201900D01*
X231709264Y-135198915D01*
X231788091Y-135051438D01*
X231836633Y-134891417D01*
X231853024Y-134725000D01*
X231853024Y-134275000D01*
X231836633Y-134108583D01*
X231788091Y-133948562D01*
X231709264Y-133801085D01*
X231603179Y-133671821D01*
X231473915Y-133565736D01*
X231326438Y-133486909D01*
X231166417Y-133438367D01*
X231000000Y-133421976D01*
X230767991Y-133421976D01*
X230324932Y-132978918D01*
X230300659Y-132949341D01*
X230182650Y-132852494D01*
X230048014Y-132780530D01*
X229901926Y-132736214D01*
X229788065Y-132725000D01*
X229788063Y-132725000D01*
X229750000Y-132721251D01*
X229711937Y-132725000D01*
X229321015Y-132725000D01*
X228618471Y-132022457D01*
X228675000Y-132028024D01*
X228825000Y-132028024D01*
X228962153Y-132014516D01*
X229000000Y-132003035D01*
X229037847Y-132014516D01*
X229175000Y-132028024D01*
X229325000Y-132028024D01*
X229462153Y-132014516D01*
X229500000Y-132003035D01*
X229537847Y-132014516D01*
X229675000Y-132028024D01*
X229825000Y-132028024D01*
X229962153Y-132014516D01*
X230094036Y-131974509D01*
X230215579Y-131909543D01*
X230322113Y-131822113D01*
X230409543Y-131715579D01*
X230474509Y-131594036D01*
X230514516Y-131462153D01*
X230528024Y-131325000D01*
X230528024Y-130675000D01*
X230514516Y-130537847D01*
X230474509Y-130405964D01*
X230409543Y-130284421D01*
X230322113Y-130177887D01*
X230215579Y-130090457D01*
X230094036Y-130025491D01*
X229962153Y-129985484D01*
X229825000Y-129971976D01*
X229675000Y-129971976D01*
X229537847Y-129985484D01*
X229500000Y-129996965D01*
X229462153Y-129985484D01*
X229325000Y-129971976D01*
X229175000Y-129971976D01*
X229037847Y-129985484D01*
X229000000Y-129996965D01*
X228962153Y-129985484D01*
X228825000Y-129971976D01*
X228675000Y-129971976D01*
X228537847Y-129985484D01*
X228500000Y-129996965D01*
X228462153Y-129985484D01*
X228325000Y-129971976D01*
X228175000Y-129971976D01*
X228037847Y-129985484D01*
X228033999Y-129986651D01*
X228025000Y-129985631D01*
X228025000Y-129788062D01*
X228028749Y-129749999D01*
X228025000Y-129711935D01*
X228013786Y-129598074D01*
X227969470Y-129451986D01*
X227897506Y-129317350D01*
X227800659Y-129199341D01*
X227771086Y-129175071D01*
X227585278Y-128989264D01*
X227562305Y-128913532D01*
X227481056Y-128761524D01*
X227399109Y-128661672D01*
X226937437Y-128200000D01*
X229871976Y-128200000D01*
X229871976Y-128800000D01*
X229885965Y-128942030D01*
X229927394Y-129078603D01*
X229994670Y-129204468D01*
X230085209Y-129314791D01*
X230195532Y-129405330D01*
X230321397Y-129472606D01*
X230457970Y-129514035D01*
X230600000Y-129528024D01*
X230800000Y-129528024D01*
X230942030Y-129514035D01*
X231078603Y-129472606D01*
X231204468Y-129405330D01*
X231314791Y-129314791D01*
X231405330Y-129204468D01*
X231472606Y-129078603D01*
X231514035Y-128942030D01*
X231528024Y-128800000D01*
X231528024Y-128200000D01*
X231514035Y-128057970D01*
X231472606Y-127921397D01*
X231405330Y-127795532D01*
X231314791Y-127685209D01*
X231204468Y-127594670D01*
X231078603Y-127527394D01*
X230942030Y-127485965D01*
X230800000Y-127471976D01*
X230600000Y-127471976D01*
X230457970Y-127485965D01*
X230321397Y-127527394D01*
X230195532Y-127594670D01*
X230085209Y-127685209D01*
X229994670Y-127795532D01*
X229927394Y-127921397D01*
X229885965Y-128057970D01*
X229871976Y-128200000D01*
X226937437Y-128200000D01*
X224399117Y-125661681D01*
X224371712Y-125628288D01*
X224238476Y-125518944D01*
X224086468Y-125437695D01*
X223921530Y-125387661D01*
X223792979Y-125375000D01*
X223750000Y-125370767D01*
X223707021Y-125375000D01*
X222112436Y-125375000D01*
X220899117Y-124161681D01*
X220871712Y-124128288D01*
X220738476Y-124018944D01*
X220586468Y-123937695D01*
X220421530Y-123887661D01*
X220292979Y-123875000D01*
X220250000Y-123870767D01*
X220207021Y-123875000D01*
X205362437Y-123875000D01*
X205838326Y-123399111D01*
X205871712Y-123371712D01*
X205981056Y-123238476D01*
X206062305Y-123086468D01*
X206112339Y-122921530D01*
X206125000Y-122792979D01*
X206125000Y-122792978D01*
X206129233Y-122750001D01*
X206125000Y-122707022D01*
X206125000Y-115968069D01*
X208100000Y-115968069D01*
X208100001Y-120281932D01*
X208102708Y-120309415D01*
X208102687Y-120312402D01*
X208103573Y-120321433D01*
X208108638Y-120369626D01*
X208109406Y-120377422D01*
X208109485Y-120377682D01*
X208113773Y-120418482D01*
X208125616Y-120476179D01*
X208136658Y-120534061D01*
X208139281Y-120542749D01*
X208168137Y-120635968D01*
X208190964Y-120690272D01*
X208213037Y-120744904D01*
X208217298Y-120752917D01*
X208263711Y-120838754D01*
X208296646Y-120887582D01*
X208328912Y-120936890D01*
X208334648Y-120943923D01*
X208396850Y-121019111D01*
X208438627Y-121060597D01*
X208479867Y-121102711D01*
X208486860Y-121108496D01*
X208562481Y-121170172D01*
X208611527Y-121202759D01*
X208660167Y-121236063D01*
X208668151Y-121240379D01*
X208754312Y-121286191D01*
X208808765Y-121308635D01*
X208862922Y-121331847D01*
X208871593Y-121334530D01*
X208871597Y-121334532D01*
X208871602Y-121334533D01*
X208965010Y-121362735D01*
X209022794Y-121374177D01*
X209080431Y-121386428D01*
X209089444Y-121387375D01*
X209089451Y-121387376D01*
X209089457Y-121387376D01*
X209186364Y-121396877D01*
X209218068Y-121400000D01*
X230781932Y-121400000D01*
X230809425Y-121397292D01*
X230812402Y-121397313D01*
X230821433Y-121396427D01*
X230869474Y-121391378D01*
X230877422Y-121390595D01*
X230877687Y-121390515D01*
X230918482Y-121386227D01*
X230976179Y-121374384D01*
X231034061Y-121363342D01*
X231042749Y-121360719D01*
X231135968Y-121331863D01*
X231190272Y-121309036D01*
X231244904Y-121286963D01*
X231252917Y-121282702D01*
X231338754Y-121236289D01*
X231387582Y-121203354D01*
X231436890Y-121171088D01*
X231443923Y-121165352D01*
X231519111Y-121103150D01*
X231560597Y-121061373D01*
X231602711Y-121020133D01*
X231608496Y-121013140D01*
X231670172Y-120937519D01*
X231702759Y-120888473D01*
X231736063Y-120839833D01*
X231740379Y-120831849D01*
X231786191Y-120745688D01*
X231808635Y-120691235D01*
X231831847Y-120637078D01*
X231834530Y-120628408D01*
X231862735Y-120534990D01*
X231874177Y-120477206D01*
X231886428Y-120419569D01*
X231887375Y-120410556D01*
X231887376Y-120410549D01*
X231887376Y-120410543D01*
X231896898Y-120313426D01*
X231900000Y-120281932D01*
X231900000Y-115968068D01*
X231897292Y-115940576D01*
X231897313Y-115937599D01*
X231896427Y-115928567D01*
X231891379Y-115880534D01*
X231890595Y-115872578D01*
X231890515Y-115872313D01*
X231886227Y-115831519D01*
X231874385Y-115773829D01*
X231863342Y-115715939D01*
X231860719Y-115707251D01*
X231831863Y-115614032D01*
X231809036Y-115559728D01*
X231786963Y-115505096D01*
X231782702Y-115497083D01*
X231736289Y-115411245D01*
X231703342Y-115362400D01*
X231671088Y-115313110D01*
X231665352Y-115306077D01*
X231603150Y-115230888D01*
X231561338Y-115189367D01*
X231520133Y-115147289D01*
X231513140Y-115141504D01*
X231437519Y-115079828D01*
X231388439Y-115047219D01*
X231339832Y-115013937D01*
X231331849Y-115009621D01*
X231245688Y-114963809D01*
X231191235Y-114941365D01*
X231137078Y-114918153D01*
X231128408Y-114915470D01*
X231128407Y-114915470D01*
X231128403Y-114915468D01*
X231128398Y-114915467D01*
X231034990Y-114887265D01*
X230977213Y-114875824D01*
X230919569Y-114863572D01*
X230910555Y-114862625D01*
X230910549Y-114862624D01*
X230910544Y-114862624D01*
X230813635Y-114853122D01*
X230781932Y-114850000D01*
X209218068Y-114850000D01*
X209190576Y-114852708D01*
X209187599Y-114852687D01*
X209178567Y-114853573D01*
X209130534Y-114858621D01*
X209122578Y-114859405D01*
X209122313Y-114859485D01*
X209081519Y-114863773D01*
X209023829Y-114875615D01*
X208965939Y-114886658D01*
X208957251Y-114889281D01*
X208864032Y-114918137D01*
X208809728Y-114940964D01*
X208755096Y-114963037D01*
X208747083Y-114967298D01*
X208661245Y-115013711D01*
X208612400Y-115046658D01*
X208563110Y-115078912D01*
X208556077Y-115084648D01*
X208480888Y-115146850D01*
X208439367Y-115188662D01*
X208397289Y-115229867D01*
X208391504Y-115236860D01*
X208329828Y-115312481D01*
X208297219Y-115361561D01*
X208263937Y-115410168D01*
X208259621Y-115418151D01*
X208213809Y-115504312D01*
X208191365Y-115558765D01*
X208168153Y-115612922D01*
X208165470Y-115621592D01*
X208137265Y-115715010D01*
X208125824Y-115772787D01*
X208113572Y-115830431D01*
X208112625Y-115839445D01*
X208112624Y-115839451D01*
X208112624Y-115839456D01*
X208103102Y-115936574D01*
X208100000Y-115968069D01*
X206125000Y-115968069D01*
X206125000Y-115862436D01*
X207362437Y-114625000D01*
X225207021Y-114625000D01*
X225250000Y-114629233D01*
X225292979Y-114625000D01*
X225421530Y-114612339D01*
X225586468Y-114562305D01*
X225738476Y-114481056D01*
X225871712Y-114371712D01*
X225899116Y-114338320D01*
X226838326Y-113399111D01*
X226871712Y-113371712D01*
X226981056Y-113238476D01*
X227062305Y-113086468D01*
X227112339Y-112921530D01*
X227125000Y-112792979D01*
X227125000Y-112792978D01*
X227129233Y-112750000D01*
X227125000Y-112707021D01*
X227125000Y-112546128D01*
X227184264Y-112473915D01*
X227263091Y-112326438D01*
X227263716Y-112324376D01*
X228943630Y-114004291D01*
X228967105Y-114032895D01*
X228995708Y-114056369D01*
X228995715Y-114056376D01*
X229032383Y-114086468D01*
X229081307Y-114126619D01*
X229211599Y-114196261D01*
X229352974Y-114239147D01*
X229463165Y-114250000D01*
X229463182Y-114250000D01*
X229499999Y-114253626D01*
X229536816Y-114250000D01*
X231439341Y-114250000D01*
X232750001Y-115560661D01*
X232750000Y-164189340D01*
X222995717Y-173943624D01*
X222967106Y-173967105D01*
X222943627Y-173995714D01*
X222943624Y-173995717D01*
X222927664Y-174015165D01*
X222873382Y-174081307D01*
X222838255Y-174147025D01*
X222803739Y-174211600D01*
X222760853Y-174352975D01*
X222746373Y-174500000D01*
X222750001Y-174536834D01*
X222750001Y-174706249D01*
X222625000Y-174831250D01*
X222625000Y-175158388D01*
X222581974Y-175300227D01*
X222566976Y-175452500D01*
X222566976Y-177147500D01*
X222581974Y-177299773D01*
X222625000Y-177441612D01*
X222625000Y-177768750D01*
X222781250Y-177925000D01*
X222805000Y-177928024D01*
X222927521Y-177915957D01*
X223045334Y-177880219D01*
X223060447Y-177872141D01*
X223195227Y-177913026D01*
X223347500Y-177928024D01*
X223652500Y-177928024D01*
X223804773Y-177913026D01*
X223951194Y-177868610D01*
X224000000Y-177842523D01*
X224048806Y-177868610D01*
X224195227Y-177913026D01*
X224347500Y-177928024D01*
X224652500Y-177928024D01*
X224804773Y-177913026D01*
X224951194Y-177868610D01*
X225000000Y-177842523D01*
X225048806Y-177868610D01*
X225195227Y-177913026D01*
X225347500Y-177928024D01*
X225652500Y-177928024D01*
X225804773Y-177913026D01*
X225939553Y-177872141D01*
X225954666Y-177880219D01*
X226072479Y-177915957D01*
X226195000Y-177928024D01*
X226218750Y-177925000D01*
X226375000Y-177768750D01*
X226375000Y-177441612D01*
X226418026Y-177299773D01*
X226433024Y-177147500D01*
X226433024Y-176425000D01*
X226625000Y-176425000D01*
X226625000Y-177768750D01*
X226781250Y-177925000D01*
X226805000Y-177928024D01*
X226927521Y-177915957D01*
X227045334Y-177880219D01*
X227153911Y-177822183D01*
X227249080Y-177744080D01*
X227327183Y-177648911D01*
X227385219Y-177540334D01*
X227420957Y-177422521D01*
X227433024Y-177300000D01*
X227430000Y-176581250D01*
X227273750Y-176425000D01*
X226625000Y-176425000D01*
X226433024Y-176425000D01*
X226433024Y-175452500D01*
X226418026Y-175300227D01*
X226375000Y-175158388D01*
X226375000Y-174831250D01*
X226625000Y-174831250D01*
X226625000Y-176175000D01*
X227273750Y-176175000D01*
X227430000Y-176018750D01*
X227433024Y-175300000D01*
X227420957Y-175177479D01*
X227385219Y-175059666D01*
X227327183Y-174951089D01*
X227249080Y-174855920D01*
X227153911Y-174777817D01*
X227045334Y-174719781D01*
X226927521Y-174684043D01*
X226805000Y-174671976D01*
X226781250Y-174675000D01*
X226625000Y-174831250D01*
X226375000Y-174831250D01*
X226250000Y-174706250D01*
X226250000Y-174310659D01*
X235004286Y-165556374D01*
X235032895Y-165532895D01*
X235126619Y-165418693D01*
X235196261Y-165288401D01*
X235239147Y-165147026D01*
X235250000Y-165036835D01*
X235250000Y-165036828D01*
X235253627Y-165000001D01*
X235250000Y-164963173D01*
X235250000Y-114786828D01*
X235253627Y-114750000D01*
X235250000Y-114713172D01*
X235250000Y-114713165D01*
X235239147Y-114602974D01*
X235196261Y-114461599D01*
X235126619Y-114331307D01*
X235103994Y-114303739D01*
X235056376Y-114245716D01*
X235056374Y-114245714D01*
X235032895Y-114217105D01*
X235004287Y-114193627D01*
X232806379Y-111995720D01*
X232782895Y-111967105D01*
X232668693Y-111873381D01*
X232538401Y-111803739D01*
X232397026Y-111760853D01*
X232286835Y-111750000D01*
X232286827Y-111750000D01*
X232250000Y-111746373D01*
X232213173Y-111750000D01*
X230310660Y-111750000D01*
X229498557Y-110937898D01*
X229540276Y-110914408D01*
X229633710Y-110834237D01*
X229709707Y-110737379D01*
X229765348Y-110627556D01*
X229798495Y-110508987D01*
X229807873Y-110386231D01*
X229805000Y-110281250D01*
X229648750Y-110125000D01*
X229308024Y-110125000D01*
X229308024Y-109875000D01*
X229648750Y-109875000D01*
X229805000Y-109718750D01*
X229807873Y-109613769D01*
X229798495Y-109491013D01*
X229765348Y-109372444D01*
X229709707Y-109262621D01*
X229633710Y-109165763D01*
X229540276Y-109085592D01*
X229432998Y-109025190D01*
X229315997Y-108986878D01*
X229217785Y-108975741D01*
X229156619Y-108861307D01*
X229062895Y-108747105D01*
X229034280Y-108723621D01*
X228806379Y-108495720D01*
X228782895Y-108467105D01*
X228668693Y-108373381D01*
X228538401Y-108303739D01*
X228397026Y-108260853D01*
X228286835Y-108250000D01*
X228286827Y-108250000D01*
X228250000Y-108246373D01*
X228213173Y-108250000D01*
X226247963Y-108250000D01*
X226285330Y-108204468D01*
X226352606Y-108078603D01*
X226394035Y-107942030D01*
X226408024Y-107800000D01*
X226408024Y-107200000D01*
X229151976Y-107200000D01*
X229151976Y-107800000D01*
X229165965Y-107942030D01*
X229207394Y-108078603D01*
X229274670Y-108204468D01*
X229365209Y-108314791D01*
X229475532Y-108405330D01*
X229601397Y-108472606D01*
X229737970Y-108514035D01*
X229880000Y-108528024D01*
X230080000Y-108528024D01*
X230222030Y-108514035D01*
X230358603Y-108472606D01*
X230484468Y-108405330D01*
X230594791Y-108314791D01*
X230685330Y-108204468D01*
X230752606Y-108078603D01*
X230794035Y-107942030D01*
X230808024Y-107800000D01*
X230808024Y-107200000D01*
X230794035Y-107057970D01*
X230752606Y-106921397D01*
X230685330Y-106795532D01*
X230594791Y-106685209D01*
X230484468Y-106594670D01*
X230358603Y-106527394D01*
X230222030Y-106485965D01*
X230080000Y-106471976D01*
X229880000Y-106471976D01*
X229737970Y-106485965D01*
X229601397Y-106527394D01*
X229475532Y-106594670D01*
X229365209Y-106685209D01*
X229274670Y-106795532D01*
X229207394Y-106921397D01*
X229165965Y-107057970D01*
X229151976Y-107200000D01*
X226408024Y-107200000D01*
X226394035Y-107057970D01*
X226352606Y-106921397D01*
X226285330Y-106795532D01*
X226194791Y-106685209D01*
X226084468Y-106594670D01*
X225958603Y-106527394D01*
X225822030Y-106485965D01*
X225680000Y-106471976D01*
X225480000Y-106471976D01*
X225337970Y-106485965D01*
X225201397Y-106527394D01*
X225075532Y-106594670D01*
X224965209Y-106685209D01*
X224874670Y-106795532D01*
X224807394Y-106921397D01*
X224765965Y-107057970D01*
X224751976Y-107200000D01*
X224751976Y-107800000D01*
X224765965Y-107942030D01*
X224807394Y-108078603D01*
X224874670Y-108204468D01*
X224912037Y-108250000D01*
X205286828Y-108250000D01*
X205250000Y-108246373D01*
X205213172Y-108250000D01*
X205213165Y-108250000D01*
X205102974Y-108260853D01*
X204961599Y-108303739D01*
X204831307Y-108373381D01*
X204717105Y-108467105D01*
X204693626Y-108495714D01*
X197245720Y-115943621D01*
X197217105Y-115967105D01*
X197123381Y-116081308D01*
X197053739Y-116211600D01*
X197010853Y-116352975D01*
X197000000Y-116463166D01*
X197000000Y-116463173D01*
X196996373Y-116500000D01*
X197000000Y-116536828D01*
X197000001Y-119050429D01*
X196953830Y-119096600D01*
X196841656Y-119264480D01*
X196764390Y-119451018D01*
X196725000Y-119649046D01*
X196725000Y-119850954D01*
X196764390Y-120048982D01*
X196841656Y-120235520D01*
X196953830Y-120403400D01*
X197096600Y-120546170D01*
X197264480Y-120658344D01*
X197451018Y-120735610D01*
X197649046Y-120775000D01*
X197850954Y-120775000D01*
X198048982Y-120735610D01*
X198235520Y-120658344D01*
X198403400Y-120546170D01*
X198546170Y-120403400D01*
X198658344Y-120235520D01*
X198735610Y-120048982D01*
X198775000Y-119850954D01*
X198775000Y-119649046D01*
X198735610Y-119451018D01*
X198658344Y-119264480D01*
X198546170Y-119096600D01*
X198500000Y-119050430D01*
X198500000Y-116810659D01*
X203085659Y-112225000D01*
X223621976Y-112225000D01*
X223634043Y-112347521D01*
X223669781Y-112465334D01*
X223727817Y-112573911D01*
X223805920Y-112669080D01*
X223901089Y-112747183D01*
X224009666Y-112805219D01*
X224127479Y-112840957D01*
X224250000Y-112853024D01*
X224418750Y-112850000D01*
X224575000Y-112693750D01*
X224575000Y-111875000D01*
X223781250Y-111875000D01*
X223625000Y-112031250D01*
X223621976Y-112225000D01*
X203085659Y-112225000D01*
X204035659Y-111275000D01*
X223621976Y-111275000D01*
X223625000Y-111468750D01*
X223781250Y-111625000D01*
X224575000Y-111625000D01*
X224575000Y-110806250D01*
X224418750Y-110650000D01*
X224250000Y-110646976D01*
X224127479Y-110659043D01*
X224009666Y-110694781D01*
X223901089Y-110752817D01*
X223805920Y-110830920D01*
X223727817Y-110926089D01*
X223669781Y-111034666D01*
X223634043Y-111152479D01*
X223621976Y-111275000D01*
X204035659Y-111275000D01*
X205560660Y-109750000D01*
X225751976Y-109750000D01*
X225751976Y-110325000D01*
X225755000Y-110355707D01*
X225755000Y-110694789D01*
X225698562Y-110711909D01*
X225551085Y-110790736D01*
X225548100Y-110793186D01*
X225498911Y-110752817D01*
X225390334Y-110694781D01*
X225272521Y-110659043D01*
X225150000Y-110646976D01*
X224981250Y-110650000D01*
X224825000Y-110806250D01*
X224825000Y-111625000D01*
X224845000Y-111625000D01*
X224845000Y-111875000D01*
X224825000Y-111875000D01*
X224825000Y-112693750D01*
X224946907Y-112815657D01*
X224887564Y-112875000D01*
X207042979Y-112875000D01*
X207000000Y-112870767D01*
X206957021Y-112875000D01*
X206828470Y-112887661D01*
X206663532Y-112937695D01*
X206511524Y-113018944D01*
X206378288Y-113128288D01*
X206350890Y-113161673D01*
X204661676Y-114850888D01*
X204628289Y-114878288D01*
X204518945Y-115011524D01*
X204482926Y-115078912D01*
X204437695Y-115163533D01*
X204387661Y-115328471D01*
X204370767Y-115500000D01*
X204375001Y-115542989D01*
X204375000Y-122387563D01*
X202887564Y-123875000D01*
X196542979Y-123875000D01*
X196500000Y-123870767D01*
X196457021Y-123875000D01*
X196328470Y-123887661D01*
X196163532Y-123937695D01*
X196011524Y-124018944D01*
X195878288Y-124128288D01*
X195850890Y-124161673D01*
X194911680Y-125100884D01*
X194878288Y-125128288D01*
X194768944Y-125261525D01*
X194710554Y-125370767D01*
X194687695Y-125413533D01*
X194637661Y-125578471D01*
X194620767Y-125750000D01*
X191650000Y-125750000D01*
X191650000Y-105281931D01*
X220850000Y-105281931D01*
X220852708Y-105309424D01*
X220852687Y-105312402D01*
X220853573Y-105321433D01*
X220858624Y-105369489D01*
X220859405Y-105377421D01*
X220859485Y-105377685D01*
X220863773Y-105418482D01*
X220875616Y-105476179D01*
X220886658Y-105534061D01*
X220889281Y-105542749D01*
X220918137Y-105635968D01*
X220940964Y-105690272D01*
X220963037Y-105744904D01*
X220967298Y-105752917D01*
X221013711Y-105838754D01*
X221046646Y-105887582D01*
X221078912Y-105936890D01*
X221084648Y-105943923D01*
X221146850Y-106019111D01*
X221188627Y-106060597D01*
X221229867Y-106102711D01*
X221236860Y-106108496D01*
X221312481Y-106170172D01*
X221361527Y-106202759D01*
X221410167Y-106236063D01*
X221418151Y-106240379D01*
X221504312Y-106286191D01*
X221558765Y-106308635D01*
X221612922Y-106331847D01*
X221621593Y-106334530D01*
X221621597Y-106334532D01*
X221621602Y-106334533D01*
X221715010Y-106362735D01*
X221772794Y-106374177D01*
X221830431Y-106386428D01*
X221839444Y-106387375D01*
X221839451Y-106387376D01*
X221839457Y-106387376D01*
X221936364Y-106396877D01*
X221968068Y-106400000D01*
X231031932Y-106400000D01*
X231059425Y-106397292D01*
X231062402Y-106397313D01*
X231071433Y-106396427D01*
X231119474Y-106391378D01*
X231127422Y-106390595D01*
X231127687Y-106390515D01*
X231168482Y-106386227D01*
X231226179Y-106374384D01*
X231284061Y-106363342D01*
X231292749Y-106360719D01*
X231385968Y-106331863D01*
X231440272Y-106309036D01*
X231494904Y-106286963D01*
X231502917Y-106282702D01*
X231588754Y-106236289D01*
X231637582Y-106203354D01*
X231686890Y-106171088D01*
X231693923Y-106165352D01*
X231769111Y-106103150D01*
X231810597Y-106061373D01*
X231852711Y-106020133D01*
X231858496Y-106013140D01*
X231920172Y-105937519D01*
X231952759Y-105888473D01*
X231986063Y-105839833D01*
X231990379Y-105831849D01*
X232036191Y-105745688D01*
X232058635Y-105691235D01*
X232081847Y-105637078D01*
X232084530Y-105628408D01*
X232112735Y-105534990D01*
X232124177Y-105477206D01*
X232136428Y-105419569D01*
X232137375Y-105410556D01*
X232137376Y-105410549D01*
X232137376Y-105410543D01*
X232146898Y-105313426D01*
X232150000Y-105281932D01*
X232150000Y-84718068D01*
X232147292Y-84690576D01*
X232147313Y-84687599D01*
X232146427Y-84678567D01*
X232141379Y-84630534D01*
X232140595Y-84622578D01*
X232140515Y-84622313D01*
X232136227Y-84581519D01*
X232124385Y-84523829D01*
X232113342Y-84465939D01*
X232110719Y-84457251D01*
X232081863Y-84364032D01*
X232059036Y-84309728D01*
X232036963Y-84255096D01*
X232032702Y-84247083D01*
X231986289Y-84161245D01*
X231953342Y-84112400D01*
X231921088Y-84063110D01*
X231915352Y-84056077D01*
X231853150Y-83980888D01*
X231811338Y-83939367D01*
X231770133Y-83897289D01*
X231763140Y-83891504D01*
X231687519Y-83829828D01*
X231638439Y-83797219D01*
X231589832Y-83763937D01*
X231581849Y-83759621D01*
X231495688Y-83713809D01*
X231441235Y-83691365D01*
X231387078Y-83668153D01*
X231378408Y-83665470D01*
X231378407Y-83665470D01*
X231378403Y-83665468D01*
X231378398Y-83665467D01*
X231284990Y-83637265D01*
X231227213Y-83625824D01*
X231169569Y-83613572D01*
X231160555Y-83612625D01*
X231160549Y-83612624D01*
X231160544Y-83612624D01*
X231063635Y-83603122D01*
X231031932Y-83600000D01*
X221968068Y-83600000D01*
X221940576Y-83602708D01*
X221937599Y-83602687D01*
X221928567Y-83603573D01*
X221880534Y-83608621D01*
X221872578Y-83609405D01*
X221872313Y-83609485D01*
X221831519Y-83613773D01*
X221773829Y-83625615D01*
X221715939Y-83636658D01*
X221707251Y-83639281D01*
X221614032Y-83668137D01*
X221559728Y-83690964D01*
X221505096Y-83713037D01*
X221497083Y-83717298D01*
X221411245Y-83763711D01*
X221362400Y-83796658D01*
X221313110Y-83828912D01*
X221306077Y-83834648D01*
X221230888Y-83896850D01*
X221189367Y-83938662D01*
X221147289Y-83979867D01*
X221141504Y-83986860D01*
X221079828Y-84062481D01*
X221047219Y-84111561D01*
X221013937Y-84160168D01*
X221009621Y-84168151D01*
X220963809Y-84254312D01*
X220941365Y-84308765D01*
X220918153Y-84362922D01*
X220915470Y-84371592D01*
X220887265Y-84465010D01*
X220875824Y-84522787D01*
X220863572Y-84580431D01*
X220862625Y-84589445D01*
X220862624Y-84589451D01*
X220862624Y-84589456D01*
X220853102Y-84686574D01*
X220853102Y-84686583D01*
X220850001Y-84718068D01*
X220850000Y-105281931D01*
X191650000Y-105281931D01*
X191650000Y-82411174D01*
X191795903Y-82629534D01*
X192370466Y-83204097D01*
X193046080Y-83655527D01*
X193796782Y-83966478D01*
X194593723Y-84125000D01*
X195406277Y-84125000D01*
X196203218Y-83966478D01*
X196953920Y-83655527D01*
X197629534Y-83204097D01*
X198204097Y-82629534D01*
X198655527Y-81953920D01*
X198966478Y-81203218D01*
X199125000Y-80406277D01*
X199125000Y-79593723D01*
X198966478Y-78796782D01*
X198655527Y-78046080D01*
X198204097Y-77370466D01*
X197629534Y-76795903D01*
X197411174Y-76650000D01*
X242588826Y-76650000D01*
X242370466Y-76795903D01*
G37*
%TD.AperFunction*%
D16*
X208662886Y-134138461D02*
X208646976Y-134300000D01*
X208646976Y-134700000D01*
X208662886Y-134861539D01*
X208710006Y-135016871D01*
X208786523Y-135160025D01*
X208875937Y-135268976D01*
X208830920Y-135305920D01*
X208752817Y-135401089D01*
X208694781Y-135509666D01*
X208659043Y-135627479D01*
X208646976Y-135750000D01*
X208650000Y-135868750D01*
X208806250Y-136025000D01*
X209625000Y-136025000D01*
X209625000Y-136005000D01*
X209875000Y-136005000D01*
X209875000Y-136025000D01*
X210693750Y-136025000D01*
X210750000Y-135968750D01*
X210806250Y-136025000D01*
X211625000Y-136025000D01*
X211625000Y-136005000D01*
X211875000Y-136005000D01*
X211875000Y-136025000D01*
X212693750Y-136025000D01*
X212750000Y-135968750D01*
X212806250Y-136025000D01*
X213625000Y-136025000D01*
X213625000Y-136005000D01*
X213875000Y-136005000D01*
X213875000Y-136025000D01*
X214693750Y-136025000D01*
X214850000Y-135868750D01*
X214853024Y-135750000D01*
X214840957Y-135627479D01*
X214805219Y-135509666D01*
X214747183Y-135401089D01*
X214669080Y-135305920D01*
X214624063Y-135268976D01*
X214713477Y-135160025D01*
X214789994Y-135016871D01*
X214837114Y-134861539D01*
X214853024Y-134700000D01*
X214853024Y-134590461D01*
X215125000Y-134862437D01*
X215125001Y-148887563D01*
X214137564Y-149875000D01*
X210595637Y-149875000D01*
X210603024Y-149800000D01*
X210600000Y-149581250D01*
X210443750Y-149425000D01*
X209375000Y-149425000D01*
X209375000Y-149445000D01*
X209125000Y-149445000D01*
X209125000Y-149425000D01*
X209105000Y-149425000D01*
X209105000Y-149175000D01*
X209125000Y-149175000D01*
X209125000Y-148331250D01*
X209375000Y-148331250D01*
X209375000Y-149175000D01*
X210443750Y-149175000D01*
X210600000Y-149018750D01*
X210603024Y-148800000D01*
X210590957Y-148677479D01*
X210555219Y-148559666D01*
X210497183Y-148451089D01*
X210419080Y-148355920D01*
X210323911Y-148277817D01*
X210215334Y-148219781D01*
X210097521Y-148184043D01*
X209975000Y-148171976D01*
X209531250Y-148175000D01*
X209375000Y-148331250D01*
X209125000Y-148331250D01*
X208968750Y-148175000D01*
X208525000Y-148171976D01*
X208402479Y-148184043D01*
X208284666Y-148219781D01*
X208176089Y-148277817D01*
X208080920Y-148355920D01*
X208026234Y-148422555D01*
X208025000Y-148231250D01*
X207868750Y-148075000D01*
X206525000Y-148075000D01*
X206525000Y-148095000D01*
X206275000Y-148095000D01*
X206275000Y-148075000D01*
X204931250Y-148075000D01*
X204775000Y-148231250D01*
X204771976Y-148700000D01*
X204784043Y-148822521D01*
X204799962Y-148875000D01*
X203625000Y-148875000D01*
X203625000Y-147200000D01*
X204771976Y-147200000D01*
X204775000Y-147668750D01*
X204931250Y-147825000D01*
X206275000Y-147825000D01*
X206275000Y-146731250D01*
X206525000Y-146731250D01*
X206525000Y-147825000D01*
X207868750Y-147825000D01*
X208025000Y-147668750D01*
X208028024Y-147200000D01*
X208015957Y-147077479D01*
X207980219Y-146959666D01*
X207922183Y-146851089D01*
X207844080Y-146755920D01*
X207748911Y-146677817D01*
X207640334Y-146619781D01*
X207522521Y-146584043D01*
X207400000Y-146571976D01*
X206681250Y-146575000D01*
X206525000Y-146731250D01*
X206275000Y-146731250D01*
X206118750Y-146575000D01*
X205400000Y-146571976D01*
X205277479Y-146584043D01*
X205159666Y-146619781D01*
X205051089Y-146677817D01*
X204955920Y-146755920D01*
X204877817Y-146851089D01*
X204819781Y-146959666D01*
X204784043Y-147077479D01*
X204771976Y-147200000D01*
X203625000Y-147200000D01*
X203625000Y-146345637D01*
X203700000Y-146353024D01*
X203918750Y-146350000D01*
X204075000Y-146193750D01*
X204075000Y-145125000D01*
X204325000Y-145125000D01*
X204325000Y-146193750D01*
X204481250Y-146350000D01*
X204700000Y-146353024D01*
X204822521Y-146340957D01*
X204940334Y-146305219D01*
X205048911Y-146247183D01*
X205144080Y-146169080D01*
X205222183Y-146073911D01*
X205280219Y-145965334D01*
X205315957Y-145847521D01*
X205328024Y-145725000D01*
X205325000Y-145281250D01*
X205168750Y-145125000D01*
X204325000Y-145125000D01*
X204075000Y-145125000D01*
X204055000Y-145125000D01*
X204055000Y-144875000D01*
X204075000Y-144875000D01*
X204075000Y-143806250D01*
X204325000Y-143806250D01*
X204325000Y-144875000D01*
X205168750Y-144875000D01*
X205325000Y-144718750D01*
X205328024Y-144275000D01*
X205315957Y-144152479D01*
X205280219Y-144034666D01*
X205222183Y-143926089D01*
X205144080Y-143830920D01*
X205048911Y-143752817D01*
X204940334Y-143694781D01*
X204822521Y-143659043D01*
X204700000Y-143646976D01*
X204481250Y-143650000D01*
X204325000Y-143806250D01*
X204075000Y-143806250D01*
X203918750Y-143650000D01*
X203700000Y-143646976D01*
X203625000Y-143654363D01*
X203625000Y-140525000D01*
X203998553Y-140525000D01*
X204014975Y-140538477D01*
X204158129Y-140614994D01*
X204313461Y-140662114D01*
X204475000Y-140678024D01*
X205025000Y-140678024D01*
X205186539Y-140662114D01*
X205341871Y-140614994D01*
X205485025Y-140538477D01*
X205501447Y-140525000D01*
X205998553Y-140525000D01*
X206014975Y-140538477D01*
X206158129Y-140614994D01*
X206313461Y-140662114D01*
X206475000Y-140678024D01*
X207025000Y-140678024D01*
X207186539Y-140662114D01*
X207341871Y-140614994D01*
X207485025Y-140538477D01*
X207610501Y-140435501D01*
X207713477Y-140310025D01*
X207789994Y-140166871D01*
X207837114Y-140011539D01*
X207853024Y-139850000D01*
X207853024Y-139450000D01*
X207837114Y-139288461D01*
X207789994Y-139133129D01*
X207713477Y-138989975D01*
X207610501Y-138864499D01*
X207562372Y-138825000D01*
X207610501Y-138785501D01*
X207713477Y-138660025D01*
X207789994Y-138516871D01*
X207837114Y-138361539D01*
X207853024Y-138200000D01*
X207853024Y-137800000D01*
X207837114Y-137638461D01*
X207789994Y-137483129D01*
X207713477Y-137339975D01*
X207610501Y-137214499D01*
X207500000Y-137123813D01*
X207500000Y-136550000D01*
X208646976Y-136550000D01*
X208659043Y-136672521D01*
X208694781Y-136790334D01*
X208752817Y-136898911D01*
X208830920Y-136994080D01*
X208926089Y-137072183D01*
X209034666Y-137130219D01*
X209152479Y-137165957D01*
X209275000Y-137178024D01*
X209468750Y-137175000D01*
X209625000Y-137018750D01*
X209625000Y-136275000D01*
X209875000Y-136275000D01*
X209875000Y-137018750D01*
X210031250Y-137175000D01*
X210225000Y-137178024D01*
X210347521Y-137165957D01*
X210465334Y-137130219D01*
X210573911Y-137072183D01*
X210669080Y-136994080D01*
X210747183Y-136898911D01*
X210750000Y-136893641D01*
X210752817Y-136898911D01*
X210830920Y-136994080D01*
X210926089Y-137072183D01*
X211034666Y-137130219D01*
X211152479Y-137165957D01*
X211275000Y-137178024D01*
X211468750Y-137175000D01*
X211625000Y-137018750D01*
X211625000Y-136275000D01*
X211875000Y-136275000D01*
X211875000Y-137018750D01*
X212031250Y-137175000D01*
X212225000Y-137178024D01*
X212347521Y-137165957D01*
X212465334Y-137130219D01*
X212573911Y-137072183D01*
X212669080Y-136994080D01*
X212747183Y-136898911D01*
X212750000Y-136893641D01*
X212752817Y-136898911D01*
X212830920Y-136994080D01*
X212926089Y-137072183D01*
X213034666Y-137130219D01*
X213152479Y-137165957D01*
X213275000Y-137178024D01*
X213468750Y-137175000D01*
X213625000Y-137018750D01*
X213625000Y-136275000D01*
X213875000Y-136275000D01*
X213875000Y-137018750D01*
X214031250Y-137175000D01*
X214225000Y-137178024D01*
X214347521Y-137165957D01*
X214465334Y-137130219D01*
X214573911Y-137072183D01*
X214669080Y-136994080D01*
X214747183Y-136898911D01*
X214805219Y-136790334D01*
X214840957Y-136672521D01*
X214853024Y-136550000D01*
X214850000Y-136431250D01*
X214693750Y-136275000D01*
X213875000Y-136275000D01*
X213625000Y-136275000D01*
X212806250Y-136275000D01*
X212750000Y-136331250D01*
X212693750Y-136275000D01*
X211875000Y-136275000D01*
X211625000Y-136275000D01*
X210806250Y-136275000D01*
X210750000Y-136331250D01*
X210693750Y-136275000D01*
X209875000Y-136275000D01*
X209625000Y-136275000D01*
X208806250Y-136275000D01*
X208650000Y-136431250D01*
X208646976Y-136550000D01*
X207500000Y-136550000D01*
X207500000Y-134000000D01*
X208704888Y-134000000D01*
X208662886Y-134138461D01*
%TA.AperFunction,Conductor*%
D17*
G36*
X208662886Y-134138461D02*
G01*
X208646976Y-134300000D01*
X208646976Y-134700000D01*
X208662886Y-134861539D01*
X208710006Y-135016871D01*
X208786523Y-135160025D01*
X208875937Y-135268976D01*
X208830920Y-135305920D01*
X208752817Y-135401089D01*
X208694781Y-135509666D01*
X208659043Y-135627479D01*
X208646976Y-135750000D01*
X208650000Y-135868750D01*
X208806250Y-136025000D01*
X209625000Y-136025000D01*
X209625000Y-136005000D01*
X209875000Y-136005000D01*
X209875000Y-136025000D01*
X210693750Y-136025000D01*
X210750000Y-135968750D01*
X210806250Y-136025000D01*
X211625000Y-136025000D01*
X211625000Y-136005000D01*
X211875000Y-136005000D01*
X211875000Y-136025000D01*
X212693750Y-136025000D01*
X212750000Y-135968750D01*
X212806250Y-136025000D01*
X213625000Y-136025000D01*
X213625000Y-136005000D01*
X213875000Y-136005000D01*
X213875000Y-136025000D01*
X214693750Y-136025000D01*
X214850000Y-135868750D01*
X214853024Y-135750000D01*
X214840957Y-135627479D01*
X214805219Y-135509666D01*
X214747183Y-135401089D01*
X214669080Y-135305920D01*
X214624063Y-135268976D01*
X214713477Y-135160025D01*
X214789994Y-135016871D01*
X214837114Y-134861539D01*
X214853024Y-134700000D01*
X214853024Y-134590461D01*
X215125000Y-134862437D01*
X215125001Y-148887563D01*
X214137564Y-149875000D01*
X210595637Y-149875000D01*
X210603024Y-149800000D01*
X210600000Y-149581250D01*
X210443750Y-149425000D01*
X209375000Y-149425000D01*
X209375000Y-149445000D01*
X209125000Y-149445000D01*
X209125000Y-149425000D01*
X209105000Y-149425000D01*
X209105000Y-149175000D01*
X209125000Y-149175000D01*
X209125000Y-148331250D01*
X209375000Y-148331250D01*
X209375000Y-149175000D01*
X210443750Y-149175000D01*
X210600000Y-149018750D01*
X210603024Y-148800000D01*
X210590957Y-148677479D01*
X210555219Y-148559666D01*
X210497183Y-148451089D01*
X210419080Y-148355920D01*
X210323911Y-148277817D01*
X210215334Y-148219781D01*
X210097521Y-148184043D01*
X209975000Y-148171976D01*
X209531250Y-148175000D01*
X209375000Y-148331250D01*
X209125000Y-148331250D01*
X208968750Y-148175000D01*
X208525000Y-148171976D01*
X208402479Y-148184043D01*
X208284666Y-148219781D01*
X208176089Y-148277817D01*
X208080920Y-148355920D01*
X208026234Y-148422555D01*
X208025000Y-148231250D01*
X207868750Y-148075000D01*
X206525000Y-148075000D01*
X206525000Y-148095000D01*
X206275000Y-148095000D01*
X206275000Y-148075000D01*
X204931250Y-148075000D01*
X204775000Y-148231250D01*
X204771976Y-148700000D01*
X204784043Y-148822521D01*
X204799962Y-148875000D01*
X203625000Y-148875000D01*
X203625000Y-147200000D01*
X204771976Y-147200000D01*
X204775000Y-147668750D01*
X204931250Y-147825000D01*
X206275000Y-147825000D01*
X206275000Y-146731250D01*
X206525000Y-146731250D01*
X206525000Y-147825000D01*
X207868750Y-147825000D01*
X208025000Y-147668750D01*
X208028024Y-147200000D01*
X208015957Y-147077479D01*
X207980219Y-146959666D01*
X207922183Y-146851089D01*
X207844080Y-146755920D01*
X207748911Y-146677817D01*
X207640334Y-146619781D01*
X207522521Y-146584043D01*
X207400000Y-146571976D01*
X206681250Y-146575000D01*
X206525000Y-146731250D01*
X206275000Y-146731250D01*
X206118750Y-146575000D01*
X205400000Y-146571976D01*
X205277479Y-146584043D01*
X205159666Y-146619781D01*
X205051089Y-146677817D01*
X204955920Y-146755920D01*
X204877817Y-146851089D01*
X204819781Y-146959666D01*
X204784043Y-147077479D01*
X204771976Y-147200000D01*
X203625000Y-147200000D01*
X203625000Y-146345637D01*
X203700000Y-146353024D01*
X203918750Y-146350000D01*
X204075000Y-146193750D01*
X204075000Y-145125000D01*
X204325000Y-145125000D01*
X204325000Y-146193750D01*
X204481250Y-146350000D01*
X204700000Y-146353024D01*
X204822521Y-146340957D01*
X204940334Y-146305219D01*
X205048911Y-146247183D01*
X205144080Y-146169080D01*
X205222183Y-146073911D01*
X205280219Y-145965334D01*
X205315957Y-145847521D01*
X205328024Y-145725000D01*
X205325000Y-145281250D01*
X205168750Y-145125000D01*
X204325000Y-145125000D01*
X204075000Y-145125000D01*
X204055000Y-145125000D01*
X204055000Y-144875000D01*
X204075000Y-144875000D01*
X204075000Y-143806250D01*
X204325000Y-143806250D01*
X204325000Y-144875000D01*
X205168750Y-144875000D01*
X205325000Y-144718750D01*
X205328024Y-144275000D01*
X205315957Y-144152479D01*
X205280219Y-144034666D01*
X205222183Y-143926089D01*
X205144080Y-143830920D01*
X205048911Y-143752817D01*
X204940334Y-143694781D01*
X204822521Y-143659043D01*
X204700000Y-143646976D01*
X204481250Y-143650000D01*
X204325000Y-143806250D01*
X204075000Y-143806250D01*
X203918750Y-143650000D01*
X203700000Y-143646976D01*
X203625000Y-143654363D01*
X203625000Y-140525000D01*
X203998553Y-140525000D01*
X204014975Y-140538477D01*
X204158129Y-140614994D01*
X204313461Y-140662114D01*
X204475000Y-140678024D01*
X205025000Y-140678024D01*
X205186539Y-140662114D01*
X205341871Y-140614994D01*
X205485025Y-140538477D01*
X205501447Y-140525000D01*
X205998553Y-140525000D01*
X206014975Y-140538477D01*
X206158129Y-140614994D01*
X206313461Y-140662114D01*
X206475000Y-140678024D01*
X207025000Y-140678024D01*
X207186539Y-140662114D01*
X207341871Y-140614994D01*
X207485025Y-140538477D01*
X207610501Y-140435501D01*
X207713477Y-140310025D01*
X207789994Y-140166871D01*
X207837114Y-140011539D01*
X207853024Y-139850000D01*
X207853024Y-139450000D01*
X207837114Y-139288461D01*
X207789994Y-139133129D01*
X207713477Y-138989975D01*
X207610501Y-138864499D01*
X207562372Y-138825000D01*
X207610501Y-138785501D01*
X207713477Y-138660025D01*
X207789994Y-138516871D01*
X207837114Y-138361539D01*
X207853024Y-138200000D01*
X207853024Y-137800000D01*
X207837114Y-137638461D01*
X207789994Y-137483129D01*
X207713477Y-137339975D01*
X207610501Y-137214499D01*
X207500000Y-137123813D01*
X207500000Y-136550000D01*
X208646976Y-136550000D01*
X208659043Y-136672521D01*
X208694781Y-136790334D01*
X208752817Y-136898911D01*
X208830920Y-136994080D01*
X208926089Y-137072183D01*
X209034666Y-137130219D01*
X209152479Y-137165957D01*
X209275000Y-137178024D01*
X209468750Y-137175000D01*
X209625000Y-137018750D01*
X209625000Y-136275000D01*
X209875000Y-136275000D01*
X209875000Y-137018750D01*
X210031250Y-137175000D01*
X210225000Y-137178024D01*
X210347521Y-137165957D01*
X210465334Y-137130219D01*
X210573911Y-137072183D01*
X210669080Y-136994080D01*
X210747183Y-136898911D01*
X210750000Y-136893641D01*
X210752817Y-136898911D01*
X210830920Y-136994080D01*
X210926089Y-137072183D01*
X211034666Y-137130219D01*
X211152479Y-137165957D01*
X211275000Y-137178024D01*
X211468750Y-137175000D01*
X211625000Y-137018750D01*
X211625000Y-136275000D01*
X211875000Y-136275000D01*
X211875000Y-137018750D01*
X212031250Y-137175000D01*
X212225000Y-137178024D01*
X212347521Y-137165957D01*
X212465334Y-137130219D01*
X212573911Y-137072183D01*
X212669080Y-136994080D01*
X212747183Y-136898911D01*
X212750000Y-136893641D01*
X212752817Y-136898911D01*
X212830920Y-136994080D01*
X212926089Y-137072183D01*
X213034666Y-137130219D01*
X213152479Y-137165957D01*
X213275000Y-137178024D01*
X213468750Y-137175000D01*
X213625000Y-137018750D01*
X213625000Y-136275000D01*
X213875000Y-136275000D01*
X213875000Y-137018750D01*
X214031250Y-137175000D01*
X214225000Y-137178024D01*
X214347521Y-137165957D01*
X214465334Y-137130219D01*
X214573911Y-137072183D01*
X214669080Y-136994080D01*
X214747183Y-136898911D01*
X214805219Y-136790334D01*
X214840957Y-136672521D01*
X214853024Y-136550000D01*
X214850000Y-136431250D01*
X214693750Y-136275000D01*
X213875000Y-136275000D01*
X213625000Y-136275000D01*
X212806250Y-136275000D01*
X212750000Y-136331250D01*
X212693750Y-136275000D01*
X211875000Y-136275000D01*
X211625000Y-136275000D01*
X210806250Y-136275000D01*
X210750000Y-136331250D01*
X210693750Y-136275000D01*
X209875000Y-136275000D01*
X209625000Y-136275000D01*
X208806250Y-136275000D01*
X208650000Y-136431250D01*
X208646976Y-136550000D01*
X207500000Y-136550000D01*
X207500000Y-134000000D01*
X208704888Y-134000000D01*
X208662886Y-134138461D01*
G37*
%TD.AperFunction*%
D16*
X208485965Y-128057970D02*
X208471976Y-128200000D01*
X208471976Y-128800000D01*
X208485965Y-128942030D01*
X208527394Y-129078603D01*
X208594670Y-129204468D01*
X208685209Y-129314791D01*
X208795532Y-129405330D01*
X208921397Y-129472606D01*
X209057970Y-129514035D01*
X209200000Y-129528024D01*
X209400000Y-129528024D01*
X209542030Y-129514035D01*
X209678603Y-129472606D01*
X209804468Y-129405330D01*
X209914791Y-129314791D01*
X210005330Y-129204468D01*
X210072606Y-129078603D01*
X210114035Y-128942030D01*
X210128024Y-128800000D01*
X210128024Y-128200000D01*
X210114035Y-128057970D01*
X210096450Y-128000000D01*
X220189341Y-128000000D01*
X222000000Y-129810660D01*
X222000000Y-129982796D01*
X221931250Y-129975000D01*
X221897642Y-130008608D01*
X221847002Y-130025190D01*
X221750000Y-130079806D01*
X221652998Y-130025190D01*
X221602358Y-130008608D01*
X221568750Y-129975000D01*
X221500000Y-129982796D01*
X221431250Y-129975000D01*
X221397642Y-130008608D01*
X221347002Y-130025190D01*
X221250000Y-130079806D01*
X221152998Y-130025190D01*
X221102358Y-130008608D01*
X221068750Y-129975000D01*
X221000000Y-129982796D01*
X220931250Y-129975000D01*
X220897642Y-130008608D01*
X220847002Y-130025190D01*
X220750000Y-130079806D01*
X220652998Y-130025190D01*
X220602358Y-130008608D01*
X220568750Y-129975000D01*
X220500000Y-129982796D01*
X220431250Y-129975000D01*
X220397642Y-130008608D01*
X220347002Y-130025190D01*
X220250000Y-130079806D01*
X220152998Y-130025190D01*
X220102358Y-130008608D01*
X220068750Y-129975000D01*
X220000000Y-129982796D01*
X219931250Y-129975000D01*
X219897642Y-130008608D01*
X219847002Y-130025190D01*
X219750000Y-130079806D01*
X219652998Y-130025190D01*
X219602358Y-130008608D01*
X219568750Y-129975000D01*
X219500000Y-129982796D01*
X219431250Y-129975000D01*
X219397642Y-130008608D01*
X219347002Y-130025190D01*
X219250000Y-130079806D01*
X219152998Y-130025190D01*
X219102358Y-130008608D01*
X219068750Y-129975000D01*
X219000000Y-129982796D01*
X218931250Y-129975000D01*
X218897642Y-130008608D01*
X218847002Y-130025190D01*
X218750000Y-130079806D01*
X218652998Y-130025190D01*
X218602358Y-130008608D01*
X218568750Y-129975000D01*
X218500000Y-129982796D01*
X218431250Y-129975000D01*
X218397642Y-130008608D01*
X218347002Y-130025190D01*
X218250000Y-130079806D01*
X218152998Y-130025190D01*
X218102358Y-130008608D01*
X218068750Y-129975000D01*
X218000000Y-129982796D01*
X217931250Y-129975000D01*
X217897642Y-130008608D01*
X217847002Y-130025190D01*
X217750000Y-130079806D01*
X217652998Y-130025190D01*
X217602358Y-130008608D01*
X217568750Y-129975000D01*
X217500000Y-129982796D01*
X217431250Y-129975000D01*
X217397642Y-130008608D01*
X217347002Y-130025190D01*
X217250000Y-130079806D01*
X217152998Y-130025190D01*
X217102358Y-130008608D01*
X217068750Y-129975000D01*
X217000000Y-129982796D01*
X216931250Y-129975000D01*
X216897642Y-130008608D01*
X216847002Y-130025190D01*
X216750000Y-130079806D01*
X216652998Y-130025190D01*
X216602358Y-130008608D01*
X216568750Y-129975000D01*
X216500000Y-129982796D01*
X216431250Y-129975000D01*
X216397642Y-130008608D01*
X216347002Y-130025190D01*
X216250000Y-130079806D01*
X216152998Y-130025190D01*
X216102358Y-130008608D01*
X216068750Y-129975000D01*
X216000000Y-129982796D01*
X215931250Y-129975000D01*
X215897642Y-130008608D01*
X215847002Y-130025190D01*
X215750000Y-130079806D01*
X215652998Y-130025190D01*
X215602358Y-130008608D01*
X215568750Y-129975000D01*
X215500000Y-129982796D01*
X215431250Y-129975000D01*
X215397642Y-130008608D01*
X215347002Y-130025190D01*
X215250000Y-130079806D01*
X215152998Y-130025190D01*
X215102358Y-130008608D01*
X215068750Y-129975000D01*
X215000000Y-129982796D01*
X214931250Y-129975000D01*
X214897642Y-130008608D01*
X214847002Y-130025190D01*
X214750000Y-130079806D01*
X214652998Y-130025190D01*
X214602358Y-130008608D01*
X214568750Y-129975000D01*
X214500000Y-129982796D01*
X214431250Y-129975000D01*
X214397642Y-130008608D01*
X214347002Y-130025190D01*
X214239724Y-130085592D01*
X214225022Y-130098207D01*
X214215579Y-130090457D01*
X214148183Y-130054433D01*
X214068750Y-129975000D01*
X213966001Y-129986651D01*
X213962153Y-129985484D01*
X213825000Y-129971976D01*
X213675000Y-129971976D01*
X213537847Y-129985484D01*
X213500000Y-129996965D01*
X213462153Y-129985484D01*
X213325000Y-129971976D01*
X213175000Y-129971976D01*
X213037847Y-129985484D01*
X213000000Y-129996965D01*
X212962153Y-129985484D01*
X212825000Y-129971976D01*
X212675000Y-129971976D01*
X212537847Y-129985484D01*
X212500000Y-129996965D01*
X212462153Y-129985484D01*
X212325000Y-129971976D01*
X212175000Y-129971976D01*
X212037847Y-129985484D01*
X212033999Y-129986651D01*
X211931250Y-129975000D01*
X211851817Y-130054433D01*
X211784421Y-130090457D01*
X211750000Y-130118706D01*
X211715579Y-130090457D01*
X211648183Y-130054433D01*
X211568750Y-129975000D01*
X211466001Y-129986651D01*
X211462153Y-129985484D01*
X211325000Y-129971976D01*
X211175000Y-129971976D01*
X211037847Y-129985484D01*
X211000000Y-129996965D01*
X210962153Y-129985484D01*
X210825000Y-129971976D01*
X210675000Y-129971976D01*
X210537847Y-129985484D01*
X210500000Y-129996965D01*
X210462153Y-129985484D01*
X210325000Y-129971976D01*
X210175000Y-129971976D01*
X210037847Y-129985484D01*
X209905964Y-130025491D01*
X209784421Y-130090457D01*
X209677887Y-130177887D01*
X209590457Y-130284421D01*
X209525491Y-130405964D01*
X209485484Y-130537847D01*
X209471976Y-130675000D01*
X209471976Y-131000000D01*
X204536828Y-131000000D01*
X204500000Y-130996373D01*
X204463172Y-131000000D01*
X204463165Y-131000000D01*
X204352974Y-131010853D01*
X204211599Y-131053739D01*
X204081307Y-131123381D01*
X204018316Y-131175077D01*
X203967105Y-131217105D01*
X203943626Y-131245714D01*
X202245719Y-132943621D01*
X202217105Y-132967105D01*
X202193627Y-132995713D01*
X201717365Y-133471976D01*
X201475000Y-133471976D01*
X201313461Y-133487886D01*
X201158129Y-133535006D01*
X201014975Y-133611523D01*
X200889499Y-133714499D01*
X200786523Y-133839975D01*
X200710006Y-133983129D01*
X200662886Y-134138461D01*
X200646976Y-134300000D01*
X200646976Y-134700000D01*
X200662886Y-134861539D01*
X200710006Y-135016871D01*
X200786523Y-135160025D01*
X200875937Y-135268976D01*
X200830920Y-135305920D01*
X200752817Y-135401089D01*
X200694781Y-135509666D01*
X200659043Y-135627479D01*
X200646976Y-135750000D01*
X200650000Y-135868750D01*
X200806250Y-136025000D01*
X201625000Y-136025000D01*
X201625000Y-136005000D01*
X201875000Y-136005000D01*
X201875000Y-136025000D01*
X201895000Y-136025000D01*
X201895000Y-136275000D01*
X201875000Y-136275000D01*
X201875000Y-137018750D01*
X201989050Y-137132800D01*
X201889499Y-137214499D01*
X201786523Y-137339975D01*
X201710006Y-137483129D01*
X201662886Y-137638461D01*
X201646976Y-137800000D01*
X201646976Y-138200000D01*
X201662886Y-138361539D01*
X201710006Y-138516871D01*
X201786523Y-138660025D01*
X201889499Y-138785501D01*
X201937628Y-138825000D01*
X201889499Y-138864499D01*
X201786523Y-138989975D01*
X201710006Y-139133129D01*
X201662886Y-139288461D01*
X201646976Y-139450000D01*
X201646976Y-139850000D01*
X201662886Y-140011539D01*
X201710006Y-140166871D01*
X201786523Y-140310025D01*
X201875000Y-140417834D01*
X201875000Y-140625000D01*
X200559739Y-140625000D01*
X200622183Y-140548911D01*
X200680219Y-140440334D01*
X200715957Y-140322521D01*
X200728024Y-140200000D01*
X200725000Y-140031250D01*
X200568750Y-139875000D01*
X199825000Y-139875000D01*
X199825000Y-139895000D01*
X199575000Y-139895000D01*
X199575000Y-139875000D01*
X199555000Y-139875000D01*
X199555000Y-139625000D01*
X199575000Y-139625000D01*
X199575000Y-138831250D01*
X199825000Y-138831250D01*
X199825000Y-139625000D01*
X200568750Y-139625000D01*
X200725000Y-139468750D01*
X200728024Y-139300000D01*
X200715957Y-139177479D01*
X200680219Y-139059666D01*
X200622183Y-138951089D01*
X200544080Y-138855920D01*
X200448911Y-138777817D01*
X200340334Y-138719781D01*
X200222521Y-138684043D01*
X200100000Y-138671976D01*
X199981250Y-138675000D01*
X199825000Y-138831250D01*
X199575000Y-138831250D01*
X199418750Y-138675000D01*
X199300000Y-138671976D01*
X199177479Y-138684043D01*
X199059666Y-138719781D01*
X198951089Y-138777817D01*
X198855920Y-138855920D01*
X198777817Y-138951089D01*
X198750000Y-139003131D01*
X198722183Y-138951089D01*
X198644080Y-138855920D01*
X198550000Y-138778711D01*
X198550000Y-136550000D01*
X200646976Y-136550000D01*
X200659043Y-136672521D01*
X200694781Y-136790334D01*
X200752817Y-136898911D01*
X200830920Y-136994080D01*
X200926089Y-137072183D01*
X201034666Y-137130219D01*
X201152479Y-137165957D01*
X201275000Y-137178024D01*
X201468750Y-137175000D01*
X201625000Y-137018750D01*
X201625000Y-136275000D01*
X200806250Y-136275000D01*
X200650000Y-136431250D01*
X200646976Y-136550000D01*
X198550000Y-136550000D01*
X198550000Y-134236834D01*
X198553628Y-134200000D01*
X198550000Y-134163165D01*
X198550000Y-132199570D01*
X198596170Y-132153400D01*
X198708344Y-131985520D01*
X198785610Y-131798982D01*
X198825000Y-131600954D01*
X198825000Y-131485659D01*
X202310660Y-128000000D01*
X208503550Y-128000000D01*
X208485965Y-128057970D01*
%TA.AperFunction,Conductor*%
D17*
G36*
X208485965Y-128057970D02*
G01*
X208471976Y-128200000D01*
X208471976Y-128800000D01*
X208485965Y-128942030D01*
X208527394Y-129078603D01*
X208594670Y-129204468D01*
X208685209Y-129314791D01*
X208795532Y-129405330D01*
X208921397Y-129472606D01*
X209057970Y-129514035D01*
X209200000Y-129528024D01*
X209400000Y-129528024D01*
X209542030Y-129514035D01*
X209678603Y-129472606D01*
X209804468Y-129405330D01*
X209914791Y-129314791D01*
X210005330Y-129204468D01*
X210072606Y-129078603D01*
X210114035Y-128942030D01*
X210128024Y-128800000D01*
X210128024Y-128200000D01*
X210114035Y-128057970D01*
X210096450Y-128000000D01*
X220189341Y-128000000D01*
X222000000Y-129810660D01*
X222000000Y-129982796D01*
X221931250Y-129975000D01*
X221897642Y-130008608D01*
X221847002Y-130025190D01*
X221750000Y-130079806D01*
X221652998Y-130025190D01*
X221602358Y-130008608D01*
X221568750Y-129975000D01*
X221500000Y-129982796D01*
X221431250Y-129975000D01*
X221397642Y-130008608D01*
X221347002Y-130025190D01*
X221250000Y-130079806D01*
X221152998Y-130025190D01*
X221102358Y-130008608D01*
X221068750Y-129975000D01*
X221000000Y-129982796D01*
X220931250Y-129975000D01*
X220897642Y-130008608D01*
X220847002Y-130025190D01*
X220750000Y-130079806D01*
X220652998Y-130025190D01*
X220602358Y-130008608D01*
X220568750Y-129975000D01*
X220500000Y-129982796D01*
X220431250Y-129975000D01*
X220397642Y-130008608D01*
X220347002Y-130025190D01*
X220250000Y-130079806D01*
X220152998Y-130025190D01*
X220102358Y-130008608D01*
X220068750Y-129975000D01*
X220000000Y-129982796D01*
X219931250Y-129975000D01*
X219897642Y-130008608D01*
X219847002Y-130025190D01*
X219750000Y-130079806D01*
X219652998Y-130025190D01*
X219602358Y-130008608D01*
X219568750Y-129975000D01*
X219500000Y-129982796D01*
X219431250Y-129975000D01*
X219397642Y-130008608D01*
X219347002Y-130025190D01*
X219250000Y-130079806D01*
X219152998Y-130025190D01*
X219102358Y-130008608D01*
X219068750Y-129975000D01*
X219000000Y-129982796D01*
X218931250Y-129975000D01*
X218897642Y-130008608D01*
X218847002Y-130025190D01*
X218750000Y-130079806D01*
X218652998Y-130025190D01*
X218602358Y-130008608D01*
X218568750Y-129975000D01*
X218500000Y-129982796D01*
X218431250Y-129975000D01*
X218397642Y-130008608D01*
X218347002Y-130025190D01*
X218250000Y-130079806D01*
X218152998Y-130025190D01*
X218102358Y-130008608D01*
X218068750Y-129975000D01*
X218000000Y-129982796D01*
X217931250Y-129975000D01*
X217897642Y-130008608D01*
X217847002Y-130025190D01*
X217750000Y-130079806D01*
X217652998Y-130025190D01*
X217602358Y-130008608D01*
X217568750Y-129975000D01*
X217500000Y-129982796D01*
X217431250Y-129975000D01*
X217397642Y-130008608D01*
X217347002Y-130025190D01*
X217250000Y-130079806D01*
X217152998Y-130025190D01*
X217102358Y-130008608D01*
X217068750Y-129975000D01*
X217000000Y-129982796D01*
X216931250Y-129975000D01*
X216897642Y-130008608D01*
X216847002Y-130025190D01*
X216750000Y-130079806D01*
X216652998Y-130025190D01*
X216602358Y-130008608D01*
X216568750Y-129975000D01*
X216500000Y-129982796D01*
X216431250Y-129975000D01*
X216397642Y-130008608D01*
X216347002Y-130025190D01*
X216250000Y-130079806D01*
X216152998Y-130025190D01*
X216102358Y-130008608D01*
X216068750Y-129975000D01*
X216000000Y-129982796D01*
X215931250Y-129975000D01*
X215897642Y-130008608D01*
X215847002Y-130025190D01*
X215750000Y-130079806D01*
X215652998Y-130025190D01*
X215602358Y-130008608D01*
X215568750Y-129975000D01*
X215500000Y-129982796D01*
X215431250Y-129975000D01*
X215397642Y-130008608D01*
X215347002Y-130025190D01*
X215250000Y-130079806D01*
X215152998Y-130025190D01*
X215102358Y-130008608D01*
X215068750Y-129975000D01*
X215000000Y-129982796D01*
X214931250Y-129975000D01*
X214897642Y-130008608D01*
X214847002Y-130025190D01*
X214750000Y-130079806D01*
X214652998Y-130025190D01*
X214602358Y-130008608D01*
X214568750Y-129975000D01*
X214500000Y-129982796D01*
X214431250Y-129975000D01*
X214397642Y-130008608D01*
X214347002Y-130025190D01*
X214239724Y-130085592D01*
X214225022Y-130098207D01*
X214215579Y-130090457D01*
X214148183Y-130054433D01*
X214068750Y-129975000D01*
X213966001Y-129986651D01*
X213962153Y-129985484D01*
X213825000Y-129971976D01*
X213675000Y-129971976D01*
X213537847Y-129985484D01*
X213500000Y-129996965D01*
X213462153Y-129985484D01*
X213325000Y-129971976D01*
X213175000Y-129971976D01*
X213037847Y-129985484D01*
X213000000Y-129996965D01*
X212962153Y-129985484D01*
X212825000Y-129971976D01*
X212675000Y-129971976D01*
X212537847Y-129985484D01*
X212500000Y-129996965D01*
X212462153Y-129985484D01*
X212325000Y-129971976D01*
X212175000Y-129971976D01*
X212037847Y-129985484D01*
X212033999Y-129986651D01*
X211931250Y-129975000D01*
X211851817Y-130054433D01*
X211784421Y-130090457D01*
X211750000Y-130118706D01*
X211715579Y-130090457D01*
X211648183Y-130054433D01*
X211568750Y-129975000D01*
X211466001Y-129986651D01*
X211462153Y-129985484D01*
X211325000Y-129971976D01*
X211175000Y-129971976D01*
X211037847Y-129985484D01*
X211000000Y-129996965D01*
X210962153Y-129985484D01*
X210825000Y-129971976D01*
X210675000Y-129971976D01*
X210537847Y-129985484D01*
X210500000Y-129996965D01*
X210462153Y-129985484D01*
X210325000Y-129971976D01*
X210175000Y-129971976D01*
X210037847Y-129985484D01*
X209905964Y-130025491D01*
X209784421Y-130090457D01*
X209677887Y-130177887D01*
X209590457Y-130284421D01*
X209525491Y-130405964D01*
X209485484Y-130537847D01*
X209471976Y-130675000D01*
X209471976Y-131000000D01*
X204536828Y-131000000D01*
X204500000Y-130996373D01*
X204463172Y-131000000D01*
X204463165Y-131000000D01*
X204352974Y-131010853D01*
X204211599Y-131053739D01*
X204081307Y-131123381D01*
X204018316Y-131175077D01*
X203967105Y-131217105D01*
X203943626Y-131245714D01*
X202245719Y-132943621D01*
X202217105Y-132967105D01*
X202193627Y-132995713D01*
X201717365Y-133471976D01*
X201475000Y-133471976D01*
X201313461Y-133487886D01*
X201158129Y-133535006D01*
X201014975Y-133611523D01*
X200889499Y-133714499D01*
X200786523Y-133839975D01*
X200710006Y-133983129D01*
X200662886Y-134138461D01*
X200646976Y-134300000D01*
X200646976Y-134700000D01*
X200662886Y-134861539D01*
X200710006Y-135016871D01*
X200786523Y-135160025D01*
X200875937Y-135268976D01*
X200830920Y-135305920D01*
X200752817Y-135401089D01*
X200694781Y-135509666D01*
X200659043Y-135627479D01*
X200646976Y-135750000D01*
X200650000Y-135868750D01*
X200806250Y-136025000D01*
X201625000Y-136025000D01*
X201625000Y-136005000D01*
X201875000Y-136005000D01*
X201875000Y-136025000D01*
X201895000Y-136025000D01*
X201895000Y-136275000D01*
X201875000Y-136275000D01*
X201875000Y-137018750D01*
X201989050Y-137132800D01*
X201889499Y-137214499D01*
X201786523Y-137339975D01*
X201710006Y-137483129D01*
X201662886Y-137638461D01*
X201646976Y-137800000D01*
X201646976Y-138200000D01*
X201662886Y-138361539D01*
X201710006Y-138516871D01*
X201786523Y-138660025D01*
X201889499Y-138785501D01*
X201937628Y-138825000D01*
X201889499Y-138864499D01*
X201786523Y-138989975D01*
X201710006Y-139133129D01*
X201662886Y-139288461D01*
X201646976Y-139450000D01*
X201646976Y-139850000D01*
X201662886Y-140011539D01*
X201710006Y-140166871D01*
X201786523Y-140310025D01*
X201875000Y-140417834D01*
X201875000Y-140625000D01*
X200559739Y-140625000D01*
X200622183Y-140548911D01*
X200680219Y-140440334D01*
X200715957Y-140322521D01*
X200728024Y-140200000D01*
X200725000Y-140031250D01*
X200568750Y-139875000D01*
X199825000Y-139875000D01*
X199825000Y-139895000D01*
X199575000Y-139895000D01*
X199575000Y-139875000D01*
X199555000Y-139875000D01*
X199555000Y-139625000D01*
X199575000Y-139625000D01*
X199575000Y-138831250D01*
X199825000Y-138831250D01*
X199825000Y-139625000D01*
X200568750Y-139625000D01*
X200725000Y-139468750D01*
X200728024Y-139300000D01*
X200715957Y-139177479D01*
X200680219Y-139059666D01*
X200622183Y-138951089D01*
X200544080Y-138855920D01*
X200448911Y-138777817D01*
X200340334Y-138719781D01*
X200222521Y-138684043D01*
X200100000Y-138671976D01*
X199981250Y-138675000D01*
X199825000Y-138831250D01*
X199575000Y-138831250D01*
X199418750Y-138675000D01*
X199300000Y-138671976D01*
X199177479Y-138684043D01*
X199059666Y-138719781D01*
X198951089Y-138777817D01*
X198855920Y-138855920D01*
X198777817Y-138951089D01*
X198750000Y-139003131D01*
X198722183Y-138951089D01*
X198644080Y-138855920D01*
X198550000Y-138778711D01*
X198550000Y-136550000D01*
X200646976Y-136550000D01*
X200659043Y-136672521D01*
X200694781Y-136790334D01*
X200752817Y-136898911D01*
X200830920Y-136994080D01*
X200926089Y-137072183D01*
X201034666Y-137130219D01*
X201152479Y-137165957D01*
X201275000Y-137178024D01*
X201468750Y-137175000D01*
X201625000Y-137018750D01*
X201625000Y-136275000D01*
X200806250Y-136275000D01*
X200650000Y-136431250D01*
X200646976Y-136550000D01*
X198550000Y-136550000D01*
X198550000Y-134236834D01*
X198553628Y-134200000D01*
X198550000Y-134163165D01*
X198550000Y-132199570D01*
X198596170Y-132153400D01*
X198708344Y-131985520D01*
X198785610Y-131798982D01*
X198825000Y-131600954D01*
X198825000Y-131485659D01*
X202310660Y-128000000D01*
X208503550Y-128000000D01*
X208485965Y-128057970D01*
G37*
%TD.AperFunction*%
D16*
X203250000Y-125629233D02*
X203292979Y-125625000D01*
X219887564Y-125625000D01*
X220848342Y-126585778D01*
X220788401Y-126553739D01*
X220647026Y-126510853D01*
X220536835Y-126500000D01*
X220536827Y-126500000D01*
X220500000Y-126496373D01*
X220463173Y-126500000D01*
X202036827Y-126500000D01*
X202000000Y-126496373D01*
X201963172Y-126500000D01*
X201963165Y-126500000D01*
X201852974Y-126510853D01*
X201711599Y-126553739D01*
X201581307Y-126623381D01*
X201467105Y-126717105D01*
X201443626Y-126745714D01*
X197714341Y-130475000D01*
X197699046Y-130475000D01*
X197501018Y-130514390D01*
X197314480Y-130591656D01*
X197146600Y-130703830D01*
X197003830Y-130846600D01*
X196891656Y-131014480D01*
X196814390Y-131201018D01*
X196775000Y-131399046D01*
X196775000Y-131600954D01*
X196814390Y-131798982D01*
X196891656Y-131985520D01*
X197003830Y-132153400D01*
X197050001Y-132199571D01*
X197050000Y-132852494D01*
X197050000Y-134163165D01*
X197046372Y-134200000D01*
X197050001Y-134236845D01*
X197050000Y-138778711D01*
X196955920Y-138855920D01*
X196877817Y-138951089D01*
X196819781Y-139059666D01*
X196784043Y-139177479D01*
X196771976Y-139300000D01*
X196771976Y-140200000D01*
X196784043Y-140322521D01*
X196819781Y-140440334D01*
X196877817Y-140548911D01*
X196940261Y-140625000D01*
X196375000Y-140625000D01*
X196375000Y-126112436D01*
X196862437Y-125625000D01*
X203207021Y-125625000D01*
X203250000Y-125629233D01*
%TA.AperFunction,Conductor*%
D17*
G36*
X203250000Y-125629233D02*
G01*
X203292979Y-125625000D01*
X219887564Y-125625000D01*
X220848342Y-126585778D01*
X220788401Y-126553739D01*
X220647026Y-126510853D01*
X220536835Y-126500000D01*
X220536827Y-126500000D01*
X220500000Y-126496373D01*
X220463173Y-126500000D01*
X202036827Y-126500000D01*
X202000000Y-126496373D01*
X201963172Y-126500000D01*
X201963165Y-126500000D01*
X201852974Y-126510853D01*
X201711599Y-126553739D01*
X201581307Y-126623381D01*
X201467105Y-126717105D01*
X201443626Y-126745714D01*
X197714341Y-130475000D01*
X197699046Y-130475000D01*
X197501018Y-130514390D01*
X197314480Y-130591656D01*
X197146600Y-130703830D01*
X197003830Y-130846600D01*
X196891656Y-131014480D01*
X196814390Y-131201018D01*
X196775000Y-131399046D01*
X196775000Y-131600954D01*
X196814390Y-131798982D01*
X196891656Y-131985520D01*
X197003830Y-132153400D01*
X197050001Y-132199571D01*
X197050000Y-132852494D01*
X197050000Y-134163165D01*
X197046372Y-134200000D01*
X197050001Y-134236845D01*
X197050000Y-138778711D01*
X196955920Y-138855920D01*
X196877817Y-138951089D01*
X196819781Y-139059666D01*
X196784043Y-139177479D01*
X196771976Y-139300000D01*
X196771976Y-140200000D01*
X196784043Y-140322521D01*
X196819781Y-140440334D01*
X196877817Y-140548911D01*
X196940261Y-140625000D01*
X196375000Y-140625000D01*
X196375000Y-126112436D01*
X196862437Y-125625000D01*
X203207021Y-125625000D01*
X203250000Y-125629233D01*
G37*
%TD.AperFunction*%
D16*
X203875000Y-136025000D02*
X203895000Y-136025000D01*
X203895000Y-136275000D01*
X203875000Y-136275000D01*
X203875000Y-137018750D01*
X203989050Y-137132800D01*
X203889499Y-137214499D01*
X203786523Y-137339975D01*
X203750000Y-137408305D01*
X203713477Y-137339975D01*
X203610501Y-137214499D01*
X203510950Y-137132800D01*
X203625000Y-137018750D01*
X203625000Y-136275000D01*
X203605000Y-136275000D01*
X203605000Y-136025000D01*
X203625000Y-136025000D01*
X203625000Y-136005000D01*
X203875000Y-136005000D01*
X203875000Y-136025000D01*
%TA.AperFunction,Conductor*%
D17*
G36*
X203875000Y-136025000D02*
G01*
X203895000Y-136025000D01*
X203895000Y-136275000D01*
X203875000Y-136275000D01*
X203875000Y-137018750D01*
X203989050Y-137132800D01*
X203889499Y-137214499D01*
X203786523Y-137339975D01*
X203750000Y-137408305D01*
X203713477Y-137339975D01*
X203610501Y-137214499D01*
X203510950Y-137132800D01*
X203625000Y-137018750D01*
X203625000Y-136275000D01*
X203605000Y-136275000D01*
X203605000Y-136025000D01*
X203625000Y-136025000D01*
X203625000Y-136005000D01*
X203875000Y-136005000D01*
X203875000Y-136025000D01*
G37*
%TD.AperFunction*%
D16*
X205875000Y-136025000D02*
X205895000Y-136025000D01*
X205895000Y-136275000D01*
X205875000Y-136275000D01*
X205875000Y-137018750D01*
X205989050Y-137132800D01*
X205889499Y-137214499D01*
X205786523Y-137339975D01*
X205750000Y-137408305D01*
X205713477Y-137339975D01*
X205610501Y-137214499D01*
X205510950Y-137132800D01*
X205625000Y-137018750D01*
X205625000Y-136275000D01*
X205605000Y-136275000D01*
X205605000Y-136025000D01*
X205625000Y-136025000D01*
X205625000Y-136005000D01*
X205875000Y-136005000D01*
X205875000Y-136025000D01*
%TA.AperFunction,Conductor*%
D17*
G36*
X205875000Y-136025000D02*
G01*
X205895000Y-136025000D01*
X205895000Y-136275000D01*
X205875000Y-136275000D01*
X205875000Y-137018750D01*
X205989050Y-137132800D01*
X205889499Y-137214499D01*
X205786523Y-137339975D01*
X205750000Y-137408305D01*
X205713477Y-137339975D01*
X205610501Y-137214499D01*
X205510950Y-137132800D01*
X205625000Y-137018750D01*
X205625000Y-136275000D01*
X205605000Y-136275000D01*
X205605000Y-136025000D01*
X205625000Y-136025000D01*
X205625000Y-136005000D01*
X205875000Y-136005000D01*
X205875000Y-136025000D01*
G37*
%TD.AperFunction*%
D16*
X221395000Y-131125000D02*
X215105000Y-131125000D01*
X215105000Y-130875000D01*
X221395000Y-130875000D01*
X221395000Y-131125000D01*
%TA.AperFunction,Conductor*%
D17*
G36*
X221395000Y-131125000D02*
G01*
X215105000Y-131125000D01*
X215105000Y-130875000D01*
X221395000Y-130875000D01*
X221395000Y-131125000D01*
G37*
%TD.AperFunction*%
%TD*%
D16*
%TO.N,+5V*%
X214546898Y-150636777D02*
X214586657Y-150663343D01*
X214613223Y-150703102D01*
X214625000Y-150762310D01*
X214625000Y-175040548D01*
X214614781Y-175059666D01*
X214579043Y-175177479D01*
X214566976Y-175300000D01*
X214570000Y-176018750D01*
X214625000Y-176073750D01*
X214625000Y-176175000D01*
X215375000Y-176175000D01*
X215375000Y-176155000D01*
X215566976Y-176155000D01*
X215566976Y-176445000D01*
X215375000Y-176445000D01*
X215375000Y-176425000D01*
X214625000Y-176425000D01*
X214625000Y-176445000D01*
X214375000Y-176445000D01*
X214375000Y-176425000D01*
X213625000Y-176425000D01*
X213625000Y-176445000D01*
X213375000Y-176445000D01*
X213375000Y-176425000D01*
X212726250Y-176425000D01*
X212570000Y-176581250D01*
X212567712Y-177125000D01*
X212088286Y-177125000D01*
X212023699Y-177046301D01*
X211830032Y-176887362D01*
X211609079Y-176769260D01*
X211369330Y-176696533D01*
X211120000Y-176671976D01*
X209820000Y-176671976D01*
X209570670Y-176696533D01*
X209330921Y-176769260D01*
X209109968Y-176887362D01*
X208916301Y-177046301D01*
X208851714Y-177125000D01*
X203762310Y-177125000D01*
X203703102Y-177113223D01*
X203663343Y-177086657D01*
X203636777Y-177046898D01*
X203625000Y-176987690D01*
X203625000Y-175300000D01*
X212566976Y-175300000D01*
X212570000Y-176018750D01*
X212726250Y-176175000D01*
X213375000Y-176175000D01*
X213375000Y-175300000D01*
X213566976Y-175300000D01*
X213570000Y-176018750D01*
X213625000Y-176073750D01*
X213625000Y-176175000D01*
X214375000Y-176175000D01*
X214375000Y-176073750D01*
X214430000Y-176018750D01*
X214433024Y-175300000D01*
X214420957Y-175177479D01*
X214385219Y-175059666D01*
X214375000Y-175040548D01*
X214375000Y-174831250D01*
X214218750Y-174675000D01*
X214195000Y-174671976D01*
X214072479Y-174684043D01*
X214000000Y-174706029D01*
X213927521Y-174684043D01*
X213805000Y-174671976D01*
X213781250Y-174675000D01*
X213625000Y-174831250D01*
X213625000Y-175040548D01*
X213614781Y-175059666D01*
X213579043Y-175177479D01*
X213566976Y-175300000D01*
X213375000Y-175300000D01*
X213375000Y-174831250D01*
X213218750Y-174675000D01*
X213195000Y-174671976D01*
X213072479Y-174684043D01*
X212954666Y-174719781D01*
X212846089Y-174777817D01*
X212750920Y-174855920D01*
X212672817Y-174951089D01*
X212614781Y-175059666D01*
X212579043Y-175177479D01*
X212566976Y-175300000D01*
X203625000Y-175300000D01*
X203625000Y-153300000D01*
X204771976Y-153300000D01*
X204784043Y-153422521D01*
X204819781Y-153540334D01*
X204877817Y-153648911D01*
X204955920Y-153744080D01*
X205051089Y-153822183D01*
X205159666Y-153880219D01*
X205277479Y-153915957D01*
X205400000Y-153928024D01*
X206118750Y-153925000D01*
X206275000Y-153768750D01*
X206275000Y-152675000D01*
X206525000Y-152675000D01*
X206525000Y-153768750D01*
X206681250Y-153925000D01*
X207400000Y-153928024D01*
X207522521Y-153915957D01*
X207640334Y-153880219D01*
X207748911Y-153822183D01*
X207844080Y-153744080D01*
X207922183Y-153648911D01*
X207980219Y-153540334D01*
X208015957Y-153422521D01*
X208028024Y-153300000D01*
X208025000Y-152831250D01*
X207868750Y-152675000D01*
X206525000Y-152675000D01*
X206275000Y-152675000D01*
X204931250Y-152675000D01*
X204775000Y-152831250D01*
X204771976Y-153300000D01*
X203625000Y-153300000D01*
X203625000Y-151762310D01*
X203636777Y-151703102D01*
X203663343Y-151663343D01*
X203703102Y-151636777D01*
X203762310Y-151625000D01*
X204799962Y-151625000D01*
X204784043Y-151677479D01*
X204771976Y-151800000D01*
X204775000Y-152268750D01*
X204931250Y-152425000D01*
X206275000Y-152425000D01*
X206275000Y-152405000D01*
X206525000Y-152405000D01*
X206525000Y-152425000D01*
X207868750Y-152425000D01*
X208025000Y-152268750D01*
X208026234Y-152077445D01*
X208080920Y-152144080D01*
X208176089Y-152222183D01*
X208284666Y-152280219D01*
X208402479Y-152315957D01*
X208525000Y-152328024D01*
X208968750Y-152325000D01*
X209125000Y-152168750D01*
X209125000Y-151325000D01*
X209375000Y-151325000D01*
X209375000Y-152168750D01*
X209531250Y-152325000D01*
X209975000Y-152328024D01*
X210097521Y-152315957D01*
X210215334Y-152280219D01*
X210323911Y-152222183D01*
X210419080Y-152144080D01*
X210497183Y-152048911D01*
X210555219Y-151940334D01*
X210590957Y-151822521D01*
X210603024Y-151700000D01*
X210600000Y-151481250D01*
X210443750Y-151325000D01*
X209375000Y-151325000D01*
X209125000Y-151325000D01*
X209105000Y-151325000D01*
X209105000Y-151075000D01*
X209125000Y-151075000D01*
X209125000Y-151055000D01*
X209375000Y-151055000D01*
X209375000Y-151075000D01*
X210443750Y-151075000D01*
X210600000Y-150918750D01*
X210603024Y-150700000D01*
X210595637Y-150625000D01*
X214487690Y-150625000D01*
X214546898Y-150636777D01*
%TA.AperFunction,Conductor*%
D17*
G36*
X214546898Y-150636777D02*
G01*
X214586657Y-150663343D01*
X214613223Y-150703102D01*
X214625000Y-150762310D01*
X214625000Y-175040548D01*
X214614781Y-175059666D01*
X214579043Y-175177479D01*
X214566976Y-175300000D01*
X214570000Y-176018750D01*
X214625000Y-176073750D01*
X214625000Y-176175000D01*
X215375000Y-176175000D01*
X215375000Y-176155000D01*
X215566976Y-176155000D01*
X215566976Y-176445000D01*
X215375000Y-176445000D01*
X215375000Y-176425000D01*
X214625000Y-176425000D01*
X214625000Y-176445000D01*
X214375000Y-176445000D01*
X214375000Y-176425000D01*
X213625000Y-176425000D01*
X213625000Y-176445000D01*
X213375000Y-176445000D01*
X213375000Y-176425000D01*
X212726250Y-176425000D01*
X212570000Y-176581250D01*
X212567712Y-177125000D01*
X212088286Y-177125000D01*
X212023699Y-177046301D01*
X211830032Y-176887362D01*
X211609079Y-176769260D01*
X211369330Y-176696533D01*
X211120000Y-176671976D01*
X209820000Y-176671976D01*
X209570670Y-176696533D01*
X209330921Y-176769260D01*
X209109968Y-176887362D01*
X208916301Y-177046301D01*
X208851714Y-177125000D01*
X203762310Y-177125000D01*
X203703102Y-177113223D01*
X203663343Y-177086657D01*
X203636777Y-177046898D01*
X203625000Y-176987690D01*
X203625000Y-175300000D01*
X212566976Y-175300000D01*
X212570000Y-176018750D01*
X212726250Y-176175000D01*
X213375000Y-176175000D01*
X213375000Y-175300000D01*
X213566976Y-175300000D01*
X213570000Y-176018750D01*
X213625000Y-176073750D01*
X213625000Y-176175000D01*
X214375000Y-176175000D01*
X214375000Y-176073750D01*
X214430000Y-176018750D01*
X214433024Y-175300000D01*
X214420957Y-175177479D01*
X214385219Y-175059666D01*
X214375000Y-175040548D01*
X214375000Y-174831250D01*
X214218750Y-174675000D01*
X214195000Y-174671976D01*
X214072479Y-174684043D01*
X214000000Y-174706029D01*
X213927521Y-174684043D01*
X213805000Y-174671976D01*
X213781250Y-174675000D01*
X213625000Y-174831250D01*
X213625000Y-175040548D01*
X213614781Y-175059666D01*
X213579043Y-175177479D01*
X213566976Y-175300000D01*
X213375000Y-175300000D01*
X213375000Y-174831250D01*
X213218750Y-174675000D01*
X213195000Y-174671976D01*
X213072479Y-174684043D01*
X212954666Y-174719781D01*
X212846089Y-174777817D01*
X212750920Y-174855920D01*
X212672817Y-174951089D01*
X212614781Y-175059666D01*
X212579043Y-175177479D01*
X212566976Y-175300000D01*
X203625000Y-175300000D01*
X203625000Y-153300000D01*
X204771976Y-153300000D01*
X204784043Y-153422521D01*
X204819781Y-153540334D01*
X204877817Y-153648911D01*
X204955920Y-153744080D01*
X205051089Y-153822183D01*
X205159666Y-153880219D01*
X205277479Y-153915957D01*
X205400000Y-153928024D01*
X206118750Y-153925000D01*
X206275000Y-153768750D01*
X206275000Y-152675000D01*
X206525000Y-152675000D01*
X206525000Y-153768750D01*
X206681250Y-153925000D01*
X207400000Y-153928024D01*
X207522521Y-153915957D01*
X207640334Y-153880219D01*
X207748911Y-153822183D01*
X207844080Y-153744080D01*
X207922183Y-153648911D01*
X207980219Y-153540334D01*
X208015957Y-153422521D01*
X208028024Y-153300000D01*
X208025000Y-152831250D01*
X207868750Y-152675000D01*
X206525000Y-152675000D01*
X206275000Y-152675000D01*
X204931250Y-152675000D01*
X204775000Y-152831250D01*
X204771976Y-153300000D01*
X203625000Y-153300000D01*
X203625000Y-151762310D01*
X203636777Y-151703102D01*
X203663343Y-151663343D01*
X203703102Y-151636777D01*
X203762310Y-151625000D01*
X204799962Y-151625000D01*
X204784043Y-151677479D01*
X204771976Y-151800000D01*
X204775000Y-152268750D01*
X204931250Y-152425000D01*
X206275000Y-152425000D01*
X206275000Y-152405000D01*
X206525000Y-152405000D01*
X206525000Y-152425000D01*
X207868750Y-152425000D01*
X208025000Y-152268750D01*
X208026234Y-152077445D01*
X208080920Y-152144080D01*
X208176089Y-152222183D01*
X208284666Y-152280219D01*
X208402479Y-152315957D01*
X208525000Y-152328024D01*
X208968750Y-152325000D01*
X209125000Y-152168750D01*
X209125000Y-151325000D01*
X209375000Y-151325000D01*
X209375000Y-152168750D01*
X209531250Y-152325000D01*
X209975000Y-152328024D01*
X210097521Y-152315957D01*
X210215334Y-152280219D01*
X210323911Y-152222183D01*
X210419080Y-152144080D01*
X210497183Y-152048911D01*
X210555219Y-151940334D01*
X210590957Y-151822521D01*
X210603024Y-151700000D01*
X210600000Y-151481250D01*
X210443750Y-151325000D01*
X209375000Y-151325000D01*
X209125000Y-151325000D01*
X209105000Y-151325000D01*
X209105000Y-151075000D01*
X209125000Y-151075000D01*
X209125000Y-151055000D01*
X209375000Y-151055000D01*
X209375000Y-151075000D01*
X210443750Y-151075000D01*
X210600000Y-150918750D01*
X210603024Y-150700000D01*
X210595637Y-150625000D01*
X214487690Y-150625000D01*
X214546898Y-150636777D01*
G37*
%TD.AperFunction*%
%TD*%
D16*
%TO.N,+3V3*%
X197725000Y-141468750D02*
X197881250Y-141625000D01*
X198625000Y-141625000D01*
X198625000Y-141605000D01*
X198875000Y-141605000D01*
X198875000Y-141625000D01*
X199618750Y-141625000D01*
X199775000Y-141468750D01*
X199776680Y-141375000D01*
X202737690Y-141375000D01*
X202796898Y-141386777D01*
X202836657Y-141413343D01*
X202863223Y-141453102D01*
X202875000Y-141512310D01*
X202875000Y-143654363D01*
X202800000Y-143646976D01*
X202581250Y-143650000D01*
X202425000Y-143806250D01*
X202425000Y-144875000D01*
X202445000Y-144875000D01*
X202445000Y-145125000D01*
X202425000Y-145125000D01*
X202425000Y-146193750D01*
X202581250Y-146350000D01*
X202800000Y-146353024D01*
X202875000Y-146345637D01*
X202875000Y-149250000D01*
X202877402Y-149274386D01*
X202896432Y-149370057D01*
X202903545Y-149393506D01*
X202915096Y-149415117D01*
X202969289Y-149496223D01*
X202984834Y-149515165D01*
X203003777Y-149530711D01*
X203084883Y-149584904D01*
X203106494Y-149596455D01*
X203129943Y-149603568D01*
X203225614Y-149622598D01*
X203250000Y-149625000D01*
X204772782Y-149625000D01*
X204775000Y-149968750D01*
X204931250Y-150125000D01*
X206275000Y-150125000D01*
X206275000Y-150105000D01*
X206525000Y-150105000D01*
X206525000Y-150125000D01*
X206545000Y-150125000D01*
X206545000Y-150375000D01*
X206525000Y-150375000D01*
X206525000Y-150395000D01*
X206275000Y-150395000D01*
X206275000Y-150375000D01*
X204931250Y-150375000D01*
X204775000Y-150531250D01*
X204772782Y-150875000D01*
X203250000Y-150875000D01*
X203225614Y-150877402D01*
X203129943Y-150896432D01*
X203106494Y-150903545D01*
X203084883Y-150915096D01*
X203003777Y-150969289D01*
X202984835Y-150984834D01*
X202969289Y-151003777D01*
X202915096Y-151084883D01*
X202903545Y-151106494D01*
X202896432Y-151129943D01*
X202877402Y-151225614D01*
X202875000Y-151250000D01*
X202875000Y-176987690D01*
X202863223Y-177046898D01*
X202836657Y-177086657D01*
X202796898Y-177113223D01*
X202737690Y-177125000D01*
X199115863Y-177125000D01*
X199056656Y-177113223D01*
X199006457Y-177079681D01*
X195420319Y-173493543D01*
X195386777Y-173443344D01*
X195375000Y-173384137D01*
X195375000Y-152150000D01*
X198471976Y-152150000D01*
X198484043Y-152272521D01*
X198519781Y-152390334D01*
X198577817Y-152498911D01*
X198655920Y-152594080D01*
X198751089Y-152672183D01*
X198859666Y-152730219D01*
X198977479Y-152765957D01*
X199100000Y-152778024D01*
X199818750Y-152775000D01*
X199975000Y-152618750D01*
X199975000Y-150375000D01*
X200225000Y-150375000D01*
X200225000Y-152618750D01*
X200381250Y-152775000D01*
X201100000Y-152778024D01*
X201222521Y-152765957D01*
X201340334Y-152730219D01*
X201448911Y-152672183D01*
X201544080Y-152594080D01*
X201622183Y-152498911D01*
X201680219Y-152390334D01*
X201715957Y-152272521D01*
X201728024Y-152150000D01*
X201725000Y-150531250D01*
X201568750Y-150375000D01*
X200225000Y-150375000D01*
X199975000Y-150375000D01*
X198631250Y-150375000D01*
X198475000Y-150531250D01*
X198471976Y-152150000D01*
X195375000Y-152150000D01*
X195375000Y-148350000D01*
X198471976Y-148350000D01*
X198475000Y-149968750D01*
X198631250Y-150125000D01*
X199975000Y-150125000D01*
X199975000Y-147881250D01*
X200225000Y-147881250D01*
X200225000Y-150125000D01*
X201568750Y-150125000D01*
X201725000Y-149968750D01*
X201728024Y-148350000D01*
X201715957Y-148227479D01*
X201680219Y-148109666D01*
X201622183Y-148001089D01*
X201544080Y-147905920D01*
X201448911Y-147827817D01*
X201340334Y-147769781D01*
X201222521Y-147734043D01*
X201100000Y-147721976D01*
X200381250Y-147725000D01*
X200225000Y-147881250D01*
X199975000Y-147881250D01*
X199818750Y-147725000D01*
X199100000Y-147721976D01*
X198977479Y-147734043D01*
X198859666Y-147769781D01*
X198751089Y-147827817D01*
X198655920Y-147905920D01*
X198577817Y-148001089D01*
X198519781Y-148109666D01*
X198484043Y-148227479D01*
X198471976Y-148350000D01*
X195375000Y-148350000D01*
X195375000Y-145725000D01*
X201171976Y-145725000D01*
X201184043Y-145847521D01*
X201219781Y-145965334D01*
X201277817Y-146073911D01*
X201355920Y-146169080D01*
X201451089Y-146247183D01*
X201559666Y-146305219D01*
X201677479Y-146340957D01*
X201800000Y-146353024D01*
X202018750Y-146350000D01*
X202175000Y-146193750D01*
X202175000Y-145125000D01*
X201331250Y-145125000D01*
X201175000Y-145281250D01*
X201171976Y-145725000D01*
X195375000Y-145725000D01*
X195375000Y-144275000D01*
X201171976Y-144275000D01*
X201175000Y-144718750D01*
X201331250Y-144875000D01*
X202175000Y-144875000D01*
X202175000Y-143806250D01*
X202018750Y-143650000D01*
X201800000Y-143646976D01*
X201677479Y-143659043D01*
X201559666Y-143694781D01*
X201451089Y-143752817D01*
X201355920Y-143830920D01*
X201277817Y-143926089D01*
X201219781Y-144034666D01*
X201184043Y-144152479D01*
X201171976Y-144275000D01*
X195375000Y-144275000D01*
X195375000Y-142200000D01*
X197721976Y-142200000D01*
X197734043Y-142322521D01*
X197769781Y-142440334D01*
X197827817Y-142548911D01*
X197905920Y-142644080D01*
X198001089Y-142722183D01*
X198109666Y-142780219D01*
X198227479Y-142815957D01*
X198350000Y-142828024D01*
X198468750Y-142825000D01*
X198625000Y-142668750D01*
X198625000Y-141875000D01*
X198875000Y-141875000D01*
X198875000Y-142668750D01*
X199031250Y-142825000D01*
X199150000Y-142828024D01*
X199272521Y-142815957D01*
X199390334Y-142780219D01*
X199498911Y-142722183D01*
X199594080Y-142644080D01*
X199672183Y-142548911D01*
X199730219Y-142440334D01*
X199765957Y-142322521D01*
X199778024Y-142200000D01*
X199775000Y-142031250D01*
X199618750Y-141875000D01*
X198875000Y-141875000D01*
X198625000Y-141875000D01*
X197881250Y-141875000D01*
X197725000Y-142031250D01*
X197721976Y-142200000D01*
X195375000Y-142200000D01*
X195375000Y-141512310D01*
X195386777Y-141453102D01*
X195413343Y-141413343D01*
X195453102Y-141386777D01*
X195512310Y-141375000D01*
X197723320Y-141375000D01*
X197725000Y-141468750D01*
%TA.AperFunction,Conductor*%
D17*
G36*
X197725000Y-141468750D02*
G01*
X197881250Y-141625000D01*
X198625000Y-141625000D01*
X198625000Y-141605000D01*
X198875000Y-141605000D01*
X198875000Y-141625000D01*
X199618750Y-141625000D01*
X199775000Y-141468750D01*
X199776680Y-141375000D01*
X202737690Y-141375000D01*
X202796898Y-141386777D01*
X202836657Y-141413343D01*
X202863223Y-141453102D01*
X202875000Y-141512310D01*
X202875000Y-143654363D01*
X202800000Y-143646976D01*
X202581250Y-143650000D01*
X202425000Y-143806250D01*
X202425000Y-144875000D01*
X202445000Y-144875000D01*
X202445000Y-145125000D01*
X202425000Y-145125000D01*
X202425000Y-146193750D01*
X202581250Y-146350000D01*
X202800000Y-146353024D01*
X202875000Y-146345637D01*
X202875000Y-149250000D01*
X202877402Y-149274386D01*
X202896432Y-149370057D01*
X202903545Y-149393506D01*
X202915096Y-149415117D01*
X202969289Y-149496223D01*
X202984834Y-149515165D01*
X203003777Y-149530711D01*
X203084883Y-149584904D01*
X203106494Y-149596455D01*
X203129943Y-149603568D01*
X203225614Y-149622598D01*
X203250000Y-149625000D01*
X204772782Y-149625000D01*
X204775000Y-149968750D01*
X204931250Y-150125000D01*
X206275000Y-150125000D01*
X206275000Y-150105000D01*
X206525000Y-150105000D01*
X206525000Y-150125000D01*
X206545000Y-150125000D01*
X206545000Y-150375000D01*
X206525000Y-150375000D01*
X206525000Y-150395000D01*
X206275000Y-150395000D01*
X206275000Y-150375000D01*
X204931250Y-150375000D01*
X204775000Y-150531250D01*
X204772782Y-150875000D01*
X203250000Y-150875000D01*
X203225614Y-150877402D01*
X203129943Y-150896432D01*
X203106494Y-150903545D01*
X203084883Y-150915096D01*
X203003777Y-150969289D01*
X202984835Y-150984834D01*
X202969289Y-151003777D01*
X202915096Y-151084883D01*
X202903545Y-151106494D01*
X202896432Y-151129943D01*
X202877402Y-151225614D01*
X202875000Y-151250000D01*
X202875000Y-176987690D01*
X202863223Y-177046898D01*
X202836657Y-177086657D01*
X202796898Y-177113223D01*
X202737690Y-177125000D01*
X199115863Y-177125000D01*
X199056656Y-177113223D01*
X199006457Y-177079681D01*
X195420319Y-173493543D01*
X195386777Y-173443344D01*
X195375000Y-173384137D01*
X195375000Y-152150000D01*
X198471976Y-152150000D01*
X198484043Y-152272521D01*
X198519781Y-152390334D01*
X198577817Y-152498911D01*
X198655920Y-152594080D01*
X198751089Y-152672183D01*
X198859666Y-152730219D01*
X198977479Y-152765957D01*
X199100000Y-152778024D01*
X199818750Y-152775000D01*
X199975000Y-152618750D01*
X199975000Y-150375000D01*
X200225000Y-150375000D01*
X200225000Y-152618750D01*
X200381250Y-152775000D01*
X201100000Y-152778024D01*
X201222521Y-152765957D01*
X201340334Y-152730219D01*
X201448911Y-152672183D01*
X201544080Y-152594080D01*
X201622183Y-152498911D01*
X201680219Y-152390334D01*
X201715957Y-152272521D01*
X201728024Y-152150000D01*
X201725000Y-150531250D01*
X201568750Y-150375000D01*
X200225000Y-150375000D01*
X199975000Y-150375000D01*
X198631250Y-150375000D01*
X198475000Y-150531250D01*
X198471976Y-152150000D01*
X195375000Y-152150000D01*
X195375000Y-148350000D01*
X198471976Y-148350000D01*
X198475000Y-149968750D01*
X198631250Y-150125000D01*
X199975000Y-150125000D01*
X199975000Y-147881250D01*
X200225000Y-147881250D01*
X200225000Y-150125000D01*
X201568750Y-150125000D01*
X201725000Y-149968750D01*
X201728024Y-148350000D01*
X201715957Y-148227479D01*
X201680219Y-148109666D01*
X201622183Y-148001089D01*
X201544080Y-147905920D01*
X201448911Y-147827817D01*
X201340334Y-147769781D01*
X201222521Y-147734043D01*
X201100000Y-147721976D01*
X200381250Y-147725000D01*
X200225000Y-147881250D01*
X199975000Y-147881250D01*
X199818750Y-147725000D01*
X199100000Y-147721976D01*
X198977479Y-147734043D01*
X198859666Y-147769781D01*
X198751089Y-147827817D01*
X198655920Y-147905920D01*
X198577817Y-148001089D01*
X198519781Y-148109666D01*
X198484043Y-148227479D01*
X198471976Y-148350000D01*
X195375000Y-148350000D01*
X195375000Y-145725000D01*
X201171976Y-145725000D01*
X201184043Y-145847521D01*
X201219781Y-145965334D01*
X201277817Y-146073911D01*
X201355920Y-146169080D01*
X201451089Y-146247183D01*
X201559666Y-146305219D01*
X201677479Y-146340957D01*
X201800000Y-146353024D01*
X202018750Y-146350000D01*
X202175000Y-146193750D01*
X202175000Y-145125000D01*
X201331250Y-145125000D01*
X201175000Y-145281250D01*
X201171976Y-145725000D01*
X195375000Y-145725000D01*
X195375000Y-144275000D01*
X201171976Y-144275000D01*
X201175000Y-144718750D01*
X201331250Y-144875000D01*
X202175000Y-144875000D01*
X202175000Y-143806250D01*
X202018750Y-143650000D01*
X201800000Y-143646976D01*
X201677479Y-143659043D01*
X201559666Y-143694781D01*
X201451089Y-143752817D01*
X201355920Y-143830920D01*
X201277817Y-143926089D01*
X201219781Y-144034666D01*
X201184043Y-144152479D01*
X201171976Y-144275000D01*
X195375000Y-144275000D01*
X195375000Y-142200000D01*
X197721976Y-142200000D01*
X197734043Y-142322521D01*
X197769781Y-142440334D01*
X197827817Y-142548911D01*
X197905920Y-142644080D01*
X198001089Y-142722183D01*
X198109666Y-142780219D01*
X198227479Y-142815957D01*
X198350000Y-142828024D01*
X198468750Y-142825000D01*
X198625000Y-142668750D01*
X198625000Y-141875000D01*
X198875000Y-141875000D01*
X198875000Y-142668750D01*
X199031250Y-142825000D01*
X199150000Y-142828024D01*
X199272521Y-142815957D01*
X199390334Y-142780219D01*
X199498911Y-142722183D01*
X199594080Y-142644080D01*
X199672183Y-142548911D01*
X199730219Y-142440334D01*
X199765957Y-142322521D01*
X199778024Y-142200000D01*
X199775000Y-142031250D01*
X199618750Y-141875000D01*
X198875000Y-141875000D01*
X198625000Y-141875000D01*
X197881250Y-141875000D01*
X197725000Y-142031250D01*
X197721976Y-142200000D01*
X195375000Y-142200000D01*
X195375000Y-141512310D01*
X195386777Y-141453102D01*
X195413343Y-141413343D01*
X195453102Y-141386777D01*
X195512310Y-141375000D01*
X197723320Y-141375000D01*
X197725000Y-141468750D01*
G37*
%TD.AperFunction*%
%TD*%
M02*
