%TF.GenerationSoftware,KiCad,Pcbnew,5.1.10*%
%TF.CreationDate,2021-12-05T17:02:08-05:00*%
%TF.ProjectId,display,64697370-6c61-4792-9e6b-696361645f70,v1.0*%
%TF.SameCoordinates,Original*%
%TF.FileFunction,Profile,NP*%
%FSLAX46Y46*%
G04 Gerber Fmt 4.6, Leading zero omitted, Abs format (unit mm)*
G04 Created by KiCad (PCBNEW 5.1.10) date 2021-12-05 17:02:08*
%MOMM*%
%LPD*%
G01*
G04 APERTURE LIST*
%TA.AperFunction,Profile*%
%ADD10C,0.050000*%
%TD*%
G04 APERTURE END LIST*
D10*
X230750000Y-115500000D02*
G75*
G02*
X231250000Y-116000000I0J-500000D01*
G01*
X231250000Y-120250000D02*
G75*
G02*
X230750000Y-120750000I-500000J0D01*
G01*
X209250000Y-120750000D02*
G75*
G02*
X208750000Y-120250000I0J500000D01*
G01*
X208750000Y-116000000D02*
G75*
G02*
X209250000Y-115500000I500000J0D01*
G01*
X230750000Y-115500000D02*
X209250000Y-115500000D01*
X231250000Y-120250000D02*
X231250000Y-116000000D01*
X209250000Y-120750000D02*
X230750000Y-120750000D01*
X208750000Y-116000000D02*
X208750000Y-120250000D01*
X231500000Y-105250000D02*
G75*
G02*
X231000000Y-105750000I-500000J0D01*
G01*
X222000000Y-105750000D02*
G75*
G02*
X221500000Y-105250000I0J500000D01*
G01*
X221500000Y-84750000D02*
G75*
G02*
X222000000Y-84250000I500000J0D01*
G01*
X231000000Y-84250000D02*
G75*
G02*
X231500000Y-84750000I0J-500000D01*
G01*
X222000000Y-84250000D02*
X231000000Y-84250000D01*
X221500000Y-105250000D02*
X221500000Y-84750000D01*
X231000000Y-105750000D02*
X222000000Y-105750000D01*
X231500000Y-84750000D02*
X231500000Y-105250000D01*
X249000000Y-180000000D02*
X249000000Y-80000000D01*
X249000000Y-180000000D02*
G75*
G02*
X245000000Y-184000000I-4000000J0D01*
G01*
X195000000Y-184000000D02*
G75*
G02*
X191000000Y-180000000I0J4000000D01*
G01*
X195000000Y-184000000D02*
X245000000Y-184000000D01*
X191000000Y-80000000D02*
X191000000Y-180000000D01*
X195000000Y-76000000D02*
X245000000Y-76000000D01*
X191000000Y-80000000D02*
G75*
G02*
X195000000Y-76000000I4000000J0D01*
G01*
X245000000Y-76000000D02*
G75*
G02*
X249000000Y-80000000I0J-4000000D01*
G01*
M02*
