%TF.GenerationSoftware,KiCad,Pcbnew,5.1.10*%
%TF.CreationDate,2021-12-05T17:02:08-05:00*%
%TF.ProjectId,display,64697370-6c61-4792-9e6b-696361645f70,v1.0*%
%TF.SameCoordinates,Original*%
%TF.FileFunction,Soldermask,Bot*%
%TF.FilePolarity,Negative*%
%FSLAX46Y46*%
G04 Gerber Fmt 4.6, Leading zero omitted, Abs format (unit mm)*
G04 Created by KiCad (PCBNEW 5.1.10) date 2021-12-05 17:02:08*
%MOMM*%
%LPD*%
G01*
G04 APERTURE LIST*
%ADD10C,3.200000*%
%ADD11R,2.000000X1.500000*%
%ADD12R,2.000000X3.800000*%
%ADD13R,0.800000X0.900000*%
G04 APERTURE END LIST*
%TO.C,C1*%
G36*
G01*
X230500000Y-135600000D02*
X231000000Y-135600000D01*
G75*
G02*
X231225000Y-135825000I0J-225000D01*
G01*
X231225000Y-136275000D01*
G75*
G02*
X231000000Y-136500000I-225000J0D01*
G01*
X230500000Y-136500000D01*
G75*
G02*
X230275000Y-136275000I0J225000D01*
G01*
X230275000Y-135825000D01*
G75*
G02*
X230500000Y-135600000I225000J0D01*
G01*
G37*
G36*
G01*
X230500000Y-134050000D02*
X231000000Y-134050000D01*
G75*
G02*
X231225000Y-134275000I0J-225000D01*
G01*
X231225000Y-134725000D01*
G75*
G02*
X231000000Y-134950000I-225000J0D01*
G01*
X230500000Y-134950000D01*
G75*
G02*
X230275000Y-134725000I0J225000D01*
G01*
X230275000Y-134275000D01*
G75*
G02*
X230500000Y-134050000I225000J0D01*
G01*
G37*
%TD*%
%TO.C,C2*%
G36*
G01*
X228500000Y-135600000D02*
X229000000Y-135600000D01*
G75*
G02*
X229225000Y-135825000I0J-225000D01*
G01*
X229225000Y-136275000D01*
G75*
G02*
X229000000Y-136500000I-225000J0D01*
G01*
X228500000Y-136500000D01*
G75*
G02*
X228275000Y-136275000I0J225000D01*
G01*
X228275000Y-135825000D01*
G75*
G02*
X228500000Y-135600000I225000J0D01*
G01*
G37*
G36*
G01*
X228500000Y-134050000D02*
X229000000Y-134050000D01*
G75*
G02*
X229225000Y-134275000I0J-225000D01*
G01*
X229225000Y-134725000D01*
G75*
G02*
X229000000Y-134950000I-225000J0D01*
G01*
X228500000Y-134950000D01*
G75*
G02*
X228275000Y-134725000I0J225000D01*
G01*
X228275000Y-134275000D01*
G75*
G02*
X228500000Y-134050000I225000J0D01*
G01*
G37*
%TD*%
%TO.C,C3*%
G36*
G01*
X209725000Y-149800000D02*
X208775000Y-149800000D01*
G75*
G02*
X208525000Y-149550000I0J250000D01*
G01*
X208525000Y-149050000D01*
G75*
G02*
X208775000Y-148800000I250000J0D01*
G01*
X209725000Y-148800000D01*
G75*
G02*
X209975000Y-149050000I0J-250000D01*
G01*
X209975000Y-149550000D01*
G75*
G02*
X209725000Y-149800000I-250000J0D01*
G01*
G37*
G36*
G01*
X209725000Y-151700000D02*
X208775000Y-151700000D01*
G75*
G02*
X208525000Y-151450000I0J250000D01*
G01*
X208525000Y-150950000D01*
G75*
G02*
X208775000Y-150700000I250000J0D01*
G01*
X209725000Y-150700000D01*
G75*
G02*
X209975000Y-150950000I0J-250000D01*
G01*
X209975000Y-151450000D01*
G75*
G02*
X209725000Y-151700000I-250000J0D01*
G01*
G37*
%TD*%
%TO.C,C4*%
G36*
G01*
X203700000Y-145475000D02*
X203700000Y-144525000D01*
G75*
G02*
X203950000Y-144275000I250000J0D01*
G01*
X204450000Y-144275000D01*
G75*
G02*
X204700000Y-144525000I0J-250000D01*
G01*
X204700000Y-145475000D01*
G75*
G02*
X204450000Y-145725000I-250000J0D01*
G01*
X203950000Y-145725000D01*
G75*
G02*
X203700000Y-145475000I0J250000D01*
G01*
G37*
G36*
G01*
X201800000Y-145475000D02*
X201800000Y-144525000D01*
G75*
G02*
X202050000Y-144275000I250000J0D01*
G01*
X202550000Y-144275000D01*
G75*
G02*
X202800000Y-144525000I0J-250000D01*
G01*
X202800000Y-145475000D01*
G75*
G02*
X202550000Y-145725000I-250000J0D01*
G01*
X202050000Y-145725000D01*
G75*
G02*
X201800000Y-145475000I0J250000D01*
G01*
G37*
%TD*%
%TO.C,C5*%
G36*
G01*
X225150000Y-111500000D02*
X225150000Y-112000000D01*
G75*
G02*
X224925000Y-112225000I-225000J0D01*
G01*
X224475000Y-112225000D01*
G75*
G02*
X224250000Y-112000000I0J225000D01*
G01*
X224250000Y-111500000D01*
G75*
G02*
X224475000Y-111275000I225000J0D01*
G01*
X224925000Y-111275000D01*
G75*
G02*
X225150000Y-111500000I0J-225000D01*
G01*
G37*
G36*
G01*
X226700000Y-111500000D02*
X226700000Y-112000000D01*
G75*
G02*
X226475000Y-112225000I-225000J0D01*
G01*
X226025000Y-112225000D01*
G75*
G02*
X225800000Y-112000000I0J225000D01*
G01*
X225800000Y-111500000D01*
G75*
G02*
X226025000Y-111275000I225000J0D01*
G01*
X226475000Y-111275000D01*
G75*
G02*
X226700000Y-111500000I0J-225000D01*
G01*
G37*
%TD*%
D10*
%TO.C,H1*%
X195000000Y-80000000D03*
%TD*%
%TO.C,H2*%
X245000000Y-80000000D03*
%TD*%
%TO.C,H3*%
X195000000Y-180000000D03*
%TD*%
%TO.C,H4*%
X245000000Y-180000000D03*
%TD*%
%TO.C,J1*%
G36*
G01*
X226805000Y-175452500D02*
X226805000Y-177147500D01*
G75*
G02*
X226652500Y-177300000I-152500J0D01*
G01*
X226347500Y-177300000D01*
G75*
G02*
X226195000Y-177147500I0J152500D01*
G01*
X226195000Y-175452500D01*
G75*
G02*
X226347500Y-175300000I152500J0D01*
G01*
X226652500Y-175300000D01*
G75*
G02*
X226805000Y-175452500I0J-152500D01*
G01*
G37*
G36*
G01*
X225805000Y-175452500D02*
X225805000Y-177147500D01*
G75*
G02*
X225652500Y-177300000I-152500J0D01*
G01*
X225347500Y-177300000D01*
G75*
G02*
X225195000Y-177147500I0J152500D01*
G01*
X225195000Y-175452500D01*
G75*
G02*
X225347500Y-175300000I152500J0D01*
G01*
X225652500Y-175300000D01*
G75*
G02*
X225805000Y-175452500I0J-152500D01*
G01*
G37*
G36*
G01*
X224805000Y-175452500D02*
X224805000Y-177147500D01*
G75*
G02*
X224652500Y-177300000I-152500J0D01*
G01*
X224347500Y-177300000D01*
G75*
G02*
X224195000Y-177147500I0J152500D01*
G01*
X224195000Y-175452500D01*
G75*
G02*
X224347500Y-175300000I152500J0D01*
G01*
X224652500Y-175300000D01*
G75*
G02*
X224805000Y-175452500I0J-152500D01*
G01*
G37*
G36*
G01*
X223805000Y-175452500D02*
X223805000Y-177147500D01*
G75*
G02*
X223652500Y-177300000I-152500J0D01*
G01*
X223347500Y-177300000D01*
G75*
G02*
X223195000Y-177147500I0J152500D01*
G01*
X223195000Y-175452500D01*
G75*
G02*
X223347500Y-175300000I152500J0D01*
G01*
X223652500Y-175300000D01*
G75*
G02*
X223805000Y-175452500I0J-152500D01*
G01*
G37*
G36*
G01*
X222805000Y-175452500D02*
X222805000Y-177147500D01*
G75*
G02*
X222652500Y-177300000I-152500J0D01*
G01*
X222347500Y-177300000D01*
G75*
G02*
X222195000Y-177147500I0J152500D01*
G01*
X222195000Y-175452500D01*
G75*
G02*
X222347500Y-175300000I152500J0D01*
G01*
X222652500Y-175300000D01*
G75*
G02*
X222805000Y-175452500I0J-152500D01*
G01*
G37*
G36*
G01*
X221805000Y-175452500D02*
X221805000Y-177147500D01*
G75*
G02*
X221652500Y-177300000I-152500J0D01*
G01*
X221347500Y-177300000D01*
G75*
G02*
X221195000Y-177147500I0J152500D01*
G01*
X221195000Y-175452500D01*
G75*
G02*
X221347500Y-175300000I152500J0D01*
G01*
X221652500Y-175300000D01*
G75*
G02*
X221805000Y-175452500I0J-152500D01*
G01*
G37*
G36*
G01*
X220805000Y-175452500D02*
X220805000Y-177147500D01*
G75*
G02*
X220652500Y-177300000I-152500J0D01*
G01*
X220347500Y-177300000D01*
G75*
G02*
X220195000Y-177147500I0J152500D01*
G01*
X220195000Y-175452500D01*
G75*
G02*
X220347500Y-175300000I152500J0D01*
G01*
X220652500Y-175300000D01*
G75*
G02*
X220805000Y-175452500I0J-152500D01*
G01*
G37*
G36*
G01*
X230830000Y-177950000D02*
X230830000Y-180250000D01*
G75*
G02*
X230180000Y-180900000I-650000J0D01*
G01*
X228880000Y-180900000D01*
G75*
G02*
X228230000Y-180250000I0J650000D01*
G01*
X228230000Y-177950000D01*
G75*
G02*
X228880000Y-177300000I650000J0D01*
G01*
X230180000Y-177300000D01*
G75*
G02*
X230830000Y-177950000I0J-650000D01*
G01*
G37*
G36*
G01*
X219805000Y-175452500D02*
X219805000Y-177147500D01*
G75*
G02*
X219652500Y-177300000I-152500J0D01*
G01*
X219347500Y-177300000D01*
G75*
G02*
X219195000Y-177147500I0J152500D01*
G01*
X219195000Y-175452500D01*
G75*
G02*
X219347500Y-175300000I152500J0D01*
G01*
X219652500Y-175300000D01*
G75*
G02*
X219805000Y-175452500I0J-152500D01*
G01*
G37*
G36*
G01*
X218805000Y-175452500D02*
X218805000Y-177147500D01*
G75*
G02*
X218652500Y-177300000I-152500J0D01*
G01*
X218347500Y-177300000D01*
G75*
G02*
X218195000Y-177147500I0J152500D01*
G01*
X218195000Y-175452500D01*
G75*
G02*
X218347500Y-175300000I152500J0D01*
G01*
X218652500Y-175300000D01*
G75*
G02*
X218805000Y-175452500I0J-152500D01*
G01*
G37*
G36*
G01*
X217805000Y-175452500D02*
X217805000Y-177147500D01*
G75*
G02*
X217652500Y-177300000I-152500J0D01*
G01*
X217347500Y-177300000D01*
G75*
G02*
X217195000Y-177147500I0J152500D01*
G01*
X217195000Y-175452500D01*
G75*
G02*
X217347500Y-175300000I152500J0D01*
G01*
X217652500Y-175300000D01*
G75*
G02*
X217805000Y-175452500I0J-152500D01*
G01*
G37*
G36*
G01*
X216805000Y-175452500D02*
X216805000Y-177147500D01*
G75*
G02*
X216652500Y-177300000I-152500J0D01*
G01*
X216347500Y-177300000D01*
G75*
G02*
X216195000Y-177147500I0J152500D01*
G01*
X216195000Y-175452500D01*
G75*
G02*
X216347500Y-175300000I152500J0D01*
G01*
X216652500Y-175300000D01*
G75*
G02*
X216805000Y-175452500I0J-152500D01*
G01*
G37*
G36*
G01*
X215805000Y-175452500D02*
X215805000Y-177147500D01*
G75*
G02*
X215652500Y-177300000I-152500J0D01*
G01*
X215347500Y-177300000D01*
G75*
G02*
X215195000Y-177147500I0J152500D01*
G01*
X215195000Y-175452500D01*
G75*
G02*
X215347500Y-175300000I152500J0D01*
G01*
X215652500Y-175300000D01*
G75*
G02*
X215805000Y-175452500I0J-152500D01*
G01*
G37*
G36*
G01*
X214805000Y-175452500D02*
X214805000Y-177147500D01*
G75*
G02*
X214652500Y-177300000I-152500J0D01*
G01*
X214347500Y-177300000D01*
G75*
G02*
X214195000Y-177147500I0J152500D01*
G01*
X214195000Y-175452500D01*
G75*
G02*
X214347500Y-175300000I152500J0D01*
G01*
X214652500Y-175300000D01*
G75*
G02*
X214805000Y-175452500I0J-152500D01*
G01*
G37*
G36*
G01*
X213805000Y-175452500D02*
X213805000Y-177147500D01*
G75*
G02*
X213652500Y-177300000I-152500J0D01*
G01*
X213347500Y-177300000D01*
G75*
G02*
X213195000Y-177147500I0J152500D01*
G01*
X213195000Y-175452500D01*
G75*
G02*
X213347500Y-175300000I152500J0D01*
G01*
X213652500Y-175300000D01*
G75*
G02*
X213805000Y-175452500I0J-152500D01*
G01*
G37*
G36*
G01*
X211770000Y-177950000D02*
X211770000Y-180250000D01*
G75*
G02*
X211120000Y-180900000I-650000J0D01*
G01*
X209820000Y-180900000D01*
G75*
G02*
X209170000Y-180250000I0J650000D01*
G01*
X209170000Y-177950000D01*
G75*
G02*
X209820000Y-177300000I650000J0D01*
G01*
X211120000Y-177300000D01*
G75*
G02*
X211770000Y-177950000I0J-650000D01*
G01*
G37*
%TD*%
%TO.C,J2*%
G36*
G01*
X230500000Y-128800000D02*
X230500000Y-128200000D01*
G75*
G02*
X230600000Y-128100000I100000J0D01*
G01*
X230800000Y-128100000D01*
G75*
G02*
X230900000Y-128200000I0J-100000D01*
G01*
X230900000Y-128800000D01*
G75*
G02*
X230800000Y-128900000I-100000J0D01*
G01*
X230600000Y-128900000D01*
G75*
G02*
X230500000Y-128800000I0J100000D01*
G01*
G37*
G36*
G01*
X209100000Y-128800000D02*
X209100000Y-128200000D01*
G75*
G02*
X209200000Y-128100000I100000J0D01*
G01*
X209400000Y-128100000D01*
G75*
G02*
X209500000Y-128200000I0J-100000D01*
G01*
X209500000Y-128800000D01*
G75*
G02*
X209400000Y-128900000I-100000J0D01*
G01*
X209200000Y-128900000D01*
G75*
G02*
X209100000Y-128800000I0J100000D01*
G01*
G37*
G36*
G01*
X229600000Y-131325000D02*
X229600000Y-130675000D01*
G75*
G02*
X229675000Y-130600000I75000J0D01*
G01*
X229825000Y-130600000D01*
G75*
G02*
X229900000Y-130675000I0J-75000D01*
G01*
X229900000Y-131325000D01*
G75*
G02*
X229825000Y-131400000I-75000J0D01*
G01*
X229675000Y-131400000D01*
G75*
G02*
X229600000Y-131325000I0J75000D01*
G01*
G37*
G36*
G01*
X229100000Y-131325000D02*
X229100000Y-130675000D01*
G75*
G02*
X229175000Y-130600000I75000J0D01*
G01*
X229325000Y-130600000D01*
G75*
G02*
X229400000Y-130675000I0J-75000D01*
G01*
X229400000Y-131325000D01*
G75*
G02*
X229325000Y-131400000I-75000J0D01*
G01*
X229175000Y-131400000D01*
G75*
G02*
X229100000Y-131325000I0J75000D01*
G01*
G37*
G36*
G01*
X228600000Y-131325000D02*
X228600000Y-130675000D01*
G75*
G02*
X228675000Y-130600000I75000J0D01*
G01*
X228825000Y-130600000D01*
G75*
G02*
X228900000Y-130675000I0J-75000D01*
G01*
X228900000Y-131325000D01*
G75*
G02*
X228825000Y-131400000I-75000J0D01*
G01*
X228675000Y-131400000D01*
G75*
G02*
X228600000Y-131325000I0J75000D01*
G01*
G37*
G36*
G01*
X228100000Y-131325000D02*
X228100000Y-130675000D01*
G75*
G02*
X228175000Y-130600000I75000J0D01*
G01*
X228325000Y-130600000D01*
G75*
G02*
X228400000Y-130675000I0J-75000D01*
G01*
X228400000Y-131325000D01*
G75*
G02*
X228325000Y-131400000I-75000J0D01*
G01*
X228175000Y-131400000D01*
G75*
G02*
X228100000Y-131325000I0J75000D01*
G01*
G37*
G36*
G01*
X227600000Y-131325000D02*
X227600000Y-130675000D01*
G75*
G02*
X227675000Y-130600000I75000J0D01*
G01*
X227825000Y-130600000D01*
G75*
G02*
X227900000Y-130675000I0J-75000D01*
G01*
X227900000Y-131325000D01*
G75*
G02*
X227825000Y-131400000I-75000J0D01*
G01*
X227675000Y-131400000D01*
G75*
G02*
X227600000Y-131325000I0J75000D01*
G01*
G37*
G36*
G01*
X227100000Y-131325000D02*
X227100000Y-130675000D01*
G75*
G02*
X227175000Y-130600000I75000J0D01*
G01*
X227325000Y-130600000D01*
G75*
G02*
X227400000Y-130675000I0J-75000D01*
G01*
X227400000Y-131325000D01*
G75*
G02*
X227325000Y-131400000I-75000J0D01*
G01*
X227175000Y-131400000D01*
G75*
G02*
X227100000Y-131325000I0J75000D01*
G01*
G37*
G36*
G01*
X226600000Y-131325000D02*
X226600000Y-130675000D01*
G75*
G02*
X226675000Y-130600000I75000J0D01*
G01*
X226825000Y-130600000D01*
G75*
G02*
X226900000Y-130675000I0J-75000D01*
G01*
X226900000Y-131325000D01*
G75*
G02*
X226825000Y-131400000I-75000J0D01*
G01*
X226675000Y-131400000D01*
G75*
G02*
X226600000Y-131325000I0J75000D01*
G01*
G37*
G36*
G01*
X226100000Y-131325000D02*
X226100000Y-130675000D01*
G75*
G02*
X226175000Y-130600000I75000J0D01*
G01*
X226325000Y-130600000D01*
G75*
G02*
X226400000Y-130675000I0J-75000D01*
G01*
X226400000Y-131325000D01*
G75*
G02*
X226325000Y-131400000I-75000J0D01*
G01*
X226175000Y-131400000D01*
G75*
G02*
X226100000Y-131325000I0J75000D01*
G01*
G37*
G36*
G01*
X225600000Y-131325000D02*
X225600000Y-130675000D01*
G75*
G02*
X225675000Y-130600000I75000J0D01*
G01*
X225825000Y-130600000D01*
G75*
G02*
X225900000Y-130675000I0J-75000D01*
G01*
X225900000Y-131325000D01*
G75*
G02*
X225825000Y-131400000I-75000J0D01*
G01*
X225675000Y-131400000D01*
G75*
G02*
X225600000Y-131325000I0J75000D01*
G01*
G37*
G36*
G01*
X225100000Y-131325000D02*
X225100000Y-130675000D01*
G75*
G02*
X225175000Y-130600000I75000J0D01*
G01*
X225325000Y-130600000D01*
G75*
G02*
X225400000Y-130675000I0J-75000D01*
G01*
X225400000Y-131325000D01*
G75*
G02*
X225325000Y-131400000I-75000J0D01*
G01*
X225175000Y-131400000D01*
G75*
G02*
X225100000Y-131325000I0J75000D01*
G01*
G37*
G36*
G01*
X224600000Y-131325000D02*
X224600000Y-130675000D01*
G75*
G02*
X224675000Y-130600000I75000J0D01*
G01*
X224825000Y-130600000D01*
G75*
G02*
X224900000Y-130675000I0J-75000D01*
G01*
X224900000Y-131325000D01*
G75*
G02*
X224825000Y-131400000I-75000J0D01*
G01*
X224675000Y-131400000D01*
G75*
G02*
X224600000Y-131325000I0J75000D01*
G01*
G37*
G36*
G01*
X224100000Y-131325000D02*
X224100000Y-130675000D01*
G75*
G02*
X224175000Y-130600000I75000J0D01*
G01*
X224325000Y-130600000D01*
G75*
G02*
X224400000Y-130675000I0J-75000D01*
G01*
X224400000Y-131325000D01*
G75*
G02*
X224325000Y-131400000I-75000J0D01*
G01*
X224175000Y-131400000D01*
G75*
G02*
X224100000Y-131325000I0J75000D01*
G01*
G37*
G36*
G01*
X223600000Y-131325000D02*
X223600000Y-130675000D01*
G75*
G02*
X223675000Y-130600000I75000J0D01*
G01*
X223825000Y-130600000D01*
G75*
G02*
X223900000Y-130675000I0J-75000D01*
G01*
X223900000Y-131325000D01*
G75*
G02*
X223825000Y-131400000I-75000J0D01*
G01*
X223675000Y-131400000D01*
G75*
G02*
X223600000Y-131325000I0J75000D01*
G01*
G37*
G36*
G01*
X223100000Y-131325000D02*
X223100000Y-130675000D01*
G75*
G02*
X223175000Y-130600000I75000J0D01*
G01*
X223325000Y-130600000D01*
G75*
G02*
X223400000Y-130675000I0J-75000D01*
G01*
X223400000Y-131325000D01*
G75*
G02*
X223325000Y-131400000I-75000J0D01*
G01*
X223175000Y-131400000D01*
G75*
G02*
X223100000Y-131325000I0J75000D01*
G01*
G37*
G36*
G01*
X222600000Y-131325000D02*
X222600000Y-130675000D01*
G75*
G02*
X222675000Y-130600000I75000J0D01*
G01*
X222825000Y-130600000D01*
G75*
G02*
X222900000Y-130675000I0J-75000D01*
G01*
X222900000Y-131325000D01*
G75*
G02*
X222825000Y-131400000I-75000J0D01*
G01*
X222675000Y-131400000D01*
G75*
G02*
X222600000Y-131325000I0J75000D01*
G01*
G37*
G36*
G01*
X222100000Y-131325000D02*
X222100000Y-130675000D01*
G75*
G02*
X222175000Y-130600000I75000J0D01*
G01*
X222325000Y-130600000D01*
G75*
G02*
X222400000Y-130675000I0J-75000D01*
G01*
X222400000Y-131325000D01*
G75*
G02*
X222325000Y-131400000I-75000J0D01*
G01*
X222175000Y-131400000D01*
G75*
G02*
X222100000Y-131325000I0J75000D01*
G01*
G37*
G36*
G01*
X221600000Y-131325000D02*
X221600000Y-130675000D01*
G75*
G02*
X221675000Y-130600000I75000J0D01*
G01*
X221825000Y-130600000D01*
G75*
G02*
X221900000Y-130675000I0J-75000D01*
G01*
X221900000Y-131325000D01*
G75*
G02*
X221825000Y-131400000I-75000J0D01*
G01*
X221675000Y-131400000D01*
G75*
G02*
X221600000Y-131325000I0J75000D01*
G01*
G37*
G36*
G01*
X221100000Y-131325000D02*
X221100000Y-130675000D01*
G75*
G02*
X221175000Y-130600000I75000J0D01*
G01*
X221325000Y-130600000D01*
G75*
G02*
X221400000Y-130675000I0J-75000D01*
G01*
X221400000Y-131325000D01*
G75*
G02*
X221325000Y-131400000I-75000J0D01*
G01*
X221175000Y-131400000D01*
G75*
G02*
X221100000Y-131325000I0J75000D01*
G01*
G37*
G36*
G01*
X220600000Y-131325000D02*
X220600000Y-130675000D01*
G75*
G02*
X220675000Y-130600000I75000J0D01*
G01*
X220825000Y-130600000D01*
G75*
G02*
X220900000Y-130675000I0J-75000D01*
G01*
X220900000Y-131325000D01*
G75*
G02*
X220825000Y-131400000I-75000J0D01*
G01*
X220675000Y-131400000D01*
G75*
G02*
X220600000Y-131325000I0J75000D01*
G01*
G37*
G36*
G01*
X220100000Y-131325000D02*
X220100000Y-130675000D01*
G75*
G02*
X220175000Y-130600000I75000J0D01*
G01*
X220325000Y-130600000D01*
G75*
G02*
X220400000Y-130675000I0J-75000D01*
G01*
X220400000Y-131325000D01*
G75*
G02*
X220325000Y-131400000I-75000J0D01*
G01*
X220175000Y-131400000D01*
G75*
G02*
X220100000Y-131325000I0J75000D01*
G01*
G37*
G36*
G01*
X219600000Y-131325000D02*
X219600000Y-130675000D01*
G75*
G02*
X219675000Y-130600000I75000J0D01*
G01*
X219825000Y-130600000D01*
G75*
G02*
X219900000Y-130675000I0J-75000D01*
G01*
X219900000Y-131325000D01*
G75*
G02*
X219825000Y-131400000I-75000J0D01*
G01*
X219675000Y-131400000D01*
G75*
G02*
X219600000Y-131325000I0J75000D01*
G01*
G37*
G36*
G01*
X219100000Y-131325000D02*
X219100000Y-130675000D01*
G75*
G02*
X219175000Y-130600000I75000J0D01*
G01*
X219325000Y-130600000D01*
G75*
G02*
X219400000Y-130675000I0J-75000D01*
G01*
X219400000Y-131325000D01*
G75*
G02*
X219325000Y-131400000I-75000J0D01*
G01*
X219175000Y-131400000D01*
G75*
G02*
X219100000Y-131325000I0J75000D01*
G01*
G37*
G36*
G01*
X218600000Y-131325000D02*
X218600000Y-130675000D01*
G75*
G02*
X218675000Y-130600000I75000J0D01*
G01*
X218825000Y-130600000D01*
G75*
G02*
X218900000Y-130675000I0J-75000D01*
G01*
X218900000Y-131325000D01*
G75*
G02*
X218825000Y-131400000I-75000J0D01*
G01*
X218675000Y-131400000D01*
G75*
G02*
X218600000Y-131325000I0J75000D01*
G01*
G37*
G36*
G01*
X218100000Y-131325000D02*
X218100000Y-130675000D01*
G75*
G02*
X218175000Y-130600000I75000J0D01*
G01*
X218325000Y-130600000D01*
G75*
G02*
X218400000Y-130675000I0J-75000D01*
G01*
X218400000Y-131325000D01*
G75*
G02*
X218325000Y-131400000I-75000J0D01*
G01*
X218175000Y-131400000D01*
G75*
G02*
X218100000Y-131325000I0J75000D01*
G01*
G37*
G36*
G01*
X217600000Y-131325000D02*
X217600000Y-130675000D01*
G75*
G02*
X217675000Y-130600000I75000J0D01*
G01*
X217825000Y-130600000D01*
G75*
G02*
X217900000Y-130675000I0J-75000D01*
G01*
X217900000Y-131325000D01*
G75*
G02*
X217825000Y-131400000I-75000J0D01*
G01*
X217675000Y-131400000D01*
G75*
G02*
X217600000Y-131325000I0J75000D01*
G01*
G37*
G36*
G01*
X217100000Y-131325000D02*
X217100000Y-130675000D01*
G75*
G02*
X217175000Y-130600000I75000J0D01*
G01*
X217325000Y-130600000D01*
G75*
G02*
X217400000Y-130675000I0J-75000D01*
G01*
X217400000Y-131325000D01*
G75*
G02*
X217325000Y-131400000I-75000J0D01*
G01*
X217175000Y-131400000D01*
G75*
G02*
X217100000Y-131325000I0J75000D01*
G01*
G37*
G36*
G01*
X216600000Y-131325000D02*
X216600000Y-130675000D01*
G75*
G02*
X216675000Y-130600000I75000J0D01*
G01*
X216825000Y-130600000D01*
G75*
G02*
X216900000Y-130675000I0J-75000D01*
G01*
X216900000Y-131325000D01*
G75*
G02*
X216825000Y-131400000I-75000J0D01*
G01*
X216675000Y-131400000D01*
G75*
G02*
X216600000Y-131325000I0J75000D01*
G01*
G37*
G36*
G01*
X216100000Y-131325000D02*
X216100000Y-130675000D01*
G75*
G02*
X216175000Y-130600000I75000J0D01*
G01*
X216325000Y-130600000D01*
G75*
G02*
X216400000Y-130675000I0J-75000D01*
G01*
X216400000Y-131325000D01*
G75*
G02*
X216325000Y-131400000I-75000J0D01*
G01*
X216175000Y-131400000D01*
G75*
G02*
X216100000Y-131325000I0J75000D01*
G01*
G37*
G36*
G01*
X215600000Y-131325000D02*
X215600000Y-130675000D01*
G75*
G02*
X215675000Y-130600000I75000J0D01*
G01*
X215825000Y-130600000D01*
G75*
G02*
X215900000Y-130675000I0J-75000D01*
G01*
X215900000Y-131325000D01*
G75*
G02*
X215825000Y-131400000I-75000J0D01*
G01*
X215675000Y-131400000D01*
G75*
G02*
X215600000Y-131325000I0J75000D01*
G01*
G37*
G36*
G01*
X215100000Y-131325000D02*
X215100000Y-130675000D01*
G75*
G02*
X215175000Y-130600000I75000J0D01*
G01*
X215325000Y-130600000D01*
G75*
G02*
X215400000Y-130675000I0J-75000D01*
G01*
X215400000Y-131325000D01*
G75*
G02*
X215325000Y-131400000I-75000J0D01*
G01*
X215175000Y-131400000D01*
G75*
G02*
X215100000Y-131325000I0J75000D01*
G01*
G37*
G36*
G01*
X214600000Y-131325000D02*
X214600000Y-130675000D01*
G75*
G02*
X214675000Y-130600000I75000J0D01*
G01*
X214825000Y-130600000D01*
G75*
G02*
X214900000Y-130675000I0J-75000D01*
G01*
X214900000Y-131325000D01*
G75*
G02*
X214825000Y-131400000I-75000J0D01*
G01*
X214675000Y-131400000D01*
G75*
G02*
X214600000Y-131325000I0J75000D01*
G01*
G37*
G36*
G01*
X214100000Y-131325000D02*
X214100000Y-130675000D01*
G75*
G02*
X214175000Y-130600000I75000J0D01*
G01*
X214325000Y-130600000D01*
G75*
G02*
X214400000Y-130675000I0J-75000D01*
G01*
X214400000Y-131325000D01*
G75*
G02*
X214325000Y-131400000I-75000J0D01*
G01*
X214175000Y-131400000D01*
G75*
G02*
X214100000Y-131325000I0J75000D01*
G01*
G37*
G36*
G01*
X213600000Y-131325000D02*
X213600000Y-130675000D01*
G75*
G02*
X213675000Y-130600000I75000J0D01*
G01*
X213825000Y-130600000D01*
G75*
G02*
X213900000Y-130675000I0J-75000D01*
G01*
X213900000Y-131325000D01*
G75*
G02*
X213825000Y-131400000I-75000J0D01*
G01*
X213675000Y-131400000D01*
G75*
G02*
X213600000Y-131325000I0J75000D01*
G01*
G37*
G36*
G01*
X213100000Y-131325000D02*
X213100000Y-130675000D01*
G75*
G02*
X213175000Y-130600000I75000J0D01*
G01*
X213325000Y-130600000D01*
G75*
G02*
X213400000Y-130675000I0J-75000D01*
G01*
X213400000Y-131325000D01*
G75*
G02*
X213325000Y-131400000I-75000J0D01*
G01*
X213175000Y-131400000D01*
G75*
G02*
X213100000Y-131325000I0J75000D01*
G01*
G37*
G36*
G01*
X212600000Y-131325000D02*
X212600000Y-130675000D01*
G75*
G02*
X212675000Y-130600000I75000J0D01*
G01*
X212825000Y-130600000D01*
G75*
G02*
X212900000Y-130675000I0J-75000D01*
G01*
X212900000Y-131325000D01*
G75*
G02*
X212825000Y-131400000I-75000J0D01*
G01*
X212675000Y-131400000D01*
G75*
G02*
X212600000Y-131325000I0J75000D01*
G01*
G37*
G36*
G01*
X212100000Y-131325000D02*
X212100000Y-130675000D01*
G75*
G02*
X212175000Y-130600000I75000J0D01*
G01*
X212325000Y-130600000D01*
G75*
G02*
X212400000Y-130675000I0J-75000D01*
G01*
X212400000Y-131325000D01*
G75*
G02*
X212325000Y-131400000I-75000J0D01*
G01*
X212175000Y-131400000D01*
G75*
G02*
X212100000Y-131325000I0J75000D01*
G01*
G37*
G36*
G01*
X211600000Y-131325000D02*
X211600000Y-130675000D01*
G75*
G02*
X211675000Y-130600000I75000J0D01*
G01*
X211825000Y-130600000D01*
G75*
G02*
X211900000Y-130675000I0J-75000D01*
G01*
X211900000Y-131325000D01*
G75*
G02*
X211825000Y-131400000I-75000J0D01*
G01*
X211675000Y-131400000D01*
G75*
G02*
X211600000Y-131325000I0J75000D01*
G01*
G37*
G36*
G01*
X211100000Y-131325000D02*
X211100000Y-130675000D01*
G75*
G02*
X211175000Y-130600000I75000J0D01*
G01*
X211325000Y-130600000D01*
G75*
G02*
X211400000Y-130675000I0J-75000D01*
G01*
X211400000Y-131325000D01*
G75*
G02*
X211325000Y-131400000I-75000J0D01*
G01*
X211175000Y-131400000D01*
G75*
G02*
X211100000Y-131325000I0J75000D01*
G01*
G37*
G36*
G01*
X210600000Y-131325000D02*
X210600000Y-130675000D01*
G75*
G02*
X210675000Y-130600000I75000J0D01*
G01*
X210825000Y-130600000D01*
G75*
G02*
X210900000Y-130675000I0J-75000D01*
G01*
X210900000Y-131325000D01*
G75*
G02*
X210825000Y-131400000I-75000J0D01*
G01*
X210675000Y-131400000D01*
G75*
G02*
X210600000Y-131325000I0J75000D01*
G01*
G37*
G36*
G01*
X210100000Y-131325000D02*
X210100000Y-130675000D01*
G75*
G02*
X210175000Y-130600000I75000J0D01*
G01*
X210325000Y-130600000D01*
G75*
G02*
X210400000Y-130675000I0J-75000D01*
G01*
X210400000Y-131325000D01*
G75*
G02*
X210325000Y-131400000I-75000J0D01*
G01*
X210175000Y-131400000D01*
G75*
G02*
X210100000Y-131325000I0J75000D01*
G01*
G37*
%TD*%
%TO.C,R1*%
G36*
G01*
X213475000Y-135750000D02*
X214025000Y-135750000D01*
G75*
G02*
X214225000Y-135950000I0J-200000D01*
G01*
X214225000Y-136350000D01*
G75*
G02*
X214025000Y-136550000I-200000J0D01*
G01*
X213475000Y-136550000D01*
G75*
G02*
X213275000Y-136350000I0J200000D01*
G01*
X213275000Y-135950000D01*
G75*
G02*
X213475000Y-135750000I200000J0D01*
G01*
G37*
G36*
G01*
X213475000Y-134100000D02*
X214025000Y-134100000D01*
G75*
G02*
X214225000Y-134300000I0J-200000D01*
G01*
X214225000Y-134700000D01*
G75*
G02*
X214025000Y-134900000I-200000J0D01*
G01*
X213475000Y-134900000D01*
G75*
G02*
X213275000Y-134700000I0J200000D01*
G01*
X213275000Y-134300000D01*
G75*
G02*
X213475000Y-134100000I200000J0D01*
G01*
G37*
%TD*%
%TO.C,R2*%
G36*
G01*
X211475000Y-135750000D02*
X212025000Y-135750000D01*
G75*
G02*
X212225000Y-135950000I0J-200000D01*
G01*
X212225000Y-136350000D01*
G75*
G02*
X212025000Y-136550000I-200000J0D01*
G01*
X211475000Y-136550000D01*
G75*
G02*
X211275000Y-136350000I0J200000D01*
G01*
X211275000Y-135950000D01*
G75*
G02*
X211475000Y-135750000I200000J0D01*
G01*
G37*
G36*
G01*
X211475000Y-134100000D02*
X212025000Y-134100000D01*
G75*
G02*
X212225000Y-134300000I0J-200000D01*
G01*
X212225000Y-134700000D01*
G75*
G02*
X212025000Y-134900000I-200000J0D01*
G01*
X211475000Y-134900000D01*
G75*
G02*
X211275000Y-134700000I0J200000D01*
G01*
X211275000Y-134300000D01*
G75*
G02*
X211475000Y-134100000I200000J0D01*
G01*
G37*
%TD*%
%TO.C,R3*%
G36*
G01*
X207025000Y-138400000D02*
X206475000Y-138400000D01*
G75*
G02*
X206275000Y-138200000I0J200000D01*
G01*
X206275000Y-137800000D01*
G75*
G02*
X206475000Y-137600000I200000J0D01*
G01*
X207025000Y-137600000D01*
G75*
G02*
X207225000Y-137800000I0J-200000D01*
G01*
X207225000Y-138200000D01*
G75*
G02*
X207025000Y-138400000I-200000J0D01*
G01*
G37*
G36*
G01*
X207025000Y-140050000D02*
X206475000Y-140050000D01*
G75*
G02*
X206275000Y-139850000I0J200000D01*
G01*
X206275000Y-139450000D01*
G75*
G02*
X206475000Y-139250000I200000J0D01*
G01*
X207025000Y-139250000D01*
G75*
G02*
X207225000Y-139450000I0J-200000D01*
G01*
X207225000Y-139850000D01*
G75*
G02*
X207025000Y-140050000I-200000J0D01*
G01*
G37*
%TD*%
%TO.C,R4*%
G36*
G01*
X205025000Y-138400000D02*
X204475000Y-138400000D01*
G75*
G02*
X204275000Y-138200000I0J200000D01*
G01*
X204275000Y-137800000D01*
G75*
G02*
X204475000Y-137600000I200000J0D01*
G01*
X205025000Y-137600000D01*
G75*
G02*
X205225000Y-137800000I0J-200000D01*
G01*
X205225000Y-138200000D01*
G75*
G02*
X205025000Y-138400000I-200000J0D01*
G01*
G37*
G36*
G01*
X205025000Y-140050000D02*
X204475000Y-140050000D01*
G75*
G02*
X204275000Y-139850000I0J200000D01*
G01*
X204275000Y-139450000D01*
G75*
G02*
X204475000Y-139250000I200000J0D01*
G01*
X205025000Y-139250000D01*
G75*
G02*
X205225000Y-139450000I0J-200000D01*
G01*
X205225000Y-139850000D01*
G75*
G02*
X205025000Y-140050000I-200000J0D01*
G01*
G37*
%TD*%
%TO.C,R5*%
G36*
G01*
X203025000Y-138400000D02*
X202475000Y-138400000D01*
G75*
G02*
X202275000Y-138200000I0J200000D01*
G01*
X202275000Y-137800000D01*
G75*
G02*
X202475000Y-137600000I200000J0D01*
G01*
X203025000Y-137600000D01*
G75*
G02*
X203225000Y-137800000I0J-200000D01*
G01*
X203225000Y-138200000D01*
G75*
G02*
X203025000Y-138400000I-200000J0D01*
G01*
G37*
G36*
G01*
X203025000Y-140050000D02*
X202475000Y-140050000D01*
G75*
G02*
X202275000Y-139850000I0J200000D01*
G01*
X202275000Y-139450000D01*
G75*
G02*
X202475000Y-139250000I200000J0D01*
G01*
X203025000Y-139250000D01*
G75*
G02*
X203225000Y-139450000I0J-200000D01*
G01*
X203225000Y-139850000D01*
G75*
G02*
X203025000Y-140050000I-200000J0D01*
G01*
G37*
%TD*%
%TO.C,R6*%
G36*
G01*
X209475000Y-135750000D02*
X210025000Y-135750000D01*
G75*
G02*
X210225000Y-135950000I0J-200000D01*
G01*
X210225000Y-136350000D01*
G75*
G02*
X210025000Y-136550000I-200000J0D01*
G01*
X209475000Y-136550000D01*
G75*
G02*
X209275000Y-136350000I0J200000D01*
G01*
X209275000Y-135950000D01*
G75*
G02*
X209475000Y-135750000I200000J0D01*
G01*
G37*
G36*
G01*
X209475000Y-134100000D02*
X210025000Y-134100000D01*
G75*
G02*
X210225000Y-134300000I0J-200000D01*
G01*
X210225000Y-134700000D01*
G75*
G02*
X210025000Y-134900000I-200000J0D01*
G01*
X209475000Y-134900000D01*
G75*
G02*
X209275000Y-134700000I0J200000D01*
G01*
X209275000Y-134300000D01*
G75*
G02*
X209475000Y-134100000I200000J0D01*
G01*
G37*
%TD*%
%TO.C,R7*%
G36*
G01*
X205475000Y-135750000D02*
X206025000Y-135750000D01*
G75*
G02*
X206225000Y-135950000I0J-200000D01*
G01*
X206225000Y-136350000D01*
G75*
G02*
X206025000Y-136550000I-200000J0D01*
G01*
X205475000Y-136550000D01*
G75*
G02*
X205275000Y-136350000I0J200000D01*
G01*
X205275000Y-135950000D01*
G75*
G02*
X205475000Y-135750000I200000J0D01*
G01*
G37*
G36*
G01*
X205475000Y-134100000D02*
X206025000Y-134100000D01*
G75*
G02*
X206225000Y-134300000I0J-200000D01*
G01*
X206225000Y-134700000D01*
G75*
G02*
X206025000Y-134900000I-200000J0D01*
G01*
X205475000Y-134900000D01*
G75*
G02*
X205275000Y-134700000I0J200000D01*
G01*
X205275000Y-134300000D01*
G75*
G02*
X205475000Y-134100000I200000J0D01*
G01*
G37*
%TD*%
%TO.C,R8*%
G36*
G01*
X203475000Y-135750000D02*
X204025000Y-135750000D01*
G75*
G02*
X204225000Y-135950000I0J-200000D01*
G01*
X204225000Y-136350000D01*
G75*
G02*
X204025000Y-136550000I-200000J0D01*
G01*
X203475000Y-136550000D01*
G75*
G02*
X203275000Y-136350000I0J200000D01*
G01*
X203275000Y-135950000D01*
G75*
G02*
X203475000Y-135750000I200000J0D01*
G01*
G37*
G36*
G01*
X203475000Y-134100000D02*
X204025000Y-134100000D01*
G75*
G02*
X204225000Y-134300000I0J-200000D01*
G01*
X204225000Y-134700000D01*
G75*
G02*
X204025000Y-134900000I-200000J0D01*
G01*
X203475000Y-134900000D01*
G75*
G02*
X203275000Y-134700000I0J200000D01*
G01*
X203275000Y-134300000D01*
G75*
G02*
X203475000Y-134100000I200000J0D01*
G01*
G37*
%TD*%
%TO.C,R9*%
G36*
G01*
X201475000Y-135750000D02*
X202025000Y-135750000D01*
G75*
G02*
X202225000Y-135950000I0J-200000D01*
G01*
X202225000Y-136350000D01*
G75*
G02*
X202025000Y-136550000I-200000J0D01*
G01*
X201475000Y-136550000D01*
G75*
G02*
X201275000Y-136350000I0J200000D01*
G01*
X201275000Y-135950000D01*
G75*
G02*
X201475000Y-135750000I200000J0D01*
G01*
G37*
G36*
G01*
X201475000Y-134100000D02*
X202025000Y-134100000D01*
G75*
G02*
X202225000Y-134300000I0J-200000D01*
G01*
X202225000Y-134700000D01*
G75*
G02*
X202025000Y-134900000I-200000J0D01*
G01*
X201475000Y-134900000D01*
G75*
G02*
X201275000Y-134700000I0J200000D01*
G01*
X201275000Y-134300000D01*
G75*
G02*
X201475000Y-134100000I200000J0D01*
G01*
G37*
%TD*%
D11*
%TO.C,U1*%
X206400000Y-147950000D03*
X206400000Y-152550000D03*
X206400000Y-150250000D03*
D12*
X200100000Y-150250000D03*
%TD*%
D13*
%TO.C,U2*%
X198750000Y-141750000D03*
X199700000Y-139750000D03*
X197800000Y-139750000D03*
%TD*%
%TO.C,J3*%
G36*
G01*
X229780000Y-107800000D02*
X229780000Y-107200000D01*
G75*
G02*
X229880000Y-107100000I100000J0D01*
G01*
X230080000Y-107100000D01*
G75*
G02*
X230180000Y-107200000I0J-100000D01*
G01*
X230180000Y-107800000D01*
G75*
G02*
X230080000Y-107900000I-100000J0D01*
G01*
X229880000Y-107900000D01*
G75*
G02*
X229780000Y-107800000I0J100000D01*
G01*
G37*
G36*
G01*
X225380000Y-107800000D02*
X225380000Y-107200000D01*
G75*
G02*
X225480000Y-107100000I100000J0D01*
G01*
X225680000Y-107100000D01*
G75*
G02*
X225780000Y-107200000I0J-100000D01*
G01*
X225780000Y-107800000D01*
G75*
G02*
X225680000Y-107900000I-100000J0D01*
G01*
X225480000Y-107900000D01*
G75*
G02*
X225380000Y-107800000I0J100000D01*
G01*
G37*
G36*
G01*
X228880000Y-110325000D02*
X228880000Y-109675000D01*
G75*
G02*
X228955000Y-109600000I75000J0D01*
G01*
X229105000Y-109600000D01*
G75*
G02*
X229180000Y-109675000I0J-75000D01*
G01*
X229180000Y-110325000D01*
G75*
G02*
X229105000Y-110400000I-75000J0D01*
G01*
X228955000Y-110400000D01*
G75*
G02*
X228880000Y-110325000I0J75000D01*
G01*
G37*
G36*
G01*
X228380000Y-110325000D02*
X228380000Y-109675000D01*
G75*
G02*
X228455000Y-109600000I75000J0D01*
G01*
X228605000Y-109600000D01*
G75*
G02*
X228680000Y-109675000I0J-75000D01*
G01*
X228680000Y-110325000D01*
G75*
G02*
X228605000Y-110400000I-75000J0D01*
G01*
X228455000Y-110400000D01*
G75*
G02*
X228380000Y-110325000I0J75000D01*
G01*
G37*
G36*
G01*
X227880000Y-110325000D02*
X227880000Y-109675000D01*
G75*
G02*
X227955000Y-109600000I75000J0D01*
G01*
X228105000Y-109600000D01*
G75*
G02*
X228180000Y-109675000I0J-75000D01*
G01*
X228180000Y-110325000D01*
G75*
G02*
X228105000Y-110400000I-75000J0D01*
G01*
X227955000Y-110400000D01*
G75*
G02*
X227880000Y-110325000I0J75000D01*
G01*
G37*
G36*
G01*
X227380000Y-110325000D02*
X227380000Y-109675000D01*
G75*
G02*
X227455000Y-109600000I75000J0D01*
G01*
X227605000Y-109600000D01*
G75*
G02*
X227680000Y-109675000I0J-75000D01*
G01*
X227680000Y-110325000D01*
G75*
G02*
X227605000Y-110400000I-75000J0D01*
G01*
X227455000Y-110400000D01*
G75*
G02*
X227380000Y-110325000I0J75000D01*
G01*
G37*
G36*
G01*
X226880000Y-110325000D02*
X226880000Y-109675000D01*
G75*
G02*
X226955000Y-109600000I75000J0D01*
G01*
X227105000Y-109600000D01*
G75*
G02*
X227180000Y-109675000I0J-75000D01*
G01*
X227180000Y-110325000D01*
G75*
G02*
X227105000Y-110400000I-75000J0D01*
G01*
X226955000Y-110400000D01*
G75*
G02*
X226880000Y-110325000I0J75000D01*
G01*
G37*
G36*
G01*
X226380000Y-110325000D02*
X226380000Y-109675000D01*
G75*
G02*
X226455000Y-109600000I75000J0D01*
G01*
X226605000Y-109600000D01*
G75*
G02*
X226680000Y-109675000I0J-75000D01*
G01*
X226680000Y-110325000D01*
G75*
G02*
X226605000Y-110400000I-75000J0D01*
G01*
X226455000Y-110400000D01*
G75*
G02*
X226380000Y-110325000I0J75000D01*
G01*
G37*
%TD*%
M02*
