%TF.GenerationSoftware,KiCad,Pcbnew,5.1.10*%
%TF.CreationDate,2021-12-07T00:10:18-05:00*%
%TF.ProjectId,oven-controller,6f76656e-2d63-46f6-9e74-726f6c6c6572,rev?*%
%TF.SameCoordinates,Original*%
%TF.FileFunction,Paste,Top*%
%TF.FilePolarity,Positive*%
%FSLAX46Y46*%
G04 Gerber Fmt 4.6, Leading zero omitted, Abs format (unit mm)*
G04 Created by KiCad (PCBNEW 5.1.10) date 2021-12-07 00:10:18*
%MOMM*%
%LPD*%
G01*
G04 APERTURE LIST*
%ADD10R,2.500000X1.800000*%
%ADD11R,1.200000X0.900000*%
%ADD12R,0.800000X0.900000*%
G04 APERTURE END LIST*
%TO.C,L2*%
G36*
G01*
X158950000Y-107870000D02*
X158950000Y-103130000D01*
G75*
G02*
X159180000Y-102900000I230000J0D01*
G01*
X161020000Y-102900000D01*
G75*
G02*
X161250000Y-103130000I0J-230000D01*
G01*
X161250000Y-107870000D01*
G75*
G02*
X161020000Y-108100000I-230000J0D01*
G01*
X159180000Y-108100000D01*
G75*
G02*
X158950000Y-107870000I0J230000D01*
G01*
G37*
G36*
G01*
X152750000Y-107870000D02*
X152750000Y-103130000D01*
G75*
G02*
X152980000Y-102900000I230000J0D01*
G01*
X154820000Y-102900000D01*
G75*
G02*
X155050000Y-103130000I0J-230000D01*
G01*
X155050000Y-107870000D01*
G75*
G02*
X154820000Y-108100000I-230000J0D01*
G01*
X152980000Y-108100000D01*
G75*
G02*
X152750000Y-107870000I0J230000D01*
G01*
G37*
%TD*%
%TO.C,C8*%
G36*
G01*
X235250000Y-141100000D02*
X235750000Y-141100000D01*
G75*
G02*
X235975000Y-141325000I0J-225000D01*
G01*
X235975000Y-141775000D01*
G75*
G02*
X235750000Y-142000000I-225000J0D01*
G01*
X235250000Y-142000000D01*
G75*
G02*
X235025000Y-141775000I0J225000D01*
G01*
X235025000Y-141325000D01*
G75*
G02*
X235250000Y-141100000I225000J0D01*
G01*
G37*
G36*
G01*
X235250000Y-139550000D02*
X235750000Y-139550000D01*
G75*
G02*
X235975000Y-139775000I0J-225000D01*
G01*
X235975000Y-140225000D01*
G75*
G02*
X235750000Y-140450000I-225000J0D01*
G01*
X235250000Y-140450000D01*
G75*
G02*
X235025000Y-140225000I0J225000D01*
G01*
X235025000Y-139775000D01*
G75*
G02*
X235250000Y-139550000I225000J0D01*
G01*
G37*
%TD*%
%TO.C,C9*%
G36*
G01*
X245000000Y-142575000D02*
X245500000Y-142575000D01*
G75*
G02*
X245725000Y-142800000I0J-225000D01*
G01*
X245725000Y-143250000D01*
G75*
G02*
X245500000Y-143475000I-225000J0D01*
G01*
X245000000Y-143475000D01*
G75*
G02*
X244775000Y-143250000I0J225000D01*
G01*
X244775000Y-142800000D01*
G75*
G02*
X245000000Y-142575000I225000J0D01*
G01*
G37*
G36*
G01*
X245000000Y-141025000D02*
X245500000Y-141025000D01*
G75*
G02*
X245725000Y-141250000I0J-225000D01*
G01*
X245725000Y-141700000D01*
G75*
G02*
X245500000Y-141925000I-225000J0D01*
G01*
X245000000Y-141925000D01*
G75*
G02*
X244775000Y-141700000I0J225000D01*
G01*
X244775000Y-141250000D01*
G75*
G02*
X245000000Y-141025000I225000J0D01*
G01*
G37*
%TD*%
%TO.C,C10*%
G36*
G01*
X233075000Y-146000000D02*
X233075000Y-145500000D01*
G75*
G02*
X233300000Y-145275000I225000J0D01*
G01*
X233750000Y-145275000D01*
G75*
G02*
X233975000Y-145500000I0J-225000D01*
G01*
X233975000Y-146000000D01*
G75*
G02*
X233750000Y-146225000I-225000J0D01*
G01*
X233300000Y-146225000D01*
G75*
G02*
X233075000Y-146000000I0J225000D01*
G01*
G37*
G36*
G01*
X231525000Y-146000000D02*
X231525000Y-145500000D01*
G75*
G02*
X231750000Y-145275000I225000J0D01*
G01*
X232200000Y-145275000D01*
G75*
G02*
X232425000Y-145500000I0J-225000D01*
G01*
X232425000Y-146000000D01*
G75*
G02*
X232200000Y-146225000I-225000J0D01*
G01*
X231750000Y-146225000D01*
G75*
G02*
X231525000Y-146000000I0J225000D01*
G01*
G37*
%TD*%
%TO.C,C12*%
G36*
G01*
X181575000Y-112750000D02*
X181575000Y-112250000D01*
G75*
G02*
X181800000Y-112025000I225000J0D01*
G01*
X182250000Y-112025000D01*
G75*
G02*
X182475000Y-112250000I0J-225000D01*
G01*
X182475000Y-112750000D01*
G75*
G02*
X182250000Y-112975000I-225000J0D01*
G01*
X181800000Y-112975000D01*
G75*
G02*
X181575000Y-112750000I0J225000D01*
G01*
G37*
G36*
G01*
X180025000Y-112750000D02*
X180025000Y-112250000D01*
G75*
G02*
X180250000Y-112025000I225000J0D01*
G01*
X180700000Y-112025000D01*
G75*
G02*
X180925000Y-112250000I0J-225000D01*
G01*
X180925000Y-112750000D01*
G75*
G02*
X180700000Y-112975000I-225000J0D01*
G01*
X180250000Y-112975000D01*
G75*
G02*
X180025000Y-112750000I0J225000D01*
G01*
G37*
%TD*%
%TO.C,C11*%
G36*
G01*
X241575000Y-146000000D02*
X241575000Y-145500000D01*
G75*
G02*
X241800000Y-145275000I225000J0D01*
G01*
X242250000Y-145275000D01*
G75*
G02*
X242475000Y-145500000I0J-225000D01*
G01*
X242475000Y-146000000D01*
G75*
G02*
X242250000Y-146225000I-225000J0D01*
G01*
X241800000Y-146225000D01*
G75*
G02*
X241575000Y-146000000I0J225000D01*
G01*
G37*
G36*
G01*
X240025000Y-146000000D02*
X240025000Y-145500000D01*
G75*
G02*
X240250000Y-145275000I225000J0D01*
G01*
X240700000Y-145275000D01*
G75*
G02*
X240925000Y-145500000I0J-225000D01*
G01*
X240925000Y-146000000D01*
G75*
G02*
X240700000Y-146225000I-225000J0D01*
G01*
X240250000Y-146225000D01*
G75*
G02*
X240025000Y-146000000I0J225000D01*
G01*
G37*
%TD*%
%TO.C,C13*%
G36*
G01*
X247075000Y-117000000D02*
X247075000Y-116500000D01*
G75*
G02*
X247300000Y-116275000I225000J0D01*
G01*
X247750000Y-116275000D01*
G75*
G02*
X247975000Y-116500000I0J-225000D01*
G01*
X247975000Y-117000000D01*
G75*
G02*
X247750000Y-117225000I-225000J0D01*
G01*
X247300000Y-117225000D01*
G75*
G02*
X247075000Y-117000000I0J225000D01*
G01*
G37*
G36*
G01*
X245525000Y-117000000D02*
X245525000Y-116500000D01*
G75*
G02*
X245750000Y-116275000I225000J0D01*
G01*
X246200000Y-116275000D01*
G75*
G02*
X246425000Y-116500000I0J-225000D01*
G01*
X246425000Y-117000000D01*
G75*
G02*
X246200000Y-117225000I-225000J0D01*
G01*
X245750000Y-117225000D01*
G75*
G02*
X245525000Y-117000000I0J225000D01*
G01*
G37*
%TD*%
%TO.C,D2*%
G36*
G01*
X153062500Y-124756250D02*
X153062500Y-124243750D01*
G75*
G02*
X153281250Y-124025000I218750J0D01*
G01*
X153718750Y-124025000D01*
G75*
G02*
X153937500Y-124243750I0J-218750D01*
G01*
X153937500Y-124756250D01*
G75*
G02*
X153718750Y-124975000I-218750J0D01*
G01*
X153281250Y-124975000D01*
G75*
G02*
X153062500Y-124756250I0J218750D01*
G01*
G37*
G36*
G01*
X151487500Y-124756250D02*
X151487500Y-124243750D01*
G75*
G02*
X151706250Y-124025000I218750J0D01*
G01*
X152143750Y-124025000D01*
G75*
G02*
X152362500Y-124243750I0J-218750D01*
G01*
X152362500Y-124756250D01*
G75*
G02*
X152143750Y-124975000I-218750J0D01*
G01*
X151706250Y-124975000D01*
G75*
G02*
X151487500Y-124756250I0J218750D01*
G01*
G37*
%TD*%
D10*
%TO.C,D3*%
X149500000Y-121000000D03*
X153500000Y-121000000D03*
%TD*%
D11*
%TO.C,D1*%
X178250000Y-118450000D03*
X178250000Y-121750000D03*
%TD*%
%TO.C,D4*%
G36*
G01*
X179256250Y-126900000D02*
X178743750Y-126900000D01*
G75*
G02*
X178525000Y-126681250I0J218750D01*
G01*
X178525000Y-126243750D01*
G75*
G02*
X178743750Y-126025000I218750J0D01*
G01*
X179256250Y-126025000D01*
G75*
G02*
X179475000Y-126243750I0J-218750D01*
G01*
X179475000Y-126681250D01*
G75*
G02*
X179256250Y-126900000I-218750J0D01*
G01*
G37*
G36*
G01*
X179256250Y-128475000D02*
X178743750Y-128475000D01*
G75*
G02*
X178525000Y-128256250I0J218750D01*
G01*
X178525000Y-127818750D01*
G75*
G02*
X178743750Y-127600000I218750J0D01*
G01*
X179256250Y-127600000D01*
G75*
G02*
X179475000Y-127818750I0J-218750D01*
G01*
X179475000Y-128256250D01*
G75*
G02*
X179256250Y-128475000I-218750J0D01*
G01*
G37*
%TD*%
%TO.C,F2*%
G36*
G01*
X219375000Y-137725000D02*
X218125000Y-137725000D01*
G75*
G02*
X217875000Y-137475000I0J250000D01*
G01*
X217875000Y-136725000D01*
G75*
G02*
X218125000Y-136475000I250000J0D01*
G01*
X219375000Y-136475000D01*
G75*
G02*
X219625000Y-136725000I0J-250000D01*
G01*
X219625000Y-137475000D01*
G75*
G02*
X219375000Y-137725000I-250000J0D01*
G01*
G37*
G36*
G01*
X219375000Y-140525000D02*
X218125000Y-140525000D01*
G75*
G02*
X217875000Y-140275000I0J250000D01*
G01*
X217875000Y-139525000D01*
G75*
G02*
X218125000Y-139275000I250000J0D01*
G01*
X219375000Y-139275000D01*
G75*
G02*
X219625000Y-139525000I0J-250000D01*
G01*
X219625000Y-140275000D01*
G75*
G02*
X219375000Y-140525000I-250000J0D01*
G01*
G37*
%TD*%
%TO.C,R6*%
G36*
G01*
X196300000Y-122100000D02*
X196850000Y-122100000D01*
G75*
G02*
X197050000Y-122300000I0J-200000D01*
G01*
X197050000Y-122700000D01*
G75*
G02*
X196850000Y-122900000I-200000J0D01*
G01*
X196300000Y-122900000D01*
G75*
G02*
X196100000Y-122700000I0J200000D01*
G01*
X196100000Y-122300000D01*
G75*
G02*
X196300000Y-122100000I200000J0D01*
G01*
G37*
G36*
G01*
X196300000Y-120450000D02*
X196850000Y-120450000D01*
G75*
G02*
X197050000Y-120650000I0J-200000D01*
G01*
X197050000Y-121050000D01*
G75*
G02*
X196850000Y-121250000I-200000J0D01*
G01*
X196300000Y-121250000D01*
G75*
G02*
X196100000Y-121050000I0J200000D01*
G01*
X196100000Y-120650000D01*
G75*
G02*
X196300000Y-120450000I200000J0D01*
G01*
G37*
%TD*%
%TO.C,R20*%
G36*
G01*
X210075000Y-135225000D02*
X210075000Y-135775000D01*
G75*
G02*
X209875000Y-135975000I-200000J0D01*
G01*
X209475000Y-135975000D01*
G75*
G02*
X209275000Y-135775000I0J200000D01*
G01*
X209275000Y-135225000D01*
G75*
G02*
X209475000Y-135025000I200000J0D01*
G01*
X209875000Y-135025000D01*
G75*
G02*
X210075000Y-135225000I0J-200000D01*
G01*
G37*
G36*
G01*
X211725000Y-135225000D02*
X211725000Y-135775000D01*
G75*
G02*
X211525000Y-135975000I-200000J0D01*
G01*
X211125000Y-135975000D01*
G75*
G02*
X210925000Y-135775000I0J200000D01*
G01*
X210925000Y-135225000D01*
G75*
G02*
X211125000Y-135025000I200000J0D01*
G01*
X211525000Y-135025000D01*
G75*
G02*
X211725000Y-135225000I0J-200000D01*
G01*
G37*
%TD*%
%TO.C,R21*%
G36*
G01*
X207225000Y-136750000D02*
X207775000Y-136750000D01*
G75*
G02*
X207975000Y-136950000I0J-200000D01*
G01*
X207975000Y-137350000D01*
G75*
G02*
X207775000Y-137550000I-200000J0D01*
G01*
X207225000Y-137550000D01*
G75*
G02*
X207025000Y-137350000I0J200000D01*
G01*
X207025000Y-136950000D01*
G75*
G02*
X207225000Y-136750000I200000J0D01*
G01*
G37*
G36*
G01*
X207225000Y-135100000D02*
X207775000Y-135100000D01*
G75*
G02*
X207975000Y-135300000I0J-200000D01*
G01*
X207975000Y-135700000D01*
G75*
G02*
X207775000Y-135900000I-200000J0D01*
G01*
X207225000Y-135900000D01*
G75*
G02*
X207025000Y-135700000I0J200000D01*
G01*
X207025000Y-135300000D01*
G75*
G02*
X207225000Y-135100000I200000J0D01*
G01*
G37*
%TD*%
%TO.C,R4*%
G36*
G01*
X153175000Y-126775000D02*
X153175000Y-126225000D01*
G75*
G02*
X153375000Y-126025000I200000J0D01*
G01*
X153775000Y-126025000D01*
G75*
G02*
X153975000Y-126225000I0J-200000D01*
G01*
X153975000Y-126775000D01*
G75*
G02*
X153775000Y-126975000I-200000J0D01*
G01*
X153375000Y-126975000D01*
G75*
G02*
X153175000Y-126775000I0J200000D01*
G01*
G37*
G36*
G01*
X151525000Y-126775000D02*
X151525000Y-126225000D01*
G75*
G02*
X151725000Y-126025000I200000J0D01*
G01*
X152125000Y-126025000D01*
G75*
G02*
X152325000Y-126225000I0J-200000D01*
G01*
X152325000Y-126775000D01*
G75*
G02*
X152125000Y-126975000I-200000J0D01*
G01*
X151725000Y-126975000D01*
G75*
G02*
X151525000Y-126775000I0J200000D01*
G01*
G37*
%TD*%
%TO.C,R15*%
G36*
G01*
X201575000Y-135225000D02*
X201575000Y-135775000D01*
G75*
G02*
X201375000Y-135975000I-200000J0D01*
G01*
X200975000Y-135975000D01*
G75*
G02*
X200775000Y-135775000I0J200000D01*
G01*
X200775000Y-135225000D01*
G75*
G02*
X200975000Y-135025000I200000J0D01*
G01*
X201375000Y-135025000D01*
G75*
G02*
X201575000Y-135225000I0J-200000D01*
G01*
G37*
G36*
G01*
X203225000Y-135225000D02*
X203225000Y-135775000D01*
G75*
G02*
X203025000Y-135975000I-200000J0D01*
G01*
X202625000Y-135975000D01*
G75*
G02*
X202425000Y-135775000I0J200000D01*
G01*
X202425000Y-135225000D01*
G75*
G02*
X202625000Y-135025000I200000J0D01*
G01*
X203025000Y-135025000D01*
G75*
G02*
X203225000Y-135225000I0J-200000D01*
G01*
G37*
%TD*%
%TO.C,R17*%
G36*
G01*
X198725000Y-136750000D02*
X199275000Y-136750000D01*
G75*
G02*
X199475000Y-136950000I0J-200000D01*
G01*
X199475000Y-137350000D01*
G75*
G02*
X199275000Y-137550000I-200000J0D01*
G01*
X198725000Y-137550000D01*
G75*
G02*
X198525000Y-137350000I0J200000D01*
G01*
X198525000Y-136950000D01*
G75*
G02*
X198725000Y-136750000I200000J0D01*
G01*
G37*
G36*
G01*
X198725000Y-135100000D02*
X199275000Y-135100000D01*
G75*
G02*
X199475000Y-135300000I0J-200000D01*
G01*
X199475000Y-135700000D01*
G75*
G02*
X199275000Y-135900000I-200000J0D01*
G01*
X198725000Y-135900000D01*
G75*
G02*
X198525000Y-135700000I0J200000D01*
G01*
X198525000Y-135300000D01*
G75*
G02*
X198725000Y-135100000I200000J0D01*
G01*
G37*
%TD*%
%TO.C,R7*%
G36*
G01*
X221675000Y-122100000D02*
X222225000Y-122100000D01*
G75*
G02*
X222425000Y-122300000I0J-200000D01*
G01*
X222425000Y-122700000D01*
G75*
G02*
X222225000Y-122900000I-200000J0D01*
G01*
X221675000Y-122900000D01*
G75*
G02*
X221475000Y-122700000I0J200000D01*
G01*
X221475000Y-122300000D01*
G75*
G02*
X221675000Y-122100000I200000J0D01*
G01*
G37*
G36*
G01*
X221675000Y-120450000D02*
X222225000Y-120450000D01*
G75*
G02*
X222425000Y-120650000I0J-200000D01*
G01*
X222425000Y-121050000D01*
G75*
G02*
X222225000Y-121250000I-200000J0D01*
G01*
X221675000Y-121250000D01*
G75*
G02*
X221475000Y-121050000I0J200000D01*
G01*
X221475000Y-120650000D01*
G75*
G02*
X221675000Y-120450000I200000J0D01*
G01*
G37*
%TD*%
%TO.C,R11*%
G36*
G01*
X228775000Y-144750000D02*
X228225000Y-144750000D01*
G75*
G02*
X228025000Y-144550000I0J200000D01*
G01*
X228025000Y-144150000D01*
G75*
G02*
X228225000Y-143950000I200000J0D01*
G01*
X228775000Y-143950000D01*
G75*
G02*
X228975000Y-144150000I0J-200000D01*
G01*
X228975000Y-144550000D01*
G75*
G02*
X228775000Y-144750000I-200000J0D01*
G01*
G37*
G36*
G01*
X228775000Y-146400000D02*
X228225000Y-146400000D01*
G75*
G02*
X228025000Y-146200000I0J200000D01*
G01*
X228025000Y-145800000D01*
G75*
G02*
X228225000Y-145600000I200000J0D01*
G01*
X228775000Y-145600000D01*
G75*
G02*
X228975000Y-145800000I0J-200000D01*
G01*
X228975000Y-146200000D01*
G75*
G02*
X228775000Y-146400000I-200000J0D01*
G01*
G37*
%TD*%
%TO.C,R12*%
G36*
G01*
X229975000Y-145600000D02*
X230525000Y-145600000D01*
G75*
G02*
X230725000Y-145800000I0J-200000D01*
G01*
X230725000Y-146200000D01*
G75*
G02*
X230525000Y-146400000I-200000J0D01*
G01*
X229975000Y-146400000D01*
G75*
G02*
X229775000Y-146200000I0J200000D01*
G01*
X229775000Y-145800000D01*
G75*
G02*
X229975000Y-145600000I200000J0D01*
G01*
G37*
G36*
G01*
X229975000Y-143950000D02*
X230525000Y-143950000D01*
G75*
G02*
X230725000Y-144150000I0J-200000D01*
G01*
X230725000Y-144550000D01*
G75*
G02*
X230525000Y-144750000I-200000J0D01*
G01*
X229975000Y-144750000D01*
G75*
G02*
X229775000Y-144550000I0J200000D01*
G01*
X229775000Y-144150000D01*
G75*
G02*
X229975000Y-143950000I200000J0D01*
G01*
G37*
%TD*%
%TO.C,R3*%
G36*
G01*
X181750000Y-124025000D02*
X181750000Y-123475000D01*
G75*
G02*
X181950000Y-123275000I200000J0D01*
G01*
X182350000Y-123275000D01*
G75*
G02*
X182550000Y-123475000I0J-200000D01*
G01*
X182550000Y-124025000D01*
G75*
G02*
X182350000Y-124225000I-200000J0D01*
G01*
X181950000Y-124225000D01*
G75*
G02*
X181750000Y-124025000I0J200000D01*
G01*
G37*
G36*
G01*
X180100000Y-124025000D02*
X180100000Y-123475000D01*
G75*
G02*
X180300000Y-123275000I200000J0D01*
G01*
X180700000Y-123275000D01*
G75*
G02*
X180900000Y-123475000I0J-200000D01*
G01*
X180900000Y-124025000D01*
G75*
G02*
X180700000Y-124225000I-200000J0D01*
G01*
X180300000Y-124225000D01*
G75*
G02*
X180100000Y-124025000I0J200000D01*
G01*
G37*
%TD*%
%TO.C,R5*%
G36*
G01*
X180725000Y-127675000D02*
X181275000Y-127675000D01*
G75*
G02*
X181475000Y-127875000I0J-200000D01*
G01*
X181475000Y-128275000D01*
G75*
G02*
X181275000Y-128475000I-200000J0D01*
G01*
X180725000Y-128475000D01*
G75*
G02*
X180525000Y-128275000I0J200000D01*
G01*
X180525000Y-127875000D01*
G75*
G02*
X180725000Y-127675000I200000J0D01*
G01*
G37*
G36*
G01*
X180725000Y-126025000D02*
X181275000Y-126025000D01*
G75*
G02*
X181475000Y-126225000I0J-200000D01*
G01*
X181475000Y-126625000D01*
G75*
G02*
X181275000Y-126825000I-200000J0D01*
G01*
X180725000Y-126825000D01*
G75*
G02*
X180525000Y-126625000I0J200000D01*
G01*
X180525000Y-126225000D01*
G75*
G02*
X180725000Y-126025000I200000J0D01*
G01*
G37*
%TD*%
%TO.C,R13*%
G36*
G01*
X226425000Y-136775000D02*
X226425000Y-136225000D01*
G75*
G02*
X226625000Y-136025000I200000J0D01*
G01*
X227025000Y-136025000D01*
G75*
G02*
X227225000Y-136225000I0J-200000D01*
G01*
X227225000Y-136775000D01*
G75*
G02*
X227025000Y-136975000I-200000J0D01*
G01*
X226625000Y-136975000D01*
G75*
G02*
X226425000Y-136775000I0J200000D01*
G01*
G37*
G36*
G01*
X224775000Y-136775000D02*
X224775000Y-136225000D01*
G75*
G02*
X224975000Y-136025000I200000J0D01*
G01*
X225375000Y-136025000D01*
G75*
G02*
X225575000Y-136225000I0J-200000D01*
G01*
X225575000Y-136775000D01*
G75*
G02*
X225375000Y-136975000I-200000J0D01*
G01*
X224975000Y-136975000D01*
G75*
G02*
X224775000Y-136775000I0J200000D01*
G01*
G37*
%TD*%
%TO.C,R14*%
G36*
G01*
X235525000Y-144750000D02*
X234975000Y-144750000D01*
G75*
G02*
X234775000Y-144550000I0J200000D01*
G01*
X234775000Y-144150000D01*
G75*
G02*
X234975000Y-143950000I200000J0D01*
G01*
X235525000Y-143950000D01*
G75*
G02*
X235725000Y-144150000I0J-200000D01*
G01*
X235725000Y-144550000D01*
G75*
G02*
X235525000Y-144750000I-200000J0D01*
G01*
G37*
G36*
G01*
X235525000Y-146400000D02*
X234975000Y-146400000D01*
G75*
G02*
X234775000Y-146200000I0J200000D01*
G01*
X234775000Y-145800000D01*
G75*
G02*
X234975000Y-145600000I200000J0D01*
G01*
X235525000Y-145600000D01*
G75*
G02*
X235725000Y-145800000I0J-200000D01*
G01*
X235725000Y-146200000D01*
G75*
G02*
X235525000Y-146400000I-200000J0D01*
G01*
G37*
%TD*%
%TO.C,R16*%
G36*
G01*
X225575000Y-137975000D02*
X225575000Y-138525000D01*
G75*
G02*
X225375000Y-138725000I-200000J0D01*
G01*
X224975000Y-138725000D01*
G75*
G02*
X224775000Y-138525000I0J200000D01*
G01*
X224775000Y-137975000D01*
G75*
G02*
X224975000Y-137775000I200000J0D01*
G01*
X225375000Y-137775000D01*
G75*
G02*
X225575000Y-137975000I0J-200000D01*
G01*
G37*
G36*
G01*
X227225000Y-137975000D02*
X227225000Y-138525000D01*
G75*
G02*
X227025000Y-138725000I-200000J0D01*
G01*
X226625000Y-138725000D01*
G75*
G02*
X226425000Y-138525000I0J200000D01*
G01*
X226425000Y-137975000D01*
G75*
G02*
X226625000Y-137775000I200000J0D01*
G01*
X227025000Y-137775000D01*
G75*
G02*
X227225000Y-137975000I0J-200000D01*
G01*
G37*
%TD*%
%TO.C,R22*%
G36*
G01*
X181675000Y-114775000D02*
X181675000Y-114225000D01*
G75*
G02*
X181875000Y-114025000I200000J0D01*
G01*
X182275000Y-114025000D01*
G75*
G02*
X182475000Y-114225000I0J-200000D01*
G01*
X182475000Y-114775000D01*
G75*
G02*
X182275000Y-114975000I-200000J0D01*
G01*
X181875000Y-114975000D01*
G75*
G02*
X181675000Y-114775000I0J200000D01*
G01*
G37*
G36*
G01*
X180025000Y-114775000D02*
X180025000Y-114225000D01*
G75*
G02*
X180225000Y-114025000I200000J0D01*
G01*
X180625000Y-114025000D01*
G75*
G02*
X180825000Y-114225000I0J-200000D01*
G01*
X180825000Y-114775000D01*
G75*
G02*
X180625000Y-114975000I-200000J0D01*
G01*
X180225000Y-114975000D01*
G75*
G02*
X180025000Y-114775000I0J200000D01*
G01*
G37*
%TD*%
%TO.C,R18*%
G36*
G01*
X237275000Y-144750000D02*
X236725000Y-144750000D01*
G75*
G02*
X236525000Y-144550000I0J200000D01*
G01*
X236525000Y-144150000D01*
G75*
G02*
X236725000Y-143950000I200000J0D01*
G01*
X237275000Y-143950000D01*
G75*
G02*
X237475000Y-144150000I0J-200000D01*
G01*
X237475000Y-144550000D01*
G75*
G02*
X237275000Y-144750000I-200000J0D01*
G01*
G37*
G36*
G01*
X237275000Y-146400000D02*
X236725000Y-146400000D01*
G75*
G02*
X236525000Y-146200000I0J200000D01*
G01*
X236525000Y-145800000D01*
G75*
G02*
X236725000Y-145600000I200000J0D01*
G01*
X237275000Y-145600000D01*
G75*
G02*
X237475000Y-145800000I0J-200000D01*
G01*
X237475000Y-146200000D01*
G75*
G02*
X237275000Y-146400000I-200000J0D01*
G01*
G37*
%TD*%
%TO.C,R19*%
G36*
G01*
X238475000Y-145600000D02*
X239025000Y-145600000D01*
G75*
G02*
X239225000Y-145800000I0J-200000D01*
G01*
X239225000Y-146200000D01*
G75*
G02*
X239025000Y-146400000I-200000J0D01*
G01*
X238475000Y-146400000D01*
G75*
G02*
X238275000Y-146200000I0J200000D01*
G01*
X238275000Y-145800000D01*
G75*
G02*
X238475000Y-145600000I200000J0D01*
G01*
G37*
G36*
G01*
X238475000Y-143950000D02*
X239025000Y-143950000D01*
G75*
G02*
X239225000Y-144150000I0J-200000D01*
G01*
X239225000Y-144550000D01*
G75*
G02*
X239025000Y-144750000I-200000J0D01*
G01*
X238475000Y-144750000D01*
G75*
G02*
X238275000Y-144550000I0J200000D01*
G01*
X238275000Y-144150000D01*
G75*
G02*
X238475000Y-143950000I200000J0D01*
G01*
G37*
%TD*%
%TO.C,R23*%
G36*
G01*
X234725000Y-137600000D02*
X235275000Y-137600000D01*
G75*
G02*
X235475000Y-137800000I0J-200000D01*
G01*
X235475000Y-138200000D01*
G75*
G02*
X235275000Y-138400000I-200000J0D01*
G01*
X234725000Y-138400000D01*
G75*
G02*
X234525000Y-138200000I0J200000D01*
G01*
X234525000Y-137800000D01*
G75*
G02*
X234725000Y-137600000I200000J0D01*
G01*
G37*
G36*
G01*
X234725000Y-135950000D02*
X235275000Y-135950000D01*
G75*
G02*
X235475000Y-136150000I0J-200000D01*
G01*
X235475000Y-136550000D01*
G75*
G02*
X235275000Y-136750000I-200000J0D01*
G01*
X234725000Y-136750000D01*
G75*
G02*
X234525000Y-136550000I0J200000D01*
G01*
X234525000Y-136150000D01*
G75*
G02*
X234725000Y-135950000I200000J0D01*
G01*
G37*
%TD*%
%TO.C,R24*%
G36*
G01*
X244025000Y-144750000D02*
X243475000Y-144750000D01*
G75*
G02*
X243275000Y-144550000I0J200000D01*
G01*
X243275000Y-144150000D01*
G75*
G02*
X243475000Y-143950000I200000J0D01*
G01*
X244025000Y-143950000D01*
G75*
G02*
X244225000Y-144150000I0J-200000D01*
G01*
X244225000Y-144550000D01*
G75*
G02*
X244025000Y-144750000I-200000J0D01*
G01*
G37*
G36*
G01*
X244025000Y-146400000D02*
X243475000Y-146400000D01*
G75*
G02*
X243275000Y-146200000I0J200000D01*
G01*
X243275000Y-145800000D01*
G75*
G02*
X243475000Y-145600000I200000J0D01*
G01*
X244025000Y-145600000D01*
G75*
G02*
X244225000Y-145800000I0J-200000D01*
G01*
X244225000Y-146200000D01*
G75*
G02*
X244025000Y-146400000I-200000J0D01*
G01*
G37*
%TD*%
%TO.C,R25*%
G36*
G01*
X237025000Y-136750000D02*
X236475000Y-136750000D01*
G75*
G02*
X236275000Y-136550000I0J200000D01*
G01*
X236275000Y-136150000D01*
G75*
G02*
X236475000Y-135950000I200000J0D01*
G01*
X237025000Y-135950000D01*
G75*
G02*
X237225000Y-136150000I0J-200000D01*
G01*
X237225000Y-136550000D01*
G75*
G02*
X237025000Y-136750000I-200000J0D01*
G01*
G37*
G36*
G01*
X237025000Y-138400000D02*
X236475000Y-138400000D01*
G75*
G02*
X236275000Y-138200000I0J200000D01*
G01*
X236275000Y-137800000D01*
G75*
G02*
X236475000Y-137600000I200000J0D01*
G01*
X237025000Y-137600000D01*
G75*
G02*
X237225000Y-137800000I0J-200000D01*
G01*
X237225000Y-138200000D01*
G75*
G02*
X237025000Y-138400000I-200000J0D01*
G01*
G37*
%TD*%
%TO.C,U2*%
G36*
G01*
X232215000Y-139595000D02*
X231405000Y-139595000D01*
G75*
G02*
X231155000Y-139345000I0J250000D01*
G01*
X231155000Y-138535000D01*
G75*
G02*
X231405000Y-138285000I250000J0D01*
G01*
X232215000Y-138285000D01*
G75*
G02*
X232465000Y-138535000I0J-250000D01*
G01*
X232465000Y-139345000D01*
G75*
G02*
X232215000Y-139595000I-250000J0D01*
G01*
G37*
G36*
G01*
X230595000Y-139595000D02*
X229785000Y-139595000D01*
G75*
G02*
X229535000Y-139345000I0J250000D01*
G01*
X229535000Y-138535000D01*
G75*
G02*
X229785000Y-138285000I250000J0D01*
G01*
X230595000Y-138285000D01*
G75*
G02*
X230845000Y-138535000I0J-250000D01*
G01*
X230845000Y-139345000D01*
G75*
G02*
X230595000Y-139595000I-250000J0D01*
G01*
G37*
G36*
G01*
X232215000Y-141215000D02*
X231405000Y-141215000D01*
G75*
G02*
X231155000Y-140965000I0J250000D01*
G01*
X231155000Y-140155000D01*
G75*
G02*
X231405000Y-139905000I250000J0D01*
G01*
X232215000Y-139905000D01*
G75*
G02*
X232465000Y-140155000I0J-250000D01*
G01*
X232465000Y-140965000D01*
G75*
G02*
X232215000Y-141215000I-250000J0D01*
G01*
G37*
G36*
G01*
X230595000Y-141215000D02*
X229785000Y-141215000D01*
G75*
G02*
X229535000Y-140965000I0J250000D01*
G01*
X229535000Y-140155000D01*
G75*
G02*
X229785000Y-139905000I250000J0D01*
G01*
X230595000Y-139905000D01*
G75*
G02*
X230845000Y-140155000I0J-250000D01*
G01*
X230845000Y-140965000D01*
G75*
G02*
X230595000Y-141215000I-250000J0D01*
G01*
G37*
G36*
G01*
X228900000Y-141200000D02*
X228225000Y-141200000D01*
G75*
G02*
X228150000Y-141125000I0J75000D01*
G01*
X228150000Y-140975000D01*
G75*
G02*
X228225000Y-140900000I75000J0D01*
G01*
X228900000Y-140900000D01*
G75*
G02*
X228975000Y-140975000I0J-75000D01*
G01*
X228975000Y-141125000D01*
G75*
G02*
X228900000Y-141200000I-75000J0D01*
G01*
G37*
G36*
G01*
X228900000Y-140550000D02*
X228225000Y-140550000D01*
G75*
G02*
X228150000Y-140475000I0J75000D01*
G01*
X228150000Y-140325000D01*
G75*
G02*
X228225000Y-140250000I75000J0D01*
G01*
X228900000Y-140250000D01*
G75*
G02*
X228975000Y-140325000I0J-75000D01*
G01*
X228975000Y-140475000D01*
G75*
G02*
X228900000Y-140550000I-75000J0D01*
G01*
G37*
G36*
G01*
X228900000Y-139900000D02*
X228225000Y-139900000D01*
G75*
G02*
X228150000Y-139825000I0J75000D01*
G01*
X228150000Y-139675000D01*
G75*
G02*
X228225000Y-139600000I75000J0D01*
G01*
X228900000Y-139600000D01*
G75*
G02*
X228975000Y-139675000I0J-75000D01*
G01*
X228975000Y-139825000D01*
G75*
G02*
X228900000Y-139900000I-75000J0D01*
G01*
G37*
G36*
G01*
X228900000Y-139250000D02*
X228225000Y-139250000D01*
G75*
G02*
X228150000Y-139175000I0J75000D01*
G01*
X228150000Y-139025000D01*
G75*
G02*
X228225000Y-138950000I75000J0D01*
G01*
X228900000Y-138950000D01*
G75*
G02*
X228975000Y-139025000I0J-75000D01*
G01*
X228975000Y-139175000D01*
G75*
G02*
X228900000Y-139250000I-75000J0D01*
G01*
G37*
G36*
G01*
X228900000Y-138600000D02*
X228225000Y-138600000D01*
G75*
G02*
X228150000Y-138525000I0J75000D01*
G01*
X228150000Y-138375000D01*
G75*
G02*
X228225000Y-138300000I75000J0D01*
G01*
X228900000Y-138300000D01*
G75*
G02*
X228975000Y-138375000I0J-75000D01*
G01*
X228975000Y-138525000D01*
G75*
G02*
X228900000Y-138600000I-75000J0D01*
G01*
G37*
G36*
G01*
X229775000Y-137725000D02*
X229625000Y-137725000D01*
G75*
G02*
X229550000Y-137650000I0J75000D01*
G01*
X229550000Y-136975000D01*
G75*
G02*
X229625000Y-136900000I75000J0D01*
G01*
X229775000Y-136900000D01*
G75*
G02*
X229850000Y-136975000I0J-75000D01*
G01*
X229850000Y-137650000D01*
G75*
G02*
X229775000Y-137725000I-75000J0D01*
G01*
G37*
G36*
G01*
X230425000Y-137725000D02*
X230275000Y-137725000D01*
G75*
G02*
X230200000Y-137650000I0J75000D01*
G01*
X230200000Y-136975000D01*
G75*
G02*
X230275000Y-136900000I75000J0D01*
G01*
X230425000Y-136900000D01*
G75*
G02*
X230500000Y-136975000I0J-75000D01*
G01*
X230500000Y-137650000D01*
G75*
G02*
X230425000Y-137725000I-75000J0D01*
G01*
G37*
G36*
G01*
X231075000Y-137725000D02*
X230925000Y-137725000D01*
G75*
G02*
X230850000Y-137650000I0J75000D01*
G01*
X230850000Y-136975000D01*
G75*
G02*
X230925000Y-136900000I75000J0D01*
G01*
X231075000Y-136900000D01*
G75*
G02*
X231150000Y-136975000I0J-75000D01*
G01*
X231150000Y-137650000D01*
G75*
G02*
X231075000Y-137725000I-75000J0D01*
G01*
G37*
G36*
G01*
X231725000Y-137725000D02*
X231575000Y-137725000D01*
G75*
G02*
X231500000Y-137650000I0J75000D01*
G01*
X231500000Y-136975000D01*
G75*
G02*
X231575000Y-136900000I75000J0D01*
G01*
X231725000Y-136900000D01*
G75*
G02*
X231800000Y-136975000I0J-75000D01*
G01*
X231800000Y-137650000D01*
G75*
G02*
X231725000Y-137725000I-75000J0D01*
G01*
G37*
G36*
G01*
X232375000Y-137725000D02*
X232225000Y-137725000D01*
G75*
G02*
X232150000Y-137650000I0J75000D01*
G01*
X232150000Y-136975000D01*
G75*
G02*
X232225000Y-136900000I75000J0D01*
G01*
X232375000Y-136900000D01*
G75*
G02*
X232450000Y-136975000I0J-75000D01*
G01*
X232450000Y-137650000D01*
G75*
G02*
X232375000Y-137725000I-75000J0D01*
G01*
G37*
G36*
G01*
X233775000Y-138600000D02*
X233100000Y-138600000D01*
G75*
G02*
X233025000Y-138525000I0J75000D01*
G01*
X233025000Y-138375000D01*
G75*
G02*
X233100000Y-138300000I75000J0D01*
G01*
X233775000Y-138300000D01*
G75*
G02*
X233850000Y-138375000I0J-75000D01*
G01*
X233850000Y-138525000D01*
G75*
G02*
X233775000Y-138600000I-75000J0D01*
G01*
G37*
G36*
G01*
X233775000Y-139250000D02*
X233100000Y-139250000D01*
G75*
G02*
X233025000Y-139175000I0J75000D01*
G01*
X233025000Y-139025000D01*
G75*
G02*
X233100000Y-138950000I75000J0D01*
G01*
X233775000Y-138950000D01*
G75*
G02*
X233850000Y-139025000I0J-75000D01*
G01*
X233850000Y-139175000D01*
G75*
G02*
X233775000Y-139250000I-75000J0D01*
G01*
G37*
G36*
G01*
X233775000Y-139900000D02*
X233100000Y-139900000D01*
G75*
G02*
X233025000Y-139825000I0J75000D01*
G01*
X233025000Y-139675000D01*
G75*
G02*
X233100000Y-139600000I75000J0D01*
G01*
X233775000Y-139600000D01*
G75*
G02*
X233850000Y-139675000I0J-75000D01*
G01*
X233850000Y-139825000D01*
G75*
G02*
X233775000Y-139900000I-75000J0D01*
G01*
G37*
G36*
G01*
X233775000Y-140550000D02*
X233100000Y-140550000D01*
G75*
G02*
X233025000Y-140475000I0J75000D01*
G01*
X233025000Y-140325000D01*
G75*
G02*
X233100000Y-140250000I75000J0D01*
G01*
X233775000Y-140250000D01*
G75*
G02*
X233850000Y-140325000I0J-75000D01*
G01*
X233850000Y-140475000D01*
G75*
G02*
X233775000Y-140550000I-75000J0D01*
G01*
G37*
G36*
G01*
X233775000Y-141200000D02*
X233100000Y-141200000D01*
G75*
G02*
X233025000Y-141125000I0J75000D01*
G01*
X233025000Y-140975000D01*
G75*
G02*
X233100000Y-140900000I75000J0D01*
G01*
X233775000Y-140900000D01*
G75*
G02*
X233850000Y-140975000I0J-75000D01*
G01*
X233850000Y-141125000D01*
G75*
G02*
X233775000Y-141200000I-75000J0D01*
G01*
G37*
G36*
G01*
X232375000Y-142600000D02*
X232225000Y-142600000D01*
G75*
G02*
X232150000Y-142525000I0J75000D01*
G01*
X232150000Y-141850000D01*
G75*
G02*
X232225000Y-141775000I75000J0D01*
G01*
X232375000Y-141775000D01*
G75*
G02*
X232450000Y-141850000I0J-75000D01*
G01*
X232450000Y-142525000D01*
G75*
G02*
X232375000Y-142600000I-75000J0D01*
G01*
G37*
G36*
G01*
X231725000Y-142600000D02*
X231575000Y-142600000D01*
G75*
G02*
X231500000Y-142525000I0J75000D01*
G01*
X231500000Y-141850000D01*
G75*
G02*
X231575000Y-141775000I75000J0D01*
G01*
X231725000Y-141775000D01*
G75*
G02*
X231800000Y-141850000I0J-75000D01*
G01*
X231800000Y-142525000D01*
G75*
G02*
X231725000Y-142600000I-75000J0D01*
G01*
G37*
G36*
G01*
X231075000Y-142600000D02*
X230925000Y-142600000D01*
G75*
G02*
X230850000Y-142525000I0J75000D01*
G01*
X230850000Y-141850000D01*
G75*
G02*
X230925000Y-141775000I75000J0D01*
G01*
X231075000Y-141775000D01*
G75*
G02*
X231150000Y-141850000I0J-75000D01*
G01*
X231150000Y-142525000D01*
G75*
G02*
X231075000Y-142600000I-75000J0D01*
G01*
G37*
G36*
G01*
X230425000Y-142600000D02*
X230275000Y-142600000D01*
G75*
G02*
X230200000Y-142525000I0J75000D01*
G01*
X230200000Y-141850000D01*
G75*
G02*
X230275000Y-141775000I75000J0D01*
G01*
X230425000Y-141775000D01*
G75*
G02*
X230500000Y-141850000I0J-75000D01*
G01*
X230500000Y-142525000D01*
G75*
G02*
X230425000Y-142600000I-75000J0D01*
G01*
G37*
G36*
G01*
X229775000Y-142600000D02*
X229625000Y-142600000D01*
G75*
G02*
X229550000Y-142525000I0J75000D01*
G01*
X229550000Y-141850000D01*
G75*
G02*
X229625000Y-141775000I75000J0D01*
G01*
X229775000Y-141775000D01*
G75*
G02*
X229850000Y-141850000I0J-75000D01*
G01*
X229850000Y-142525000D01*
G75*
G02*
X229775000Y-142600000I-75000J0D01*
G01*
G37*
%TD*%
%TO.C,U4*%
G36*
G01*
X243125000Y-116875000D02*
X243125000Y-116675000D01*
G75*
G02*
X243225000Y-116575000I100000J0D01*
G01*
X244500000Y-116575000D01*
G75*
G02*
X244600000Y-116675000I0J-100000D01*
G01*
X244600000Y-116875000D01*
G75*
G02*
X244500000Y-116975000I-100000J0D01*
G01*
X243225000Y-116975000D01*
G75*
G02*
X243125000Y-116875000I0J100000D01*
G01*
G37*
G36*
G01*
X243125000Y-117525000D02*
X243125000Y-117325000D01*
G75*
G02*
X243225000Y-117225000I100000J0D01*
G01*
X244500000Y-117225000D01*
G75*
G02*
X244600000Y-117325000I0J-100000D01*
G01*
X244600000Y-117525000D01*
G75*
G02*
X244500000Y-117625000I-100000J0D01*
G01*
X243225000Y-117625000D01*
G75*
G02*
X243125000Y-117525000I0J100000D01*
G01*
G37*
G36*
G01*
X243125000Y-118175000D02*
X243125000Y-117975000D01*
G75*
G02*
X243225000Y-117875000I100000J0D01*
G01*
X244500000Y-117875000D01*
G75*
G02*
X244600000Y-117975000I0J-100000D01*
G01*
X244600000Y-118175000D01*
G75*
G02*
X244500000Y-118275000I-100000J0D01*
G01*
X243225000Y-118275000D01*
G75*
G02*
X243125000Y-118175000I0J100000D01*
G01*
G37*
G36*
G01*
X243125000Y-118825000D02*
X243125000Y-118625000D01*
G75*
G02*
X243225000Y-118525000I100000J0D01*
G01*
X244500000Y-118525000D01*
G75*
G02*
X244600000Y-118625000I0J-100000D01*
G01*
X244600000Y-118825000D01*
G75*
G02*
X244500000Y-118925000I-100000J0D01*
G01*
X243225000Y-118925000D01*
G75*
G02*
X243125000Y-118825000I0J100000D01*
G01*
G37*
G36*
G01*
X237400000Y-118825000D02*
X237400000Y-118625000D01*
G75*
G02*
X237500000Y-118525000I100000J0D01*
G01*
X238775000Y-118525000D01*
G75*
G02*
X238875000Y-118625000I0J-100000D01*
G01*
X238875000Y-118825000D01*
G75*
G02*
X238775000Y-118925000I-100000J0D01*
G01*
X237500000Y-118925000D01*
G75*
G02*
X237400000Y-118825000I0J100000D01*
G01*
G37*
G36*
G01*
X237400000Y-118175000D02*
X237400000Y-117975000D01*
G75*
G02*
X237500000Y-117875000I100000J0D01*
G01*
X238775000Y-117875000D01*
G75*
G02*
X238875000Y-117975000I0J-100000D01*
G01*
X238875000Y-118175000D01*
G75*
G02*
X238775000Y-118275000I-100000J0D01*
G01*
X237500000Y-118275000D01*
G75*
G02*
X237400000Y-118175000I0J100000D01*
G01*
G37*
G36*
G01*
X237400000Y-117525000D02*
X237400000Y-117325000D01*
G75*
G02*
X237500000Y-117225000I100000J0D01*
G01*
X238775000Y-117225000D01*
G75*
G02*
X238875000Y-117325000I0J-100000D01*
G01*
X238875000Y-117525000D01*
G75*
G02*
X238775000Y-117625000I-100000J0D01*
G01*
X237500000Y-117625000D01*
G75*
G02*
X237400000Y-117525000I0J100000D01*
G01*
G37*
G36*
G01*
X237400000Y-116875000D02*
X237400000Y-116675000D01*
G75*
G02*
X237500000Y-116575000I100000J0D01*
G01*
X238775000Y-116575000D01*
G75*
G02*
X238875000Y-116675000I0J-100000D01*
G01*
X238875000Y-116875000D01*
G75*
G02*
X238775000Y-116975000I-100000J0D01*
G01*
X237500000Y-116975000D01*
G75*
G02*
X237400000Y-116875000I0J100000D01*
G01*
G37*
%TD*%
%TO.C,U5*%
G36*
G01*
X241965000Y-139595000D02*
X241155000Y-139595000D01*
G75*
G02*
X240905000Y-139345000I0J250000D01*
G01*
X240905000Y-138535000D01*
G75*
G02*
X241155000Y-138285000I250000J0D01*
G01*
X241965000Y-138285000D01*
G75*
G02*
X242215000Y-138535000I0J-250000D01*
G01*
X242215000Y-139345000D01*
G75*
G02*
X241965000Y-139595000I-250000J0D01*
G01*
G37*
G36*
G01*
X240345000Y-139595000D02*
X239535000Y-139595000D01*
G75*
G02*
X239285000Y-139345000I0J250000D01*
G01*
X239285000Y-138535000D01*
G75*
G02*
X239535000Y-138285000I250000J0D01*
G01*
X240345000Y-138285000D01*
G75*
G02*
X240595000Y-138535000I0J-250000D01*
G01*
X240595000Y-139345000D01*
G75*
G02*
X240345000Y-139595000I-250000J0D01*
G01*
G37*
G36*
G01*
X241965000Y-141215000D02*
X241155000Y-141215000D01*
G75*
G02*
X240905000Y-140965000I0J250000D01*
G01*
X240905000Y-140155000D01*
G75*
G02*
X241155000Y-139905000I250000J0D01*
G01*
X241965000Y-139905000D01*
G75*
G02*
X242215000Y-140155000I0J-250000D01*
G01*
X242215000Y-140965000D01*
G75*
G02*
X241965000Y-141215000I-250000J0D01*
G01*
G37*
G36*
G01*
X240345000Y-141215000D02*
X239535000Y-141215000D01*
G75*
G02*
X239285000Y-140965000I0J250000D01*
G01*
X239285000Y-140155000D01*
G75*
G02*
X239535000Y-139905000I250000J0D01*
G01*
X240345000Y-139905000D01*
G75*
G02*
X240595000Y-140155000I0J-250000D01*
G01*
X240595000Y-140965000D01*
G75*
G02*
X240345000Y-141215000I-250000J0D01*
G01*
G37*
G36*
G01*
X238650000Y-141200000D02*
X237975000Y-141200000D01*
G75*
G02*
X237900000Y-141125000I0J75000D01*
G01*
X237900000Y-140975000D01*
G75*
G02*
X237975000Y-140900000I75000J0D01*
G01*
X238650000Y-140900000D01*
G75*
G02*
X238725000Y-140975000I0J-75000D01*
G01*
X238725000Y-141125000D01*
G75*
G02*
X238650000Y-141200000I-75000J0D01*
G01*
G37*
G36*
G01*
X238650000Y-140550000D02*
X237975000Y-140550000D01*
G75*
G02*
X237900000Y-140475000I0J75000D01*
G01*
X237900000Y-140325000D01*
G75*
G02*
X237975000Y-140250000I75000J0D01*
G01*
X238650000Y-140250000D01*
G75*
G02*
X238725000Y-140325000I0J-75000D01*
G01*
X238725000Y-140475000D01*
G75*
G02*
X238650000Y-140550000I-75000J0D01*
G01*
G37*
G36*
G01*
X238650000Y-139900000D02*
X237975000Y-139900000D01*
G75*
G02*
X237900000Y-139825000I0J75000D01*
G01*
X237900000Y-139675000D01*
G75*
G02*
X237975000Y-139600000I75000J0D01*
G01*
X238650000Y-139600000D01*
G75*
G02*
X238725000Y-139675000I0J-75000D01*
G01*
X238725000Y-139825000D01*
G75*
G02*
X238650000Y-139900000I-75000J0D01*
G01*
G37*
G36*
G01*
X238650000Y-139250000D02*
X237975000Y-139250000D01*
G75*
G02*
X237900000Y-139175000I0J75000D01*
G01*
X237900000Y-139025000D01*
G75*
G02*
X237975000Y-138950000I75000J0D01*
G01*
X238650000Y-138950000D01*
G75*
G02*
X238725000Y-139025000I0J-75000D01*
G01*
X238725000Y-139175000D01*
G75*
G02*
X238650000Y-139250000I-75000J0D01*
G01*
G37*
G36*
G01*
X238650000Y-138600000D02*
X237975000Y-138600000D01*
G75*
G02*
X237900000Y-138525000I0J75000D01*
G01*
X237900000Y-138375000D01*
G75*
G02*
X237975000Y-138300000I75000J0D01*
G01*
X238650000Y-138300000D01*
G75*
G02*
X238725000Y-138375000I0J-75000D01*
G01*
X238725000Y-138525000D01*
G75*
G02*
X238650000Y-138600000I-75000J0D01*
G01*
G37*
G36*
G01*
X239525000Y-137725000D02*
X239375000Y-137725000D01*
G75*
G02*
X239300000Y-137650000I0J75000D01*
G01*
X239300000Y-136975000D01*
G75*
G02*
X239375000Y-136900000I75000J0D01*
G01*
X239525000Y-136900000D01*
G75*
G02*
X239600000Y-136975000I0J-75000D01*
G01*
X239600000Y-137650000D01*
G75*
G02*
X239525000Y-137725000I-75000J0D01*
G01*
G37*
G36*
G01*
X240175000Y-137725000D02*
X240025000Y-137725000D01*
G75*
G02*
X239950000Y-137650000I0J75000D01*
G01*
X239950000Y-136975000D01*
G75*
G02*
X240025000Y-136900000I75000J0D01*
G01*
X240175000Y-136900000D01*
G75*
G02*
X240250000Y-136975000I0J-75000D01*
G01*
X240250000Y-137650000D01*
G75*
G02*
X240175000Y-137725000I-75000J0D01*
G01*
G37*
G36*
G01*
X240825000Y-137725000D02*
X240675000Y-137725000D01*
G75*
G02*
X240600000Y-137650000I0J75000D01*
G01*
X240600000Y-136975000D01*
G75*
G02*
X240675000Y-136900000I75000J0D01*
G01*
X240825000Y-136900000D01*
G75*
G02*
X240900000Y-136975000I0J-75000D01*
G01*
X240900000Y-137650000D01*
G75*
G02*
X240825000Y-137725000I-75000J0D01*
G01*
G37*
G36*
G01*
X241475000Y-137725000D02*
X241325000Y-137725000D01*
G75*
G02*
X241250000Y-137650000I0J75000D01*
G01*
X241250000Y-136975000D01*
G75*
G02*
X241325000Y-136900000I75000J0D01*
G01*
X241475000Y-136900000D01*
G75*
G02*
X241550000Y-136975000I0J-75000D01*
G01*
X241550000Y-137650000D01*
G75*
G02*
X241475000Y-137725000I-75000J0D01*
G01*
G37*
G36*
G01*
X242125000Y-137725000D02*
X241975000Y-137725000D01*
G75*
G02*
X241900000Y-137650000I0J75000D01*
G01*
X241900000Y-136975000D01*
G75*
G02*
X241975000Y-136900000I75000J0D01*
G01*
X242125000Y-136900000D01*
G75*
G02*
X242200000Y-136975000I0J-75000D01*
G01*
X242200000Y-137650000D01*
G75*
G02*
X242125000Y-137725000I-75000J0D01*
G01*
G37*
G36*
G01*
X243525000Y-138600000D02*
X242850000Y-138600000D01*
G75*
G02*
X242775000Y-138525000I0J75000D01*
G01*
X242775000Y-138375000D01*
G75*
G02*
X242850000Y-138300000I75000J0D01*
G01*
X243525000Y-138300000D01*
G75*
G02*
X243600000Y-138375000I0J-75000D01*
G01*
X243600000Y-138525000D01*
G75*
G02*
X243525000Y-138600000I-75000J0D01*
G01*
G37*
G36*
G01*
X243525000Y-139250000D02*
X242850000Y-139250000D01*
G75*
G02*
X242775000Y-139175000I0J75000D01*
G01*
X242775000Y-139025000D01*
G75*
G02*
X242850000Y-138950000I75000J0D01*
G01*
X243525000Y-138950000D01*
G75*
G02*
X243600000Y-139025000I0J-75000D01*
G01*
X243600000Y-139175000D01*
G75*
G02*
X243525000Y-139250000I-75000J0D01*
G01*
G37*
G36*
G01*
X243525000Y-139900000D02*
X242850000Y-139900000D01*
G75*
G02*
X242775000Y-139825000I0J75000D01*
G01*
X242775000Y-139675000D01*
G75*
G02*
X242850000Y-139600000I75000J0D01*
G01*
X243525000Y-139600000D01*
G75*
G02*
X243600000Y-139675000I0J-75000D01*
G01*
X243600000Y-139825000D01*
G75*
G02*
X243525000Y-139900000I-75000J0D01*
G01*
G37*
G36*
G01*
X243525000Y-140550000D02*
X242850000Y-140550000D01*
G75*
G02*
X242775000Y-140475000I0J75000D01*
G01*
X242775000Y-140325000D01*
G75*
G02*
X242850000Y-140250000I75000J0D01*
G01*
X243525000Y-140250000D01*
G75*
G02*
X243600000Y-140325000I0J-75000D01*
G01*
X243600000Y-140475000D01*
G75*
G02*
X243525000Y-140550000I-75000J0D01*
G01*
G37*
G36*
G01*
X243525000Y-141200000D02*
X242850000Y-141200000D01*
G75*
G02*
X242775000Y-141125000I0J75000D01*
G01*
X242775000Y-140975000D01*
G75*
G02*
X242850000Y-140900000I75000J0D01*
G01*
X243525000Y-140900000D01*
G75*
G02*
X243600000Y-140975000I0J-75000D01*
G01*
X243600000Y-141125000D01*
G75*
G02*
X243525000Y-141200000I-75000J0D01*
G01*
G37*
G36*
G01*
X242125000Y-142600000D02*
X241975000Y-142600000D01*
G75*
G02*
X241900000Y-142525000I0J75000D01*
G01*
X241900000Y-141850000D01*
G75*
G02*
X241975000Y-141775000I75000J0D01*
G01*
X242125000Y-141775000D01*
G75*
G02*
X242200000Y-141850000I0J-75000D01*
G01*
X242200000Y-142525000D01*
G75*
G02*
X242125000Y-142600000I-75000J0D01*
G01*
G37*
G36*
G01*
X241475000Y-142600000D02*
X241325000Y-142600000D01*
G75*
G02*
X241250000Y-142525000I0J75000D01*
G01*
X241250000Y-141850000D01*
G75*
G02*
X241325000Y-141775000I75000J0D01*
G01*
X241475000Y-141775000D01*
G75*
G02*
X241550000Y-141850000I0J-75000D01*
G01*
X241550000Y-142525000D01*
G75*
G02*
X241475000Y-142600000I-75000J0D01*
G01*
G37*
G36*
G01*
X240825000Y-142600000D02*
X240675000Y-142600000D01*
G75*
G02*
X240600000Y-142525000I0J75000D01*
G01*
X240600000Y-141850000D01*
G75*
G02*
X240675000Y-141775000I75000J0D01*
G01*
X240825000Y-141775000D01*
G75*
G02*
X240900000Y-141850000I0J-75000D01*
G01*
X240900000Y-142525000D01*
G75*
G02*
X240825000Y-142600000I-75000J0D01*
G01*
G37*
G36*
G01*
X240175000Y-142600000D02*
X240025000Y-142600000D01*
G75*
G02*
X239950000Y-142525000I0J75000D01*
G01*
X239950000Y-141850000D01*
G75*
G02*
X240025000Y-141775000I75000J0D01*
G01*
X240175000Y-141775000D01*
G75*
G02*
X240250000Y-141850000I0J-75000D01*
G01*
X240250000Y-142525000D01*
G75*
G02*
X240175000Y-142600000I-75000J0D01*
G01*
G37*
G36*
G01*
X239525000Y-142600000D02*
X239375000Y-142600000D01*
G75*
G02*
X239300000Y-142525000I0J75000D01*
G01*
X239300000Y-141850000D01*
G75*
G02*
X239375000Y-141775000I75000J0D01*
G01*
X239525000Y-141775000D01*
G75*
G02*
X239600000Y-141850000I0J-75000D01*
G01*
X239600000Y-142525000D01*
G75*
G02*
X239525000Y-142600000I-75000J0D01*
G01*
G37*
%TD*%
%TO.C,J4*%
G36*
G01*
X255050000Y-137300000D02*
X253700000Y-137300000D01*
G75*
G02*
X253550000Y-137150000I0J150000D01*
G01*
X253550000Y-136850000D01*
G75*
G02*
X253700000Y-136700000I150000J0D01*
G01*
X255050000Y-136700000D01*
G75*
G02*
X255200000Y-136850000I0J-150000D01*
G01*
X255200000Y-137150000D01*
G75*
G02*
X255050000Y-137300000I-150000J0D01*
G01*
G37*
G36*
G01*
X255050000Y-138300000D02*
X253700000Y-138300000D01*
G75*
G02*
X253550000Y-138150000I0J150000D01*
G01*
X253550000Y-137850000D01*
G75*
G02*
X253700000Y-137700000I150000J0D01*
G01*
X255050000Y-137700000D01*
G75*
G02*
X255200000Y-137850000I0J-150000D01*
G01*
X255200000Y-138150000D01*
G75*
G02*
X255050000Y-138300000I-150000J0D01*
G01*
G37*
G36*
G01*
X255050000Y-139300000D02*
X253700000Y-139300000D01*
G75*
G02*
X253550000Y-139150000I0J150000D01*
G01*
X253550000Y-138850000D01*
G75*
G02*
X253700000Y-138700000I150000J0D01*
G01*
X255050000Y-138700000D01*
G75*
G02*
X255200000Y-138850000I0J-150000D01*
G01*
X255200000Y-139150000D01*
G75*
G02*
X255050000Y-139300000I-150000J0D01*
G01*
G37*
G36*
G01*
X255050000Y-140300000D02*
X253700000Y-140300000D01*
G75*
G02*
X253550000Y-140150000I0J150000D01*
G01*
X253550000Y-139850000D01*
G75*
G02*
X253700000Y-139700000I150000J0D01*
G01*
X255050000Y-139700000D01*
G75*
G02*
X255200000Y-139850000I0J-150000D01*
G01*
X255200000Y-140150000D01*
G75*
G02*
X255050000Y-140300000I-150000J0D01*
G01*
G37*
G36*
G01*
X255050000Y-141300000D02*
X253700000Y-141300000D01*
G75*
G02*
X253550000Y-141150000I0J150000D01*
G01*
X253550000Y-140850000D01*
G75*
G02*
X253700000Y-140700000I150000J0D01*
G01*
X255050000Y-140700000D01*
G75*
G02*
X255200000Y-140850000I0J-150000D01*
G01*
X255200000Y-141150000D01*
G75*
G02*
X255050000Y-141300000I-150000J0D01*
G01*
G37*
G36*
G01*
X255050000Y-142300000D02*
X253700000Y-142300000D01*
G75*
G02*
X253550000Y-142150000I0J150000D01*
G01*
X253550000Y-141850000D01*
G75*
G02*
X253700000Y-141700000I150000J0D01*
G01*
X255050000Y-141700000D01*
G75*
G02*
X255200000Y-141850000I0J-150000D01*
G01*
X255200000Y-142150000D01*
G75*
G02*
X255050000Y-142300000I-150000J0D01*
G01*
G37*
G36*
G01*
X255050000Y-143300000D02*
X253700000Y-143300000D01*
G75*
G02*
X253550000Y-143150000I0J150000D01*
G01*
X253550000Y-142850000D01*
G75*
G02*
X253700000Y-142700000I150000J0D01*
G01*
X255050000Y-142700000D01*
G75*
G02*
X255200000Y-142850000I0J-150000D01*
G01*
X255200000Y-143150000D01*
G75*
G02*
X255050000Y-143300000I-150000J0D01*
G01*
G37*
G36*
G01*
X255050000Y-150300000D02*
X253700000Y-150300000D01*
G75*
G02*
X253550000Y-150150000I0J150000D01*
G01*
X253550000Y-149850000D01*
G75*
G02*
X253700000Y-149700000I150000J0D01*
G01*
X255050000Y-149700000D01*
G75*
G02*
X255200000Y-149850000I0J-150000D01*
G01*
X255200000Y-150150000D01*
G75*
G02*
X255050000Y-150300000I-150000J0D01*
G01*
G37*
G36*
G01*
X255050000Y-149300000D02*
X253700000Y-149300000D01*
G75*
G02*
X253550000Y-149150000I0J150000D01*
G01*
X253550000Y-148850000D01*
G75*
G02*
X253700000Y-148700000I150000J0D01*
G01*
X255050000Y-148700000D01*
G75*
G02*
X255200000Y-148850000I0J-150000D01*
G01*
X255200000Y-149150000D01*
G75*
G02*
X255050000Y-149300000I-150000J0D01*
G01*
G37*
G36*
G01*
X255050000Y-148300000D02*
X253700000Y-148300000D01*
G75*
G02*
X253550000Y-148150000I0J150000D01*
G01*
X253550000Y-147850000D01*
G75*
G02*
X253700000Y-147700000I150000J0D01*
G01*
X255050000Y-147700000D01*
G75*
G02*
X255200000Y-147850000I0J-150000D01*
G01*
X255200000Y-148150000D01*
G75*
G02*
X255050000Y-148300000I-150000J0D01*
G01*
G37*
G36*
G01*
X255050000Y-147300000D02*
X253700000Y-147300000D01*
G75*
G02*
X253550000Y-147150000I0J150000D01*
G01*
X253550000Y-146850000D01*
G75*
G02*
X253700000Y-146700000I150000J0D01*
G01*
X255050000Y-146700000D01*
G75*
G02*
X255200000Y-146850000I0J-150000D01*
G01*
X255200000Y-147150000D01*
G75*
G02*
X255050000Y-147300000I-150000J0D01*
G01*
G37*
G36*
G01*
X255050000Y-146300000D02*
X253700000Y-146300000D01*
G75*
G02*
X253550000Y-146150000I0J150000D01*
G01*
X253550000Y-145850000D01*
G75*
G02*
X253700000Y-145700000I150000J0D01*
G01*
X255050000Y-145700000D01*
G75*
G02*
X255200000Y-145850000I0J-150000D01*
G01*
X255200000Y-146150000D01*
G75*
G02*
X255050000Y-146300000I-150000J0D01*
G01*
G37*
G36*
G01*
X255050000Y-145300000D02*
X253700000Y-145300000D01*
G75*
G02*
X253550000Y-145150000I0J150000D01*
G01*
X253550000Y-144850000D01*
G75*
G02*
X253700000Y-144700000I150000J0D01*
G01*
X255050000Y-144700000D01*
G75*
G02*
X255200000Y-144850000I0J-150000D01*
G01*
X255200000Y-145150000D01*
G75*
G02*
X255050000Y-145300000I-150000J0D01*
G01*
G37*
G36*
G01*
X255050000Y-144300000D02*
X253700000Y-144300000D01*
G75*
G02*
X253550000Y-144150000I0J150000D01*
G01*
X253550000Y-143850000D01*
G75*
G02*
X253700000Y-143700000I150000J0D01*
G01*
X255050000Y-143700000D01*
G75*
G02*
X255200000Y-143850000I0J-150000D01*
G01*
X255200000Y-144150000D01*
G75*
G02*
X255050000Y-144300000I-150000J0D01*
G01*
G37*
G36*
G01*
X252250000Y-150300000D02*
X250700000Y-150300000D01*
G75*
G02*
X250550000Y-150150000I0J150000D01*
G01*
X250550000Y-149850000D01*
G75*
G02*
X250700000Y-149700000I150000J0D01*
G01*
X252250000Y-149700000D01*
G75*
G02*
X252400000Y-149850000I0J-150000D01*
G01*
X252400000Y-150150000D01*
G75*
G02*
X252250000Y-150300000I-150000J0D01*
G01*
G37*
G36*
G01*
X252250000Y-149300000D02*
X250700000Y-149300000D01*
G75*
G02*
X250550000Y-149150000I0J150000D01*
G01*
X250550000Y-148850000D01*
G75*
G02*
X250700000Y-148700000I150000J0D01*
G01*
X252250000Y-148700000D01*
G75*
G02*
X252400000Y-148850000I0J-150000D01*
G01*
X252400000Y-149150000D01*
G75*
G02*
X252250000Y-149300000I-150000J0D01*
G01*
G37*
G36*
G01*
X252250000Y-148300000D02*
X250700000Y-148300000D01*
G75*
G02*
X250550000Y-148150000I0J150000D01*
G01*
X250550000Y-147850000D01*
G75*
G02*
X250700000Y-147700000I150000J0D01*
G01*
X252250000Y-147700000D01*
G75*
G02*
X252400000Y-147850000I0J-150000D01*
G01*
X252400000Y-148150000D01*
G75*
G02*
X252250000Y-148300000I-150000J0D01*
G01*
G37*
G36*
G01*
X252250000Y-147300000D02*
X250700000Y-147300000D01*
G75*
G02*
X250550000Y-147150000I0J150000D01*
G01*
X250550000Y-146850000D01*
G75*
G02*
X250700000Y-146700000I150000J0D01*
G01*
X252250000Y-146700000D01*
G75*
G02*
X252400000Y-146850000I0J-150000D01*
G01*
X252400000Y-147150000D01*
G75*
G02*
X252250000Y-147300000I-150000J0D01*
G01*
G37*
G36*
G01*
X252250000Y-146300000D02*
X250700000Y-146300000D01*
G75*
G02*
X250550000Y-146150000I0J150000D01*
G01*
X250550000Y-145850000D01*
G75*
G02*
X250700000Y-145700000I150000J0D01*
G01*
X252250000Y-145700000D01*
G75*
G02*
X252400000Y-145850000I0J-150000D01*
G01*
X252400000Y-146150000D01*
G75*
G02*
X252250000Y-146300000I-150000J0D01*
G01*
G37*
G36*
G01*
X252250000Y-145300000D02*
X250700000Y-145300000D01*
G75*
G02*
X250550000Y-145150000I0J150000D01*
G01*
X250550000Y-144850000D01*
G75*
G02*
X250700000Y-144700000I150000J0D01*
G01*
X252250000Y-144700000D01*
G75*
G02*
X252400000Y-144850000I0J-150000D01*
G01*
X252400000Y-145150000D01*
G75*
G02*
X252250000Y-145300000I-150000J0D01*
G01*
G37*
G36*
G01*
X252250000Y-144300000D02*
X250700000Y-144300000D01*
G75*
G02*
X250550000Y-144150000I0J150000D01*
G01*
X250550000Y-143850000D01*
G75*
G02*
X250700000Y-143700000I150000J0D01*
G01*
X252250000Y-143700000D01*
G75*
G02*
X252400000Y-143850000I0J-150000D01*
G01*
X252400000Y-144150000D01*
G75*
G02*
X252250000Y-144300000I-150000J0D01*
G01*
G37*
G36*
G01*
X252250000Y-137300000D02*
X250700000Y-137300000D01*
G75*
G02*
X250550000Y-137150000I0J150000D01*
G01*
X250550000Y-136850000D01*
G75*
G02*
X250700000Y-136700000I150000J0D01*
G01*
X252250000Y-136700000D01*
G75*
G02*
X252400000Y-136850000I0J-150000D01*
G01*
X252400000Y-137150000D01*
G75*
G02*
X252250000Y-137300000I-150000J0D01*
G01*
G37*
G36*
G01*
X252250000Y-138300000D02*
X250700000Y-138300000D01*
G75*
G02*
X250550000Y-138150000I0J150000D01*
G01*
X250550000Y-137850000D01*
G75*
G02*
X250700000Y-137700000I150000J0D01*
G01*
X252250000Y-137700000D01*
G75*
G02*
X252400000Y-137850000I0J-150000D01*
G01*
X252400000Y-138150000D01*
G75*
G02*
X252250000Y-138300000I-150000J0D01*
G01*
G37*
G36*
G01*
X252250000Y-139300000D02*
X250700000Y-139300000D01*
G75*
G02*
X250550000Y-139150000I0J150000D01*
G01*
X250550000Y-138850000D01*
G75*
G02*
X250700000Y-138700000I150000J0D01*
G01*
X252250000Y-138700000D01*
G75*
G02*
X252400000Y-138850000I0J-150000D01*
G01*
X252400000Y-139150000D01*
G75*
G02*
X252250000Y-139300000I-150000J0D01*
G01*
G37*
G36*
G01*
X252250000Y-140300000D02*
X250700000Y-140300000D01*
G75*
G02*
X250550000Y-140150000I0J150000D01*
G01*
X250550000Y-139850000D01*
G75*
G02*
X250700000Y-139700000I150000J0D01*
G01*
X252250000Y-139700000D01*
G75*
G02*
X252400000Y-139850000I0J-150000D01*
G01*
X252400000Y-140150000D01*
G75*
G02*
X252250000Y-140300000I-150000J0D01*
G01*
G37*
G36*
G01*
X252250000Y-141300000D02*
X250700000Y-141300000D01*
G75*
G02*
X250550000Y-141150000I0J150000D01*
G01*
X250550000Y-140850000D01*
G75*
G02*
X250700000Y-140700000I150000J0D01*
G01*
X252250000Y-140700000D01*
G75*
G02*
X252400000Y-140850000I0J-150000D01*
G01*
X252400000Y-141150000D01*
G75*
G02*
X252250000Y-141300000I-150000J0D01*
G01*
G37*
G36*
G01*
X252250000Y-142300000D02*
X250700000Y-142300000D01*
G75*
G02*
X250550000Y-142150000I0J150000D01*
G01*
X250550000Y-141850000D01*
G75*
G02*
X250700000Y-141700000I150000J0D01*
G01*
X252250000Y-141700000D01*
G75*
G02*
X252400000Y-141850000I0J-150000D01*
G01*
X252400000Y-142150000D01*
G75*
G02*
X252250000Y-142300000I-150000J0D01*
G01*
G37*
G36*
G01*
X252250000Y-143300000D02*
X250700000Y-143300000D01*
G75*
G02*
X250550000Y-143150000I0J150000D01*
G01*
X250550000Y-142850000D01*
G75*
G02*
X250700000Y-142700000I150000J0D01*
G01*
X252250000Y-142700000D01*
G75*
G02*
X252400000Y-142850000I0J-150000D01*
G01*
X252400000Y-143150000D01*
G75*
G02*
X252250000Y-143300000I-150000J0D01*
G01*
G37*
%TD*%
%TO.C,C1*%
G36*
G01*
X215775000Y-138950000D02*
X216725000Y-138950000D01*
G75*
G02*
X216975000Y-139200000I0J-250000D01*
G01*
X216975000Y-139700000D01*
G75*
G02*
X216725000Y-139950000I-250000J0D01*
G01*
X215775000Y-139950000D01*
G75*
G02*
X215525000Y-139700000I0J250000D01*
G01*
X215525000Y-139200000D01*
G75*
G02*
X215775000Y-138950000I250000J0D01*
G01*
G37*
G36*
G01*
X215775000Y-137050000D02*
X216725000Y-137050000D01*
G75*
G02*
X216975000Y-137300000I0J-250000D01*
G01*
X216975000Y-137800000D01*
G75*
G02*
X216725000Y-138050000I-250000J0D01*
G01*
X215775000Y-138050000D01*
G75*
G02*
X215525000Y-137800000I0J250000D01*
G01*
X215525000Y-137300000D01*
G75*
G02*
X215775000Y-137050000I250000J0D01*
G01*
G37*
%TD*%
%TO.C,C2*%
G36*
G01*
X249775000Y-126650000D02*
X250725000Y-126650000D01*
G75*
G02*
X250975000Y-126900000I0J-250000D01*
G01*
X250975000Y-127400000D01*
G75*
G02*
X250725000Y-127650000I-250000J0D01*
G01*
X249775000Y-127650000D01*
G75*
G02*
X249525000Y-127400000I0J250000D01*
G01*
X249525000Y-126900000D01*
G75*
G02*
X249775000Y-126650000I250000J0D01*
G01*
G37*
G36*
G01*
X249775000Y-124750000D02*
X250725000Y-124750000D01*
G75*
G02*
X250975000Y-125000000I0J-250000D01*
G01*
X250975000Y-125500000D01*
G75*
G02*
X250725000Y-125750000I-250000J0D01*
G01*
X249775000Y-125750000D01*
G75*
G02*
X249525000Y-125500000I0J250000D01*
G01*
X249525000Y-125000000D01*
G75*
G02*
X249775000Y-124750000I250000J0D01*
G01*
G37*
%TD*%
%TO.C,R8*%
G36*
G01*
X238900000Y-122475000D02*
X238900000Y-123025000D01*
G75*
G02*
X238700000Y-123225000I-200000J0D01*
G01*
X238300000Y-123225000D01*
G75*
G02*
X238100000Y-123025000I0J200000D01*
G01*
X238100000Y-122475000D01*
G75*
G02*
X238300000Y-122275000I200000J0D01*
G01*
X238700000Y-122275000D01*
G75*
G02*
X238900000Y-122475000I0J-200000D01*
G01*
G37*
G36*
G01*
X240550000Y-122475000D02*
X240550000Y-123025000D01*
G75*
G02*
X240350000Y-123225000I-200000J0D01*
G01*
X239950000Y-123225000D01*
G75*
G02*
X239750000Y-123025000I0J200000D01*
G01*
X239750000Y-122475000D01*
G75*
G02*
X239950000Y-122275000I200000J0D01*
G01*
X240350000Y-122275000D01*
G75*
G02*
X240550000Y-122475000I0J-200000D01*
G01*
G37*
%TD*%
%TO.C,R9*%
G36*
G01*
X238900000Y-120475000D02*
X238900000Y-121025000D01*
G75*
G02*
X238700000Y-121225000I-200000J0D01*
G01*
X238300000Y-121225000D01*
G75*
G02*
X238100000Y-121025000I0J200000D01*
G01*
X238100000Y-120475000D01*
G75*
G02*
X238300000Y-120275000I200000J0D01*
G01*
X238700000Y-120275000D01*
G75*
G02*
X238900000Y-120475000I0J-200000D01*
G01*
G37*
G36*
G01*
X240550000Y-120475000D02*
X240550000Y-121025000D01*
G75*
G02*
X240350000Y-121225000I-200000J0D01*
G01*
X239950000Y-121225000D01*
G75*
G02*
X239750000Y-121025000I0J200000D01*
G01*
X239750000Y-120475000D01*
G75*
G02*
X239950000Y-120275000I200000J0D01*
G01*
X240350000Y-120275000D01*
G75*
G02*
X240550000Y-120475000I0J-200000D01*
G01*
G37*
%TD*%
%TO.C,R10*%
G36*
G01*
X211500000Y-122100000D02*
X212050000Y-122100000D01*
G75*
G02*
X212250000Y-122300000I0J-200000D01*
G01*
X212250000Y-122700000D01*
G75*
G02*
X212050000Y-122900000I-200000J0D01*
G01*
X211500000Y-122900000D01*
G75*
G02*
X211300000Y-122700000I0J200000D01*
G01*
X211300000Y-122300000D01*
G75*
G02*
X211500000Y-122100000I200000J0D01*
G01*
G37*
G36*
G01*
X211500000Y-120450000D02*
X212050000Y-120450000D01*
G75*
G02*
X212250000Y-120650000I0J-200000D01*
G01*
X212250000Y-121050000D01*
G75*
G02*
X212050000Y-121250000I-200000J0D01*
G01*
X211500000Y-121250000D01*
G75*
G02*
X211300000Y-121050000I0J200000D01*
G01*
X211300000Y-120650000D01*
G75*
G02*
X211500000Y-120450000I200000J0D01*
G01*
G37*
%TD*%
D12*
%TO.C,Q1*%
X180800000Y-120500000D03*
X182700000Y-120500000D03*
X181750000Y-118500000D03*
%TD*%
%TO.C,Q2*%
X202950000Y-137500000D03*
X201050000Y-137500000D03*
X202000000Y-139500000D03*
%TD*%
%TO.C,Q3*%
X210500000Y-139500000D03*
X209550000Y-137500000D03*
X211450000Y-137500000D03*
%TD*%
M02*
