%TF.GenerationSoftware,KiCad,Pcbnew,5.1.10*%
%TF.CreationDate,2021-12-07T00:10:18-05:00*%
%TF.ProjectId,oven-controller,6f76656e-2d63-46f6-9e74-726f6c6c6572,rev?*%
%TF.SameCoordinates,Original*%
%TF.FileFunction,Soldermask,Bot*%
%TF.FilePolarity,Negative*%
%FSLAX46Y46*%
G04 Gerber Fmt 4.6, Leading zero omitted, Abs format (unit mm)*
G04 Created by KiCad (PCBNEW 5.1.10) date 2021-12-07 00:10:18*
%MOMM*%
%LPD*%
G01*
G04 APERTURE LIST*
%ADD10C,2.000000*%
%ADD11R,2.000000X2.000000*%
%ADD12C,2.400000*%
%ADD13C,1.600000*%
%ADD14R,1.600000X1.600000*%
%ADD15C,3.000000*%
%ADD16C,3.200000*%
%ADD17O,2.500000X2.500000*%
%ADD18R,2.500000X2.500000*%
%ADD19O,2.400000X2.400000*%
%ADD20C,1.800000*%
%ADD21O,4.000000X2.500000*%
%ADD22O,2.000000X3.000000*%
%ADD23C,2.750000*%
%ADD24O,1.700000X1.700000*%
%ADD25R,1.700000X1.700000*%
%ADD26O,1.600000X1.600000*%
%ADD27O,3.300000X4.800000*%
%ADD28O,3.400000X3.400000*%
%ADD29R,2.400000X2.400000*%
G04 APERTURE END LIST*
D10*
%TO.C,BZ1*%
X172250000Y-107500000D03*
D11*
X177250000Y-107500000D03*
%TD*%
D12*
%TO.C,C3*%
X123000000Y-151750000D03*
X138000000Y-151750000D03*
%TD*%
D10*
%TO.C,C5*%
X147000000Y-115000000D03*
D11*
X147000000Y-110000000D03*
%TD*%
D13*
%TO.C,C6*%
X154750000Y-114000000D03*
D14*
X157250000Y-114000000D03*
%TD*%
D10*
%TO.C,C7*%
X138250000Y-133000000D03*
X150750000Y-133000000D03*
%TD*%
D15*
%TO.C,F1*%
X114500000Y-132400000D03*
X114500000Y-155000000D03*
%TD*%
D16*
%TO.C,H1*%
X104000000Y-104000000D03*
%TD*%
%TO.C,H2*%
X104000000Y-159000000D03*
%TD*%
%TO.C,H3*%
X254000000Y-104000000D03*
%TD*%
%TO.C,H4*%
X254000000Y-159000000D03*
%TD*%
D17*
%TO.C,K1*%
X173500000Y-121800000D03*
X173500000Y-134000000D03*
X161500000Y-134000000D03*
X161500000Y-121800000D03*
D18*
X167500000Y-119800000D03*
%TD*%
D16*
%TO.C,L1*%
X127000000Y-137500000D03*
X133000000Y-137500000D03*
%TD*%
D19*
%TO.C,R1*%
X120180000Y-158250000D03*
D12*
X140500000Y-158250000D03*
%TD*%
D20*
%TO.C,RV1*%
X106650000Y-142000000D03*
X103750000Y-149500000D03*
%TD*%
D21*
%TO.C,J1*%
X115500000Y-124500000D03*
X115500000Y-115000000D03*
%TD*%
D22*
%TO.C,J5*%
X232070000Y-150250000D03*
X239690000Y-150250000D03*
X235880000Y-155250000D03*
X243500000Y-155250000D03*
%TD*%
D23*
%TO.C,U3*%
X187870000Y-126770000D03*
X245870000Y-103770000D03*
X187870000Y-103770000D03*
X245870000Y-126770000D03*
D24*
X192740000Y-128040000D03*
X192740000Y-125500000D03*
X210520000Y-128040000D03*
X210520000Y-125500000D03*
X215600000Y-128040000D03*
X215600000Y-125500000D03*
X205440000Y-128040000D03*
X205440000Y-125500000D03*
X233380000Y-128040000D03*
X233380000Y-125500000D03*
X202900000Y-128040000D03*
X202900000Y-125500000D03*
X220680000Y-128040000D03*
X220680000Y-125500000D03*
X197820000Y-128040000D03*
X197820000Y-125500000D03*
X200360000Y-128040000D03*
X200360000Y-125500000D03*
X195280000Y-128040000D03*
X195280000Y-125500000D03*
X218140000Y-128040000D03*
X218140000Y-125500000D03*
X230840000Y-128040000D03*
X230840000Y-125500000D03*
X225760000Y-128040000D03*
X225760000Y-125500000D03*
X207980000Y-128040000D03*
X207980000Y-125500000D03*
X228300000Y-128040000D03*
X228300000Y-125500000D03*
X213060000Y-128040000D03*
X213060000Y-125500000D03*
D25*
X241000000Y-125500000D03*
D24*
X241000000Y-128040000D03*
X235920000Y-125500000D03*
X238460000Y-128040000D03*
X223220000Y-128040000D03*
X223220000Y-125500000D03*
X238460000Y-125500000D03*
X235920000Y-128040000D03*
%TD*%
D26*
%TO.C,R2*%
X122340000Y-146250000D03*
D13*
X132500000Y-146250000D03*
%TD*%
D27*
%TO.C,J3*%
X211500000Y-147000000D03*
X221000000Y-147000000D03*
X202000000Y-147000000D03*
X192500000Y-147000000D03*
X183000000Y-147000000D03*
X173500000Y-147000000D03*
X164000000Y-147000000D03*
X154500000Y-147000000D03*
%TD*%
D24*
%TO.C,J2*%
X253500000Y-127830000D03*
X253500000Y-125290000D03*
D25*
X253500000Y-122750000D03*
%TD*%
D28*
%TO.C,U1*%
X115500000Y-104000000D03*
X120000000Y-104000000D03*
X124500000Y-104000000D03*
X129000000Y-104000000D03*
X141500000Y-104000000D03*
X146000000Y-104000000D03*
%TD*%
D29*
%TO.C,C4*%
X129750000Y-124000000D03*
D12*
X134750000Y-124000000D03*
%TD*%
M02*
