%TF.GenerationSoftware,KiCad,Pcbnew,5.1.10*%
%TF.CreationDate,2021-12-07T00:10:18-05:00*%
%TF.ProjectId,oven-controller,6f76656e-2d63-46f6-9e74-726f6c6c6572,rev?*%
%TF.SameCoordinates,Original*%
%TF.FileFunction,Copper,L2,Bot*%
%TF.FilePolarity,Positive*%
%FSLAX46Y46*%
G04 Gerber Fmt 4.6, Leading zero omitted, Abs format (unit mm)*
G04 Created by KiCad (PCBNEW 5.1.10) date 2021-12-07 00:10:18*
%MOMM*%
%LPD*%
G01*
G04 APERTURE LIST*
%TA.AperFunction,ComponentPad*%
%ADD10C,2.000000*%
%TD*%
%TA.AperFunction,ComponentPad*%
%ADD11R,2.000000X2.000000*%
%TD*%
%TA.AperFunction,ComponentPad*%
%ADD12C,2.400000*%
%TD*%
%TA.AperFunction,ComponentPad*%
%ADD13C,1.600000*%
%TD*%
%TA.AperFunction,ComponentPad*%
%ADD14R,1.600000X1.600000*%
%TD*%
%TA.AperFunction,ComponentPad*%
%ADD15C,3.000000*%
%TD*%
%TA.AperFunction,ComponentPad*%
%ADD16O,2.500000X2.500000*%
%TD*%
%TA.AperFunction,ComponentPad*%
%ADD17R,2.500000X2.500000*%
%TD*%
%TA.AperFunction,ComponentPad*%
%ADD18C,3.200000*%
%TD*%
%TA.AperFunction,ComponentPad*%
%ADD19O,2.400000X2.400000*%
%TD*%
%TA.AperFunction,ComponentPad*%
%ADD20C,1.800000*%
%TD*%
%TA.AperFunction,ComponentPad*%
%ADD21O,4.000000X2.500000*%
%TD*%
%TA.AperFunction,ComponentPad*%
%ADD22O,2.000000X3.000000*%
%TD*%
%TA.AperFunction,ComponentPad*%
%ADD23O,1.700000X1.700000*%
%TD*%
%TA.AperFunction,ComponentPad*%
%ADD24R,1.700000X1.700000*%
%TD*%
%TA.AperFunction,ComponentPad*%
%ADD25O,1.600000X1.600000*%
%TD*%
%TA.AperFunction,ComponentPad*%
%ADD26O,3.300000X4.800000*%
%TD*%
%TA.AperFunction,ComponentPad*%
%ADD27O,3.400000X3.400000*%
%TD*%
%TA.AperFunction,ComponentPad*%
%ADD28R,2.400000X2.400000*%
%TD*%
%TA.AperFunction,ViaPad*%
%ADD29C,0.800000*%
%TD*%
%TA.AperFunction,Conductor*%
%ADD30C,2.000000*%
%TD*%
%TA.AperFunction,Conductor*%
%ADD31C,1.000000*%
%TD*%
%TA.AperFunction,Conductor*%
%ADD32C,1.500000*%
%TD*%
%TA.AperFunction,Conductor*%
%ADD33C,0.400000*%
%TD*%
%TA.AperFunction,Conductor*%
%ADD34C,0.250000*%
%TD*%
%TA.AperFunction,Conductor*%
%ADD35C,0.100000*%
%TD*%
G04 APERTURE END LIST*
D10*
%TO.P,BZ1,2*%
%TO.N,GND*%
X172250000Y-107500000D03*
D11*
%TO.P,BZ1,1*%
%TO.N,Net-(BZ1-Pad1)*%
X177250000Y-107500000D03*
%TD*%
D12*
%TO.P,C3,2*%
%TO.N,Net-(C3-Pad2)*%
X123000000Y-151750000D03*
%TO.P,C3,1*%
%TO.N,Net-(C3-Pad1)*%
X138000000Y-151750000D03*
%TD*%
D10*
%TO.P,C5,2*%
%TO.N,GND*%
X147000000Y-115000000D03*
D11*
%TO.P,C5,1*%
%TO.N,Net-(C5-Pad1)*%
X147000000Y-110000000D03*
%TD*%
D13*
%TO.P,C6,2*%
%TO.N,GND*%
X154750000Y-114000000D03*
D14*
%TO.P,C6,1*%
%TO.N,+5V*%
X157250000Y-114000000D03*
%TD*%
D10*
%TO.P,C7,2*%
%TO.N,Net-(C4-Pad2)*%
X138250000Y-133000000D03*
%TO.P,C7,1*%
%TO.N,GND*%
X150750000Y-133000000D03*
%TD*%
D15*
%TO.P,F1,2*%
%TO.N,Net-(F1-Pad2)*%
X114500000Y-132400000D03*
%TO.P,F1,1*%
%TO.N,Net-(F1-Pad1)*%
X114500000Y-155000000D03*
%TD*%
D16*
%TO.P,K1,5*%
%TO.N,+5V*%
X173500000Y-121800000D03*
%TO.P,K1,4*%
%TO.N,/GPO_NC*%
X173500000Y-134000000D03*
%TO.P,K1,3*%
%TO.N,/GPO_NO*%
X161500000Y-134000000D03*
%TO.P,K1,2*%
%TO.N,Net-(D1-Pad2)*%
X161500000Y-121800000D03*
D17*
%TO.P,K1,1*%
%TO.N,/GPO_COM*%
X167500000Y-119800000D03*
%TD*%
D18*
%TO.P,L1,2*%
%TO.N,Net-(L1-Pad2)*%
X127000000Y-137500000D03*
%TO.P,L1,1*%
%TO.N,Net-(C3-Pad1)*%
X133000000Y-137500000D03*
%TD*%
D19*
%TO.P,R1,2*%
%TO.N,Net-(F1-Pad1)*%
X120180000Y-158250000D03*
D12*
%TO.P,R1,1*%
%TO.N,Net-(C3-Pad1)*%
X140500000Y-158250000D03*
%TD*%
D20*
%TO.P,RV1,2*%
%TO.N,Net-(C3-Pad2)*%
X106650000Y-142000000D03*
%TO.P,RV1,1*%
%TO.N,Net-(F1-Pad1)*%
X103750000Y-149500000D03*
%TD*%
D21*
%TO.P,J1,2*%
%TO.N,Net-(F1-Pad2)*%
X115500000Y-124500000D03*
%TO.P,J1,1*%
%TO.N,Net-(C3-Pad2)*%
X115500000Y-115000000D03*
%TD*%
D22*
%TO.P,J5,4*%
%TO.N,Net-(C10-Pad1)*%
X232070000Y-150250000D03*
%TO.P,J5,2*%
%TO.N,Net-(C11-Pad1)*%
X239690000Y-150250000D03*
%TO.P,J5,3*%
%TO.N,Net-(C10-Pad2)*%
X235880000Y-155250000D03*
%TO.P,J5,1*%
%TO.N,Net-(C11-Pad2)*%
X243500000Y-155250000D03*
%TD*%
D23*
%TO.P,U3,40*%
%TO.N,/GPI*%
X192740000Y-128040000D03*
%TO.P,U3,39*%
%TO.N,GND*%
X192740000Y-125500000D03*
%TO.P,U3,26*%
%TO.N,N/C*%
X210520000Y-128040000D03*
%TO.P,U3,25*%
%TO.N,GND*%
X210520000Y-125500000D03*
%TO.P,U3,22*%
%TO.N,/LCD_DC*%
X215600000Y-128040000D03*
%TO.P,U3,21*%
%TO.N,/LCD_MISO*%
X215600000Y-125500000D03*
%TO.P,U3,30*%
%TO.N,GND*%
X205440000Y-128040000D03*
%TO.P,U3,29*%
%TO.N,N/C*%
X205440000Y-125500000D03*
%TO.P,U3,8*%
%TO.N,/~CTP_INT*%
X233380000Y-128040000D03*
%TO.P,U3,7*%
%TO.N,/SERVO*%
X233380000Y-125500000D03*
%TO.P,U3,32*%
%TO.N,/SSR2*%
X202900000Y-128040000D03*
%TO.P,U3,31*%
%TO.N,N/C*%
X202900000Y-125500000D03*
%TO.P,U3,18*%
X220680000Y-128040000D03*
%TO.P,U3,17*%
%TO.N,+3V3*%
X220680000Y-125500000D03*
%TO.P,U3,36*%
%TO.N,N/C*%
X197820000Y-128040000D03*
%TO.P,U3,35*%
X197820000Y-125500000D03*
%TO.P,U3,34*%
%TO.N,GND*%
X200360000Y-128040000D03*
%TO.P,U3,33*%
%TO.N,/SSR1*%
X200360000Y-125500000D03*
%TO.P,U3,38*%
%TO.N,N/C*%
X195280000Y-128040000D03*
%TO.P,U3,37*%
%TO.N,/GPO*%
X195280000Y-125500000D03*
%TO.P,U3,20*%
%TO.N,GND*%
X218140000Y-128040000D03*
%TO.P,U3,19*%
%TO.N,/LCD_MOSI*%
X218140000Y-125500000D03*
%TO.P,U3,10*%
%TO.N,N/C*%
X230840000Y-128040000D03*
%TO.P,U3,9*%
%TO.N,GND*%
X230840000Y-125500000D03*
%TO.P,U3,14*%
X225760000Y-128040000D03*
%TO.P,U3,13*%
%TO.N,/BUZZER*%
X225760000Y-125500000D03*
%TO.P,U3,28*%
%TO.N,N/C*%
X207980000Y-128040000D03*
%TO.P,U3,27*%
X207980000Y-125500000D03*
%TO.P,U3,12*%
X228300000Y-128040000D03*
%TO.P,U3,11*%
X228300000Y-125500000D03*
%TO.P,U3,24*%
%TO.N,/~LCD_CS*%
X213060000Y-128040000D03*
%TO.P,U3,23*%
%TO.N,/LCD_SCK*%
X213060000Y-125500000D03*
D24*
%TO.P,U3,1*%
%TO.N,+3V3*%
X241000000Y-125500000D03*
D23*
%TO.P,U3,2*%
%TO.N,+5V*%
X241000000Y-128040000D03*
%TO.P,U3,5*%
%TO.N,/I2C_SCL*%
X235920000Y-125500000D03*
%TO.P,U3,4*%
%TO.N,+5V*%
X238460000Y-128040000D03*
%TO.P,U3,16*%
%TO.N,N/C*%
X223220000Y-128040000D03*
%TO.P,U3,15*%
X223220000Y-125500000D03*
%TO.P,U3,3*%
%TO.N,/I2C_SDA*%
X238460000Y-125500000D03*
%TO.P,U3,6*%
%TO.N,GND*%
X235920000Y-128040000D03*
%TD*%
D25*
%TO.P,R2,2*%
%TO.N,Net-(C3-Pad2)*%
X122340000Y-146250000D03*
D13*
%TO.P,R2,1*%
%TO.N,Net-(C3-Pad1)*%
X132500000Y-146250000D03*
%TD*%
D26*
%TO.P,J3,7*%
%TO.N,Net-(J3-Pad7)*%
X211500000Y-147000000D03*
%TO.P,J3,8*%
%TO.N,Net-(F2-Pad1)*%
X221000000Y-147000000D03*
%TO.P,J3,6*%
%TO.N,Net-(J3-Pad6)*%
X202000000Y-147000000D03*
%TO.P,J3,5*%
%TO.N,GND*%
X192500000Y-147000000D03*
%TO.P,J3,4*%
%TO.N,/GPI*%
X183000000Y-147000000D03*
%TO.P,J3,3*%
%TO.N,/GPO_NC*%
X173500000Y-147000000D03*
%TO.P,J3,2*%
%TO.N,/GPO_COM*%
X164000000Y-147000000D03*
%TO.P,J3,1*%
%TO.N,/GPO_NO*%
X154500000Y-147000000D03*
%TD*%
D23*
%TO.P,J2,3*%
%TO.N,GND*%
X253500000Y-127830000D03*
%TO.P,J2,2*%
%TO.N,+5V*%
X253500000Y-125290000D03*
D24*
%TO.P,J2,1*%
%TO.N,/SERVO*%
X253500000Y-122750000D03*
%TD*%
D27*
%TO.P,U1,1*%
%TO.N,Net-(C3-Pad2)*%
X115500000Y-104000000D03*
%TO.P,U1,3*%
%TO.N,Net-(L1-Pad2)*%
X120000000Y-104000000D03*
%TO.P,U1,5*%
%TO.N,Net-(C4-Pad1)*%
X124500000Y-104000000D03*
%TO.P,U1,7*%
%TO.N,Net-(C4-Pad2)*%
X129000000Y-104000000D03*
%TO.P,U1,10*%
%TO.N,GND*%
X141500000Y-104000000D03*
%TO.P,U1,12*%
%TO.N,Net-(C5-Pad1)*%
X146000000Y-104000000D03*
%TD*%
D28*
%TO.P,C4,1*%
%TO.N,Net-(C4-Pad1)*%
X129750000Y-124000000D03*
D12*
%TO.P,C4,2*%
%TO.N,Net-(C4-Pad2)*%
X134750000Y-124000000D03*
%TD*%
D29*
%TO.N,GND*%
X153750000Y-127750000D03*
X183250000Y-114500000D03*
X236750000Y-116750000D03*
X253000000Y-147000000D03*
X253000000Y-137000000D03*
X253000000Y-141000000D03*
X229500000Y-143250000D03*
X225250000Y-139750000D03*
X238750000Y-143250000D03*
X231000000Y-138750000D03*
X232000000Y-139750000D03*
X230000000Y-139750000D03*
X231000000Y-140750000D03*
X240750000Y-138750000D03*
X239750000Y-139750000D03*
X241750000Y-139750000D03*
X240750000Y-140750000D03*
X245250000Y-144250000D03*
X235500000Y-143250000D03*
X231000000Y-136000000D03*
X249500000Y-147000000D03*
X248000000Y-145500000D03*
X246750000Y-144250000D03*
X245750000Y-140000000D03*
X244500000Y-138750000D03*
X248000000Y-136750000D03*
X243500000Y-136750000D03*
X236000000Y-134500000D03*
X241500000Y-136000000D03*
X239500000Y-136000000D03*
X238250000Y-135250000D03*
X247500000Y-134750000D03*
X246000000Y-133250000D03*
X244250000Y-132250000D03*
X242250000Y-132250000D03*
X240250000Y-131250000D03*
X238250000Y-130500000D03*
X236000000Y-130500000D03*
X234000000Y-130500000D03*
X232000000Y-130500000D03*
X230250000Y-130500000D03*
X233750000Y-134500000D03*
X232000000Y-134500000D03*
X230250000Y-134500000D03*
X228250000Y-134500000D03*
X226000000Y-134500000D03*
X224000000Y-134500000D03*
X222000000Y-134500000D03*
X219750000Y-134500000D03*
X217750000Y-134500000D03*
X215750000Y-134500000D03*
X214000000Y-133500000D03*
X212250000Y-132250000D03*
X212000000Y-130250000D03*
X228250000Y-130500000D03*
X226000000Y-130500000D03*
X224000000Y-130500000D03*
X222000000Y-130500000D03*
X220500000Y-129750000D03*
X214500000Y-139500000D03*
X216250000Y-140750000D03*
X247500000Y-118000000D03*
X246500000Y-142500000D03*
X249500000Y-138250000D03*
X181000000Y-129250000D03*
X200500000Y-139000000D03*
X199750000Y-138250000D03*
X208250000Y-138250000D03*
X209000000Y-139000000D03*
X185250000Y-121250000D03*
X185750000Y-120000000D03*
%TO.N,+5V*%
X162000000Y-111000000D03*
X162000000Y-112000000D03*
X161000000Y-111000000D03*
X161000000Y-112000000D03*
X160000000Y-111000000D03*
X160000000Y-112000000D03*
X256100000Y-150000000D03*
X256100000Y-149000000D03*
X256100000Y-148000000D03*
X217500000Y-137750000D03*
X217500000Y-136750000D03*
X215000000Y-137750000D03*
X215000000Y-136750000D03*
X249750000Y-124000000D03*
X250750000Y-124000000D03*
%TO.N,+3V3*%
X237000000Y-143250000D03*
X244250000Y-140000000D03*
X234000000Y-135750000D03*
X234500000Y-139750000D03*
X224250000Y-136500000D03*
X227000000Y-144249992D03*
%TO.N,Net-(C10-Pad1)*%
X230250000Y-147250000D03*
X233500000Y-143750000D03*
%TO.N,/~LCD_CS*%
X220700000Y-131100000D03*
X213100000Y-131100000D03*
%TO.N,/I2C_SCL*%
X227240902Y-140488880D03*
X236987347Y-140250000D03*
X253000000Y-139000000D03*
%TO.N,/I2C_SDA*%
X227250000Y-141500000D03*
X237000000Y-141500000D03*
X253000000Y-140000000D03*
%TO.N,/LCD_DC*%
X218100000Y-132099999D03*
X215600000Y-132100000D03*
%TO.N,Net-(C11-Pad1)*%
X238750000Y-147250000D03*
X243000002Y-143250000D03*
%TD*%
D30*
%TO.N,Net-(C3-Pad1)*%
X140500000Y-154250000D02*
X138000000Y-151750000D01*
X140500000Y-158250000D02*
X140500000Y-154250000D01*
X133000000Y-146750000D02*
X138000000Y-151750000D01*
X133000000Y-137500000D02*
X133000000Y-146750000D01*
D31*
%TO.N,+5V*%
X238460000Y-128040000D02*
X241000000Y-128040000D01*
D30*
X163375000Y-111500000D02*
X162000000Y-111500000D01*
X180250000Y-103250000D02*
X171625000Y-103250000D01*
X249750000Y-113750000D02*
X244500000Y-108500000D01*
X244500000Y-108500000D02*
X185500000Y-108500000D01*
X185500000Y-108500000D02*
X180250000Y-103250000D01*
X171625000Y-103250000D02*
X163375000Y-111500000D01*
X159750000Y-111500000D02*
X159500000Y-111750000D01*
X162000000Y-111500000D02*
X160750000Y-111500000D01*
X160750000Y-111500000D02*
X159750000Y-111500000D01*
X159375000Y-111875000D02*
X158625000Y-112625000D01*
X158500000Y-112750000D02*
X157250000Y-114000000D01*
X159500000Y-111750000D02*
X159375000Y-111875000D01*
X158625000Y-112625000D02*
X158500000Y-112750000D01*
X171750000Y-111500000D02*
X163375000Y-111500000D01*
X173500000Y-113250000D02*
X171750000Y-111500000D01*
X173500000Y-121800000D02*
X173500000Y-113250000D01*
X249750000Y-123250000D02*
X249750000Y-113750000D01*
D32*
X256100000Y-150000000D02*
X256100000Y-150000000D01*
X256100000Y-149000000D02*
X256100000Y-150000000D01*
X256100000Y-148000000D02*
X256100000Y-149000000D01*
X256100000Y-132600000D02*
X256100000Y-148000000D01*
X254500000Y-131000000D02*
X256100000Y-132600000D01*
X250750000Y-131000000D02*
X254500000Y-131000000D01*
X250000000Y-130250000D02*
X250750000Y-131000000D01*
X250000000Y-128500000D02*
X250000000Y-130250000D01*
D30*
X215250000Y-137250000D02*
X215250000Y-137250000D01*
X215250000Y-137250000D02*
X215250000Y-137250000D01*
X250250000Y-123750000D02*
X249750000Y-123250000D01*
X250250000Y-124250000D02*
X250250000Y-123750000D01*
X249750000Y-128500000D02*
X249750000Y-123250000D01*
D32*
X247750000Y-130500000D02*
X249750000Y-128500000D01*
X244000000Y-130500000D02*
X247750000Y-130500000D01*
X241540000Y-128040000D02*
X244000000Y-130500000D01*
X241000000Y-128040000D02*
X241540000Y-128040000D01*
D30*
X185500000Y-117500000D02*
X185500000Y-108500000D01*
X183250000Y-119750000D02*
X185500000Y-117500000D01*
X183250000Y-130000000D02*
X183250000Y-119750000D01*
X185750000Y-132500000D02*
X183250000Y-130000000D01*
X209750000Y-132500000D02*
X185750000Y-132500000D01*
X214500000Y-137250000D02*
X209750000Y-132500000D01*
X217250000Y-137250000D02*
X214500000Y-137250000D01*
D33*
%TO.N,+3V3*%
X221950000Y-128950000D02*
X221950000Y-126700000D01*
X221950000Y-126700000D02*
X220750000Y-125500000D01*
X223000000Y-130000000D02*
X221950000Y-128950000D01*
X220750000Y-125500000D02*
X220680000Y-125500000D01*
X237780000Y-126770000D02*
X237190000Y-127360000D01*
X239730000Y-126770000D02*
X237780000Y-126770000D01*
X241000000Y-125500000D02*
X239730000Y-126770000D01*
X237190000Y-127360000D02*
X237190000Y-134940000D01*
X237190000Y-135030000D02*
X237190000Y-135000000D01*
X236470000Y-135750000D02*
X237190000Y-135030000D01*
X234000000Y-135750000D02*
X236470000Y-135750000D01*
X237190000Y-134940000D02*
X237190000Y-136190000D01*
X237190000Y-137060000D02*
X234500000Y-139750000D01*
X237190000Y-136190000D02*
X237190000Y-137060000D01*
X244250000Y-140000000D02*
X243250000Y-139000000D01*
X243250000Y-139000000D02*
X243250000Y-138250000D01*
X243250000Y-138250000D02*
X242500000Y-137500000D01*
X242500000Y-137500000D02*
X238500000Y-137500000D01*
X238500000Y-137500000D02*
X237190000Y-136190000D01*
X224250000Y-136500000D02*
X223000000Y-135250000D01*
X223000000Y-135250000D02*
X223000000Y-130000000D01*
X223000000Y-141500000D02*
X223000000Y-135250000D01*
D34*
X225750008Y-144249992D02*
X225750000Y-144250000D01*
D33*
X227000000Y-144249992D02*
X225750008Y-144249992D01*
X225750000Y-144250000D02*
X223000000Y-141500000D01*
X227750000Y-146250000D02*
X225750000Y-144250000D01*
X227750000Y-151250000D02*
X227750000Y-146250000D01*
X230000000Y-153500000D02*
X227750000Y-151250000D01*
X233250000Y-153500000D02*
X230000000Y-153500000D01*
X235500000Y-151250000D02*
X233250000Y-153500000D01*
X235500000Y-145750000D02*
X235500000Y-151250000D01*
X237000000Y-144250000D02*
X235500000Y-145750000D01*
X237000000Y-143250000D02*
X237000000Y-144250000D01*
D34*
%TO.N,Net-(C10-Pad1)*%
X233500000Y-144000000D02*
X233500000Y-143750000D01*
X230250000Y-147250000D02*
X233500000Y-144000000D01*
D30*
%TO.N,Net-(L1-Pad2)*%
X121580000Y-110080000D02*
X120000000Y-108500000D01*
X120000000Y-108500000D02*
X120000000Y-104000000D01*
X121580000Y-132080000D02*
X127000000Y-137500000D01*
X121580000Y-110080000D02*
X121580000Y-132080000D01*
D34*
%TO.N,/~LCD_CS*%
X220700000Y-131100000D02*
X220134315Y-131100000D01*
X220134315Y-131100000D02*
X213100000Y-131100000D01*
%TO.N,/I2C_SCL*%
X227240902Y-139009098D02*
X227240902Y-140488880D01*
X229550000Y-128864501D02*
X229250000Y-129164501D01*
X229550000Y-124700000D02*
X229550000Y-128864501D01*
X229250000Y-129164501D02*
X229250000Y-137000000D01*
X230164999Y-124085001D02*
X229550000Y-124700000D01*
X234505001Y-124085001D02*
X230164999Y-124085001D01*
X229250000Y-137000000D02*
X227240902Y-139009098D01*
X235920000Y-125500000D02*
X234505001Y-124085001D01*
X250250000Y-139000000D02*
X253000000Y-139000000D01*
X248250000Y-141000000D02*
X250250000Y-139000000D01*
X245500000Y-141000000D02*
X248250000Y-141000000D01*
X244750000Y-141750000D02*
X245500000Y-141000000D01*
X238487347Y-141750000D02*
X244750000Y-141750000D01*
X236987347Y-140250000D02*
X238487347Y-141750000D01*
X229186399Y-141799989D02*
X235437358Y-141799989D01*
X235437358Y-141799989D02*
X236987347Y-140250000D01*
X227875290Y-140488880D02*
X229186399Y-141799989D01*
X227240902Y-140488880D02*
X227875290Y-140488880D01*
%TO.N,/I2C_SDA*%
X236460000Y-123500000D02*
X238460000Y-125500000D01*
X228000000Y-123500000D02*
X236460000Y-123500000D01*
X227024999Y-124475001D02*
X228000000Y-123500000D01*
X227024999Y-138225001D02*
X227024999Y-124475001D01*
X226250000Y-139000000D02*
X227024999Y-138225001D01*
X226250000Y-141000000D02*
X226250000Y-139000000D01*
X226750000Y-141500000D02*
X226250000Y-141000000D01*
X227250000Y-141500000D02*
X226750000Y-141500000D01*
X250000000Y-140000000D02*
X253000000Y-140000000D01*
X245250000Y-142250000D02*
X246000000Y-141500000D01*
X248500000Y-141500000D02*
X250000000Y-140000000D01*
X237750000Y-142250000D02*
X245250000Y-142250000D01*
X246000000Y-141500000D02*
X248500000Y-141500000D01*
X237000000Y-141500000D02*
X237750000Y-142250000D01*
X236250000Y-142250000D02*
X237000000Y-141500000D01*
X228250000Y-141500000D02*
X229000000Y-142250000D01*
X229000000Y-142250000D02*
X236250000Y-142250000D01*
X227250000Y-141500000D02*
X228250000Y-141500000D01*
D30*
%TO.N,Net-(F1-Pad1)*%
X109000000Y-149500000D02*
X114500000Y-155000000D01*
X103750000Y-149500000D02*
X109000000Y-149500000D01*
X117750000Y-158250000D02*
X114500000Y-155000000D01*
X120180000Y-158250000D02*
X117750000Y-158250000D01*
D34*
%TO.N,/LCD_DC*%
X218100000Y-132099999D02*
X217534314Y-132100000D01*
X217534314Y-132100000D02*
X215600000Y-132100000D01*
D30*
%TO.N,Net-(C3-Pad2)*%
X106650000Y-123850000D02*
X115500000Y-115000000D01*
X106650000Y-142000000D02*
X106650000Y-123850000D01*
X115500000Y-115000000D02*
X115500000Y-115250000D01*
X106650000Y-142000000D02*
X118340000Y-142000000D01*
X115500000Y-104000000D02*
X115500000Y-115000000D01*
X123000000Y-146660000D02*
X118340000Y-142000000D01*
X123000000Y-151750000D02*
X123000000Y-146660000D01*
%TO.N,Net-(C4-Pad2)*%
X131740000Y-106740000D02*
X129000000Y-104000000D01*
X134750000Y-129500000D02*
X138250000Y-133000000D01*
X134750000Y-124000000D02*
X134750000Y-129500000D01*
X134750000Y-120020000D02*
X131740000Y-117010000D01*
X134750000Y-124000000D02*
X134750000Y-120020000D01*
X131740000Y-117010000D02*
X131740000Y-106740000D01*
%TO.N,Net-(C4-Pad1)*%
X124549999Y-106049999D02*
X126660000Y-108160000D01*
X124549999Y-105049999D02*
X124549999Y-106049999D01*
X124500000Y-105000000D02*
X124549999Y-105049999D01*
X124500000Y-104000000D02*
X124500000Y-105000000D01*
X126660000Y-120910000D02*
X129750000Y-124000000D01*
X126660000Y-108160000D02*
X126660000Y-120910000D01*
D34*
%TO.N,Net-(C11-Pad1)*%
X242749998Y-143250000D02*
X243000002Y-143250000D01*
X238750000Y-147250000D02*
X242749998Y-143250000D01*
D30*
%TO.N,Net-(F1-Pad2)*%
X114500000Y-125500000D02*
X115500000Y-124500000D01*
X114500000Y-132400000D02*
X114500000Y-125500000D01*
%TD*%
D34*
%TO.N,GND*%
X183875001Y-109173098D02*
X183875000Y-116826903D01*
X182157399Y-118544505D01*
X182095393Y-118595392D01*
X182044508Y-118657396D01*
X181892325Y-118842831D01*
X181741433Y-119125131D01*
X181648513Y-119431445D01*
X181617138Y-119750000D01*
X181625001Y-119829834D01*
X181625000Y-129920176D01*
X181617138Y-130000000D01*
X181629437Y-130124869D01*
X181648513Y-130318555D01*
X181741432Y-130624868D01*
X181892325Y-130907169D01*
X182095392Y-131154608D01*
X182157403Y-131205499D01*
X184544505Y-133592602D01*
X184595392Y-133654608D01*
X184842830Y-133857675D01*
X185125131Y-134008568D01*
X185431444Y-134101487D01*
X185750000Y-134132862D01*
X185829824Y-134125000D01*
X209076904Y-134125000D01*
X213294505Y-138342602D01*
X213345392Y-138404608D01*
X213592830Y-138607675D01*
X213875131Y-138758568D01*
X214181444Y-138851487D01*
X214420176Y-138875000D01*
X214420185Y-138875000D01*
X214499999Y-138882861D01*
X214579813Y-138875000D01*
X217329824Y-138875000D01*
X217568556Y-138851487D01*
X217874869Y-138758568D01*
X218157170Y-138607675D01*
X218404608Y-138404608D01*
X218607675Y-138157170D01*
X218758568Y-137874869D01*
X218851487Y-137568556D01*
X218882862Y-137250000D01*
X218851487Y-136931444D01*
X218758568Y-136625131D01*
X218607675Y-136342830D01*
X218404608Y-136095392D01*
X218157170Y-135892325D01*
X217874869Y-135741432D01*
X217568556Y-135648513D01*
X217329824Y-135625000D01*
X215173097Y-135625000D01*
X210955499Y-131407403D01*
X210904608Y-131345392D01*
X210657170Y-131142325D01*
X210389114Y-130999046D01*
X212075000Y-130999046D01*
X212075000Y-131200954D01*
X212114390Y-131398982D01*
X212191656Y-131585520D01*
X212303830Y-131753400D01*
X212446600Y-131896170D01*
X212614480Y-132008344D01*
X212801018Y-132085610D01*
X212999046Y-132125000D01*
X213200954Y-132125000D01*
X213398982Y-132085610D01*
X213585520Y-132008344D01*
X213753400Y-131896170D01*
X213799570Y-131850000D01*
X214604647Y-131850000D01*
X214575000Y-131999046D01*
X214575000Y-132200954D01*
X214614390Y-132398982D01*
X214691656Y-132585520D01*
X214803830Y-132753400D01*
X214946600Y-132896170D01*
X215114480Y-133008344D01*
X215301018Y-133085610D01*
X215499046Y-133125000D01*
X215700954Y-133125000D01*
X215898982Y-133085610D01*
X216085520Y-133008344D01*
X216253400Y-132896170D01*
X216299570Y-132850000D01*
X217400431Y-132850000D01*
X217446600Y-132896169D01*
X217614480Y-133008343D01*
X217801018Y-133085609D01*
X217999046Y-133124999D01*
X218200954Y-133124999D01*
X218398982Y-133085609D01*
X218585520Y-133008343D01*
X218753400Y-132896169D01*
X218896170Y-132753399D01*
X219008344Y-132585519D01*
X219085610Y-132398981D01*
X219125000Y-132200953D01*
X219125000Y-131999045D01*
X219095353Y-131850000D01*
X220000430Y-131850000D01*
X220046600Y-131896170D01*
X220214480Y-132008344D01*
X220401018Y-132085610D01*
X220599046Y-132125000D01*
X220800954Y-132125000D01*
X220998982Y-132085610D01*
X221185520Y-132008344D01*
X221353400Y-131896170D01*
X221496170Y-131753400D01*
X221608344Y-131585520D01*
X221685610Y-131398982D01*
X221725000Y-131200954D01*
X221725000Y-130999046D01*
X221685610Y-130801018D01*
X221608344Y-130614480D01*
X221496170Y-130446600D01*
X221353400Y-130303830D01*
X221185520Y-130191656D01*
X220998982Y-130114390D01*
X220800954Y-130075000D01*
X220599046Y-130075000D01*
X220401018Y-130114390D01*
X220214480Y-130191656D01*
X220046600Y-130303830D01*
X220000430Y-130350000D01*
X213799570Y-130350000D01*
X213753400Y-130303830D01*
X213585520Y-130191656D01*
X213398982Y-130114390D01*
X213200954Y-130075000D01*
X212999046Y-130075000D01*
X212801018Y-130114390D01*
X212614480Y-130191656D01*
X212446600Y-130303830D01*
X212303830Y-130446600D01*
X212191656Y-130614480D01*
X212114390Y-130801018D01*
X212075000Y-130999046D01*
X210389114Y-130999046D01*
X210374869Y-130991432D01*
X210068556Y-130898513D01*
X209829824Y-130875000D01*
X209750000Y-130867138D01*
X209670176Y-130875000D01*
X186423097Y-130875000D01*
X184875000Y-129326904D01*
X184875000Y-126573017D01*
X185870000Y-126573017D01*
X185870000Y-126966983D01*
X185946859Y-127353378D01*
X186097623Y-127717355D01*
X186316499Y-128044926D01*
X186595074Y-128323501D01*
X186922645Y-128542377D01*
X187286622Y-128693141D01*
X187673017Y-128770000D01*
X188066983Y-128770000D01*
X188453378Y-128693141D01*
X188817355Y-128542377D01*
X189144926Y-128323501D01*
X189423501Y-128044926D01*
X189642377Y-127717355D01*
X189793141Y-127353378D01*
X189870000Y-126966983D01*
X189870000Y-126573017D01*
X189793141Y-126186622D01*
X189642377Y-125822645D01*
X189423501Y-125495074D01*
X189144926Y-125216499D01*
X189040356Y-125146627D01*
X191307950Y-125146627D01*
X191426551Y-125375000D01*
X192615000Y-125375000D01*
X192615000Y-124187188D01*
X192386628Y-124067955D01*
X192238214Y-124112970D01*
X191977260Y-124237515D01*
X191745617Y-124410577D01*
X191552188Y-124625504D01*
X191404406Y-124874038D01*
X191307950Y-125146627D01*
X189040356Y-125146627D01*
X188817355Y-124997623D01*
X188453378Y-124846859D01*
X188066983Y-124770000D01*
X187673017Y-124770000D01*
X187286622Y-124846859D01*
X186922645Y-124997623D01*
X186595074Y-125216499D01*
X186316499Y-125495074D01*
X186097623Y-125822645D01*
X185946859Y-126186622D01*
X185870000Y-126573017D01*
X184875000Y-126573017D01*
X184875000Y-120423096D01*
X186592603Y-118705494D01*
X186654608Y-118654608D01*
X186857675Y-118407170D01*
X186946264Y-118241432D01*
X187008568Y-118124870D01*
X187083630Y-117877422D01*
X187101487Y-117818556D01*
X187125000Y-117579824D01*
X187125000Y-117579823D01*
X187132862Y-117500000D01*
X187125000Y-117420176D01*
X187125000Y-110125000D01*
X243826904Y-110125000D01*
X248125001Y-114423098D01*
X248125000Y-123170176D01*
X248117138Y-123250000D01*
X248125000Y-123329823D01*
X248125001Y-123329833D01*
X248125000Y-128180456D01*
X247180457Y-129125000D01*
X244569543Y-129125000D01*
X242560037Y-127115494D01*
X242516976Y-127063024D01*
X242307605Y-126891198D01*
X242227751Y-126848515D01*
X242294080Y-126794080D01*
X242372183Y-126698911D01*
X242430219Y-126590334D01*
X242435472Y-126573017D01*
X243870000Y-126573017D01*
X243870000Y-126966983D01*
X243946859Y-127353378D01*
X244097623Y-127717355D01*
X244316499Y-128044926D01*
X244595074Y-128323501D01*
X244922645Y-128542377D01*
X245286622Y-128693141D01*
X245673017Y-128770000D01*
X246066983Y-128770000D01*
X246453378Y-128693141D01*
X246817355Y-128542377D01*
X247144926Y-128323501D01*
X247423501Y-128044926D01*
X247642377Y-127717355D01*
X247793141Y-127353378D01*
X247870000Y-126966983D01*
X247870000Y-126573017D01*
X247793141Y-126186622D01*
X247642377Y-125822645D01*
X247423501Y-125495074D01*
X247144926Y-125216499D01*
X246817355Y-124997623D01*
X246453378Y-124846859D01*
X246066983Y-124770000D01*
X245673017Y-124770000D01*
X245286622Y-124846859D01*
X244922645Y-124997623D01*
X244595074Y-125216499D01*
X244316499Y-125495074D01*
X244097623Y-125822645D01*
X243946859Y-126186622D01*
X243870000Y-126573017D01*
X242435472Y-126573017D01*
X242465957Y-126472521D01*
X242478024Y-126350000D01*
X242478024Y-124650000D01*
X242465957Y-124527479D01*
X242430219Y-124409666D01*
X242372183Y-124301089D01*
X242294080Y-124205920D01*
X242198911Y-124127817D01*
X242090334Y-124069781D01*
X241972521Y-124034043D01*
X241850000Y-124021976D01*
X240150000Y-124021976D01*
X240027479Y-124034043D01*
X239909666Y-124069781D01*
X239801089Y-124127817D01*
X239705920Y-124205920D01*
X239627817Y-124301089D01*
X239569781Y-124409666D01*
X239543213Y-124497248D01*
X239400258Y-124354293D01*
X239158675Y-124192872D01*
X238890242Y-124081683D01*
X238605275Y-124025000D01*
X238314725Y-124025000D01*
X238090300Y-124069641D01*
X237016379Y-122995719D01*
X236992895Y-122967105D01*
X236878693Y-122873381D01*
X236748401Y-122803739D01*
X236607026Y-122760853D01*
X236496835Y-122750000D01*
X236496827Y-122750000D01*
X236460000Y-122746373D01*
X236423173Y-122750000D01*
X228036828Y-122750000D01*
X228000000Y-122746373D01*
X227963172Y-122750000D01*
X227963165Y-122750000D01*
X227852974Y-122760853D01*
X227711599Y-122803739D01*
X227581307Y-122873381D01*
X227510558Y-122931444D01*
X227467105Y-122967105D01*
X227443626Y-122995714D01*
X226520714Y-123918627D01*
X226492105Y-123942106D01*
X226468626Y-123970715D01*
X226468623Y-123970718D01*
X226458649Y-123982872D01*
X226398381Y-124056308D01*
X226368095Y-124112970D01*
X226349547Y-124147670D01*
X226190242Y-124081683D01*
X225905275Y-124025000D01*
X225614725Y-124025000D01*
X225329758Y-124081683D01*
X225061325Y-124192872D01*
X224819742Y-124354293D01*
X224614293Y-124559742D01*
X224490000Y-124745759D01*
X224365707Y-124559742D01*
X224160258Y-124354293D01*
X223918675Y-124192872D01*
X223650242Y-124081683D01*
X223365275Y-124025000D01*
X223074725Y-124025000D01*
X222789758Y-124081683D01*
X222521325Y-124192872D01*
X222279742Y-124354293D01*
X222074293Y-124559742D01*
X221950000Y-124745759D01*
X221825707Y-124559742D01*
X221620258Y-124354293D01*
X221378675Y-124192872D01*
X221110242Y-124081683D01*
X220825275Y-124025000D01*
X220534725Y-124025000D01*
X220249758Y-124081683D01*
X219981325Y-124192872D01*
X219739742Y-124354293D01*
X219534293Y-124559742D01*
X219410000Y-124745759D01*
X219285707Y-124559742D01*
X219080258Y-124354293D01*
X218838675Y-124192872D01*
X218570242Y-124081683D01*
X218285275Y-124025000D01*
X217994725Y-124025000D01*
X217709758Y-124081683D01*
X217441325Y-124192872D01*
X217199742Y-124354293D01*
X216994293Y-124559742D01*
X216870000Y-124745759D01*
X216745707Y-124559742D01*
X216540258Y-124354293D01*
X216298675Y-124192872D01*
X216030242Y-124081683D01*
X215745275Y-124025000D01*
X215454725Y-124025000D01*
X215169758Y-124081683D01*
X214901325Y-124192872D01*
X214659742Y-124354293D01*
X214454293Y-124559742D01*
X214330000Y-124745759D01*
X214205707Y-124559742D01*
X214000258Y-124354293D01*
X213758675Y-124192872D01*
X213490242Y-124081683D01*
X213205275Y-124025000D01*
X212914725Y-124025000D01*
X212629758Y-124081683D01*
X212361325Y-124192872D01*
X212119742Y-124354293D01*
X211914293Y-124559742D01*
X211784348Y-124754219D01*
X211707812Y-124625504D01*
X211514383Y-124410577D01*
X211282740Y-124237515D01*
X211021786Y-124112970D01*
X210873372Y-124067955D01*
X210645000Y-124187188D01*
X210645000Y-125375000D01*
X210665000Y-125375000D01*
X210665000Y-125625000D01*
X210645000Y-125625000D01*
X210645000Y-125645000D01*
X210395000Y-125645000D01*
X210395000Y-125625000D01*
X210375000Y-125625000D01*
X210375000Y-125375000D01*
X210395000Y-125375000D01*
X210395000Y-124187188D01*
X210166628Y-124067955D01*
X210018214Y-124112970D01*
X209757260Y-124237515D01*
X209525617Y-124410577D01*
X209332188Y-124625504D01*
X209255652Y-124754219D01*
X209125707Y-124559742D01*
X208920258Y-124354293D01*
X208678675Y-124192872D01*
X208410242Y-124081683D01*
X208125275Y-124025000D01*
X207834725Y-124025000D01*
X207549758Y-124081683D01*
X207281325Y-124192872D01*
X207039742Y-124354293D01*
X206834293Y-124559742D01*
X206710000Y-124745759D01*
X206585707Y-124559742D01*
X206380258Y-124354293D01*
X206138675Y-124192872D01*
X205870242Y-124081683D01*
X205585275Y-124025000D01*
X205294725Y-124025000D01*
X205009758Y-124081683D01*
X204741325Y-124192872D01*
X204499742Y-124354293D01*
X204294293Y-124559742D01*
X204170000Y-124745759D01*
X204045707Y-124559742D01*
X203840258Y-124354293D01*
X203598675Y-124192872D01*
X203330242Y-124081683D01*
X203045275Y-124025000D01*
X202754725Y-124025000D01*
X202469758Y-124081683D01*
X202201325Y-124192872D01*
X201959742Y-124354293D01*
X201754293Y-124559742D01*
X201630000Y-124745759D01*
X201505707Y-124559742D01*
X201300258Y-124354293D01*
X201058675Y-124192872D01*
X200790242Y-124081683D01*
X200505275Y-124025000D01*
X200214725Y-124025000D01*
X199929758Y-124081683D01*
X199661325Y-124192872D01*
X199419742Y-124354293D01*
X199214293Y-124559742D01*
X199090000Y-124745759D01*
X198965707Y-124559742D01*
X198760258Y-124354293D01*
X198518675Y-124192872D01*
X198250242Y-124081683D01*
X197965275Y-124025000D01*
X197674725Y-124025000D01*
X197389758Y-124081683D01*
X197121325Y-124192872D01*
X196879742Y-124354293D01*
X196674293Y-124559742D01*
X196550000Y-124745759D01*
X196425707Y-124559742D01*
X196220258Y-124354293D01*
X195978675Y-124192872D01*
X195710242Y-124081683D01*
X195425275Y-124025000D01*
X195134725Y-124025000D01*
X194849758Y-124081683D01*
X194581325Y-124192872D01*
X194339742Y-124354293D01*
X194134293Y-124559742D01*
X194004348Y-124754219D01*
X193927812Y-124625504D01*
X193734383Y-124410577D01*
X193502740Y-124237515D01*
X193241786Y-124112970D01*
X193093372Y-124067955D01*
X192865000Y-124187188D01*
X192865000Y-125375000D01*
X192885000Y-125375000D01*
X192885000Y-125625000D01*
X192865000Y-125625000D01*
X192865000Y-125645000D01*
X192615000Y-125645000D01*
X192615000Y-125625000D01*
X191426551Y-125625000D01*
X191307950Y-125853373D01*
X191404406Y-126125962D01*
X191552188Y-126374496D01*
X191745617Y-126589423D01*
X191977260Y-126762485D01*
X191988779Y-126767982D01*
X191799742Y-126894293D01*
X191594293Y-127099742D01*
X191432872Y-127341325D01*
X191321683Y-127609758D01*
X191265000Y-127894725D01*
X191265000Y-128185275D01*
X191321683Y-128470242D01*
X191432872Y-128738675D01*
X191594293Y-128980258D01*
X191799742Y-129185707D01*
X192041325Y-129347128D01*
X192309758Y-129458317D01*
X192594725Y-129515000D01*
X192885275Y-129515000D01*
X193170242Y-129458317D01*
X193438675Y-129347128D01*
X193680258Y-129185707D01*
X193885707Y-128980258D01*
X194010000Y-128794241D01*
X194134293Y-128980258D01*
X194339742Y-129185707D01*
X194581325Y-129347128D01*
X194849758Y-129458317D01*
X195134725Y-129515000D01*
X195425275Y-129515000D01*
X195710242Y-129458317D01*
X195978675Y-129347128D01*
X196220258Y-129185707D01*
X196425707Y-128980258D01*
X196550000Y-128794241D01*
X196674293Y-128980258D01*
X196879742Y-129185707D01*
X197121325Y-129347128D01*
X197389758Y-129458317D01*
X197674725Y-129515000D01*
X197965275Y-129515000D01*
X198250242Y-129458317D01*
X198518675Y-129347128D01*
X198760258Y-129185707D01*
X198965707Y-128980258D01*
X199095652Y-128785781D01*
X199172188Y-128914496D01*
X199365617Y-129129423D01*
X199597260Y-129302485D01*
X199858214Y-129427030D01*
X200006628Y-129472045D01*
X200235000Y-129352812D01*
X200235000Y-128165000D01*
X200215000Y-128165000D01*
X200215000Y-127915000D01*
X200235000Y-127915000D01*
X200235000Y-127895000D01*
X200485000Y-127895000D01*
X200485000Y-127915000D01*
X200505000Y-127915000D01*
X200505000Y-128165000D01*
X200485000Y-128165000D01*
X200485000Y-129352812D01*
X200713372Y-129472045D01*
X200861786Y-129427030D01*
X201122740Y-129302485D01*
X201354383Y-129129423D01*
X201547812Y-128914496D01*
X201624348Y-128785781D01*
X201754293Y-128980258D01*
X201959742Y-129185707D01*
X202201325Y-129347128D01*
X202469758Y-129458317D01*
X202754725Y-129515000D01*
X203045275Y-129515000D01*
X203330242Y-129458317D01*
X203598675Y-129347128D01*
X203840258Y-129185707D01*
X204045707Y-128980258D01*
X204175652Y-128785781D01*
X204252188Y-128914496D01*
X204445617Y-129129423D01*
X204677260Y-129302485D01*
X204938214Y-129427030D01*
X205086628Y-129472045D01*
X205315000Y-129352812D01*
X205315000Y-128165000D01*
X205295000Y-128165000D01*
X205295000Y-127915000D01*
X205315000Y-127915000D01*
X205315000Y-127895000D01*
X205565000Y-127895000D01*
X205565000Y-127915000D01*
X205585000Y-127915000D01*
X205585000Y-128165000D01*
X205565000Y-128165000D01*
X205565000Y-129352812D01*
X205793372Y-129472045D01*
X205941786Y-129427030D01*
X206202740Y-129302485D01*
X206434383Y-129129423D01*
X206627812Y-128914496D01*
X206704348Y-128785781D01*
X206834293Y-128980258D01*
X207039742Y-129185707D01*
X207281325Y-129347128D01*
X207549758Y-129458317D01*
X207834725Y-129515000D01*
X208125275Y-129515000D01*
X208410242Y-129458317D01*
X208678675Y-129347128D01*
X208920258Y-129185707D01*
X209125707Y-128980258D01*
X209250000Y-128794241D01*
X209374293Y-128980258D01*
X209579742Y-129185707D01*
X209821325Y-129347128D01*
X210089758Y-129458317D01*
X210374725Y-129515000D01*
X210665275Y-129515000D01*
X210950242Y-129458317D01*
X211218675Y-129347128D01*
X211460258Y-129185707D01*
X211665707Y-128980258D01*
X211790000Y-128794241D01*
X211914293Y-128980258D01*
X212119742Y-129185707D01*
X212361325Y-129347128D01*
X212629758Y-129458317D01*
X212914725Y-129515000D01*
X213205275Y-129515000D01*
X213490242Y-129458317D01*
X213758675Y-129347128D01*
X214000258Y-129185707D01*
X214205707Y-128980258D01*
X214330000Y-128794241D01*
X214454293Y-128980258D01*
X214659742Y-129185707D01*
X214901325Y-129347128D01*
X215169758Y-129458317D01*
X215454725Y-129515000D01*
X215745275Y-129515000D01*
X216030242Y-129458317D01*
X216298675Y-129347128D01*
X216540258Y-129185707D01*
X216745707Y-128980258D01*
X216875652Y-128785781D01*
X216952188Y-128914496D01*
X217145617Y-129129423D01*
X217377260Y-129302485D01*
X217638214Y-129427030D01*
X217786628Y-129472045D01*
X218015000Y-129352812D01*
X218015000Y-128165000D01*
X217995000Y-128165000D01*
X217995000Y-127915000D01*
X218015000Y-127915000D01*
X218015000Y-127895000D01*
X218265000Y-127895000D01*
X218265000Y-127915000D01*
X218285000Y-127915000D01*
X218285000Y-128165000D01*
X218265000Y-128165000D01*
X218265000Y-129352812D01*
X218493372Y-129472045D01*
X218641786Y-129427030D01*
X218902740Y-129302485D01*
X219134383Y-129129423D01*
X219327812Y-128914496D01*
X219404348Y-128785781D01*
X219534293Y-128980258D01*
X219739742Y-129185707D01*
X219981325Y-129347128D01*
X220249758Y-129458317D01*
X220534725Y-129515000D01*
X220825275Y-129515000D01*
X221110242Y-129458317D01*
X221254341Y-129398629D01*
X221260719Y-129410562D01*
X221363815Y-129536185D01*
X221395295Y-129562021D01*
X222175001Y-130341727D01*
X222175000Y-135209487D01*
X222171010Y-135250000D01*
X222175000Y-135290513D01*
X222175000Y-135290520D01*
X222175001Y-135290530D01*
X222175000Y-141459487D01*
X222171010Y-141500000D01*
X222175000Y-141540513D01*
X222175000Y-141540520D01*
X222186938Y-141661727D01*
X222234112Y-141817240D01*
X222310719Y-141960562D01*
X222413815Y-142086185D01*
X222445296Y-142112021D01*
X225138065Y-144804791D01*
X225163823Y-144836177D01*
X225195209Y-144861935D01*
X225195289Y-144862015D01*
X225195294Y-144862019D01*
X226925001Y-146591727D01*
X226925000Y-151209487D01*
X226921010Y-151250000D01*
X226925000Y-151290513D01*
X226925000Y-151290520D01*
X226936938Y-151411727D01*
X226984112Y-151567240D01*
X227060719Y-151710562D01*
X227163815Y-151836185D01*
X227195296Y-151862021D01*
X229387988Y-154054715D01*
X229413815Y-154086185D01*
X229445285Y-154112012D01*
X229445289Y-154112016D01*
X229486638Y-154145949D01*
X229539437Y-154189281D01*
X229653035Y-154250000D01*
X229682759Y-154265888D01*
X229838272Y-154313062D01*
X230000000Y-154328991D01*
X230040521Y-154325000D01*
X233209487Y-154325000D01*
X233250000Y-154328990D01*
X233290513Y-154325000D01*
X233290521Y-154325000D01*
X233411728Y-154313062D01*
X233567241Y-154265888D01*
X233710563Y-154189281D01*
X233836185Y-154086185D01*
X233862021Y-154054704D01*
X236054715Y-151862012D01*
X236086185Y-151836185D01*
X236112012Y-151804715D01*
X236112016Y-151804711D01*
X236145949Y-151763362D01*
X236189281Y-151710563D01*
X236265888Y-151567241D01*
X236313062Y-151411728D01*
X236325000Y-151290521D01*
X236325000Y-151290520D01*
X236328991Y-151250000D01*
X236325000Y-151209479D01*
X236325000Y-149670177D01*
X238065000Y-149670177D01*
X238065000Y-150829824D01*
X238088513Y-151068556D01*
X238181432Y-151374869D01*
X238332326Y-151657170D01*
X238535393Y-151904608D01*
X238782831Y-152107675D01*
X239065132Y-152258568D01*
X239371445Y-152351487D01*
X239690000Y-152382862D01*
X240008556Y-152351487D01*
X240314869Y-152258568D01*
X240597170Y-152107675D01*
X240844608Y-151904608D01*
X241047675Y-151657170D01*
X241198568Y-151374869D01*
X241291487Y-151068556D01*
X241315000Y-150829824D01*
X241315000Y-149670176D01*
X241291487Y-149431444D01*
X241198568Y-149125131D01*
X241047675Y-148842830D01*
X240844608Y-148595392D01*
X240597169Y-148392325D01*
X240314868Y-148241432D01*
X240008555Y-148148513D01*
X239690000Y-148117138D01*
X239371444Y-148148513D01*
X239065131Y-148241432D01*
X238782830Y-148392325D01*
X238535392Y-148595392D01*
X238332325Y-148842831D01*
X238181432Y-149125132D01*
X238088513Y-149431445D01*
X238065000Y-149670177D01*
X236325000Y-149670177D01*
X236325000Y-146091725D01*
X237554711Y-144862015D01*
X237586185Y-144836185D01*
X237689281Y-144710563D01*
X237765888Y-144567241D01*
X237813062Y-144411728D01*
X237825000Y-144290521D01*
X237825000Y-144290514D01*
X237828990Y-144250001D01*
X237825000Y-144209488D01*
X237825000Y-143860253D01*
X237908344Y-143735520D01*
X237985610Y-143548982D01*
X238025000Y-143350954D01*
X238025000Y-143149046D01*
X237995353Y-143000000D01*
X241939338Y-143000000D01*
X238714341Y-146225000D01*
X238649046Y-146225000D01*
X238451018Y-146264390D01*
X238264480Y-146341656D01*
X238096600Y-146453830D01*
X237953830Y-146596600D01*
X237841656Y-146764480D01*
X237764390Y-146951018D01*
X237725000Y-147149046D01*
X237725000Y-147350954D01*
X237764390Y-147548982D01*
X237841656Y-147735520D01*
X237953830Y-147903400D01*
X238096600Y-148046170D01*
X238264480Y-148158344D01*
X238451018Y-148235610D01*
X238649046Y-148275000D01*
X238850954Y-148275000D01*
X239048982Y-148235610D01*
X239235520Y-148158344D01*
X239403400Y-148046170D01*
X239546170Y-147903400D01*
X239658344Y-147735520D01*
X239735610Y-147548982D01*
X239775000Y-147350954D01*
X239775000Y-147285659D01*
X242804471Y-144256187D01*
X242899048Y-144275000D01*
X243100956Y-144275000D01*
X243298984Y-144235610D01*
X243485522Y-144158344D01*
X243653402Y-144046170D01*
X243796172Y-143903400D01*
X243908346Y-143735520D01*
X243985612Y-143548982D01*
X244025002Y-143350954D01*
X244025002Y-143149046D01*
X243995355Y-143000000D01*
X245213173Y-143000000D01*
X245250000Y-143003627D01*
X245286827Y-143000000D01*
X245286835Y-143000000D01*
X245397026Y-142989147D01*
X245538401Y-142946261D01*
X245668693Y-142876619D01*
X245782895Y-142782895D01*
X245806378Y-142754281D01*
X246310660Y-142250000D01*
X248463173Y-142250000D01*
X248500000Y-142253627D01*
X248536827Y-142250000D01*
X248536835Y-142250000D01*
X248647026Y-142239147D01*
X248788401Y-142196261D01*
X248918693Y-142126619D01*
X249032895Y-142032895D01*
X249056378Y-142004281D01*
X250310661Y-140750000D01*
X252300430Y-140750000D01*
X252346600Y-140796170D01*
X252514480Y-140908344D01*
X252701018Y-140985610D01*
X252899046Y-141025000D01*
X253100954Y-141025000D01*
X253298982Y-140985610D01*
X253485520Y-140908344D01*
X253653400Y-140796170D01*
X253796170Y-140653400D01*
X253908344Y-140485520D01*
X253985610Y-140298982D01*
X254025000Y-140100954D01*
X254025000Y-139899046D01*
X253985610Y-139701018D01*
X253908344Y-139514480D01*
X253898669Y-139500000D01*
X253908344Y-139485520D01*
X253985610Y-139298982D01*
X254025000Y-139100954D01*
X254025000Y-138899046D01*
X253985610Y-138701018D01*
X253908344Y-138514480D01*
X253796170Y-138346600D01*
X253653400Y-138203830D01*
X253485520Y-138091656D01*
X253298982Y-138014390D01*
X253100954Y-137975000D01*
X252899046Y-137975000D01*
X252701018Y-138014390D01*
X252514480Y-138091656D01*
X252346600Y-138203830D01*
X252300430Y-138250000D01*
X250286827Y-138250000D01*
X250249999Y-138246373D01*
X250213172Y-138250000D01*
X250213165Y-138250000D01*
X250102974Y-138260853D01*
X249961599Y-138303739D01*
X249831307Y-138373381D01*
X249717105Y-138467105D01*
X249693626Y-138495714D01*
X247939341Y-140250000D01*
X245536827Y-140250000D01*
X245499999Y-140246373D01*
X245463171Y-140250000D01*
X245463165Y-140250000D01*
X245367817Y-140259391D01*
X245352973Y-140260853D01*
X245236145Y-140296293D01*
X245275000Y-140100954D01*
X245275000Y-139899046D01*
X245235610Y-139701018D01*
X245158344Y-139514480D01*
X245046170Y-139346600D01*
X244903400Y-139203830D01*
X244735520Y-139091656D01*
X244548982Y-139014390D01*
X244401850Y-138985124D01*
X244075000Y-138658274D01*
X244075000Y-138290512D01*
X244078990Y-138249999D01*
X244075000Y-138209486D01*
X244075000Y-138209479D01*
X244063062Y-138088272D01*
X244015888Y-137932759D01*
X243939281Y-137789437D01*
X243836185Y-137663815D01*
X243804709Y-137637983D01*
X243112020Y-136945295D01*
X243086185Y-136913815D01*
X242960563Y-136810719D01*
X242817241Y-136734112D01*
X242661728Y-136686938D01*
X242540521Y-136675000D01*
X242540513Y-136675000D01*
X242500000Y-136671010D01*
X242459487Y-136675000D01*
X238841726Y-136675000D01*
X238015000Y-135848275D01*
X238015000Y-135070513D01*
X238018990Y-135030000D01*
X238015000Y-134989487D01*
X238015000Y-129452204D01*
X238029758Y-129458317D01*
X238314725Y-129515000D01*
X238605275Y-129515000D01*
X238890242Y-129458317D01*
X239158675Y-129347128D01*
X239400258Y-129185707D01*
X239420965Y-129165000D01*
X240039035Y-129165000D01*
X240059742Y-129185707D01*
X240301325Y-129347128D01*
X240569758Y-129458317D01*
X240854725Y-129515000D01*
X241070457Y-129515000D01*
X242979963Y-131424506D01*
X243023024Y-131476976D01*
X243075492Y-131520035D01*
X243232394Y-131648802D01*
X243282328Y-131675492D01*
X243471264Y-131776481D01*
X243730453Y-131855105D01*
X243932451Y-131875000D01*
X243932460Y-131875000D01*
X243999999Y-131881652D01*
X244067538Y-131875000D01*
X247682461Y-131875000D01*
X247750000Y-131881652D01*
X247817539Y-131875000D01*
X247817549Y-131875000D01*
X248019547Y-131855105D01*
X248278736Y-131776481D01*
X248517605Y-131648802D01*
X248726976Y-131476976D01*
X248770036Y-131424507D01*
X248998027Y-131196516D01*
X249023025Y-131226976D01*
X249075489Y-131270032D01*
X249729963Y-131924506D01*
X249773024Y-131976976D01*
X249982395Y-132148802D01*
X250221264Y-132276481D01*
X250480453Y-132355105D01*
X250682451Y-132375000D01*
X250682460Y-132375000D01*
X250749999Y-132381652D01*
X250817538Y-132375000D01*
X253930457Y-132375000D01*
X254725000Y-133169544D01*
X254725001Y-147932442D01*
X254725000Y-147932452D01*
X254725000Y-149932451D01*
X254718347Y-150000000D01*
X254744895Y-150269547D01*
X254823519Y-150528736D01*
X254951198Y-150767605D01*
X255123024Y-150976976D01*
X255332395Y-151148802D01*
X255571264Y-151276481D01*
X255830453Y-151355105D01*
X256032451Y-151375000D01*
X256100000Y-151381653D01*
X256167549Y-151375000D01*
X256369547Y-151355105D01*
X256628736Y-151276481D01*
X256867605Y-151148802D01*
X257076976Y-150976976D01*
X257248802Y-150767605D01*
X257350000Y-150578278D01*
X257350000Y-156588826D01*
X257204097Y-156370466D01*
X256629534Y-155795903D01*
X255953920Y-155344473D01*
X255203218Y-155033522D01*
X254406277Y-154875000D01*
X253593723Y-154875000D01*
X252796782Y-155033522D01*
X252046080Y-155344473D01*
X251370466Y-155795903D01*
X250795903Y-156370466D01*
X250344473Y-157046080D01*
X250033522Y-157796782D01*
X249875000Y-158593723D01*
X249875000Y-159406277D01*
X250033522Y-160203218D01*
X250344473Y-160953920D01*
X250795903Y-161629534D01*
X251370466Y-162204097D01*
X251588826Y-162350000D01*
X178625000Y-162350000D01*
X178625000Y-154670177D01*
X234255000Y-154670177D01*
X234255000Y-155829824D01*
X234278513Y-156068556D01*
X234371432Y-156374869D01*
X234522326Y-156657170D01*
X234725393Y-156904608D01*
X234972831Y-157107675D01*
X235255132Y-157258568D01*
X235561445Y-157351487D01*
X235880000Y-157382862D01*
X236198556Y-157351487D01*
X236504869Y-157258568D01*
X236787170Y-157107675D01*
X237034608Y-156904608D01*
X237237675Y-156657170D01*
X237388568Y-156374869D01*
X237481487Y-156068556D01*
X237505000Y-155829824D01*
X237505000Y-154670177D01*
X241875000Y-154670177D01*
X241875000Y-155829824D01*
X241898513Y-156068556D01*
X241991432Y-156374869D01*
X242142326Y-156657170D01*
X242345393Y-156904608D01*
X242592831Y-157107675D01*
X242875132Y-157258568D01*
X243181445Y-157351487D01*
X243500000Y-157382862D01*
X243818556Y-157351487D01*
X244124869Y-157258568D01*
X244407170Y-157107675D01*
X244654608Y-156904608D01*
X244857675Y-156657170D01*
X245008568Y-156374869D01*
X245101487Y-156068556D01*
X245125000Y-155829824D01*
X245125000Y-154670176D01*
X245101487Y-154431444D01*
X245008568Y-154125131D01*
X244857675Y-153842830D01*
X244654608Y-153595392D01*
X244407169Y-153392325D01*
X244124868Y-153241432D01*
X243818555Y-153148513D01*
X243500000Y-153117138D01*
X243181444Y-153148513D01*
X242875131Y-153241432D01*
X242592830Y-153392325D01*
X242345392Y-153595392D01*
X242142325Y-153842831D01*
X241991432Y-154125132D01*
X241898513Y-154431445D01*
X241875000Y-154670177D01*
X237505000Y-154670177D01*
X237505000Y-154670176D01*
X237481487Y-154431444D01*
X237388568Y-154125131D01*
X237237675Y-153842830D01*
X237034608Y-153595392D01*
X236787169Y-153392325D01*
X236504868Y-153241432D01*
X236198555Y-153148513D01*
X235880000Y-153117138D01*
X235561444Y-153148513D01*
X235255131Y-153241432D01*
X234972830Y-153392325D01*
X234725392Y-153595392D01*
X234522325Y-153842831D01*
X234371432Y-154125132D01*
X234278513Y-154431445D01*
X234255000Y-154670177D01*
X178625000Y-154670177D01*
X178625000Y-146138245D01*
X180725000Y-146138245D01*
X180725000Y-147861756D01*
X180757918Y-148195978D01*
X180888005Y-148624817D01*
X181099256Y-149020037D01*
X181383550Y-149366451D01*
X181729964Y-149650745D01*
X182125184Y-149861995D01*
X182554023Y-149992082D01*
X183000000Y-150036007D01*
X183445978Y-149992082D01*
X183874817Y-149861995D01*
X184270037Y-149650745D01*
X184616451Y-149366451D01*
X184900745Y-149020037D01*
X185111995Y-148624817D01*
X185242082Y-148195977D01*
X185275000Y-147861755D01*
X185275000Y-147125000D01*
X190225000Y-147125000D01*
X190225000Y-147875000D01*
X190293100Y-148316429D01*
X190446010Y-148736090D01*
X190677853Y-149117856D01*
X190979721Y-149447056D01*
X191340012Y-149711039D01*
X191744881Y-149899661D01*
X192021188Y-149974042D01*
X192375000Y-149865059D01*
X192375000Y-147125000D01*
X192625000Y-147125000D01*
X192625000Y-149865059D01*
X192978812Y-149974042D01*
X193255119Y-149899661D01*
X193659988Y-149711039D01*
X194020279Y-149447056D01*
X194322147Y-149117856D01*
X194553990Y-148736090D01*
X194706900Y-148316429D01*
X194775000Y-147875000D01*
X194775000Y-147125000D01*
X192625000Y-147125000D01*
X192375000Y-147125000D01*
X190225000Y-147125000D01*
X185275000Y-147125000D01*
X185275000Y-146138244D01*
X185273696Y-146125000D01*
X190225000Y-146125000D01*
X190225000Y-146875000D01*
X192375000Y-146875000D01*
X192375000Y-144134941D01*
X192625000Y-144134941D01*
X192625000Y-146875000D01*
X194775000Y-146875000D01*
X194775000Y-146138245D01*
X199725000Y-146138245D01*
X199725000Y-147861756D01*
X199757918Y-148195978D01*
X199888005Y-148624817D01*
X200099256Y-149020037D01*
X200383550Y-149366451D01*
X200729964Y-149650745D01*
X201125184Y-149861995D01*
X201554023Y-149992082D01*
X202000000Y-150036007D01*
X202445978Y-149992082D01*
X202874817Y-149861995D01*
X203270037Y-149650745D01*
X203616451Y-149366451D01*
X203900745Y-149020037D01*
X204111995Y-148624817D01*
X204242082Y-148195977D01*
X204275000Y-147861755D01*
X204275000Y-146138245D01*
X209225000Y-146138245D01*
X209225000Y-147861756D01*
X209257918Y-148195978D01*
X209388005Y-148624817D01*
X209599256Y-149020037D01*
X209883550Y-149366451D01*
X210229964Y-149650745D01*
X210625184Y-149861995D01*
X211054023Y-149992082D01*
X211500000Y-150036007D01*
X211945978Y-149992082D01*
X212374817Y-149861995D01*
X212770037Y-149650745D01*
X213116451Y-149366451D01*
X213400745Y-149020037D01*
X213611995Y-148624817D01*
X213742082Y-148195977D01*
X213775000Y-147861755D01*
X213775000Y-146138245D01*
X218725000Y-146138245D01*
X218725000Y-147861756D01*
X218757918Y-148195978D01*
X218888005Y-148624817D01*
X219099256Y-149020037D01*
X219383550Y-149366451D01*
X219729964Y-149650745D01*
X220125184Y-149861995D01*
X220554023Y-149992082D01*
X221000000Y-150036007D01*
X221445978Y-149992082D01*
X221874817Y-149861995D01*
X222270037Y-149650745D01*
X222616451Y-149366451D01*
X222900745Y-149020037D01*
X223111995Y-148624817D01*
X223242082Y-148195977D01*
X223275000Y-147861755D01*
X223275000Y-146138244D01*
X223242082Y-145804022D01*
X223111995Y-145375183D01*
X222900745Y-144979963D01*
X222616451Y-144633549D01*
X222270037Y-144349255D01*
X221874816Y-144138005D01*
X221445977Y-144007918D01*
X221000000Y-143963993D01*
X220554022Y-144007918D01*
X220125183Y-144138005D01*
X219729963Y-144349255D01*
X219383549Y-144633549D01*
X219099255Y-144979963D01*
X218888005Y-145375184D01*
X218757918Y-145804023D01*
X218725000Y-146138245D01*
X213775000Y-146138245D01*
X213775000Y-146138244D01*
X213742082Y-145804022D01*
X213611995Y-145375183D01*
X213400745Y-144979963D01*
X213116451Y-144633549D01*
X212770037Y-144349255D01*
X212374816Y-144138005D01*
X211945977Y-144007918D01*
X211500000Y-143963993D01*
X211054022Y-144007918D01*
X210625183Y-144138005D01*
X210229963Y-144349255D01*
X209883549Y-144633549D01*
X209599255Y-144979963D01*
X209388005Y-145375184D01*
X209257918Y-145804023D01*
X209225000Y-146138245D01*
X204275000Y-146138245D01*
X204275000Y-146138244D01*
X204242082Y-145804022D01*
X204111995Y-145375183D01*
X203900745Y-144979963D01*
X203616451Y-144633549D01*
X203270037Y-144349255D01*
X202874816Y-144138005D01*
X202445977Y-144007918D01*
X202000000Y-143963993D01*
X201554022Y-144007918D01*
X201125183Y-144138005D01*
X200729963Y-144349255D01*
X200383549Y-144633549D01*
X200099255Y-144979963D01*
X199888005Y-145375184D01*
X199757918Y-145804023D01*
X199725000Y-146138245D01*
X194775000Y-146138245D01*
X194775000Y-146125000D01*
X194706900Y-145683571D01*
X194553990Y-145263910D01*
X194322147Y-144882144D01*
X194020279Y-144552944D01*
X193659988Y-144288961D01*
X193255119Y-144100339D01*
X192978812Y-144025958D01*
X192625000Y-144134941D01*
X192375000Y-144134941D01*
X192021188Y-144025958D01*
X191744881Y-144100339D01*
X191340012Y-144288961D01*
X190979721Y-144552944D01*
X190677853Y-144882144D01*
X190446010Y-145263910D01*
X190293100Y-145683571D01*
X190225000Y-146125000D01*
X185273696Y-146125000D01*
X185242082Y-145804022D01*
X185111995Y-145375183D01*
X184900745Y-144979963D01*
X184616451Y-144633549D01*
X184270037Y-144349255D01*
X183874816Y-144138005D01*
X183445977Y-144007918D01*
X183000000Y-143963993D01*
X182554022Y-144007918D01*
X182125183Y-144138005D01*
X181729963Y-144349255D01*
X181383549Y-144633549D01*
X181099255Y-144979963D01*
X180888005Y-145375184D01*
X180757918Y-145804023D01*
X180725000Y-146138245D01*
X178625000Y-146138245D01*
X178625000Y-127000000D01*
X178622598Y-126975614D01*
X178615485Y-126952165D01*
X178603934Y-126930554D01*
X178588388Y-126911612D01*
X178569446Y-126896066D01*
X178547835Y-126884515D01*
X178524386Y-126877402D01*
X178500000Y-126875000D01*
X171650000Y-126875000D01*
X171650000Y-122110353D01*
X171697056Y-122346917D01*
X171838397Y-122688145D01*
X172043593Y-122995243D01*
X172304757Y-123256407D01*
X172611855Y-123461603D01*
X172953083Y-123602944D01*
X173315329Y-123675000D01*
X173684671Y-123675000D01*
X174046917Y-123602944D01*
X174388145Y-123461603D01*
X174695243Y-123256407D01*
X174956407Y-122995243D01*
X175161603Y-122688145D01*
X175302944Y-122346917D01*
X175375000Y-121984671D01*
X175375000Y-121615329D01*
X175302944Y-121253083D01*
X175161603Y-120911855D01*
X175125000Y-120857075D01*
X175125000Y-113329824D01*
X175132862Y-113250000D01*
X175104267Y-112959666D01*
X175101487Y-112931444D01*
X175008568Y-112625131D01*
X174857675Y-112342830D01*
X174654608Y-112095392D01*
X174592602Y-112044505D01*
X172955499Y-110407403D01*
X172904608Y-110345392D01*
X172657170Y-110142325D01*
X172374869Y-109991432D01*
X172068556Y-109898513D01*
X171829824Y-109875000D01*
X171750000Y-109867138D01*
X171670176Y-109875000D01*
X167298096Y-109875000D01*
X168544332Y-108628764D01*
X171298013Y-108628764D01*
X171394171Y-108890610D01*
X171681910Y-109030854D01*
X171991481Y-109112268D01*
X172310986Y-109131723D01*
X172628147Y-109088472D01*
X172930777Y-108984178D01*
X173105829Y-108890610D01*
X173201987Y-108628764D01*
X172250000Y-107676777D01*
X171298013Y-108628764D01*
X168544332Y-108628764D01*
X169612110Y-107560986D01*
X170618277Y-107560986D01*
X170661528Y-107878147D01*
X170765822Y-108180777D01*
X170859390Y-108355829D01*
X171121236Y-108451987D01*
X172073223Y-107500000D01*
X172426777Y-107500000D01*
X173378764Y-108451987D01*
X173640610Y-108355829D01*
X173780854Y-108068090D01*
X173862268Y-107758519D01*
X173881723Y-107439014D01*
X173838472Y-107121853D01*
X173734178Y-106819223D01*
X173640610Y-106644171D01*
X173378764Y-106548013D01*
X172426777Y-107500000D01*
X172073223Y-107500000D01*
X171121236Y-106548013D01*
X170859390Y-106644171D01*
X170719146Y-106931910D01*
X170637732Y-107241481D01*
X170618277Y-107560986D01*
X169612110Y-107560986D01*
X170801860Y-106371236D01*
X171298013Y-106371236D01*
X172250000Y-107323223D01*
X173073223Y-106500000D01*
X175621976Y-106500000D01*
X175621976Y-108500000D01*
X175634043Y-108622521D01*
X175669781Y-108740334D01*
X175727817Y-108848911D01*
X175805920Y-108944080D01*
X175901089Y-109022183D01*
X176009666Y-109080219D01*
X176127479Y-109115957D01*
X176250000Y-109128024D01*
X178250000Y-109128024D01*
X178372521Y-109115957D01*
X178490334Y-109080219D01*
X178598911Y-109022183D01*
X178694080Y-108944080D01*
X178772183Y-108848911D01*
X178830219Y-108740334D01*
X178865957Y-108622521D01*
X178878024Y-108500000D01*
X178878024Y-106500000D01*
X178865957Y-106377479D01*
X178830219Y-106259666D01*
X178772183Y-106151089D01*
X178694080Y-106055920D01*
X178598911Y-105977817D01*
X178490334Y-105919781D01*
X178372521Y-105884043D01*
X178250000Y-105871976D01*
X176250000Y-105871976D01*
X176127479Y-105884043D01*
X176009666Y-105919781D01*
X175901089Y-105977817D01*
X175805920Y-106055920D01*
X175727817Y-106151089D01*
X175669781Y-106259666D01*
X175634043Y-106377479D01*
X175621976Y-106500000D01*
X173073223Y-106500000D01*
X173201987Y-106371236D01*
X173105829Y-106109390D01*
X172818090Y-105969146D01*
X172508519Y-105887732D01*
X172189014Y-105868277D01*
X171871853Y-105911528D01*
X171569223Y-106015822D01*
X171394171Y-106109390D01*
X171298013Y-106371236D01*
X170801860Y-106371236D01*
X172298097Y-104875000D01*
X179576904Y-104875000D01*
X183875001Y-109173098D01*
%TA.AperFunction,Conductor*%
D35*
G36*
X183875001Y-109173098D02*
G01*
X183875000Y-116826903D01*
X182157399Y-118544505D01*
X182095393Y-118595392D01*
X182044508Y-118657396D01*
X181892325Y-118842831D01*
X181741433Y-119125131D01*
X181648513Y-119431445D01*
X181617138Y-119750000D01*
X181625001Y-119829834D01*
X181625000Y-129920176D01*
X181617138Y-130000000D01*
X181629437Y-130124869D01*
X181648513Y-130318555D01*
X181741432Y-130624868D01*
X181892325Y-130907169D01*
X182095392Y-131154608D01*
X182157403Y-131205499D01*
X184544505Y-133592602D01*
X184595392Y-133654608D01*
X184842830Y-133857675D01*
X185125131Y-134008568D01*
X185431444Y-134101487D01*
X185750000Y-134132862D01*
X185829824Y-134125000D01*
X209076904Y-134125000D01*
X213294505Y-138342602D01*
X213345392Y-138404608D01*
X213592830Y-138607675D01*
X213875131Y-138758568D01*
X214181444Y-138851487D01*
X214420176Y-138875000D01*
X214420185Y-138875000D01*
X214499999Y-138882861D01*
X214579813Y-138875000D01*
X217329824Y-138875000D01*
X217568556Y-138851487D01*
X217874869Y-138758568D01*
X218157170Y-138607675D01*
X218404608Y-138404608D01*
X218607675Y-138157170D01*
X218758568Y-137874869D01*
X218851487Y-137568556D01*
X218882862Y-137250000D01*
X218851487Y-136931444D01*
X218758568Y-136625131D01*
X218607675Y-136342830D01*
X218404608Y-136095392D01*
X218157170Y-135892325D01*
X217874869Y-135741432D01*
X217568556Y-135648513D01*
X217329824Y-135625000D01*
X215173097Y-135625000D01*
X210955499Y-131407403D01*
X210904608Y-131345392D01*
X210657170Y-131142325D01*
X210389114Y-130999046D01*
X212075000Y-130999046D01*
X212075000Y-131200954D01*
X212114390Y-131398982D01*
X212191656Y-131585520D01*
X212303830Y-131753400D01*
X212446600Y-131896170D01*
X212614480Y-132008344D01*
X212801018Y-132085610D01*
X212999046Y-132125000D01*
X213200954Y-132125000D01*
X213398982Y-132085610D01*
X213585520Y-132008344D01*
X213753400Y-131896170D01*
X213799570Y-131850000D01*
X214604647Y-131850000D01*
X214575000Y-131999046D01*
X214575000Y-132200954D01*
X214614390Y-132398982D01*
X214691656Y-132585520D01*
X214803830Y-132753400D01*
X214946600Y-132896170D01*
X215114480Y-133008344D01*
X215301018Y-133085610D01*
X215499046Y-133125000D01*
X215700954Y-133125000D01*
X215898982Y-133085610D01*
X216085520Y-133008344D01*
X216253400Y-132896170D01*
X216299570Y-132850000D01*
X217400431Y-132850000D01*
X217446600Y-132896169D01*
X217614480Y-133008343D01*
X217801018Y-133085609D01*
X217999046Y-133124999D01*
X218200954Y-133124999D01*
X218398982Y-133085609D01*
X218585520Y-133008343D01*
X218753400Y-132896169D01*
X218896170Y-132753399D01*
X219008344Y-132585519D01*
X219085610Y-132398981D01*
X219125000Y-132200953D01*
X219125000Y-131999045D01*
X219095353Y-131850000D01*
X220000430Y-131850000D01*
X220046600Y-131896170D01*
X220214480Y-132008344D01*
X220401018Y-132085610D01*
X220599046Y-132125000D01*
X220800954Y-132125000D01*
X220998982Y-132085610D01*
X221185520Y-132008344D01*
X221353400Y-131896170D01*
X221496170Y-131753400D01*
X221608344Y-131585520D01*
X221685610Y-131398982D01*
X221725000Y-131200954D01*
X221725000Y-130999046D01*
X221685610Y-130801018D01*
X221608344Y-130614480D01*
X221496170Y-130446600D01*
X221353400Y-130303830D01*
X221185520Y-130191656D01*
X220998982Y-130114390D01*
X220800954Y-130075000D01*
X220599046Y-130075000D01*
X220401018Y-130114390D01*
X220214480Y-130191656D01*
X220046600Y-130303830D01*
X220000430Y-130350000D01*
X213799570Y-130350000D01*
X213753400Y-130303830D01*
X213585520Y-130191656D01*
X213398982Y-130114390D01*
X213200954Y-130075000D01*
X212999046Y-130075000D01*
X212801018Y-130114390D01*
X212614480Y-130191656D01*
X212446600Y-130303830D01*
X212303830Y-130446600D01*
X212191656Y-130614480D01*
X212114390Y-130801018D01*
X212075000Y-130999046D01*
X210389114Y-130999046D01*
X210374869Y-130991432D01*
X210068556Y-130898513D01*
X209829824Y-130875000D01*
X209750000Y-130867138D01*
X209670176Y-130875000D01*
X186423097Y-130875000D01*
X184875000Y-129326904D01*
X184875000Y-126573017D01*
X185870000Y-126573017D01*
X185870000Y-126966983D01*
X185946859Y-127353378D01*
X186097623Y-127717355D01*
X186316499Y-128044926D01*
X186595074Y-128323501D01*
X186922645Y-128542377D01*
X187286622Y-128693141D01*
X187673017Y-128770000D01*
X188066983Y-128770000D01*
X188453378Y-128693141D01*
X188817355Y-128542377D01*
X189144926Y-128323501D01*
X189423501Y-128044926D01*
X189642377Y-127717355D01*
X189793141Y-127353378D01*
X189870000Y-126966983D01*
X189870000Y-126573017D01*
X189793141Y-126186622D01*
X189642377Y-125822645D01*
X189423501Y-125495074D01*
X189144926Y-125216499D01*
X189040356Y-125146627D01*
X191307950Y-125146627D01*
X191426551Y-125375000D01*
X192615000Y-125375000D01*
X192615000Y-124187188D01*
X192386628Y-124067955D01*
X192238214Y-124112970D01*
X191977260Y-124237515D01*
X191745617Y-124410577D01*
X191552188Y-124625504D01*
X191404406Y-124874038D01*
X191307950Y-125146627D01*
X189040356Y-125146627D01*
X188817355Y-124997623D01*
X188453378Y-124846859D01*
X188066983Y-124770000D01*
X187673017Y-124770000D01*
X187286622Y-124846859D01*
X186922645Y-124997623D01*
X186595074Y-125216499D01*
X186316499Y-125495074D01*
X186097623Y-125822645D01*
X185946859Y-126186622D01*
X185870000Y-126573017D01*
X184875000Y-126573017D01*
X184875000Y-120423096D01*
X186592603Y-118705494D01*
X186654608Y-118654608D01*
X186857675Y-118407170D01*
X186946264Y-118241432D01*
X187008568Y-118124870D01*
X187083630Y-117877422D01*
X187101487Y-117818556D01*
X187125000Y-117579824D01*
X187125000Y-117579823D01*
X187132862Y-117500000D01*
X187125000Y-117420176D01*
X187125000Y-110125000D01*
X243826904Y-110125000D01*
X248125001Y-114423098D01*
X248125000Y-123170176D01*
X248117138Y-123250000D01*
X248125000Y-123329823D01*
X248125001Y-123329833D01*
X248125000Y-128180456D01*
X247180457Y-129125000D01*
X244569543Y-129125000D01*
X242560037Y-127115494D01*
X242516976Y-127063024D01*
X242307605Y-126891198D01*
X242227751Y-126848515D01*
X242294080Y-126794080D01*
X242372183Y-126698911D01*
X242430219Y-126590334D01*
X242435472Y-126573017D01*
X243870000Y-126573017D01*
X243870000Y-126966983D01*
X243946859Y-127353378D01*
X244097623Y-127717355D01*
X244316499Y-128044926D01*
X244595074Y-128323501D01*
X244922645Y-128542377D01*
X245286622Y-128693141D01*
X245673017Y-128770000D01*
X246066983Y-128770000D01*
X246453378Y-128693141D01*
X246817355Y-128542377D01*
X247144926Y-128323501D01*
X247423501Y-128044926D01*
X247642377Y-127717355D01*
X247793141Y-127353378D01*
X247870000Y-126966983D01*
X247870000Y-126573017D01*
X247793141Y-126186622D01*
X247642377Y-125822645D01*
X247423501Y-125495074D01*
X247144926Y-125216499D01*
X246817355Y-124997623D01*
X246453378Y-124846859D01*
X246066983Y-124770000D01*
X245673017Y-124770000D01*
X245286622Y-124846859D01*
X244922645Y-124997623D01*
X244595074Y-125216499D01*
X244316499Y-125495074D01*
X244097623Y-125822645D01*
X243946859Y-126186622D01*
X243870000Y-126573017D01*
X242435472Y-126573017D01*
X242465957Y-126472521D01*
X242478024Y-126350000D01*
X242478024Y-124650000D01*
X242465957Y-124527479D01*
X242430219Y-124409666D01*
X242372183Y-124301089D01*
X242294080Y-124205920D01*
X242198911Y-124127817D01*
X242090334Y-124069781D01*
X241972521Y-124034043D01*
X241850000Y-124021976D01*
X240150000Y-124021976D01*
X240027479Y-124034043D01*
X239909666Y-124069781D01*
X239801089Y-124127817D01*
X239705920Y-124205920D01*
X239627817Y-124301089D01*
X239569781Y-124409666D01*
X239543213Y-124497248D01*
X239400258Y-124354293D01*
X239158675Y-124192872D01*
X238890242Y-124081683D01*
X238605275Y-124025000D01*
X238314725Y-124025000D01*
X238090300Y-124069641D01*
X237016379Y-122995719D01*
X236992895Y-122967105D01*
X236878693Y-122873381D01*
X236748401Y-122803739D01*
X236607026Y-122760853D01*
X236496835Y-122750000D01*
X236496827Y-122750000D01*
X236460000Y-122746373D01*
X236423173Y-122750000D01*
X228036828Y-122750000D01*
X228000000Y-122746373D01*
X227963172Y-122750000D01*
X227963165Y-122750000D01*
X227852974Y-122760853D01*
X227711599Y-122803739D01*
X227581307Y-122873381D01*
X227510558Y-122931444D01*
X227467105Y-122967105D01*
X227443626Y-122995714D01*
X226520714Y-123918627D01*
X226492105Y-123942106D01*
X226468626Y-123970715D01*
X226468623Y-123970718D01*
X226458649Y-123982872D01*
X226398381Y-124056308D01*
X226368095Y-124112970D01*
X226349547Y-124147670D01*
X226190242Y-124081683D01*
X225905275Y-124025000D01*
X225614725Y-124025000D01*
X225329758Y-124081683D01*
X225061325Y-124192872D01*
X224819742Y-124354293D01*
X224614293Y-124559742D01*
X224490000Y-124745759D01*
X224365707Y-124559742D01*
X224160258Y-124354293D01*
X223918675Y-124192872D01*
X223650242Y-124081683D01*
X223365275Y-124025000D01*
X223074725Y-124025000D01*
X222789758Y-124081683D01*
X222521325Y-124192872D01*
X222279742Y-124354293D01*
X222074293Y-124559742D01*
X221950000Y-124745759D01*
X221825707Y-124559742D01*
X221620258Y-124354293D01*
X221378675Y-124192872D01*
X221110242Y-124081683D01*
X220825275Y-124025000D01*
X220534725Y-124025000D01*
X220249758Y-124081683D01*
X219981325Y-124192872D01*
X219739742Y-124354293D01*
X219534293Y-124559742D01*
X219410000Y-124745759D01*
X219285707Y-124559742D01*
X219080258Y-124354293D01*
X218838675Y-124192872D01*
X218570242Y-124081683D01*
X218285275Y-124025000D01*
X217994725Y-124025000D01*
X217709758Y-124081683D01*
X217441325Y-124192872D01*
X217199742Y-124354293D01*
X216994293Y-124559742D01*
X216870000Y-124745759D01*
X216745707Y-124559742D01*
X216540258Y-124354293D01*
X216298675Y-124192872D01*
X216030242Y-124081683D01*
X215745275Y-124025000D01*
X215454725Y-124025000D01*
X215169758Y-124081683D01*
X214901325Y-124192872D01*
X214659742Y-124354293D01*
X214454293Y-124559742D01*
X214330000Y-124745759D01*
X214205707Y-124559742D01*
X214000258Y-124354293D01*
X213758675Y-124192872D01*
X213490242Y-124081683D01*
X213205275Y-124025000D01*
X212914725Y-124025000D01*
X212629758Y-124081683D01*
X212361325Y-124192872D01*
X212119742Y-124354293D01*
X211914293Y-124559742D01*
X211784348Y-124754219D01*
X211707812Y-124625504D01*
X211514383Y-124410577D01*
X211282740Y-124237515D01*
X211021786Y-124112970D01*
X210873372Y-124067955D01*
X210645000Y-124187188D01*
X210645000Y-125375000D01*
X210665000Y-125375000D01*
X210665000Y-125625000D01*
X210645000Y-125625000D01*
X210645000Y-125645000D01*
X210395000Y-125645000D01*
X210395000Y-125625000D01*
X210375000Y-125625000D01*
X210375000Y-125375000D01*
X210395000Y-125375000D01*
X210395000Y-124187188D01*
X210166628Y-124067955D01*
X210018214Y-124112970D01*
X209757260Y-124237515D01*
X209525617Y-124410577D01*
X209332188Y-124625504D01*
X209255652Y-124754219D01*
X209125707Y-124559742D01*
X208920258Y-124354293D01*
X208678675Y-124192872D01*
X208410242Y-124081683D01*
X208125275Y-124025000D01*
X207834725Y-124025000D01*
X207549758Y-124081683D01*
X207281325Y-124192872D01*
X207039742Y-124354293D01*
X206834293Y-124559742D01*
X206710000Y-124745759D01*
X206585707Y-124559742D01*
X206380258Y-124354293D01*
X206138675Y-124192872D01*
X205870242Y-124081683D01*
X205585275Y-124025000D01*
X205294725Y-124025000D01*
X205009758Y-124081683D01*
X204741325Y-124192872D01*
X204499742Y-124354293D01*
X204294293Y-124559742D01*
X204170000Y-124745759D01*
X204045707Y-124559742D01*
X203840258Y-124354293D01*
X203598675Y-124192872D01*
X203330242Y-124081683D01*
X203045275Y-124025000D01*
X202754725Y-124025000D01*
X202469758Y-124081683D01*
X202201325Y-124192872D01*
X201959742Y-124354293D01*
X201754293Y-124559742D01*
X201630000Y-124745759D01*
X201505707Y-124559742D01*
X201300258Y-124354293D01*
X201058675Y-124192872D01*
X200790242Y-124081683D01*
X200505275Y-124025000D01*
X200214725Y-124025000D01*
X199929758Y-124081683D01*
X199661325Y-124192872D01*
X199419742Y-124354293D01*
X199214293Y-124559742D01*
X199090000Y-124745759D01*
X198965707Y-124559742D01*
X198760258Y-124354293D01*
X198518675Y-124192872D01*
X198250242Y-124081683D01*
X197965275Y-124025000D01*
X197674725Y-124025000D01*
X197389758Y-124081683D01*
X197121325Y-124192872D01*
X196879742Y-124354293D01*
X196674293Y-124559742D01*
X196550000Y-124745759D01*
X196425707Y-124559742D01*
X196220258Y-124354293D01*
X195978675Y-124192872D01*
X195710242Y-124081683D01*
X195425275Y-124025000D01*
X195134725Y-124025000D01*
X194849758Y-124081683D01*
X194581325Y-124192872D01*
X194339742Y-124354293D01*
X194134293Y-124559742D01*
X194004348Y-124754219D01*
X193927812Y-124625504D01*
X193734383Y-124410577D01*
X193502740Y-124237515D01*
X193241786Y-124112970D01*
X193093372Y-124067955D01*
X192865000Y-124187188D01*
X192865000Y-125375000D01*
X192885000Y-125375000D01*
X192885000Y-125625000D01*
X192865000Y-125625000D01*
X192865000Y-125645000D01*
X192615000Y-125645000D01*
X192615000Y-125625000D01*
X191426551Y-125625000D01*
X191307950Y-125853373D01*
X191404406Y-126125962D01*
X191552188Y-126374496D01*
X191745617Y-126589423D01*
X191977260Y-126762485D01*
X191988779Y-126767982D01*
X191799742Y-126894293D01*
X191594293Y-127099742D01*
X191432872Y-127341325D01*
X191321683Y-127609758D01*
X191265000Y-127894725D01*
X191265000Y-128185275D01*
X191321683Y-128470242D01*
X191432872Y-128738675D01*
X191594293Y-128980258D01*
X191799742Y-129185707D01*
X192041325Y-129347128D01*
X192309758Y-129458317D01*
X192594725Y-129515000D01*
X192885275Y-129515000D01*
X193170242Y-129458317D01*
X193438675Y-129347128D01*
X193680258Y-129185707D01*
X193885707Y-128980258D01*
X194010000Y-128794241D01*
X194134293Y-128980258D01*
X194339742Y-129185707D01*
X194581325Y-129347128D01*
X194849758Y-129458317D01*
X195134725Y-129515000D01*
X195425275Y-129515000D01*
X195710242Y-129458317D01*
X195978675Y-129347128D01*
X196220258Y-129185707D01*
X196425707Y-128980258D01*
X196550000Y-128794241D01*
X196674293Y-128980258D01*
X196879742Y-129185707D01*
X197121325Y-129347128D01*
X197389758Y-129458317D01*
X197674725Y-129515000D01*
X197965275Y-129515000D01*
X198250242Y-129458317D01*
X198518675Y-129347128D01*
X198760258Y-129185707D01*
X198965707Y-128980258D01*
X199095652Y-128785781D01*
X199172188Y-128914496D01*
X199365617Y-129129423D01*
X199597260Y-129302485D01*
X199858214Y-129427030D01*
X200006628Y-129472045D01*
X200235000Y-129352812D01*
X200235000Y-128165000D01*
X200215000Y-128165000D01*
X200215000Y-127915000D01*
X200235000Y-127915000D01*
X200235000Y-127895000D01*
X200485000Y-127895000D01*
X200485000Y-127915000D01*
X200505000Y-127915000D01*
X200505000Y-128165000D01*
X200485000Y-128165000D01*
X200485000Y-129352812D01*
X200713372Y-129472045D01*
X200861786Y-129427030D01*
X201122740Y-129302485D01*
X201354383Y-129129423D01*
X201547812Y-128914496D01*
X201624348Y-128785781D01*
X201754293Y-128980258D01*
X201959742Y-129185707D01*
X202201325Y-129347128D01*
X202469758Y-129458317D01*
X202754725Y-129515000D01*
X203045275Y-129515000D01*
X203330242Y-129458317D01*
X203598675Y-129347128D01*
X203840258Y-129185707D01*
X204045707Y-128980258D01*
X204175652Y-128785781D01*
X204252188Y-128914496D01*
X204445617Y-129129423D01*
X204677260Y-129302485D01*
X204938214Y-129427030D01*
X205086628Y-129472045D01*
X205315000Y-129352812D01*
X205315000Y-128165000D01*
X205295000Y-128165000D01*
X205295000Y-127915000D01*
X205315000Y-127915000D01*
X205315000Y-127895000D01*
X205565000Y-127895000D01*
X205565000Y-127915000D01*
X205585000Y-127915000D01*
X205585000Y-128165000D01*
X205565000Y-128165000D01*
X205565000Y-129352812D01*
X205793372Y-129472045D01*
X205941786Y-129427030D01*
X206202740Y-129302485D01*
X206434383Y-129129423D01*
X206627812Y-128914496D01*
X206704348Y-128785781D01*
X206834293Y-128980258D01*
X207039742Y-129185707D01*
X207281325Y-129347128D01*
X207549758Y-129458317D01*
X207834725Y-129515000D01*
X208125275Y-129515000D01*
X208410242Y-129458317D01*
X208678675Y-129347128D01*
X208920258Y-129185707D01*
X209125707Y-128980258D01*
X209250000Y-128794241D01*
X209374293Y-128980258D01*
X209579742Y-129185707D01*
X209821325Y-129347128D01*
X210089758Y-129458317D01*
X210374725Y-129515000D01*
X210665275Y-129515000D01*
X210950242Y-129458317D01*
X211218675Y-129347128D01*
X211460258Y-129185707D01*
X211665707Y-128980258D01*
X211790000Y-128794241D01*
X211914293Y-128980258D01*
X212119742Y-129185707D01*
X212361325Y-129347128D01*
X212629758Y-129458317D01*
X212914725Y-129515000D01*
X213205275Y-129515000D01*
X213490242Y-129458317D01*
X213758675Y-129347128D01*
X214000258Y-129185707D01*
X214205707Y-128980258D01*
X214330000Y-128794241D01*
X214454293Y-128980258D01*
X214659742Y-129185707D01*
X214901325Y-129347128D01*
X215169758Y-129458317D01*
X215454725Y-129515000D01*
X215745275Y-129515000D01*
X216030242Y-129458317D01*
X216298675Y-129347128D01*
X216540258Y-129185707D01*
X216745707Y-128980258D01*
X216875652Y-128785781D01*
X216952188Y-128914496D01*
X217145617Y-129129423D01*
X217377260Y-129302485D01*
X217638214Y-129427030D01*
X217786628Y-129472045D01*
X218015000Y-129352812D01*
X218015000Y-128165000D01*
X217995000Y-128165000D01*
X217995000Y-127915000D01*
X218015000Y-127915000D01*
X218015000Y-127895000D01*
X218265000Y-127895000D01*
X218265000Y-127915000D01*
X218285000Y-127915000D01*
X218285000Y-128165000D01*
X218265000Y-128165000D01*
X218265000Y-129352812D01*
X218493372Y-129472045D01*
X218641786Y-129427030D01*
X218902740Y-129302485D01*
X219134383Y-129129423D01*
X219327812Y-128914496D01*
X219404348Y-128785781D01*
X219534293Y-128980258D01*
X219739742Y-129185707D01*
X219981325Y-129347128D01*
X220249758Y-129458317D01*
X220534725Y-129515000D01*
X220825275Y-129515000D01*
X221110242Y-129458317D01*
X221254341Y-129398629D01*
X221260719Y-129410562D01*
X221363815Y-129536185D01*
X221395295Y-129562021D01*
X222175001Y-130341727D01*
X222175000Y-135209487D01*
X222171010Y-135250000D01*
X222175000Y-135290513D01*
X222175000Y-135290520D01*
X222175001Y-135290530D01*
X222175000Y-141459487D01*
X222171010Y-141500000D01*
X222175000Y-141540513D01*
X222175000Y-141540520D01*
X222186938Y-141661727D01*
X222234112Y-141817240D01*
X222310719Y-141960562D01*
X222413815Y-142086185D01*
X222445296Y-142112021D01*
X225138065Y-144804791D01*
X225163823Y-144836177D01*
X225195209Y-144861935D01*
X225195289Y-144862015D01*
X225195294Y-144862019D01*
X226925001Y-146591727D01*
X226925000Y-151209487D01*
X226921010Y-151250000D01*
X226925000Y-151290513D01*
X226925000Y-151290520D01*
X226936938Y-151411727D01*
X226984112Y-151567240D01*
X227060719Y-151710562D01*
X227163815Y-151836185D01*
X227195296Y-151862021D01*
X229387988Y-154054715D01*
X229413815Y-154086185D01*
X229445285Y-154112012D01*
X229445289Y-154112016D01*
X229486638Y-154145949D01*
X229539437Y-154189281D01*
X229653035Y-154250000D01*
X229682759Y-154265888D01*
X229838272Y-154313062D01*
X230000000Y-154328991D01*
X230040521Y-154325000D01*
X233209487Y-154325000D01*
X233250000Y-154328990D01*
X233290513Y-154325000D01*
X233290521Y-154325000D01*
X233411728Y-154313062D01*
X233567241Y-154265888D01*
X233710563Y-154189281D01*
X233836185Y-154086185D01*
X233862021Y-154054704D01*
X236054715Y-151862012D01*
X236086185Y-151836185D01*
X236112012Y-151804715D01*
X236112016Y-151804711D01*
X236145949Y-151763362D01*
X236189281Y-151710563D01*
X236265888Y-151567241D01*
X236313062Y-151411728D01*
X236325000Y-151290521D01*
X236325000Y-151290520D01*
X236328991Y-151250000D01*
X236325000Y-151209479D01*
X236325000Y-149670177D01*
X238065000Y-149670177D01*
X238065000Y-150829824D01*
X238088513Y-151068556D01*
X238181432Y-151374869D01*
X238332326Y-151657170D01*
X238535393Y-151904608D01*
X238782831Y-152107675D01*
X239065132Y-152258568D01*
X239371445Y-152351487D01*
X239690000Y-152382862D01*
X240008556Y-152351487D01*
X240314869Y-152258568D01*
X240597170Y-152107675D01*
X240844608Y-151904608D01*
X241047675Y-151657170D01*
X241198568Y-151374869D01*
X241291487Y-151068556D01*
X241315000Y-150829824D01*
X241315000Y-149670176D01*
X241291487Y-149431444D01*
X241198568Y-149125131D01*
X241047675Y-148842830D01*
X240844608Y-148595392D01*
X240597169Y-148392325D01*
X240314868Y-148241432D01*
X240008555Y-148148513D01*
X239690000Y-148117138D01*
X239371444Y-148148513D01*
X239065131Y-148241432D01*
X238782830Y-148392325D01*
X238535392Y-148595392D01*
X238332325Y-148842831D01*
X238181432Y-149125132D01*
X238088513Y-149431445D01*
X238065000Y-149670177D01*
X236325000Y-149670177D01*
X236325000Y-146091725D01*
X237554711Y-144862015D01*
X237586185Y-144836185D01*
X237689281Y-144710563D01*
X237765888Y-144567241D01*
X237813062Y-144411728D01*
X237825000Y-144290521D01*
X237825000Y-144290514D01*
X237828990Y-144250001D01*
X237825000Y-144209488D01*
X237825000Y-143860253D01*
X237908344Y-143735520D01*
X237985610Y-143548982D01*
X238025000Y-143350954D01*
X238025000Y-143149046D01*
X237995353Y-143000000D01*
X241939338Y-143000000D01*
X238714341Y-146225000D01*
X238649046Y-146225000D01*
X238451018Y-146264390D01*
X238264480Y-146341656D01*
X238096600Y-146453830D01*
X237953830Y-146596600D01*
X237841656Y-146764480D01*
X237764390Y-146951018D01*
X237725000Y-147149046D01*
X237725000Y-147350954D01*
X237764390Y-147548982D01*
X237841656Y-147735520D01*
X237953830Y-147903400D01*
X238096600Y-148046170D01*
X238264480Y-148158344D01*
X238451018Y-148235610D01*
X238649046Y-148275000D01*
X238850954Y-148275000D01*
X239048982Y-148235610D01*
X239235520Y-148158344D01*
X239403400Y-148046170D01*
X239546170Y-147903400D01*
X239658344Y-147735520D01*
X239735610Y-147548982D01*
X239775000Y-147350954D01*
X239775000Y-147285659D01*
X242804471Y-144256187D01*
X242899048Y-144275000D01*
X243100956Y-144275000D01*
X243298984Y-144235610D01*
X243485522Y-144158344D01*
X243653402Y-144046170D01*
X243796172Y-143903400D01*
X243908346Y-143735520D01*
X243985612Y-143548982D01*
X244025002Y-143350954D01*
X244025002Y-143149046D01*
X243995355Y-143000000D01*
X245213173Y-143000000D01*
X245250000Y-143003627D01*
X245286827Y-143000000D01*
X245286835Y-143000000D01*
X245397026Y-142989147D01*
X245538401Y-142946261D01*
X245668693Y-142876619D01*
X245782895Y-142782895D01*
X245806378Y-142754281D01*
X246310660Y-142250000D01*
X248463173Y-142250000D01*
X248500000Y-142253627D01*
X248536827Y-142250000D01*
X248536835Y-142250000D01*
X248647026Y-142239147D01*
X248788401Y-142196261D01*
X248918693Y-142126619D01*
X249032895Y-142032895D01*
X249056378Y-142004281D01*
X250310661Y-140750000D01*
X252300430Y-140750000D01*
X252346600Y-140796170D01*
X252514480Y-140908344D01*
X252701018Y-140985610D01*
X252899046Y-141025000D01*
X253100954Y-141025000D01*
X253298982Y-140985610D01*
X253485520Y-140908344D01*
X253653400Y-140796170D01*
X253796170Y-140653400D01*
X253908344Y-140485520D01*
X253985610Y-140298982D01*
X254025000Y-140100954D01*
X254025000Y-139899046D01*
X253985610Y-139701018D01*
X253908344Y-139514480D01*
X253898669Y-139500000D01*
X253908344Y-139485520D01*
X253985610Y-139298982D01*
X254025000Y-139100954D01*
X254025000Y-138899046D01*
X253985610Y-138701018D01*
X253908344Y-138514480D01*
X253796170Y-138346600D01*
X253653400Y-138203830D01*
X253485520Y-138091656D01*
X253298982Y-138014390D01*
X253100954Y-137975000D01*
X252899046Y-137975000D01*
X252701018Y-138014390D01*
X252514480Y-138091656D01*
X252346600Y-138203830D01*
X252300430Y-138250000D01*
X250286827Y-138250000D01*
X250249999Y-138246373D01*
X250213172Y-138250000D01*
X250213165Y-138250000D01*
X250102974Y-138260853D01*
X249961599Y-138303739D01*
X249831307Y-138373381D01*
X249717105Y-138467105D01*
X249693626Y-138495714D01*
X247939341Y-140250000D01*
X245536827Y-140250000D01*
X245499999Y-140246373D01*
X245463171Y-140250000D01*
X245463165Y-140250000D01*
X245367817Y-140259391D01*
X245352973Y-140260853D01*
X245236145Y-140296293D01*
X245275000Y-140100954D01*
X245275000Y-139899046D01*
X245235610Y-139701018D01*
X245158344Y-139514480D01*
X245046170Y-139346600D01*
X244903400Y-139203830D01*
X244735520Y-139091656D01*
X244548982Y-139014390D01*
X244401850Y-138985124D01*
X244075000Y-138658274D01*
X244075000Y-138290512D01*
X244078990Y-138249999D01*
X244075000Y-138209486D01*
X244075000Y-138209479D01*
X244063062Y-138088272D01*
X244015888Y-137932759D01*
X243939281Y-137789437D01*
X243836185Y-137663815D01*
X243804709Y-137637983D01*
X243112020Y-136945295D01*
X243086185Y-136913815D01*
X242960563Y-136810719D01*
X242817241Y-136734112D01*
X242661728Y-136686938D01*
X242540521Y-136675000D01*
X242540513Y-136675000D01*
X242500000Y-136671010D01*
X242459487Y-136675000D01*
X238841726Y-136675000D01*
X238015000Y-135848275D01*
X238015000Y-135070513D01*
X238018990Y-135030000D01*
X238015000Y-134989487D01*
X238015000Y-129452204D01*
X238029758Y-129458317D01*
X238314725Y-129515000D01*
X238605275Y-129515000D01*
X238890242Y-129458317D01*
X239158675Y-129347128D01*
X239400258Y-129185707D01*
X239420965Y-129165000D01*
X240039035Y-129165000D01*
X240059742Y-129185707D01*
X240301325Y-129347128D01*
X240569758Y-129458317D01*
X240854725Y-129515000D01*
X241070457Y-129515000D01*
X242979963Y-131424506D01*
X243023024Y-131476976D01*
X243075492Y-131520035D01*
X243232394Y-131648802D01*
X243282328Y-131675492D01*
X243471264Y-131776481D01*
X243730453Y-131855105D01*
X243932451Y-131875000D01*
X243932460Y-131875000D01*
X243999999Y-131881652D01*
X244067538Y-131875000D01*
X247682461Y-131875000D01*
X247750000Y-131881652D01*
X247817539Y-131875000D01*
X247817549Y-131875000D01*
X248019547Y-131855105D01*
X248278736Y-131776481D01*
X248517605Y-131648802D01*
X248726976Y-131476976D01*
X248770036Y-131424507D01*
X248998027Y-131196516D01*
X249023025Y-131226976D01*
X249075489Y-131270032D01*
X249729963Y-131924506D01*
X249773024Y-131976976D01*
X249982395Y-132148802D01*
X250221264Y-132276481D01*
X250480453Y-132355105D01*
X250682451Y-132375000D01*
X250682460Y-132375000D01*
X250749999Y-132381652D01*
X250817538Y-132375000D01*
X253930457Y-132375000D01*
X254725000Y-133169544D01*
X254725001Y-147932442D01*
X254725000Y-147932452D01*
X254725000Y-149932451D01*
X254718347Y-150000000D01*
X254744895Y-150269547D01*
X254823519Y-150528736D01*
X254951198Y-150767605D01*
X255123024Y-150976976D01*
X255332395Y-151148802D01*
X255571264Y-151276481D01*
X255830453Y-151355105D01*
X256032451Y-151375000D01*
X256100000Y-151381653D01*
X256167549Y-151375000D01*
X256369547Y-151355105D01*
X256628736Y-151276481D01*
X256867605Y-151148802D01*
X257076976Y-150976976D01*
X257248802Y-150767605D01*
X257350000Y-150578278D01*
X257350000Y-156588826D01*
X257204097Y-156370466D01*
X256629534Y-155795903D01*
X255953920Y-155344473D01*
X255203218Y-155033522D01*
X254406277Y-154875000D01*
X253593723Y-154875000D01*
X252796782Y-155033522D01*
X252046080Y-155344473D01*
X251370466Y-155795903D01*
X250795903Y-156370466D01*
X250344473Y-157046080D01*
X250033522Y-157796782D01*
X249875000Y-158593723D01*
X249875000Y-159406277D01*
X250033522Y-160203218D01*
X250344473Y-160953920D01*
X250795903Y-161629534D01*
X251370466Y-162204097D01*
X251588826Y-162350000D01*
X178625000Y-162350000D01*
X178625000Y-154670177D01*
X234255000Y-154670177D01*
X234255000Y-155829824D01*
X234278513Y-156068556D01*
X234371432Y-156374869D01*
X234522326Y-156657170D01*
X234725393Y-156904608D01*
X234972831Y-157107675D01*
X235255132Y-157258568D01*
X235561445Y-157351487D01*
X235880000Y-157382862D01*
X236198556Y-157351487D01*
X236504869Y-157258568D01*
X236787170Y-157107675D01*
X237034608Y-156904608D01*
X237237675Y-156657170D01*
X237388568Y-156374869D01*
X237481487Y-156068556D01*
X237505000Y-155829824D01*
X237505000Y-154670177D01*
X241875000Y-154670177D01*
X241875000Y-155829824D01*
X241898513Y-156068556D01*
X241991432Y-156374869D01*
X242142326Y-156657170D01*
X242345393Y-156904608D01*
X242592831Y-157107675D01*
X242875132Y-157258568D01*
X243181445Y-157351487D01*
X243500000Y-157382862D01*
X243818556Y-157351487D01*
X244124869Y-157258568D01*
X244407170Y-157107675D01*
X244654608Y-156904608D01*
X244857675Y-156657170D01*
X245008568Y-156374869D01*
X245101487Y-156068556D01*
X245125000Y-155829824D01*
X245125000Y-154670176D01*
X245101487Y-154431444D01*
X245008568Y-154125131D01*
X244857675Y-153842830D01*
X244654608Y-153595392D01*
X244407169Y-153392325D01*
X244124868Y-153241432D01*
X243818555Y-153148513D01*
X243500000Y-153117138D01*
X243181444Y-153148513D01*
X242875131Y-153241432D01*
X242592830Y-153392325D01*
X242345392Y-153595392D01*
X242142325Y-153842831D01*
X241991432Y-154125132D01*
X241898513Y-154431445D01*
X241875000Y-154670177D01*
X237505000Y-154670177D01*
X237505000Y-154670176D01*
X237481487Y-154431444D01*
X237388568Y-154125131D01*
X237237675Y-153842830D01*
X237034608Y-153595392D01*
X236787169Y-153392325D01*
X236504868Y-153241432D01*
X236198555Y-153148513D01*
X235880000Y-153117138D01*
X235561444Y-153148513D01*
X235255131Y-153241432D01*
X234972830Y-153392325D01*
X234725392Y-153595392D01*
X234522325Y-153842831D01*
X234371432Y-154125132D01*
X234278513Y-154431445D01*
X234255000Y-154670177D01*
X178625000Y-154670177D01*
X178625000Y-146138245D01*
X180725000Y-146138245D01*
X180725000Y-147861756D01*
X180757918Y-148195978D01*
X180888005Y-148624817D01*
X181099256Y-149020037D01*
X181383550Y-149366451D01*
X181729964Y-149650745D01*
X182125184Y-149861995D01*
X182554023Y-149992082D01*
X183000000Y-150036007D01*
X183445978Y-149992082D01*
X183874817Y-149861995D01*
X184270037Y-149650745D01*
X184616451Y-149366451D01*
X184900745Y-149020037D01*
X185111995Y-148624817D01*
X185242082Y-148195977D01*
X185275000Y-147861755D01*
X185275000Y-147125000D01*
X190225000Y-147125000D01*
X190225000Y-147875000D01*
X190293100Y-148316429D01*
X190446010Y-148736090D01*
X190677853Y-149117856D01*
X190979721Y-149447056D01*
X191340012Y-149711039D01*
X191744881Y-149899661D01*
X192021188Y-149974042D01*
X192375000Y-149865059D01*
X192375000Y-147125000D01*
X192625000Y-147125000D01*
X192625000Y-149865059D01*
X192978812Y-149974042D01*
X193255119Y-149899661D01*
X193659988Y-149711039D01*
X194020279Y-149447056D01*
X194322147Y-149117856D01*
X194553990Y-148736090D01*
X194706900Y-148316429D01*
X194775000Y-147875000D01*
X194775000Y-147125000D01*
X192625000Y-147125000D01*
X192375000Y-147125000D01*
X190225000Y-147125000D01*
X185275000Y-147125000D01*
X185275000Y-146138244D01*
X185273696Y-146125000D01*
X190225000Y-146125000D01*
X190225000Y-146875000D01*
X192375000Y-146875000D01*
X192375000Y-144134941D01*
X192625000Y-144134941D01*
X192625000Y-146875000D01*
X194775000Y-146875000D01*
X194775000Y-146138245D01*
X199725000Y-146138245D01*
X199725000Y-147861756D01*
X199757918Y-148195978D01*
X199888005Y-148624817D01*
X200099256Y-149020037D01*
X200383550Y-149366451D01*
X200729964Y-149650745D01*
X201125184Y-149861995D01*
X201554023Y-149992082D01*
X202000000Y-150036007D01*
X202445978Y-149992082D01*
X202874817Y-149861995D01*
X203270037Y-149650745D01*
X203616451Y-149366451D01*
X203900745Y-149020037D01*
X204111995Y-148624817D01*
X204242082Y-148195977D01*
X204275000Y-147861755D01*
X204275000Y-146138245D01*
X209225000Y-146138245D01*
X209225000Y-147861756D01*
X209257918Y-148195978D01*
X209388005Y-148624817D01*
X209599256Y-149020037D01*
X209883550Y-149366451D01*
X210229964Y-149650745D01*
X210625184Y-149861995D01*
X211054023Y-149992082D01*
X211500000Y-150036007D01*
X211945978Y-149992082D01*
X212374817Y-149861995D01*
X212770037Y-149650745D01*
X213116451Y-149366451D01*
X213400745Y-149020037D01*
X213611995Y-148624817D01*
X213742082Y-148195977D01*
X213775000Y-147861755D01*
X213775000Y-146138245D01*
X218725000Y-146138245D01*
X218725000Y-147861756D01*
X218757918Y-148195978D01*
X218888005Y-148624817D01*
X219099256Y-149020037D01*
X219383550Y-149366451D01*
X219729964Y-149650745D01*
X220125184Y-149861995D01*
X220554023Y-149992082D01*
X221000000Y-150036007D01*
X221445978Y-149992082D01*
X221874817Y-149861995D01*
X222270037Y-149650745D01*
X222616451Y-149366451D01*
X222900745Y-149020037D01*
X223111995Y-148624817D01*
X223242082Y-148195977D01*
X223275000Y-147861755D01*
X223275000Y-146138244D01*
X223242082Y-145804022D01*
X223111995Y-145375183D01*
X222900745Y-144979963D01*
X222616451Y-144633549D01*
X222270037Y-144349255D01*
X221874816Y-144138005D01*
X221445977Y-144007918D01*
X221000000Y-143963993D01*
X220554022Y-144007918D01*
X220125183Y-144138005D01*
X219729963Y-144349255D01*
X219383549Y-144633549D01*
X219099255Y-144979963D01*
X218888005Y-145375184D01*
X218757918Y-145804023D01*
X218725000Y-146138245D01*
X213775000Y-146138245D01*
X213775000Y-146138244D01*
X213742082Y-145804022D01*
X213611995Y-145375183D01*
X213400745Y-144979963D01*
X213116451Y-144633549D01*
X212770037Y-144349255D01*
X212374816Y-144138005D01*
X211945977Y-144007918D01*
X211500000Y-143963993D01*
X211054022Y-144007918D01*
X210625183Y-144138005D01*
X210229963Y-144349255D01*
X209883549Y-144633549D01*
X209599255Y-144979963D01*
X209388005Y-145375184D01*
X209257918Y-145804023D01*
X209225000Y-146138245D01*
X204275000Y-146138245D01*
X204275000Y-146138244D01*
X204242082Y-145804022D01*
X204111995Y-145375183D01*
X203900745Y-144979963D01*
X203616451Y-144633549D01*
X203270037Y-144349255D01*
X202874816Y-144138005D01*
X202445977Y-144007918D01*
X202000000Y-143963993D01*
X201554022Y-144007918D01*
X201125183Y-144138005D01*
X200729963Y-144349255D01*
X200383549Y-144633549D01*
X200099255Y-144979963D01*
X199888005Y-145375184D01*
X199757918Y-145804023D01*
X199725000Y-146138245D01*
X194775000Y-146138245D01*
X194775000Y-146125000D01*
X194706900Y-145683571D01*
X194553990Y-145263910D01*
X194322147Y-144882144D01*
X194020279Y-144552944D01*
X193659988Y-144288961D01*
X193255119Y-144100339D01*
X192978812Y-144025958D01*
X192625000Y-144134941D01*
X192375000Y-144134941D01*
X192021188Y-144025958D01*
X191744881Y-144100339D01*
X191340012Y-144288961D01*
X190979721Y-144552944D01*
X190677853Y-144882144D01*
X190446010Y-145263910D01*
X190293100Y-145683571D01*
X190225000Y-146125000D01*
X185273696Y-146125000D01*
X185242082Y-145804022D01*
X185111995Y-145375183D01*
X184900745Y-144979963D01*
X184616451Y-144633549D01*
X184270037Y-144349255D01*
X183874816Y-144138005D01*
X183445977Y-144007918D01*
X183000000Y-143963993D01*
X182554022Y-144007918D01*
X182125183Y-144138005D01*
X181729963Y-144349255D01*
X181383549Y-144633549D01*
X181099255Y-144979963D01*
X180888005Y-145375184D01*
X180757918Y-145804023D01*
X180725000Y-146138245D01*
X178625000Y-146138245D01*
X178625000Y-127000000D01*
X178622598Y-126975614D01*
X178615485Y-126952165D01*
X178603934Y-126930554D01*
X178588388Y-126911612D01*
X178569446Y-126896066D01*
X178547835Y-126884515D01*
X178524386Y-126877402D01*
X178500000Y-126875000D01*
X171650000Y-126875000D01*
X171650000Y-122110353D01*
X171697056Y-122346917D01*
X171838397Y-122688145D01*
X172043593Y-122995243D01*
X172304757Y-123256407D01*
X172611855Y-123461603D01*
X172953083Y-123602944D01*
X173315329Y-123675000D01*
X173684671Y-123675000D01*
X174046917Y-123602944D01*
X174388145Y-123461603D01*
X174695243Y-123256407D01*
X174956407Y-122995243D01*
X175161603Y-122688145D01*
X175302944Y-122346917D01*
X175375000Y-121984671D01*
X175375000Y-121615329D01*
X175302944Y-121253083D01*
X175161603Y-120911855D01*
X175125000Y-120857075D01*
X175125000Y-113329824D01*
X175132862Y-113250000D01*
X175104267Y-112959666D01*
X175101487Y-112931444D01*
X175008568Y-112625131D01*
X174857675Y-112342830D01*
X174654608Y-112095392D01*
X174592602Y-112044505D01*
X172955499Y-110407403D01*
X172904608Y-110345392D01*
X172657170Y-110142325D01*
X172374869Y-109991432D01*
X172068556Y-109898513D01*
X171829824Y-109875000D01*
X171750000Y-109867138D01*
X171670176Y-109875000D01*
X167298096Y-109875000D01*
X168544332Y-108628764D01*
X171298013Y-108628764D01*
X171394171Y-108890610D01*
X171681910Y-109030854D01*
X171991481Y-109112268D01*
X172310986Y-109131723D01*
X172628147Y-109088472D01*
X172930777Y-108984178D01*
X173105829Y-108890610D01*
X173201987Y-108628764D01*
X172250000Y-107676777D01*
X171298013Y-108628764D01*
X168544332Y-108628764D01*
X169612110Y-107560986D01*
X170618277Y-107560986D01*
X170661528Y-107878147D01*
X170765822Y-108180777D01*
X170859390Y-108355829D01*
X171121236Y-108451987D01*
X172073223Y-107500000D01*
X172426777Y-107500000D01*
X173378764Y-108451987D01*
X173640610Y-108355829D01*
X173780854Y-108068090D01*
X173862268Y-107758519D01*
X173881723Y-107439014D01*
X173838472Y-107121853D01*
X173734178Y-106819223D01*
X173640610Y-106644171D01*
X173378764Y-106548013D01*
X172426777Y-107500000D01*
X172073223Y-107500000D01*
X171121236Y-106548013D01*
X170859390Y-106644171D01*
X170719146Y-106931910D01*
X170637732Y-107241481D01*
X170618277Y-107560986D01*
X169612110Y-107560986D01*
X170801860Y-106371236D01*
X171298013Y-106371236D01*
X172250000Y-107323223D01*
X173073223Y-106500000D01*
X175621976Y-106500000D01*
X175621976Y-108500000D01*
X175634043Y-108622521D01*
X175669781Y-108740334D01*
X175727817Y-108848911D01*
X175805920Y-108944080D01*
X175901089Y-109022183D01*
X176009666Y-109080219D01*
X176127479Y-109115957D01*
X176250000Y-109128024D01*
X178250000Y-109128024D01*
X178372521Y-109115957D01*
X178490334Y-109080219D01*
X178598911Y-109022183D01*
X178694080Y-108944080D01*
X178772183Y-108848911D01*
X178830219Y-108740334D01*
X178865957Y-108622521D01*
X178878024Y-108500000D01*
X178878024Y-106500000D01*
X178865957Y-106377479D01*
X178830219Y-106259666D01*
X178772183Y-106151089D01*
X178694080Y-106055920D01*
X178598911Y-105977817D01*
X178490334Y-105919781D01*
X178372521Y-105884043D01*
X178250000Y-105871976D01*
X176250000Y-105871976D01*
X176127479Y-105884043D01*
X176009666Y-105919781D01*
X175901089Y-105977817D01*
X175805920Y-106055920D01*
X175727817Y-106151089D01*
X175669781Y-106259666D01*
X175634043Y-106377479D01*
X175621976Y-106500000D01*
X173073223Y-106500000D01*
X173201987Y-106371236D01*
X173105829Y-106109390D01*
X172818090Y-105969146D01*
X172508519Y-105887732D01*
X172189014Y-105868277D01*
X171871853Y-105911528D01*
X171569223Y-106015822D01*
X171394171Y-106109390D01*
X171298013Y-106371236D01*
X170801860Y-106371236D01*
X172298097Y-104875000D01*
X179576904Y-104875000D01*
X183875001Y-109173098D01*
G37*
%TD.AperFunction*%
D34*
X225885000Y-127915000D02*
X225905000Y-127915000D01*
X225905000Y-128165000D01*
X225885000Y-128165000D01*
X225885000Y-129352812D01*
X226113372Y-129472045D01*
X226261786Y-129427030D01*
X226275000Y-129420724D01*
X226274999Y-137914341D01*
X225745717Y-138443624D01*
X225717106Y-138467105D01*
X225693627Y-138495714D01*
X225693624Y-138495717D01*
X225678226Y-138514480D01*
X225623382Y-138581307D01*
X225618519Y-138590406D01*
X225553739Y-138711600D01*
X225510853Y-138852975D01*
X225496373Y-139000000D01*
X225500001Y-139036837D01*
X225500000Y-140963172D01*
X225496373Y-141000000D01*
X225500000Y-141036827D01*
X225500000Y-141036834D01*
X225510853Y-141147025D01*
X225553739Y-141288400D01*
X225623381Y-141418692D01*
X225717105Y-141532895D01*
X225745720Y-141556379D01*
X226193621Y-142004280D01*
X226217105Y-142032895D01*
X226331307Y-142126619D01*
X226461599Y-142196261D01*
X226511971Y-142211541D01*
X226596600Y-142296170D01*
X226764480Y-142408344D01*
X226951018Y-142485610D01*
X227149046Y-142525000D01*
X227350954Y-142525000D01*
X227548982Y-142485610D01*
X227735520Y-142408344D01*
X227903400Y-142296170D01*
X227944455Y-142255115D01*
X228443626Y-142754286D01*
X228467105Y-142782895D01*
X228581307Y-142876619D01*
X228711599Y-142946261D01*
X228852973Y-142989147D01*
X228867817Y-142990609D01*
X228963165Y-143000000D01*
X228963171Y-143000000D01*
X228999999Y-143003627D01*
X229036827Y-143000000D01*
X232800430Y-143000000D01*
X232703830Y-143096600D01*
X232591656Y-143264480D01*
X232514390Y-143451018D01*
X232475000Y-143649046D01*
X232475000Y-143850954D01*
X232493812Y-143945528D01*
X230214341Y-146225000D01*
X230149046Y-146225000D01*
X229951018Y-146264390D01*
X229764480Y-146341656D01*
X229596600Y-146453830D01*
X229453830Y-146596600D01*
X229341656Y-146764480D01*
X229264390Y-146951018D01*
X229225000Y-147149046D01*
X229225000Y-147350954D01*
X229264390Y-147548982D01*
X229341656Y-147735520D01*
X229453830Y-147903400D01*
X229596600Y-148046170D01*
X229764480Y-148158344D01*
X229951018Y-148235610D01*
X230149046Y-148275000D01*
X230350954Y-148275000D01*
X230548982Y-148235610D01*
X230735520Y-148158344D01*
X230903400Y-148046170D01*
X231046170Y-147903400D01*
X231158344Y-147735520D01*
X231235610Y-147548982D01*
X231275000Y-147350954D01*
X231275000Y-147285659D01*
X233843483Y-144717177D01*
X233985520Y-144658344D01*
X234153400Y-144546170D01*
X234296170Y-144403400D01*
X234408344Y-144235520D01*
X234485610Y-144048982D01*
X234525000Y-143850954D01*
X234525000Y-143649046D01*
X234485610Y-143451018D01*
X234408344Y-143264480D01*
X234296170Y-143096600D01*
X234199570Y-143000000D01*
X236004647Y-143000000D01*
X235975000Y-143149046D01*
X235975000Y-143350954D01*
X236014390Y-143548982D01*
X236091656Y-143735520D01*
X236175001Y-143860254D01*
X236175001Y-143908274D01*
X234945296Y-145137979D01*
X234913815Y-145163815D01*
X234810719Y-145289438D01*
X234734112Y-145432760D01*
X234686938Y-145588273D01*
X234675000Y-145709480D01*
X234675000Y-145709487D01*
X234671010Y-145750000D01*
X234675000Y-145790513D01*
X234675001Y-150908272D01*
X232908275Y-152675000D01*
X230341727Y-152675000D01*
X228575000Y-150908275D01*
X228575000Y-149670177D01*
X230445000Y-149670177D01*
X230445000Y-150829824D01*
X230468513Y-151068556D01*
X230561432Y-151374869D01*
X230712326Y-151657170D01*
X230915393Y-151904608D01*
X231162831Y-152107675D01*
X231445132Y-152258568D01*
X231751445Y-152351487D01*
X232070000Y-152382862D01*
X232388556Y-152351487D01*
X232694869Y-152258568D01*
X232977170Y-152107675D01*
X233224608Y-151904608D01*
X233427675Y-151657170D01*
X233578568Y-151374869D01*
X233671487Y-151068556D01*
X233695000Y-150829824D01*
X233695000Y-149670176D01*
X233671487Y-149431444D01*
X233578568Y-149125131D01*
X233427675Y-148842830D01*
X233224608Y-148595392D01*
X232977169Y-148392325D01*
X232694868Y-148241432D01*
X232388555Y-148148513D01*
X232070000Y-148117138D01*
X231751444Y-148148513D01*
X231445131Y-148241432D01*
X231162830Y-148392325D01*
X230915392Y-148595392D01*
X230712325Y-148842831D01*
X230561432Y-149125132D01*
X230468513Y-149431445D01*
X230445000Y-149670177D01*
X228575000Y-149670177D01*
X228575000Y-146290512D01*
X228578990Y-146249999D01*
X228575000Y-146209486D01*
X228575000Y-146209479D01*
X228563062Y-146088272D01*
X228556683Y-146067241D01*
X228524710Y-145961843D01*
X228515888Y-145932759D01*
X228439281Y-145789437D01*
X228336185Y-145663815D01*
X228304710Y-145637984D01*
X227683144Y-145016418D01*
X227796170Y-144903392D01*
X227908344Y-144735512D01*
X227985610Y-144548974D01*
X228025000Y-144350946D01*
X228025000Y-144149038D01*
X227985610Y-143951010D01*
X227908344Y-143764472D01*
X227796170Y-143596592D01*
X227653400Y-143453822D01*
X227485520Y-143341648D01*
X227298982Y-143264382D01*
X227100954Y-143224992D01*
X226899046Y-143224992D01*
X226701018Y-143264382D01*
X226514480Y-143341648D01*
X226389747Y-143424992D01*
X226091718Y-143424992D01*
X223825000Y-141158275D01*
X223825000Y-137433412D01*
X223951018Y-137485610D01*
X224149046Y-137525000D01*
X224350954Y-137525000D01*
X224548982Y-137485610D01*
X224735520Y-137408344D01*
X224903400Y-137296170D01*
X225046170Y-137153400D01*
X225158344Y-136985520D01*
X225235610Y-136798982D01*
X225275000Y-136600954D01*
X225275000Y-136399046D01*
X225235610Y-136201018D01*
X225158344Y-136014480D01*
X225046170Y-135846600D01*
X224903400Y-135703830D01*
X224735520Y-135591656D01*
X224548982Y-135514390D01*
X224401849Y-135485124D01*
X223825000Y-134908275D01*
X223825000Y-130040512D01*
X223828990Y-129999999D01*
X223825000Y-129959486D01*
X223825000Y-129959479D01*
X223813062Y-129838272D01*
X223765888Y-129682759D01*
X223689281Y-129539437D01*
X223626571Y-129463025D01*
X223650242Y-129458317D01*
X223918675Y-129347128D01*
X224160258Y-129185707D01*
X224365707Y-128980258D01*
X224495652Y-128785781D01*
X224572188Y-128914496D01*
X224765617Y-129129423D01*
X224997260Y-129302485D01*
X225258214Y-129427030D01*
X225406628Y-129472045D01*
X225635000Y-129352812D01*
X225635000Y-128165000D01*
X225615000Y-128165000D01*
X225615000Y-127915000D01*
X225635000Y-127915000D01*
X225635000Y-127895000D01*
X225885000Y-127895000D01*
X225885000Y-127915000D01*
%TA.AperFunction,Conductor*%
D35*
G36*
X225885000Y-127915000D02*
G01*
X225905000Y-127915000D01*
X225905000Y-128165000D01*
X225885000Y-128165000D01*
X225885000Y-129352812D01*
X226113372Y-129472045D01*
X226261786Y-129427030D01*
X226275000Y-129420724D01*
X226274999Y-137914341D01*
X225745717Y-138443624D01*
X225717106Y-138467105D01*
X225693627Y-138495714D01*
X225693624Y-138495717D01*
X225678226Y-138514480D01*
X225623382Y-138581307D01*
X225618519Y-138590406D01*
X225553739Y-138711600D01*
X225510853Y-138852975D01*
X225496373Y-139000000D01*
X225500001Y-139036837D01*
X225500000Y-140963172D01*
X225496373Y-141000000D01*
X225500000Y-141036827D01*
X225500000Y-141036834D01*
X225510853Y-141147025D01*
X225553739Y-141288400D01*
X225623381Y-141418692D01*
X225717105Y-141532895D01*
X225745720Y-141556379D01*
X226193621Y-142004280D01*
X226217105Y-142032895D01*
X226331307Y-142126619D01*
X226461599Y-142196261D01*
X226511971Y-142211541D01*
X226596600Y-142296170D01*
X226764480Y-142408344D01*
X226951018Y-142485610D01*
X227149046Y-142525000D01*
X227350954Y-142525000D01*
X227548982Y-142485610D01*
X227735520Y-142408344D01*
X227903400Y-142296170D01*
X227944455Y-142255115D01*
X228443626Y-142754286D01*
X228467105Y-142782895D01*
X228581307Y-142876619D01*
X228711599Y-142946261D01*
X228852973Y-142989147D01*
X228867817Y-142990609D01*
X228963165Y-143000000D01*
X228963171Y-143000000D01*
X228999999Y-143003627D01*
X229036827Y-143000000D01*
X232800430Y-143000000D01*
X232703830Y-143096600D01*
X232591656Y-143264480D01*
X232514390Y-143451018D01*
X232475000Y-143649046D01*
X232475000Y-143850954D01*
X232493812Y-143945528D01*
X230214341Y-146225000D01*
X230149046Y-146225000D01*
X229951018Y-146264390D01*
X229764480Y-146341656D01*
X229596600Y-146453830D01*
X229453830Y-146596600D01*
X229341656Y-146764480D01*
X229264390Y-146951018D01*
X229225000Y-147149046D01*
X229225000Y-147350954D01*
X229264390Y-147548982D01*
X229341656Y-147735520D01*
X229453830Y-147903400D01*
X229596600Y-148046170D01*
X229764480Y-148158344D01*
X229951018Y-148235610D01*
X230149046Y-148275000D01*
X230350954Y-148275000D01*
X230548982Y-148235610D01*
X230735520Y-148158344D01*
X230903400Y-148046170D01*
X231046170Y-147903400D01*
X231158344Y-147735520D01*
X231235610Y-147548982D01*
X231275000Y-147350954D01*
X231275000Y-147285659D01*
X233843483Y-144717177D01*
X233985520Y-144658344D01*
X234153400Y-144546170D01*
X234296170Y-144403400D01*
X234408344Y-144235520D01*
X234485610Y-144048982D01*
X234525000Y-143850954D01*
X234525000Y-143649046D01*
X234485610Y-143451018D01*
X234408344Y-143264480D01*
X234296170Y-143096600D01*
X234199570Y-143000000D01*
X236004647Y-143000000D01*
X235975000Y-143149046D01*
X235975000Y-143350954D01*
X236014390Y-143548982D01*
X236091656Y-143735520D01*
X236175001Y-143860254D01*
X236175001Y-143908274D01*
X234945296Y-145137979D01*
X234913815Y-145163815D01*
X234810719Y-145289438D01*
X234734112Y-145432760D01*
X234686938Y-145588273D01*
X234675000Y-145709480D01*
X234675000Y-145709487D01*
X234671010Y-145750000D01*
X234675000Y-145790513D01*
X234675001Y-150908272D01*
X232908275Y-152675000D01*
X230341727Y-152675000D01*
X228575000Y-150908275D01*
X228575000Y-149670177D01*
X230445000Y-149670177D01*
X230445000Y-150829824D01*
X230468513Y-151068556D01*
X230561432Y-151374869D01*
X230712326Y-151657170D01*
X230915393Y-151904608D01*
X231162831Y-152107675D01*
X231445132Y-152258568D01*
X231751445Y-152351487D01*
X232070000Y-152382862D01*
X232388556Y-152351487D01*
X232694869Y-152258568D01*
X232977170Y-152107675D01*
X233224608Y-151904608D01*
X233427675Y-151657170D01*
X233578568Y-151374869D01*
X233671487Y-151068556D01*
X233695000Y-150829824D01*
X233695000Y-149670176D01*
X233671487Y-149431444D01*
X233578568Y-149125131D01*
X233427675Y-148842830D01*
X233224608Y-148595392D01*
X232977169Y-148392325D01*
X232694868Y-148241432D01*
X232388555Y-148148513D01*
X232070000Y-148117138D01*
X231751444Y-148148513D01*
X231445131Y-148241432D01*
X231162830Y-148392325D01*
X230915392Y-148595392D01*
X230712325Y-148842831D01*
X230561432Y-149125132D01*
X230468513Y-149431445D01*
X230445000Y-149670177D01*
X228575000Y-149670177D01*
X228575000Y-146290512D01*
X228578990Y-146249999D01*
X228575000Y-146209486D01*
X228575000Y-146209479D01*
X228563062Y-146088272D01*
X228556683Y-146067241D01*
X228524710Y-145961843D01*
X228515888Y-145932759D01*
X228439281Y-145789437D01*
X228336185Y-145663815D01*
X228304710Y-145637984D01*
X227683144Y-145016418D01*
X227796170Y-144903392D01*
X227908344Y-144735512D01*
X227985610Y-144548974D01*
X228025000Y-144350946D01*
X228025000Y-144149038D01*
X227985610Y-143951010D01*
X227908344Y-143764472D01*
X227796170Y-143596592D01*
X227653400Y-143453822D01*
X227485520Y-143341648D01*
X227298982Y-143264382D01*
X227100954Y-143224992D01*
X226899046Y-143224992D01*
X226701018Y-143264382D01*
X226514480Y-143341648D01*
X226389747Y-143424992D01*
X226091718Y-143424992D01*
X223825000Y-141158275D01*
X223825000Y-137433412D01*
X223951018Y-137485610D01*
X224149046Y-137525000D01*
X224350954Y-137525000D01*
X224548982Y-137485610D01*
X224735520Y-137408344D01*
X224903400Y-137296170D01*
X225046170Y-137153400D01*
X225158344Y-136985520D01*
X225235610Y-136798982D01*
X225275000Y-136600954D01*
X225275000Y-136399046D01*
X225235610Y-136201018D01*
X225158344Y-136014480D01*
X225046170Y-135846600D01*
X224903400Y-135703830D01*
X224735520Y-135591656D01*
X224548982Y-135514390D01*
X224401849Y-135485124D01*
X223825000Y-134908275D01*
X223825000Y-130040512D01*
X223828990Y-129999999D01*
X223825000Y-129959486D01*
X223825000Y-129959479D01*
X223813062Y-129838272D01*
X223765888Y-129682759D01*
X223689281Y-129539437D01*
X223626571Y-129463025D01*
X223650242Y-129458317D01*
X223918675Y-129347128D01*
X224160258Y-129185707D01*
X224365707Y-128980258D01*
X224495652Y-128785781D01*
X224572188Y-128914496D01*
X224765617Y-129129423D01*
X224997260Y-129302485D01*
X225258214Y-129427030D01*
X225406628Y-129472045D01*
X225635000Y-129352812D01*
X225635000Y-128165000D01*
X225615000Y-128165000D01*
X225615000Y-127915000D01*
X225635000Y-127915000D01*
X225635000Y-127895000D01*
X225885000Y-127895000D01*
X225885000Y-127915000D01*
G37*
%TD.AperFunction*%
D34*
X236045000Y-127915000D02*
X236065000Y-127915000D01*
X236065000Y-128165000D01*
X236045000Y-128165000D01*
X236045000Y-129352812D01*
X236273372Y-129472045D01*
X236365000Y-129444254D01*
X236365001Y-134688273D01*
X236128275Y-134925000D01*
X234610253Y-134925000D01*
X234485520Y-134841656D01*
X234298982Y-134764390D01*
X234100954Y-134725000D01*
X233899046Y-134725000D01*
X233701018Y-134764390D01*
X233514480Y-134841656D01*
X233346600Y-134953830D01*
X233203830Y-135096600D01*
X233091656Y-135264480D01*
X233014390Y-135451018D01*
X232975000Y-135649046D01*
X232975000Y-135850954D01*
X233014390Y-136048982D01*
X233091656Y-136235520D01*
X233203830Y-136403400D01*
X233346600Y-136546170D01*
X233514480Y-136658344D01*
X233701018Y-136735610D01*
X233899046Y-136775000D01*
X234100954Y-136775000D01*
X234298982Y-136735610D01*
X234485520Y-136658344D01*
X234610253Y-136575000D01*
X236365000Y-136575000D01*
X236365000Y-136718274D01*
X234348151Y-138735124D01*
X234201018Y-138764390D01*
X234014480Y-138841656D01*
X233846600Y-138953830D01*
X233703830Y-139096600D01*
X233591656Y-139264480D01*
X233514390Y-139451018D01*
X233475000Y-139649046D01*
X233475000Y-139850954D01*
X233514390Y-140048982D01*
X233591656Y-140235520D01*
X233703830Y-140403400D01*
X233846600Y-140546170D01*
X234014480Y-140658344D01*
X234201018Y-140735610D01*
X234399046Y-140775000D01*
X234600954Y-140775000D01*
X234798982Y-140735610D01*
X234985520Y-140658344D01*
X235153400Y-140546170D01*
X235296170Y-140403400D01*
X235408344Y-140235520D01*
X235485610Y-140048982D01*
X235514876Y-139901849D01*
X237625000Y-137791726D01*
X237887984Y-138054710D01*
X237913815Y-138086185D01*
X238039437Y-138189281D01*
X238123312Y-138234113D01*
X238182758Y-138265888D01*
X238307538Y-138303739D01*
X238338272Y-138313062D01*
X238459479Y-138325000D01*
X238459487Y-138325000D01*
X238500000Y-138328990D01*
X238540513Y-138325000D01*
X242158275Y-138325000D01*
X242425000Y-138591726D01*
X242425000Y-138959487D01*
X242421010Y-139000000D01*
X242425000Y-139040513D01*
X242425000Y-139040520D01*
X242436938Y-139161727D01*
X242484112Y-139317240D01*
X242560719Y-139460562D01*
X242663815Y-139586185D01*
X242695295Y-139612020D01*
X243235124Y-140151850D01*
X243264390Y-140298982D01*
X243341656Y-140485520D01*
X243453830Y-140653400D01*
X243596600Y-140796170D01*
X243764480Y-140908344D01*
X243951018Y-140985610D01*
X244023362Y-141000000D01*
X238798008Y-141000000D01*
X238012347Y-140214340D01*
X238012347Y-140149046D01*
X237972957Y-139951018D01*
X237895691Y-139764480D01*
X237783517Y-139596600D01*
X237640747Y-139453830D01*
X237472867Y-139341656D01*
X237286329Y-139264390D01*
X237088301Y-139225000D01*
X236886393Y-139225000D01*
X236688365Y-139264390D01*
X236501827Y-139341656D01*
X236333947Y-139453830D01*
X236191177Y-139596600D01*
X236079003Y-139764480D01*
X236001737Y-139951018D01*
X235962347Y-140149046D01*
X235962347Y-140214340D01*
X235126699Y-141049989D01*
X229497059Y-141049989D01*
X228431668Y-139984599D01*
X228408185Y-139955985D01*
X228293983Y-139862261D01*
X228163691Y-139792619D01*
X228022316Y-139749733D01*
X227990902Y-139746639D01*
X227990902Y-139319757D01*
X229754286Y-137556374D01*
X229782895Y-137532895D01*
X229809892Y-137500000D01*
X229876619Y-137418693D01*
X229946261Y-137288401D01*
X229989147Y-137147026D01*
X229993727Y-137100521D01*
X230000000Y-137036835D01*
X230000000Y-137036828D01*
X230003627Y-137000000D01*
X230000000Y-136963172D01*
X230000000Y-129475160D01*
X230054280Y-129420880D01*
X230082895Y-129397396D01*
X230130232Y-129339716D01*
X230141325Y-129347128D01*
X230409758Y-129458317D01*
X230694725Y-129515000D01*
X230985275Y-129515000D01*
X231270242Y-129458317D01*
X231538675Y-129347128D01*
X231780258Y-129185707D01*
X231985707Y-128980258D01*
X232110000Y-128794241D01*
X232234293Y-128980258D01*
X232439742Y-129185707D01*
X232681325Y-129347128D01*
X232949758Y-129458317D01*
X233234725Y-129515000D01*
X233525275Y-129515000D01*
X233810242Y-129458317D01*
X234078675Y-129347128D01*
X234320258Y-129185707D01*
X234525707Y-128980258D01*
X234655652Y-128785781D01*
X234732188Y-128914496D01*
X234925617Y-129129423D01*
X235157260Y-129302485D01*
X235418214Y-129427030D01*
X235566628Y-129472045D01*
X235795000Y-129352812D01*
X235795000Y-128165000D01*
X235775000Y-128165000D01*
X235775000Y-127915000D01*
X235795000Y-127915000D01*
X235795000Y-127895000D01*
X236045000Y-127895000D01*
X236045000Y-127915000D01*
%TA.AperFunction,Conductor*%
D35*
G36*
X236045000Y-127915000D02*
G01*
X236065000Y-127915000D01*
X236065000Y-128165000D01*
X236045000Y-128165000D01*
X236045000Y-129352812D01*
X236273372Y-129472045D01*
X236365000Y-129444254D01*
X236365001Y-134688273D01*
X236128275Y-134925000D01*
X234610253Y-134925000D01*
X234485520Y-134841656D01*
X234298982Y-134764390D01*
X234100954Y-134725000D01*
X233899046Y-134725000D01*
X233701018Y-134764390D01*
X233514480Y-134841656D01*
X233346600Y-134953830D01*
X233203830Y-135096600D01*
X233091656Y-135264480D01*
X233014390Y-135451018D01*
X232975000Y-135649046D01*
X232975000Y-135850954D01*
X233014390Y-136048982D01*
X233091656Y-136235520D01*
X233203830Y-136403400D01*
X233346600Y-136546170D01*
X233514480Y-136658344D01*
X233701018Y-136735610D01*
X233899046Y-136775000D01*
X234100954Y-136775000D01*
X234298982Y-136735610D01*
X234485520Y-136658344D01*
X234610253Y-136575000D01*
X236365000Y-136575000D01*
X236365000Y-136718274D01*
X234348151Y-138735124D01*
X234201018Y-138764390D01*
X234014480Y-138841656D01*
X233846600Y-138953830D01*
X233703830Y-139096600D01*
X233591656Y-139264480D01*
X233514390Y-139451018D01*
X233475000Y-139649046D01*
X233475000Y-139850954D01*
X233514390Y-140048982D01*
X233591656Y-140235520D01*
X233703830Y-140403400D01*
X233846600Y-140546170D01*
X234014480Y-140658344D01*
X234201018Y-140735610D01*
X234399046Y-140775000D01*
X234600954Y-140775000D01*
X234798982Y-140735610D01*
X234985520Y-140658344D01*
X235153400Y-140546170D01*
X235296170Y-140403400D01*
X235408344Y-140235520D01*
X235485610Y-140048982D01*
X235514876Y-139901849D01*
X237625000Y-137791726D01*
X237887984Y-138054710D01*
X237913815Y-138086185D01*
X238039437Y-138189281D01*
X238123312Y-138234113D01*
X238182758Y-138265888D01*
X238307538Y-138303739D01*
X238338272Y-138313062D01*
X238459479Y-138325000D01*
X238459487Y-138325000D01*
X238500000Y-138328990D01*
X238540513Y-138325000D01*
X242158275Y-138325000D01*
X242425000Y-138591726D01*
X242425000Y-138959487D01*
X242421010Y-139000000D01*
X242425000Y-139040513D01*
X242425000Y-139040520D01*
X242436938Y-139161727D01*
X242484112Y-139317240D01*
X242560719Y-139460562D01*
X242663815Y-139586185D01*
X242695295Y-139612020D01*
X243235124Y-140151850D01*
X243264390Y-140298982D01*
X243341656Y-140485520D01*
X243453830Y-140653400D01*
X243596600Y-140796170D01*
X243764480Y-140908344D01*
X243951018Y-140985610D01*
X244023362Y-141000000D01*
X238798008Y-141000000D01*
X238012347Y-140214340D01*
X238012347Y-140149046D01*
X237972957Y-139951018D01*
X237895691Y-139764480D01*
X237783517Y-139596600D01*
X237640747Y-139453830D01*
X237472867Y-139341656D01*
X237286329Y-139264390D01*
X237088301Y-139225000D01*
X236886393Y-139225000D01*
X236688365Y-139264390D01*
X236501827Y-139341656D01*
X236333947Y-139453830D01*
X236191177Y-139596600D01*
X236079003Y-139764480D01*
X236001737Y-139951018D01*
X235962347Y-140149046D01*
X235962347Y-140214340D01*
X235126699Y-141049989D01*
X229497059Y-141049989D01*
X228431668Y-139984599D01*
X228408185Y-139955985D01*
X228293983Y-139862261D01*
X228163691Y-139792619D01*
X228022316Y-139749733D01*
X227990902Y-139746639D01*
X227990902Y-139319757D01*
X229754286Y-137556374D01*
X229782895Y-137532895D01*
X229809892Y-137500000D01*
X229876619Y-137418693D01*
X229946261Y-137288401D01*
X229989147Y-137147026D01*
X229993727Y-137100521D01*
X230000000Y-137036835D01*
X230000000Y-137036828D01*
X230003627Y-137000000D01*
X230000000Y-136963172D01*
X230000000Y-129475160D01*
X230054280Y-129420880D01*
X230082895Y-129397396D01*
X230130232Y-129339716D01*
X230141325Y-129347128D01*
X230409758Y-129458317D01*
X230694725Y-129515000D01*
X230985275Y-129515000D01*
X231270242Y-129458317D01*
X231538675Y-129347128D01*
X231780258Y-129185707D01*
X231985707Y-128980258D01*
X232110000Y-128794241D01*
X232234293Y-128980258D01*
X232439742Y-129185707D01*
X232681325Y-129347128D01*
X232949758Y-129458317D01*
X233234725Y-129515000D01*
X233525275Y-129515000D01*
X233810242Y-129458317D01*
X234078675Y-129347128D01*
X234320258Y-129185707D01*
X234525707Y-128980258D01*
X234655652Y-128785781D01*
X234732188Y-128914496D01*
X234925617Y-129129423D01*
X235157260Y-129302485D01*
X235418214Y-129427030D01*
X235566628Y-129472045D01*
X235795000Y-129352812D01*
X235795000Y-128165000D01*
X235775000Y-128165000D01*
X235775000Y-127915000D01*
X235795000Y-127915000D01*
X235795000Y-127895000D01*
X236045000Y-127895000D01*
X236045000Y-127915000D01*
G37*
%TD.AperFunction*%
D34*
X251370466Y-100795903D02*
X250795903Y-101370466D01*
X250344473Y-102046080D01*
X250033522Y-102796782D01*
X249875000Y-103593723D01*
X249875000Y-104406277D01*
X250033522Y-105203218D01*
X250344473Y-105953920D01*
X250795903Y-106629534D01*
X251370466Y-107204097D01*
X252046080Y-107655527D01*
X252796782Y-107966478D01*
X253593723Y-108125000D01*
X254406277Y-108125000D01*
X255203218Y-107966478D01*
X255953920Y-107655527D01*
X256629534Y-107204097D01*
X257204097Y-106629534D01*
X257350001Y-106411173D01*
X257350000Y-132021723D01*
X257342849Y-132008344D01*
X257248802Y-131832394D01*
X257120036Y-131675492D01*
X257120028Y-131675484D01*
X257076975Y-131623024D01*
X257024516Y-131579972D01*
X255520036Y-130075493D01*
X255476976Y-130023024D01*
X255267605Y-129851198D01*
X255028736Y-129723519D01*
X254769547Y-129644895D01*
X254567549Y-129625000D01*
X254567539Y-129625000D01*
X254500000Y-129618348D01*
X254432461Y-129625000D01*
X251375000Y-129625000D01*
X251375000Y-128183372D01*
X252067955Y-128183372D01*
X252112970Y-128331786D01*
X252237515Y-128592740D01*
X252410577Y-128824383D01*
X252625504Y-129017812D01*
X252874038Y-129165594D01*
X253146627Y-129262050D01*
X253375000Y-129143449D01*
X253375000Y-127955000D01*
X253625000Y-127955000D01*
X253625000Y-129143449D01*
X253853373Y-129262050D01*
X254125962Y-129165594D01*
X254374496Y-129017812D01*
X254589423Y-128824383D01*
X254762485Y-128592740D01*
X254887030Y-128331786D01*
X254932045Y-128183372D01*
X254812812Y-127955000D01*
X253625000Y-127955000D01*
X253375000Y-127955000D01*
X252187188Y-127955000D01*
X252067955Y-128183372D01*
X251375000Y-128183372D01*
X251375000Y-125428907D01*
X251404608Y-125404608D01*
X251607675Y-125157170D01*
X251758568Y-124874869D01*
X251851487Y-124568556D01*
X251875000Y-124329824D01*
X251875000Y-123829824D01*
X251882862Y-123750000D01*
X251851487Y-123431445D01*
X251842399Y-123401487D01*
X251758568Y-123125131D01*
X251607675Y-122842830D01*
X251404608Y-122595392D01*
X251375000Y-122571093D01*
X251375000Y-121900000D01*
X252021976Y-121900000D01*
X252021976Y-123600000D01*
X252034043Y-123722521D01*
X252069781Y-123840334D01*
X252127817Y-123948911D01*
X252205920Y-124044080D01*
X252301089Y-124122183D01*
X252409666Y-124180219D01*
X252497248Y-124206787D01*
X252354293Y-124349742D01*
X252192872Y-124591325D01*
X252081683Y-124859758D01*
X252025000Y-125144725D01*
X252025000Y-125435275D01*
X252081683Y-125720242D01*
X252192872Y-125988675D01*
X252354293Y-126230258D01*
X252559742Y-126435707D01*
X252754219Y-126565652D01*
X252625504Y-126642188D01*
X252410577Y-126835617D01*
X252237515Y-127067260D01*
X252112970Y-127328214D01*
X252067955Y-127476628D01*
X252187188Y-127705000D01*
X253375000Y-127705000D01*
X253375000Y-127685000D01*
X253625000Y-127685000D01*
X253625000Y-127705000D01*
X254812812Y-127705000D01*
X254932045Y-127476628D01*
X254887030Y-127328214D01*
X254762485Y-127067260D01*
X254589423Y-126835617D01*
X254374496Y-126642188D01*
X254245781Y-126565652D01*
X254440258Y-126435707D01*
X254645707Y-126230258D01*
X254807128Y-125988675D01*
X254918317Y-125720242D01*
X254975000Y-125435275D01*
X254975000Y-125144725D01*
X254918317Y-124859758D01*
X254807128Y-124591325D01*
X254645707Y-124349742D01*
X254502752Y-124206787D01*
X254590334Y-124180219D01*
X254698911Y-124122183D01*
X254794080Y-124044080D01*
X254872183Y-123948911D01*
X254930219Y-123840334D01*
X254965957Y-123722521D01*
X254978024Y-123600000D01*
X254978024Y-121900000D01*
X254965957Y-121777479D01*
X254930219Y-121659666D01*
X254872183Y-121551089D01*
X254794080Y-121455920D01*
X254698911Y-121377817D01*
X254590334Y-121319781D01*
X254472521Y-121284043D01*
X254350000Y-121271976D01*
X252650000Y-121271976D01*
X252527479Y-121284043D01*
X252409666Y-121319781D01*
X252301089Y-121377817D01*
X252205920Y-121455920D01*
X252127817Y-121551089D01*
X252069781Y-121659666D01*
X252034043Y-121777479D01*
X252021976Y-121900000D01*
X251375000Y-121900000D01*
X251375000Y-113829823D01*
X251382862Y-113749999D01*
X251351487Y-113431444D01*
X251334325Y-113374869D01*
X251258568Y-113125131D01*
X251107675Y-112842830D01*
X250904608Y-112595392D01*
X250842602Y-112544505D01*
X245705499Y-107407403D01*
X245654608Y-107345392D01*
X245407170Y-107142325D01*
X245124869Y-106991432D01*
X244818556Y-106898513D01*
X244579824Y-106875000D01*
X244500000Y-106867138D01*
X244420176Y-106875000D01*
X186173097Y-106875000D01*
X182871114Y-103573017D01*
X185870000Y-103573017D01*
X185870000Y-103966983D01*
X185946859Y-104353378D01*
X186097623Y-104717355D01*
X186316499Y-105044926D01*
X186595074Y-105323501D01*
X186922645Y-105542377D01*
X187286622Y-105693141D01*
X187673017Y-105770000D01*
X188066983Y-105770000D01*
X188453378Y-105693141D01*
X188817355Y-105542377D01*
X189144926Y-105323501D01*
X189423501Y-105044926D01*
X189642377Y-104717355D01*
X189793141Y-104353378D01*
X189870000Y-103966983D01*
X189870000Y-103573017D01*
X243870000Y-103573017D01*
X243870000Y-103966983D01*
X243946859Y-104353378D01*
X244097623Y-104717355D01*
X244316499Y-105044926D01*
X244595074Y-105323501D01*
X244922645Y-105542377D01*
X245286622Y-105693141D01*
X245673017Y-105770000D01*
X246066983Y-105770000D01*
X246453378Y-105693141D01*
X246817355Y-105542377D01*
X247144926Y-105323501D01*
X247423501Y-105044926D01*
X247642377Y-104717355D01*
X247793141Y-104353378D01*
X247870000Y-103966983D01*
X247870000Y-103573017D01*
X247793141Y-103186622D01*
X247642377Y-102822645D01*
X247423501Y-102495074D01*
X247144926Y-102216499D01*
X246817355Y-101997623D01*
X246453378Y-101846859D01*
X246066983Y-101770000D01*
X245673017Y-101770000D01*
X245286622Y-101846859D01*
X244922645Y-101997623D01*
X244595074Y-102216499D01*
X244316499Y-102495074D01*
X244097623Y-102822645D01*
X243946859Y-103186622D01*
X243870000Y-103573017D01*
X189870000Y-103573017D01*
X189793141Y-103186622D01*
X189642377Y-102822645D01*
X189423501Y-102495074D01*
X189144926Y-102216499D01*
X188817355Y-101997623D01*
X188453378Y-101846859D01*
X188066983Y-101770000D01*
X187673017Y-101770000D01*
X187286622Y-101846859D01*
X186922645Y-101997623D01*
X186595074Y-102216499D01*
X186316499Y-102495074D01*
X186097623Y-102822645D01*
X185946859Y-103186622D01*
X185870000Y-103573017D01*
X182871114Y-103573017D01*
X181455499Y-102157403D01*
X181404608Y-102095392D01*
X181157170Y-101892325D01*
X180874869Y-101741432D01*
X180568556Y-101648513D01*
X180329824Y-101625000D01*
X180250000Y-101617138D01*
X180170176Y-101625000D01*
X171704824Y-101625000D01*
X171625000Y-101617138D01*
X171545176Y-101625000D01*
X171306444Y-101648513D01*
X171000131Y-101741432D01*
X170717830Y-101892325D01*
X170470392Y-102095392D01*
X170419505Y-102157398D01*
X162701904Y-109875000D01*
X159829821Y-109875000D01*
X159749999Y-109867138D01*
X159670178Y-109875000D01*
X159670176Y-109875000D01*
X159431444Y-109898513D01*
X159125131Y-109991432D01*
X158842830Y-110142325D01*
X158595392Y-110345392D01*
X158544501Y-110407403D01*
X157407401Y-111544503D01*
X157407395Y-111544508D01*
X156372272Y-112579631D01*
X156327479Y-112584043D01*
X156209666Y-112619781D01*
X156101089Y-112677817D01*
X156005920Y-112755920D01*
X155927817Y-112851089D01*
X155869781Y-112959666D01*
X155834043Y-113077479D01*
X155821976Y-113200000D01*
X155821976Y-113216328D01*
X155736065Y-113190712D01*
X154926777Y-114000000D01*
X155736065Y-114809288D01*
X155821976Y-114783672D01*
X155821976Y-114800000D01*
X155834043Y-114922521D01*
X155869781Y-115040334D01*
X155927817Y-115148911D01*
X156005920Y-115244080D01*
X156101089Y-115322183D01*
X156209666Y-115380219D01*
X156327479Y-115415957D01*
X156450000Y-115428024D01*
X156474445Y-115428024D01*
X156625131Y-115508567D01*
X156931445Y-115601487D01*
X157250000Y-115632862D01*
X157568555Y-115601487D01*
X157874869Y-115508567D01*
X158025555Y-115428024D01*
X158050000Y-115428024D01*
X158172521Y-115415957D01*
X158290334Y-115380219D01*
X158398911Y-115322183D01*
X158494080Y-115244080D01*
X158572183Y-115148911D01*
X158630219Y-115040334D01*
X158665957Y-114922521D01*
X158670369Y-114877728D01*
X159705492Y-113842605D01*
X159705497Y-113842599D01*
X160423096Y-113125000D01*
X163295176Y-113125000D01*
X163375000Y-113132862D01*
X163454824Y-113125000D01*
X171076904Y-113125000D01*
X171875001Y-113923098D01*
X171875000Y-120857074D01*
X171838397Y-120911855D01*
X171697056Y-121253083D01*
X171650000Y-121489647D01*
X171650000Y-117218068D01*
X171647292Y-117190576D01*
X171647313Y-117187599D01*
X171646427Y-117178567D01*
X171641379Y-117130534D01*
X171640595Y-117122578D01*
X171640515Y-117122313D01*
X171636227Y-117081519D01*
X171624385Y-117023829D01*
X171613342Y-116965939D01*
X171610719Y-116957251D01*
X171581863Y-116864032D01*
X171559036Y-116809728D01*
X171536963Y-116755096D01*
X171532702Y-116747083D01*
X171486289Y-116661245D01*
X171453342Y-116612400D01*
X171421088Y-116563110D01*
X171415352Y-116556077D01*
X171353150Y-116480888D01*
X171311338Y-116439367D01*
X171270133Y-116397289D01*
X171263140Y-116391504D01*
X171187519Y-116329828D01*
X171138439Y-116297219D01*
X171089832Y-116263937D01*
X171081849Y-116259621D01*
X170995688Y-116213809D01*
X170941235Y-116191365D01*
X170887078Y-116168153D01*
X170878408Y-116165470D01*
X170878407Y-116165470D01*
X170878403Y-116165468D01*
X170878398Y-116165467D01*
X170784990Y-116137265D01*
X170727213Y-116125824D01*
X170669569Y-116113572D01*
X170660555Y-116112625D01*
X170660549Y-116112624D01*
X170660544Y-116112624D01*
X170563635Y-116103122D01*
X170531932Y-116100000D01*
X164468068Y-116100000D01*
X164440576Y-116102708D01*
X164437599Y-116102687D01*
X164428567Y-116103573D01*
X164380534Y-116108621D01*
X164372578Y-116109405D01*
X164372313Y-116109485D01*
X164331519Y-116113773D01*
X164273829Y-116125615D01*
X164215939Y-116136658D01*
X164207251Y-116139281D01*
X164114032Y-116168137D01*
X164059728Y-116190964D01*
X164005096Y-116213037D01*
X163997083Y-116217298D01*
X163911245Y-116263711D01*
X163862400Y-116296658D01*
X163813110Y-116328912D01*
X163806077Y-116334648D01*
X163730888Y-116396850D01*
X163689367Y-116438662D01*
X163647289Y-116479867D01*
X163641504Y-116486860D01*
X163579828Y-116562481D01*
X163547219Y-116611561D01*
X163513937Y-116660168D01*
X163509621Y-116668151D01*
X163463809Y-116754312D01*
X163441365Y-116808765D01*
X163418153Y-116862922D01*
X163415470Y-116871592D01*
X163387265Y-116965010D01*
X163375824Y-117022787D01*
X163363572Y-117080431D01*
X163362625Y-117089445D01*
X163362624Y-117089451D01*
X163362624Y-117089456D01*
X163353102Y-117186574D01*
X163350000Y-117218069D01*
X163350000Y-121489647D01*
X163302944Y-121253083D01*
X163161603Y-120911855D01*
X162956407Y-120604757D01*
X162695243Y-120343593D01*
X162388145Y-120138397D01*
X162046917Y-119997056D01*
X161684671Y-119925000D01*
X161315329Y-119925000D01*
X160953083Y-119997056D01*
X160611855Y-120138397D01*
X160304757Y-120343593D01*
X160043593Y-120604757D01*
X159838397Y-120911855D01*
X159697056Y-121253083D01*
X159625000Y-121615329D01*
X159625000Y-121984671D01*
X159697056Y-122346917D01*
X159838397Y-122688145D01*
X160043593Y-122995243D01*
X160304757Y-123256407D01*
X160611855Y-123461603D01*
X160953083Y-123602944D01*
X161315329Y-123675000D01*
X161684671Y-123675000D01*
X162046917Y-123602944D01*
X162388145Y-123461603D01*
X162695243Y-123256407D01*
X162956407Y-122995243D01*
X163161603Y-122688145D01*
X163302944Y-122346917D01*
X163350000Y-122110353D01*
X163350000Y-126875000D01*
X156500000Y-126875000D01*
X156475614Y-126877402D01*
X156452165Y-126884515D01*
X156430554Y-126896066D01*
X156411612Y-126911612D01*
X156396066Y-126930554D01*
X156384515Y-126952165D01*
X156377402Y-126975614D01*
X156375000Y-127000000D01*
X156375000Y-138198224D01*
X155198224Y-139375000D01*
X147125000Y-139375000D01*
X147125000Y-134128764D01*
X149798013Y-134128764D01*
X149894171Y-134390610D01*
X150181910Y-134530854D01*
X150491481Y-134612268D01*
X150810986Y-134631723D01*
X151128147Y-134588472D01*
X151430777Y-134484178D01*
X151605829Y-134390610D01*
X151701987Y-134128764D01*
X150750000Y-133176777D01*
X149798013Y-134128764D01*
X147125000Y-134128764D01*
X147125000Y-133060986D01*
X149118277Y-133060986D01*
X149161528Y-133378147D01*
X149265822Y-133680777D01*
X149359390Y-133855829D01*
X149621236Y-133951987D01*
X150573223Y-133000000D01*
X150926777Y-133000000D01*
X151878764Y-133951987D01*
X152140610Y-133855829D01*
X152280854Y-133568090D01*
X152362268Y-133258519D01*
X152381723Y-132939014D01*
X152338472Y-132621853D01*
X152234178Y-132319223D01*
X152140610Y-132144171D01*
X151878764Y-132048013D01*
X150926777Y-133000000D01*
X150573223Y-133000000D01*
X149621236Y-132048013D01*
X149359390Y-132144171D01*
X149219146Y-132431910D01*
X149137732Y-132741481D01*
X149118277Y-133060986D01*
X147125000Y-133060986D01*
X147125000Y-131871236D01*
X149798013Y-131871236D01*
X150750000Y-132823223D01*
X151701987Y-131871236D01*
X151605829Y-131609390D01*
X151318090Y-131469146D01*
X151008519Y-131387732D01*
X150689014Y-131368277D01*
X150371853Y-131411528D01*
X150069223Y-131515822D01*
X149894171Y-131609390D01*
X149798013Y-131871236D01*
X147125000Y-131871236D01*
X147125000Y-120000000D01*
X147122598Y-119975614D01*
X147115485Y-119952165D01*
X147103934Y-119930554D01*
X147088388Y-119911612D01*
X143305540Y-116128764D01*
X146048013Y-116128764D01*
X146144171Y-116390610D01*
X146431910Y-116530854D01*
X146741481Y-116612268D01*
X147060986Y-116631723D01*
X147378147Y-116588472D01*
X147680777Y-116484178D01*
X147855829Y-116390610D01*
X147951987Y-116128764D01*
X147000000Y-115176777D01*
X146048013Y-116128764D01*
X143305540Y-116128764D01*
X142237762Y-115060986D01*
X145368277Y-115060986D01*
X145411528Y-115378147D01*
X145515822Y-115680777D01*
X145609390Y-115855829D01*
X145871236Y-115951987D01*
X146823223Y-115000000D01*
X147176777Y-115000000D01*
X148128764Y-115951987D01*
X148390610Y-115855829D01*
X148530854Y-115568090D01*
X148612268Y-115258519D01*
X148628858Y-114986065D01*
X153940712Y-114986065D01*
X154012693Y-115227479D01*
X154266330Y-115347735D01*
X154538553Y-115416198D01*
X154818903Y-115430237D01*
X155096604Y-115389314D01*
X155360986Y-115295000D01*
X155487307Y-115227479D01*
X155559288Y-114986065D01*
X154750000Y-114176777D01*
X153940712Y-114986065D01*
X148628858Y-114986065D01*
X148631723Y-114939014D01*
X148588472Y-114621853D01*
X148484178Y-114319223D01*
X148390610Y-114144171D01*
X148185650Y-114068903D01*
X153319763Y-114068903D01*
X153360686Y-114346604D01*
X153455000Y-114610986D01*
X153522521Y-114737307D01*
X153763935Y-114809288D01*
X154573223Y-114000000D01*
X153763935Y-113190712D01*
X153522521Y-113262693D01*
X153402265Y-113516330D01*
X153333802Y-113788553D01*
X153319763Y-114068903D01*
X148185650Y-114068903D01*
X148128764Y-114048013D01*
X147176777Y-115000000D01*
X146823223Y-115000000D01*
X145871236Y-114048013D01*
X145609390Y-114144171D01*
X145469146Y-114431910D01*
X145387732Y-114741481D01*
X145368277Y-115060986D01*
X142237762Y-115060986D01*
X141048012Y-113871236D01*
X146048013Y-113871236D01*
X147000000Y-114823223D01*
X147951987Y-113871236D01*
X147855829Y-113609390D01*
X147568090Y-113469146D01*
X147258519Y-113387732D01*
X146939014Y-113368277D01*
X146621853Y-113411528D01*
X146319223Y-113515822D01*
X146144171Y-113609390D01*
X146048013Y-113871236D01*
X141048012Y-113871236D01*
X140190711Y-113013935D01*
X153940712Y-113013935D01*
X154750000Y-113823223D01*
X155559288Y-113013935D01*
X155487307Y-112772521D01*
X155233670Y-112652265D01*
X154961447Y-112583802D01*
X154681097Y-112569763D01*
X154403396Y-112610686D01*
X154139014Y-112705000D01*
X154012693Y-112772521D01*
X153940712Y-113013935D01*
X140190711Y-113013935D01*
X138240630Y-111063854D01*
X138176174Y-110979854D01*
X138138820Y-110889673D01*
X138125000Y-110784697D01*
X138125000Y-109000000D01*
X145371976Y-109000000D01*
X145371976Y-111000000D01*
X145384043Y-111122521D01*
X145419781Y-111240334D01*
X145477817Y-111348911D01*
X145555920Y-111444080D01*
X145651089Y-111522183D01*
X145759666Y-111580219D01*
X145877479Y-111615957D01*
X146000000Y-111628024D01*
X148000000Y-111628024D01*
X148122521Y-111615957D01*
X148240334Y-111580219D01*
X148348911Y-111522183D01*
X148444080Y-111444080D01*
X148522183Y-111348911D01*
X148580219Y-111240334D01*
X148615957Y-111122521D01*
X148628024Y-111000000D01*
X148628024Y-109000000D01*
X148615957Y-108877479D01*
X148580219Y-108759666D01*
X148522183Y-108651089D01*
X148444080Y-108555920D01*
X148348911Y-108477817D01*
X148240334Y-108419781D01*
X148122521Y-108384043D01*
X148000000Y-108371976D01*
X146000000Y-108371976D01*
X145877479Y-108384043D01*
X145759666Y-108419781D01*
X145651089Y-108477817D01*
X145555920Y-108555920D01*
X145477817Y-108651089D01*
X145419781Y-108759666D01*
X145384043Y-108877479D01*
X145371976Y-109000000D01*
X138125000Y-109000000D01*
X138125000Y-104486645D01*
X139226501Y-104486645D01*
X139339288Y-104858458D01*
X139548282Y-105263497D01*
X139832280Y-105619981D01*
X140180367Y-105914210D01*
X140579167Y-106134877D01*
X141013354Y-106273502D01*
X141375000Y-106165390D01*
X141375000Y-104125000D01*
X139334855Y-104125000D01*
X139226501Y-104486645D01*
X138125000Y-104486645D01*
X138125000Y-103513355D01*
X139226501Y-103513355D01*
X139334855Y-103875000D01*
X141375000Y-103875000D01*
X141375000Y-101834610D01*
X141625000Y-101834610D01*
X141625000Y-103875000D01*
X141645000Y-103875000D01*
X141645000Y-104125000D01*
X141625000Y-104125000D01*
X141625000Y-106165390D01*
X141986646Y-106273502D01*
X142420833Y-106134877D01*
X142819633Y-105914210D01*
X143167720Y-105619981D01*
X143451718Y-105263497D01*
X143660712Y-104858458D01*
X143744962Y-104580719D01*
X143764348Y-104678178D01*
X143939611Y-105101301D01*
X144194054Y-105482101D01*
X144517899Y-105805946D01*
X144898699Y-106060389D01*
X145321822Y-106235652D01*
X145771007Y-106325000D01*
X146228993Y-106325000D01*
X146678178Y-106235652D01*
X147101301Y-106060389D01*
X147482101Y-105805946D01*
X147805946Y-105482101D01*
X148060389Y-105101301D01*
X148235652Y-104678178D01*
X148325000Y-104228993D01*
X148325000Y-103771007D01*
X148235652Y-103321822D01*
X148060389Y-102898699D01*
X147805946Y-102517899D01*
X147482101Y-102194054D01*
X147101301Y-101939611D01*
X146678178Y-101764348D01*
X146228993Y-101675000D01*
X145771007Y-101675000D01*
X145321822Y-101764348D01*
X144898699Y-101939611D01*
X144517899Y-102194054D01*
X144194054Y-102517899D01*
X143939611Y-102898699D01*
X143764348Y-103321822D01*
X143744962Y-103419281D01*
X143660712Y-103141542D01*
X143451718Y-102736503D01*
X143167720Y-102380019D01*
X142819633Y-102085790D01*
X142420833Y-101865123D01*
X141986646Y-101726498D01*
X141625000Y-101834610D01*
X141375000Y-101834610D01*
X141013354Y-101726498D01*
X140579167Y-101865123D01*
X140180367Y-102085790D01*
X139832280Y-102380019D01*
X139548282Y-102736503D01*
X139339288Y-103141542D01*
X139226501Y-103513355D01*
X138125000Y-103513355D01*
X138125000Y-100650000D01*
X251588826Y-100650000D01*
X251370466Y-100795903D01*
%TA.AperFunction,Conductor*%
D35*
G36*
X251370466Y-100795903D02*
G01*
X250795903Y-101370466D01*
X250344473Y-102046080D01*
X250033522Y-102796782D01*
X249875000Y-103593723D01*
X249875000Y-104406277D01*
X250033522Y-105203218D01*
X250344473Y-105953920D01*
X250795903Y-106629534D01*
X251370466Y-107204097D01*
X252046080Y-107655527D01*
X252796782Y-107966478D01*
X253593723Y-108125000D01*
X254406277Y-108125000D01*
X255203218Y-107966478D01*
X255953920Y-107655527D01*
X256629534Y-107204097D01*
X257204097Y-106629534D01*
X257350001Y-106411173D01*
X257350000Y-132021723D01*
X257342849Y-132008344D01*
X257248802Y-131832394D01*
X257120036Y-131675492D01*
X257120028Y-131675484D01*
X257076975Y-131623024D01*
X257024516Y-131579972D01*
X255520036Y-130075493D01*
X255476976Y-130023024D01*
X255267605Y-129851198D01*
X255028736Y-129723519D01*
X254769547Y-129644895D01*
X254567549Y-129625000D01*
X254567539Y-129625000D01*
X254500000Y-129618348D01*
X254432461Y-129625000D01*
X251375000Y-129625000D01*
X251375000Y-128183372D01*
X252067955Y-128183372D01*
X252112970Y-128331786D01*
X252237515Y-128592740D01*
X252410577Y-128824383D01*
X252625504Y-129017812D01*
X252874038Y-129165594D01*
X253146627Y-129262050D01*
X253375000Y-129143449D01*
X253375000Y-127955000D01*
X253625000Y-127955000D01*
X253625000Y-129143449D01*
X253853373Y-129262050D01*
X254125962Y-129165594D01*
X254374496Y-129017812D01*
X254589423Y-128824383D01*
X254762485Y-128592740D01*
X254887030Y-128331786D01*
X254932045Y-128183372D01*
X254812812Y-127955000D01*
X253625000Y-127955000D01*
X253375000Y-127955000D01*
X252187188Y-127955000D01*
X252067955Y-128183372D01*
X251375000Y-128183372D01*
X251375000Y-125428907D01*
X251404608Y-125404608D01*
X251607675Y-125157170D01*
X251758568Y-124874869D01*
X251851487Y-124568556D01*
X251875000Y-124329824D01*
X251875000Y-123829824D01*
X251882862Y-123750000D01*
X251851487Y-123431445D01*
X251842399Y-123401487D01*
X251758568Y-123125131D01*
X251607675Y-122842830D01*
X251404608Y-122595392D01*
X251375000Y-122571093D01*
X251375000Y-121900000D01*
X252021976Y-121900000D01*
X252021976Y-123600000D01*
X252034043Y-123722521D01*
X252069781Y-123840334D01*
X252127817Y-123948911D01*
X252205920Y-124044080D01*
X252301089Y-124122183D01*
X252409666Y-124180219D01*
X252497248Y-124206787D01*
X252354293Y-124349742D01*
X252192872Y-124591325D01*
X252081683Y-124859758D01*
X252025000Y-125144725D01*
X252025000Y-125435275D01*
X252081683Y-125720242D01*
X252192872Y-125988675D01*
X252354293Y-126230258D01*
X252559742Y-126435707D01*
X252754219Y-126565652D01*
X252625504Y-126642188D01*
X252410577Y-126835617D01*
X252237515Y-127067260D01*
X252112970Y-127328214D01*
X252067955Y-127476628D01*
X252187188Y-127705000D01*
X253375000Y-127705000D01*
X253375000Y-127685000D01*
X253625000Y-127685000D01*
X253625000Y-127705000D01*
X254812812Y-127705000D01*
X254932045Y-127476628D01*
X254887030Y-127328214D01*
X254762485Y-127067260D01*
X254589423Y-126835617D01*
X254374496Y-126642188D01*
X254245781Y-126565652D01*
X254440258Y-126435707D01*
X254645707Y-126230258D01*
X254807128Y-125988675D01*
X254918317Y-125720242D01*
X254975000Y-125435275D01*
X254975000Y-125144725D01*
X254918317Y-124859758D01*
X254807128Y-124591325D01*
X254645707Y-124349742D01*
X254502752Y-124206787D01*
X254590334Y-124180219D01*
X254698911Y-124122183D01*
X254794080Y-124044080D01*
X254872183Y-123948911D01*
X254930219Y-123840334D01*
X254965957Y-123722521D01*
X254978024Y-123600000D01*
X254978024Y-121900000D01*
X254965957Y-121777479D01*
X254930219Y-121659666D01*
X254872183Y-121551089D01*
X254794080Y-121455920D01*
X254698911Y-121377817D01*
X254590334Y-121319781D01*
X254472521Y-121284043D01*
X254350000Y-121271976D01*
X252650000Y-121271976D01*
X252527479Y-121284043D01*
X252409666Y-121319781D01*
X252301089Y-121377817D01*
X252205920Y-121455920D01*
X252127817Y-121551089D01*
X252069781Y-121659666D01*
X252034043Y-121777479D01*
X252021976Y-121900000D01*
X251375000Y-121900000D01*
X251375000Y-113829823D01*
X251382862Y-113749999D01*
X251351487Y-113431444D01*
X251334325Y-113374869D01*
X251258568Y-113125131D01*
X251107675Y-112842830D01*
X250904608Y-112595392D01*
X250842602Y-112544505D01*
X245705499Y-107407403D01*
X245654608Y-107345392D01*
X245407170Y-107142325D01*
X245124869Y-106991432D01*
X244818556Y-106898513D01*
X244579824Y-106875000D01*
X244500000Y-106867138D01*
X244420176Y-106875000D01*
X186173097Y-106875000D01*
X182871114Y-103573017D01*
X185870000Y-103573017D01*
X185870000Y-103966983D01*
X185946859Y-104353378D01*
X186097623Y-104717355D01*
X186316499Y-105044926D01*
X186595074Y-105323501D01*
X186922645Y-105542377D01*
X187286622Y-105693141D01*
X187673017Y-105770000D01*
X188066983Y-105770000D01*
X188453378Y-105693141D01*
X188817355Y-105542377D01*
X189144926Y-105323501D01*
X189423501Y-105044926D01*
X189642377Y-104717355D01*
X189793141Y-104353378D01*
X189870000Y-103966983D01*
X189870000Y-103573017D01*
X243870000Y-103573017D01*
X243870000Y-103966983D01*
X243946859Y-104353378D01*
X244097623Y-104717355D01*
X244316499Y-105044926D01*
X244595074Y-105323501D01*
X244922645Y-105542377D01*
X245286622Y-105693141D01*
X245673017Y-105770000D01*
X246066983Y-105770000D01*
X246453378Y-105693141D01*
X246817355Y-105542377D01*
X247144926Y-105323501D01*
X247423501Y-105044926D01*
X247642377Y-104717355D01*
X247793141Y-104353378D01*
X247870000Y-103966983D01*
X247870000Y-103573017D01*
X247793141Y-103186622D01*
X247642377Y-102822645D01*
X247423501Y-102495074D01*
X247144926Y-102216499D01*
X246817355Y-101997623D01*
X246453378Y-101846859D01*
X246066983Y-101770000D01*
X245673017Y-101770000D01*
X245286622Y-101846859D01*
X244922645Y-101997623D01*
X244595074Y-102216499D01*
X244316499Y-102495074D01*
X244097623Y-102822645D01*
X243946859Y-103186622D01*
X243870000Y-103573017D01*
X189870000Y-103573017D01*
X189793141Y-103186622D01*
X189642377Y-102822645D01*
X189423501Y-102495074D01*
X189144926Y-102216499D01*
X188817355Y-101997623D01*
X188453378Y-101846859D01*
X188066983Y-101770000D01*
X187673017Y-101770000D01*
X187286622Y-101846859D01*
X186922645Y-101997623D01*
X186595074Y-102216499D01*
X186316499Y-102495074D01*
X186097623Y-102822645D01*
X185946859Y-103186622D01*
X185870000Y-103573017D01*
X182871114Y-103573017D01*
X181455499Y-102157403D01*
X181404608Y-102095392D01*
X181157170Y-101892325D01*
X180874869Y-101741432D01*
X180568556Y-101648513D01*
X180329824Y-101625000D01*
X180250000Y-101617138D01*
X180170176Y-101625000D01*
X171704824Y-101625000D01*
X171625000Y-101617138D01*
X171545176Y-101625000D01*
X171306444Y-101648513D01*
X171000131Y-101741432D01*
X170717830Y-101892325D01*
X170470392Y-102095392D01*
X170419505Y-102157398D01*
X162701904Y-109875000D01*
X159829821Y-109875000D01*
X159749999Y-109867138D01*
X159670178Y-109875000D01*
X159670176Y-109875000D01*
X159431444Y-109898513D01*
X159125131Y-109991432D01*
X158842830Y-110142325D01*
X158595392Y-110345392D01*
X158544501Y-110407403D01*
X157407401Y-111544503D01*
X157407395Y-111544508D01*
X156372272Y-112579631D01*
X156327479Y-112584043D01*
X156209666Y-112619781D01*
X156101089Y-112677817D01*
X156005920Y-112755920D01*
X155927817Y-112851089D01*
X155869781Y-112959666D01*
X155834043Y-113077479D01*
X155821976Y-113200000D01*
X155821976Y-113216328D01*
X155736065Y-113190712D01*
X154926777Y-114000000D01*
X155736065Y-114809288D01*
X155821976Y-114783672D01*
X155821976Y-114800000D01*
X155834043Y-114922521D01*
X155869781Y-115040334D01*
X155927817Y-115148911D01*
X156005920Y-115244080D01*
X156101089Y-115322183D01*
X156209666Y-115380219D01*
X156327479Y-115415957D01*
X156450000Y-115428024D01*
X156474445Y-115428024D01*
X156625131Y-115508567D01*
X156931445Y-115601487D01*
X157250000Y-115632862D01*
X157568555Y-115601487D01*
X157874869Y-115508567D01*
X158025555Y-115428024D01*
X158050000Y-115428024D01*
X158172521Y-115415957D01*
X158290334Y-115380219D01*
X158398911Y-115322183D01*
X158494080Y-115244080D01*
X158572183Y-115148911D01*
X158630219Y-115040334D01*
X158665957Y-114922521D01*
X158670369Y-114877728D01*
X159705492Y-113842605D01*
X159705497Y-113842599D01*
X160423096Y-113125000D01*
X163295176Y-113125000D01*
X163375000Y-113132862D01*
X163454824Y-113125000D01*
X171076904Y-113125000D01*
X171875001Y-113923098D01*
X171875000Y-120857074D01*
X171838397Y-120911855D01*
X171697056Y-121253083D01*
X171650000Y-121489647D01*
X171650000Y-117218068D01*
X171647292Y-117190576D01*
X171647313Y-117187599D01*
X171646427Y-117178567D01*
X171641379Y-117130534D01*
X171640595Y-117122578D01*
X171640515Y-117122313D01*
X171636227Y-117081519D01*
X171624385Y-117023829D01*
X171613342Y-116965939D01*
X171610719Y-116957251D01*
X171581863Y-116864032D01*
X171559036Y-116809728D01*
X171536963Y-116755096D01*
X171532702Y-116747083D01*
X171486289Y-116661245D01*
X171453342Y-116612400D01*
X171421088Y-116563110D01*
X171415352Y-116556077D01*
X171353150Y-116480888D01*
X171311338Y-116439367D01*
X171270133Y-116397289D01*
X171263140Y-116391504D01*
X171187519Y-116329828D01*
X171138439Y-116297219D01*
X171089832Y-116263937D01*
X171081849Y-116259621D01*
X170995688Y-116213809D01*
X170941235Y-116191365D01*
X170887078Y-116168153D01*
X170878408Y-116165470D01*
X170878407Y-116165470D01*
X170878403Y-116165468D01*
X170878398Y-116165467D01*
X170784990Y-116137265D01*
X170727213Y-116125824D01*
X170669569Y-116113572D01*
X170660555Y-116112625D01*
X170660549Y-116112624D01*
X170660544Y-116112624D01*
X170563635Y-116103122D01*
X170531932Y-116100000D01*
X164468068Y-116100000D01*
X164440576Y-116102708D01*
X164437599Y-116102687D01*
X164428567Y-116103573D01*
X164380534Y-116108621D01*
X164372578Y-116109405D01*
X164372313Y-116109485D01*
X164331519Y-116113773D01*
X164273829Y-116125615D01*
X164215939Y-116136658D01*
X164207251Y-116139281D01*
X164114032Y-116168137D01*
X164059728Y-116190964D01*
X164005096Y-116213037D01*
X163997083Y-116217298D01*
X163911245Y-116263711D01*
X163862400Y-116296658D01*
X163813110Y-116328912D01*
X163806077Y-116334648D01*
X163730888Y-116396850D01*
X163689367Y-116438662D01*
X163647289Y-116479867D01*
X163641504Y-116486860D01*
X163579828Y-116562481D01*
X163547219Y-116611561D01*
X163513937Y-116660168D01*
X163509621Y-116668151D01*
X163463809Y-116754312D01*
X163441365Y-116808765D01*
X163418153Y-116862922D01*
X163415470Y-116871592D01*
X163387265Y-116965010D01*
X163375824Y-117022787D01*
X163363572Y-117080431D01*
X163362625Y-117089445D01*
X163362624Y-117089451D01*
X163362624Y-117089456D01*
X163353102Y-117186574D01*
X163350000Y-117218069D01*
X163350000Y-121489647D01*
X163302944Y-121253083D01*
X163161603Y-120911855D01*
X162956407Y-120604757D01*
X162695243Y-120343593D01*
X162388145Y-120138397D01*
X162046917Y-119997056D01*
X161684671Y-119925000D01*
X161315329Y-119925000D01*
X160953083Y-119997056D01*
X160611855Y-120138397D01*
X160304757Y-120343593D01*
X160043593Y-120604757D01*
X159838397Y-120911855D01*
X159697056Y-121253083D01*
X159625000Y-121615329D01*
X159625000Y-121984671D01*
X159697056Y-122346917D01*
X159838397Y-122688145D01*
X160043593Y-122995243D01*
X160304757Y-123256407D01*
X160611855Y-123461603D01*
X160953083Y-123602944D01*
X161315329Y-123675000D01*
X161684671Y-123675000D01*
X162046917Y-123602944D01*
X162388145Y-123461603D01*
X162695243Y-123256407D01*
X162956407Y-122995243D01*
X163161603Y-122688145D01*
X163302944Y-122346917D01*
X163350000Y-122110353D01*
X163350000Y-126875000D01*
X156500000Y-126875000D01*
X156475614Y-126877402D01*
X156452165Y-126884515D01*
X156430554Y-126896066D01*
X156411612Y-126911612D01*
X156396066Y-126930554D01*
X156384515Y-126952165D01*
X156377402Y-126975614D01*
X156375000Y-127000000D01*
X156375000Y-138198224D01*
X155198224Y-139375000D01*
X147125000Y-139375000D01*
X147125000Y-134128764D01*
X149798013Y-134128764D01*
X149894171Y-134390610D01*
X150181910Y-134530854D01*
X150491481Y-134612268D01*
X150810986Y-134631723D01*
X151128147Y-134588472D01*
X151430777Y-134484178D01*
X151605829Y-134390610D01*
X151701987Y-134128764D01*
X150750000Y-133176777D01*
X149798013Y-134128764D01*
X147125000Y-134128764D01*
X147125000Y-133060986D01*
X149118277Y-133060986D01*
X149161528Y-133378147D01*
X149265822Y-133680777D01*
X149359390Y-133855829D01*
X149621236Y-133951987D01*
X150573223Y-133000000D01*
X150926777Y-133000000D01*
X151878764Y-133951987D01*
X152140610Y-133855829D01*
X152280854Y-133568090D01*
X152362268Y-133258519D01*
X152381723Y-132939014D01*
X152338472Y-132621853D01*
X152234178Y-132319223D01*
X152140610Y-132144171D01*
X151878764Y-132048013D01*
X150926777Y-133000000D01*
X150573223Y-133000000D01*
X149621236Y-132048013D01*
X149359390Y-132144171D01*
X149219146Y-132431910D01*
X149137732Y-132741481D01*
X149118277Y-133060986D01*
X147125000Y-133060986D01*
X147125000Y-131871236D01*
X149798013Y-131871236D01*
X150750000Y-132823223D01*
X151701987Y-131871236D01*
X151605829Y-131609390D01*
X151318090Y-131469146D01*
X151008519Y-131387732D01*
X150689014Y-131368277D01*
X150371853Y-131411528D01*
X150069223Y-131515822D01*
X149894171Y-131609390D01*
X149798013Y-131871236D01*
X147125000Y-131871236D01*
X147125000Y-120000000D01*
X147122598Y-119975614D01*
X147115485Y-119952165D01*
X147103934Y-119930554D01*
X147088388Y-119911612D01*
X143305540Y-116128764D01*
X146048013Y-116128764D01*
X146144171Y-116390610D01*
X146431910Y-116530854D01*
X146741481Y-116612268D01*
X147060986Y-116631723D01*
X147378147Y-116588472D01*
X147680777Y-116484178D01*
X147855829Y-116390610D01*
X147951987Y-116128764D01*
X147000000Y-115176777D01*
X146048013Y-116128764D01*
X143305540Y-116128764D01*
X142237762Y-115060986D01*
X145368277Y-115060986D01*
X145411528Y-115378147D01*
X145515822Y-115680777D01*
X145609390Y-115855829D01*
X145871236Y-115951987D01*
X146823223Y-115000000D01*
X147176777Y-115000000D01*
X148128764Y-115951987D01*
X148390610Y-115855829D01*
X148530854Y-115568090D01*
X148612268Y-115258519D01*
X148628858Y-114986065D01*
X153940712Y-114986065D01*
X154012693Y-115227479D01*
X154266330Y-115347735D01*
X154538553Y-115416198D01*
X154818903Y-115430237D01*
X155096604Y-115389314D01*
X155360986Y-115295000D01*
X155487307Y-115227479D01*
X155559288Y-114986065D01*
X154750000Y-114176777D01*
X153940712Y-114986065D01*
X148628858Y-114986065D01*
X148631723Y-114939014D01*
X148588472Y-114621853D01*
X148484178Y-114319223D01*
X148390610Y-114144171D01*
X148185650Y-114068903D01*
X153319763Y-114068903D01*
X153360686Y-114346604D01*
X153455000Y-114610986D01*
X153522521Y-114737307D01*
X153763935Y-114809288D01*
X154573223Y-114000000D01*
X153763935Y-113190712D01*
X153522521Y-113262693D01*
X153402265Y-113516330D01*
X153333802Y-113788553D01*
X153319763Y-114068903D01*
X148185650Y-114068903D01*
X148128764Y-114048013D01*
X147176777Y-115000000D01*
X146823223Y-115000000D01*
X145871236Y-114048013D01*
X145609390Y-114144171D01*
X145469146Y-114431910D01*
X145387732Y-114741481D01*
X145368277Y-115060986D01*
X142237762Y-115060986D01*
X141048012Y-113871236D01*
X146048013Y-113871236D01*
X147000000Y-114823223D01*
X147951987Y-113871236D01*
X147855829Y-113609390D01*
X147568090Y-113469146D01*
X147258519Y-113387732D01*
X146939014Y-113368277D01*
X146621853Y-113411528D01*
X146319223Y-113515822D01*
X146144171Y-113609390D01*
X146048013Y-113871236D01*
X141048012Y-113871236D01*
X140190711Y-113013935D01*
X153940712Y-113013935D01*
X154750000Y-113823223D01*
X155559288Y-113013935D01*
X155487307Y-112772521D01*
X155233670Y-112652265D01*
X154961447Y-112583802D01*
X154681097Y-112569763D01*
X154403396Y-112610686D01*
X154139014Y-112705000D01*
X154012693Y-112772521D01*
X153940712Y-113013935D01*
X140190711Y-113013935D01*
X138240630Y-111063854D01*
X138176174Y-110979854D01*
X138138820Y-110889673D01*
X138125000Y-110784697D01*
X138125000Y-109000000D01*
X145371976Y-109000000D01*
X145371976Y-111000000D01*
X145384043Y-111122521D01*
X145419781Y-111240334D01*
X145477817Y-111348911D01*
X145555920Y-111444080D01*
X145651089Y-111522183D01*
X145759666Y-111580219D01*
X145877479Y-111615957D01*
X146000000Y-111628024D01*
X148000000Y-111628024D01*
X148122521Y-111615957D01*
X148240334Y-111580219D01*
X148348911Y-111522183D01*
X148444080Y-111444080D01*
X148522183Y-111348911D01*
X148580219Y-111240334D01*
X148615957Y-111122521D01*
X148628024Y-111000000D01*
X148628024Y-109000000D01*
X148615957Y-108877479D01*
X148580219Y-108759666D01*
X148522183Y-108651089D01*
X148444080Y-108555920D01*
X148348911Y-108477817D01*
X148240334Y-108419781D01*
X148122521Y-108384043D01*
X148000000Y-108371976D01*
X146000000Y-108371976D01*
X145877479Y-108384043D01*
X145759666Y-108419781D01*
X145651089Y-108477817D01*
X145555920Y-108555920D01*
X145477817Y-108651089D01*
X145419781Y-108759666D01*
X145384043Y-108877479D01*
X145371976Y-109000000D01*
X138125000Y-109000000D01*
X138125000Y-104486645D01*
X139226501Y-104486645D01*
X139339288Y-104858458D01*
X139548282Y-105263497D01*
X139832280Y-105619981D01*
X140180367Y-105914210D01*
X140579167Y-106134877D01*
X141013354Y-106273502D01*
X141375000Y-106165390D01*
X141375000Y-104125000D01*
X139334855Y-104125000D01*
X139226501Y-104486645D01*
X138125000Y-104486645D01*
X138125000Y-103513355D01*
X139226501Y-103513355D01*
X139334855Y-103875000D01*
X141375000Y-103875000D01*
X141375000Y-101834610D01*
X141625000Y-101834610D01*
X141625000Y-103875000D01*
X141645000Y-103875000D01*
X141645000Y-104125000D01*
X141625000Y-104125000D01*
X141625000Y-106165390D01*
X141986646Y-106273502D01*
X142420833Y-106134877D01*
X142819633Y-105914210D01*
X143167720Y-105619981D01*
X143451718Y-105263497D01*
X143660712Y-104858458D01*
X143744962Y-104580719D01*
X143764348Y-104678178D01*
X143939611Y-105101301D01*
X144194054Y-105482101D01*
X144517899Y-105805946D01*
X144898699Y-106060389D01*
X145321822Y-106235652D01*
X145771007Y-106325000D01*
X146228993Y-106325000D01*
X146678178Y-106235652D01*
X147101301Y-106060389D01*
X147482101Y-105805946D01*
X147805946Y-105482101D01*
X148060389Y-105101301D01*
X148235652Y-104678178D01*
X148325000Y-104228993D01*
X148325000Y-103771007D01*
X148235652Y-103321822D01*
X148060389Y-102898699D01*
X147805946Y-102517899D01*
X147482101Y-102194054D01*
X147101301Y-101939611D01*
X146678178Y-101764348D01*
X146228993Y-101675000D01*
X145771007Y-101675000D01*
X145321822Y-101764348D01*
X144898699Y-101939611D01*
X144517899Y-102194054D01*
X144194054Y-102517899D01*
X143939611Y-102898699D01*
X143764348Y-103321822D01*
X143744962Y-103419281D01*
X143660712Y-103141542D01*
X143451718Y-102736503D01*
X143167720Y-102380019D01*
X142819633Y-102085790D01*
X142420833Y-101865123D01*
X141986646Y-101726498D01*
X141625000Y-101834610D01*
X141375000Y-101834610D01*
X141013354Y-101726498D01*
X140579167Y-101865123D01*
X140180367Y-102085790D01*
X139832280Y-102380019D01*
X139548282Y-102736503D01*
X139339288Y-103141542D01*
X139226501Y-103513355D01*
X138125000Y-103513355D01*
X138125000Y-100650000D01*
X251588826Y-100650000D01*
X251370466Y-100795903D01*
G37*
%TD.AperFunction*%
D34*
X227869758Y-129458317D02*
X228154725Y-129515000D01*
X228445275Y-129515000D01*
X228500000Y-129504115D01*
X228500001Y-136689339D01*
X227774999Y-137414341D01*
X227774999Y-129419066D01*
X227869758Y-129458317D01*
%TA.AperFunction,Conductor*%
D35*
G36*
X227869758Y-129458317D02*
G01*
X228154725Y-129515000D01*
X228445275Y-129515000D01*
X228500000Y-129504115D01*
X228500001Y-136689339D01*
X227774999Y-137414341D01*
X227774999Y-129419066D01*
X227869758Y-129458317D01*
G37*
%TD.AperFunction*%
D34*
X230965000Y-125375000D02*
X230985000Y-125375000D01*
X230985000Y-125625000D01*
X230965000Y-125625000D01*
X230965000Y-125645000D01*
X230715000Y-125645000D01*
X230715000Y-125625000D01*
X230695000Y-125625000D01*
X230695000Y-125375000D01*
X230715000Y-125375000D01*
X230715000Y-125355000D01*
X230965000Y-125355000D01*
X230965000Y-125375000D01*
%TA.AperFunction,Conductor*%
D35*
G36*
X230965000Y-125375000D02*
G01*
X230985000Y-125375000D01*
X230985000Y-125625000D01*
X230965000Y-125625000D01*
X230965000Y-125645000D01*
X230715000Y-125645000D01*
X230715000Y-125625000D01*
X230695000Y-125625000D01*
X230695000Y-125375000D01*
X230715000Y-125375000D01*
X230715000Y-125355000D01*
X230965000Y-125355000D01*
X230965000Y-125375000D01*
G37*
%TD.AperFunction*%
%TD*%
M02*
