M48
; DRILL file {KiCad 5.1.10} date Tue Dec  7 00:10:22 2021
; FORMAT={-:-/ absolute / metric / decimal}
; #@! TF.CreationDate,2021-12-07T00:10:22-05:00
; #@! TF.GenerationSoftware,Kicad,Pcbnew,5.1.10
; #@! TF.FileFunction,Plated,1,2,PTH
FMAT,2
METRIC
T1C0.400
T2C0.800
T3C1.000
T4C1.200
T5C1.300
T6C1.500
T7C1.600
T8C1.800
%
G90
G05
T1
X153.75Y-127.75
X160.0Y-111.0
X160.0Y-112.0
X161.0Y-111.0
X161.0Y-112.0
X162.0Y-111.0
X162.0Y-112.0
X181.0Y-129.25
X183.25Y-114.5
X185.25Y-121.25
X185.75Y-120.0
X199.75Y-138.25
X200.5Y-139.0
X208.25Y-138.25
X209.0Y-139.0
X212.0Y-130.25
X212.25Y-132.25
X213.1Y-131.1
X214.0Y-133.5
X214.5Y-139.5
X215.0Y-136.75
X215.0Y-137.75
X215.6Y-132.1
X215.75Y-134.5
X216.25Y-140.75
X217.5Y-136.75
X217.5Y-137.75
X217.75Y-134.5
X218.1Y-132.1
X219.75Y-134.5
X220.5Y-129.75
X220.7Y-131.1
X222.0Y-130.5
X222.0Y-134.5
X224.0Y-130.5
X224.0Y-134.5
X224.25Y-136.5
X225.25Y-139.75
X226.0Y-130.5
X226.0Y-134.5
X227.0Y-144.25
X227.241Y-140.489
X227.25Y-141.5
X228.25Y-130.5
X228.25Y-134.5
X229.5Y-143.25
X230.0Y-139.75
X230.25Y-130.5
X230.25Y-134.5
X230.25Y-147.25
X231.0Y-136.0
X231.0Y-138.75
X231.0Y-140.75
X232.0Y-130.5
X232.0Y-134.5
X232.0Y-139.75
X233.5Y-143.75
X233.75Y-134.5
X234.0Y-130.5
X234.0Y-135.75
X234.5Y-139.75
X235.5Y-143.25
X236.0Y-130.5
X236.0Y-134.5
X236.75Y-116.75
X236.987Y-140.25
X237.0Y-141.5
X237.0Y-143.25
X238.25Y-130.5
X238.25Y-135.25
X238.75Y-143.25
X238.75Y-147.25
X239.5Y-136.0
X239.75Y-139.75
X240.25Y-131.25
X240.75Y-138.75
X240.75Y-140.75
X241.5Y-136.0
X241.75Y-139.75
X242.25Y-132.25
X243.0Y-143.25
X243.5Y-136.75
X244.25Y-132.25
X244.25Y-140.0
X244.5Y-138.75
X245.25Y-144.25
X245.75Y-140.0
X246.0Y-133.25
X246.5Y-142.5
X246.75Y-144.25
X247.5Y-118.0
X247.5Y-134.75
X248.0Y-136.75
X248.0Y-145.5
X249.5Y-138.25
X249.5Y-147.0
X249.75Y-124.0
X250.75Y-124.0
X253.0Y-137.0
X253.0Y-139.0
X253.0Y-140.0
X253.0Y-141.0
X253.0Y-147.0
X256.1Y-148.0
X256.1Y-149.0
X256.1Y-150.0
T2
X103.75Y-149.5
X106.65Y-142.0
X122.34Y-146.25
X132.5Y-146.25
X154.75Y-114.0
X157.25Y-114.0
T3
X138.25Y-133.0
X147.0Y-110.0
X147.0Y-115.0
X150.75Y-133.0
X172.25Y-107.5
X177.25Y-107.5
X192.74Y-125.5
X192.74Y-128.04
X195.28Y-125.5
X195.28Y-128.04
X197.82Y-125.5
X197.82Y-128.04
X200.36Y-125.5
X200.36Y-128.04
X202.9Y-125.5
X202.9Y-128.04
X205.44Y-125.5
X205.44Y-128.04
X207.98Y-125.5
X207.98Y-128.04
X210.52Y-125.5
X210.52Y-128.04
X213.06Y-125.5
X213.06Y-128.04
X215.6Y-125.5
X215.6Y-128.04
X218.14Y-125.5
X218.14Y-128.04
X220.68Y-125.5
X220.68Y-128.04
X223.22Y-125.5
X223.22Y-128.04
X225.76Y-125.5
X225.76Y-128.04
X228.3Y-125.5
X228.3Y-128.04
X230.84Y-125.5
X230.84Y-128.04
X232.07Y-150.25
X233.38Y-125.5
X233.38Y-128.04
X235.88Y-155.25
X235.92Y-125.5
X235.92Y-128.04
X238.46Y-125.5
X238.46Y-128.04
X239.69Y-150.25
X241.0Y-125.5
X241.0Y-128.04
X243.5Y-155.25
X253.5Y-122.75
X253.5Y-125.29
X253.5Y-127.83
T4
X120.18Y-158.25
X123.0Y-151.75
X129.75Y-124.0
X134.75Y-124.0
X138.0Y-151.75
X140.5Y-158.25
T5
X161.5Y-121.8
X161.5Y-134.0
X167.5Y-119.8
X173.5Y-121.8
X173.5Y-134.0
T6
X114.5Y-132.4
X114.5Y-155.0
X115.5Y-115.0
X115.5Y-124.5
T7
X127.0Y-137.5
X133.0Y-137.5
T8
X154.5Y-147.0
X164.0Y-147.0
X173.5Y-147.0
X183.0Y-147.0
X192.5Y-147.0
X202.0Y-147.0
X211.5Y-147.0
X221.0Y-147.0
T4
G00X114.9Y-104.0
M15
G01X116.1Y-104.0
M16
G05
G00X119.4Y-104.0
M15
G01X120.6Y-104.0
M16
G05
G00X123.9Y-104.0
M15
G01X125.1Y-104.0
M16
G05
G00X128.4Y-104.0
M15
G01X129.6Y-104.0
M16
G05
G00X140.9Y-104.0
M15
G01X142.1Y-104.0
M16
G05
G00X145.4Y-104.0
M15
G01X146.6Y-104.0
M16
G05
T0
M30
